<?xml version="1.0" encoding="UTF-8" standalone="no"?>
<!DOCTYPE svg PUBLIC "-//W3C//DTD SVG 1.1//EN" "http://www.w3.org/Graphics/SVG/1.1/DTD/svg11.dtd">
<svg xmlns="http://www.w3.org/2000/svg" xmlns:xlink="http://www.w3.org/1999/xlink" version="1.1" width="203.753pt" height="171.145pt" viewBox="0 0 203.753 171.145">
<g enable-background="new">
<path transform="matrix(1,0,0,-1,3.321,167.824)" stroke-width=".19925" stroke-linecap="butt" stroke-miterlimit="10" stroke-linejoin="miter" fill="none" stroke="#808080" d="M 21.58528 60.06541 L 21.58528 62.90033 M 64.75586 60.06541 L 64.75586 62.90033 M 107.92644 60.06541 L 107.92644 62.90033 M 151.09702 60.06541 L 151.09702 62.90033 M 194.2676 60.06541 L 194.2676 62.90033 "/>
<path transform="matrix(1,0,0,-1,3.321,167.824)" stroke-width=".19925" stroke-linecap="butt" stroke-miterlimit="10" stroke-linejoin="miter" fill="none" stroke="#808080" d="M 0 59.35689 L 0 63.60884 M 43.17058 59.35689 L 43.17058 63.60884 M 86.34116 59.35689 L 86.34116 63.60884 M 172.68231 59.35689 L 172.68231 63.60884 "/>
<path transform="matrix(1,0,0,-1,3.321,167.824)" stroke-width=".19925" stroke-linecap="butt" stroke-miterlimit="10" stroke-linejoin="miter" fill="none" stroke="#808080" d="M 128.0943 15.37071 L 130.92914 15.37071 M 128.0943 46.11215 L 130.92914 46.11215 M 128.0943 76.85359 L 130.92914 76.85359 M 128.0943 107.59503 L 130.92914 107.59503 M 128.0943 138.33647 L 130.92914 138.33647 "/>
<path transform="matrix(1,0,0,-1,3.321,167.824)" stroke-width=".19925" stroke-linecap="butt" stroke-miterlimit="10" stroke-linejoin="miter" fill="none" stroke="#808080" d="M 127.38579 0 L 131.63765 0 M 127.38579 30.74144 L 131.63765 30.74144 M 127.38579 92.22432 L 131.63765 92.22432 M 127.38579 122.96576 L 131.63765 122.96576 M 127.38579 153.7072 L 131.63765 153.7072 "/>
<path transform="matrix(1,0,0,-1,3.321,167.824)" stroke-width=".3985" stroke-linecap="butt" stroke-miterlimit="10" stroke-linejoin="miter" fill="none" stroke="#000000" d="M 0 61.48288 L 192.27507 61.48288 "/>
<path transform="matrix(1,0,0,-1,195.59607,106.341129)" d="M 1.99252 0 L -1.19551 1.59401 L 0 0 L -1.19551 -1.59401 "/>
<path transform="matrix(1,0,0,-1,3.321,167.824)" stroke-width=".3985" stroke-linecap="butt" stroke-miterlimit="10" stroke-linejoin="miter" fill="none" stroke="#000000" d="M 129.51174 0 L 129.51174 159.40004 "/>
<path transform="matrix(0,-1,-1,-0,132.83274,8.423965)" d="M 1.99252 0 L -1.19551 1.59401 L 0 0 L -1.19551 -1.59401 "/>
<clipPath id="cp0">
<path transform="matrix(1,0,0,-1,3.321,167.824)" d="M 0 0 L 194.2676 0 L 194.2676 161.39257 L 0 161.39257 Z "/>
</clipPath>
<g clip-path="url(#cp0)">
<path transform="matrix(1,0,0,-1,3.321,167.824)" stroke-width=".3985" stroke-linecap="butt" stroke-miterlimit="10" stroke-linejoin="miter" fill="none" stroke="#000000" d="M 8.71414 94.99486 L 15.82916 54.89008 L 23.02423 29.64899 L 30.21928 16.6482 L 37.41435 13.09837 L 44.60942 16.49486 L 51.80449 24.61757 L 58.99956 35.53046 L 66.19463 47.58313 L 73.38968 59.40897 L 80.58475 69.9264 L 87.77982 78.33853 L 94.97488 84.13293 L 102.16997 87.08188 L 109.36504 87.2423 L 116.5601 84.9557 L 123.75516 80.84833 L 130.95023 75.83096 L 138.1453 71.09909 L 145.34037 68.13284 L 152.53543 68.69691 L 159.7305 74.84071 L 166.92555 88.89825 L 174.12064 113.48816 L 181.23052 151.06354 "/>
<path transform="matrix(-.17467,-.9846,-.9846,.17467,12.03516,72.82916)" stroke-width=".31879" stroke-linecap="round" stroke-linejoin="round" fill="none" stroke="#000000" d="M -1.19551 1.59401 C -1.09587 .99626 0 .09961 .29886 0 C 0 -.09961 -1.09587 -.99626 -1.19551 -1.59401 "/>
<path transform="matrix(.1859,-.98253,-.98253,-.1859,184.55152,16.760483)" stroke-width=".31879" stroke-linecap="round" stroke-linejoin="round" fill="none" stroke="#000000" d="M -1.19551 1.59401 C -1.09587 .99626 0 .09961 .29886 0 C 0 -.09961 -1.09587 -.99626 -1.19551 -1.59401 "/>
<symbol id="font_1_1">
<path d="M .33300004 .38900004 C .31500004 .42600004 .286 .45300005 .24100001 .45300005 C .124 .45300005 0 .30600003 0 .16000001 C 0 .06600001 .055000005 0 .133 0 C .153 0 .20300001 .0040000008 .263 .075 C .27100004 .033000005 .30600003 0 .35400004 0 C .38900004 0 .41200004 .023000002 .42800004 .055000005 C .44500003 .091000009 .45800004 .15200001 .45800004 .15400002 C .45800004 .16400002 .44900004 .16400002 .44600005 .16400002 C .43600003 .16400002 .43500004 .16000001 .43200005 .14600002 C .41500003 .081 .397 .022000002 .35600005 .022000002 C .32900004 .022000002 .32600004 .048 .32600004 .068 C .32600004 .09 .32800005 .098000008 .33900003 .14200002 C .35000003 .18400002 .35200004 .19400002 .36100004 .23200003 L .397 .37200005 C .40400005 .40000005 .40400005 .40200005 .40400005 .40600003 C .40400005 .42300005 .39200003 .43300004 .37500004 .43300004 C .35100005 .43300004 .33600004 .411 .33300004 .38900004 M .26800005 .13000001 C .263 .112 .263 .11000001 .24800001 .093 C .20400001 .038000004 .163 .022000002 .135 .022000002 C .08499999 .022000002 .07100001 .077 .07100001 .116000007 C .07100001 .16600001 .103 .28900004 .126 .335 C .157 .39400003 .202 .43100003 .242 .43100003 C .307 .43100003 .32100005 .34900005 .32100005 .34300003 C .32100005 .337 .31900005 .33100004 .31800003 .32600004 L .26800005 .13000001 Z "/>
</symbol>
<use xlink:href="#font_1_1" transform="matrix(9.9626,0,0,-9.9626,38.2125,149.1576)"/>
<symbol id="font_1_3">
<path d="M .35500003 .39100004 C .33900003 .39100004 .32500003 .39100004 .31100003 .37700004 C .29500003 .36200003 .293 .34500004 .293 .33800004 C .293 .314 .31100003 .30300004 .33 .30300004 C .359 .30300004 .386 .32700003 .386 .367 C .386 .41600005 .33900003 .45300005 .268 .45300005 C .13300002 .45300005 0 .31000004 0 .16900002 C 0 .079 .058000007 0 .162 0 C .305 0 .389 .106000009 .389 .11800001 C .389 .124000009 .38300003 .13100001 .377 .13100001 C .372 .13100001 .37 .12900001 .36400003 .12100001 C .285 .022000002 .176 .022000002 .164 .022000002 C .101 .022000002 .074 .071 .074 .13100001 C .074 .17200002 .094000007 .26900003 .12800002 .33100004 C .15900001 .388 .21400002 .43100003 .269 .43100003 C .303 .43100003 .34100003 .418 .35500003 .39100004 Z "/>
</symbol>
<use xlink:href="#font_1_3" transform="matrix(9.9626,0,0,-9.9626,107.77147,74.764598)"/>
<symbol id="font_1_5">
<path d="M .141 .24200002 C .17 .24200002 .24400002 .24400002 .294 .26500003 C .36400003 .29500003 .36900003 .35400004 .36900003 .36800004 C .36900003 .41200004 .331 .45300005 .26200003 .45300005 C .15100001 .45300005 0 .35600005 0 .18100001 C 0 .079 .059 0 .157 0 C .3 0 .384 .106000009 .384 .11800001 C .384 .124000009 .37800003 .13100001 .372 .13100001 C .367 .13100001 .365 .12900001 .35900004 .12100001 C .28 .022000002 .171 .022000002 .15900001 .022000002 C .081 .022000002 .072000008 .106000009 .072000008 .13800001 C .072000008 .15000002 .073 .18100001 .088 .24200002 L .141 .24200002 M .094 .26400004 C .133 .41600005 .236 .43100003 .26200003 .43100003 C .30900003 .43100003 .33600004 .40200005 .33600004 .36800004 C .33600004 .26400004 .17600002 .26400004 .135 .26400004 L .094 .26400004 Z "/>
</symbol>
<use xlink:href="#font_1_5" transform="matrix(9.9626,0,0,-9.9626,149.53229,94.43859)"/>
<symbol id="font_1_4">
<path d="M .47600005 .694 C .47600005 .695 .47600005 .705 .46300004 .705 C .44800005 .705 .35300002 .69600006 .33600004 .694 C .32800005 .693 .32200004 .688 .32200004 .675 C .32200004 .663 .33100004 .663 .34600003 .663 C .39400003 .663 .39600004 .656 .39600004 .646 L .39300005 .626 L .33300004 .38900004 C .31500004 .42600004 .286 .45300005 .24100001 .45300005 C .124 .45300005 0 .30600003 0 .16000001 C 0 .06600001 .055000005 0 .133 0 C .153 0 .20300001 .0040000008 .263 .075 C .27100004 .033000005 .30600003 0 .35400004 0 C .38900004 0 .41200004 .023000002 .42800004 .055000005 C .44500003 .091000009 .45800004 .15200001 .45800004 .15400002 C .45800004 .16400002 .44900004 .16400002 .44600005 .16400002 C .43600003 .16400002 .43500004 .16000001 .43200005 .14600002 C .41500003 .081 .397 .022000002 .35600005 .022000002 C .32900004 .022000002 .32600004 .048 .32600004 .068 C .32600004 .092 .32800005 .09900001 .33200003 .116000007 L .47600005 .694 M .26800005 .13000001 C .263 .112 .263 .11000001 .24800001 .093 C .20400001 .038000004 .163 .022000002 .135 .022000002 C .08499999 .022000002 .07100001 .077 .07100001 .116000007 C .07100001 .16600001 .103 .28900004 .126 .335 C .157 .39400003 .202 .43100003 .242 .43100003 C .307 .43100003 .32100005 .34900005 .32100005 .34300003 C .32100005 .337 .31900005 .33100004 .31800003 .32600004 L .26800005 .13000001 Z "/>
</symbol>
<use xlink:href="#font_1_4" transform="matrix(9.9626,0,0,-9.9626,138.94049,85.36959)"/>
<symbol id="font_1_2">
<path d="M .192 .694 C .192 .695 .192 .705 .179 .705 C .156 .705 .083000008 .697 .057 .695 C .049 .694 .038 .693 .038 .675 C .038 .663 .047000003 .663 .062000004 .663 C .11 .663 .112 .656 .112 .646 C .112 .639 .103 .605 .098000008 .584 L .015999999 .25800003 C .0040000008 .20800002 0 .19200002 0 .15700002 C 0 .062000004 .053 0 .127 0 C .24500002 0 .36800004 .14900002 .36800004 .293 C .36800004 .38400004 .31500004 .45300005 .235 .45300005 C .18900001 .45300005 .148 .42400003 .118 .39300005 L .192 .694 M .098000008 .316 C .104 .33800004 .104 .34000004 .113000009 .351 C .162 .41600005 .207 .43100003 .233 .43100003 C .26900003 .43100003 .29600004 .40100003 .29600004 .337 C .29600004 .27800004 .263 .16300002 .24500002 .12500002 C .212 .058000003 .16600001 .022000002 .127 .022000002 C .092999998 .022000002 .060000007 .049000004 .060000007 .123 C .060000007 .14200002 .060000007 .16100002 .076000008 .22400002 L .098000008 .316 Z "/>
</symbol>
<use xlink:href="#font_1_2" transform="matrix(9.9626,0,0,-9.9626,74.25524,126.24259)"/>
</g>
<path transform="matrix(1,0,0,-1,3.321,167.824)" d="M 39.11925 13.06511 C 39.11925 14.16557 38.22716 15.05766 37.1267 15.05766 C 36.02621 15.05766 35.13414 14.16557 35.13414 13.06511 C 35.13414 11.96463 36.02621 11.07256 37.1267 11.07256 C 38.22716 11.07256 39.11925 11.96463 39.11925 13.06511 Z M 37.1267 13.06511 "/>
<path transform="matrix(1,0,0,-1,3.321,167.824)" stroke-width=".3985" stroke-linecap="butt" stroke-miterlimit="10" stroke-linejoin="miter" fill="none" stroke="#000000" d="M 39.11925 13.06511 C 39.11925 14.16557 38.22716 15.05766 37.1267 15.05766 C 36.02621 15.05766 35.13414 14.16557 35.13414 13.06511 C 35.13414 11.96463 36.02621 11.07256 37.1267 11.07256 C 38.22716 11.07256 39.11925 11.96463 39.11925 13.06511 Z M 37.1267 13.06511 "/>
<path transform="matrix(1,0,0,-1,3.321,167.824)" d="M 108.19217 87.4594 C 108.19217 88.55986 107.30008 89.45195 106.19962 89.45195 C 105.09914 89.45195 104.20706 88.55986 104.20706 87.4594 C 104.20706 86.35892 105.09914 85.46684 106.19962 85.46684 C 107.30008 85.46684 108.19217 86.35892 108.19217 87.4594 Z M 106.19962 87.4594 "/>
<path transform="matrix(1,0,0,-1,3.321,167.824)" stroke-width=".3985" stroke-linecap="butt" stroke-miterlimit="10" stroke-linejoin="miter" fill="none" stroke="#000000" d="M 108.19217 87.4594 C 108.19217 88.55986 107.30008 89.45195 106.19962 89.45195 C 105.09914 89.45195 104.20706 88.55986 104.20706 87.4594 C 104.20706 86.35892 105.09914 85.46684 106.19962 85.46684 C 107.30008 85.46684 108.19217 86.35892 108.19217 87.4594 Z M 106.19962 87.4594 "/>
<path transform="matrix(1,0,0,-1,3.321,167.824)" d="M 150.06763 67.78487 C 150.06763 68.88535 149.17555 69.77742 148.07508 69.77742 C 146.97461 69.77742 146.08252 68.88535 146.08252 67.78487 C 146.08252 66.6844 146.97461 65.79231 148.07508 65.79231 C 149.17555 65.79231 150.06763 66.6844 150.06763 67.78487 Z M 148.07508 67.78487 "/>
<path transform="matrix(1,0,0,-1,3.321,167.824)" stroke-width=".3985" stroke-linecap="butt" stroke-miterlimit="10" stroke-linejoin="miter" fill="none" stroke="#000000" d="M 150.06763 67.78487 C 150.06763 68.88535 149.17555 69.77742 148.07508 69.77742 C 146.97461 69.77742 146.08252 68.88535 146.08252 67.78487 C 146.08252 66.6844 146.97461 65.79231 148.07508 65.79231 C 149.17555 65.79231 150.06763 66.6844 150.06763 67.78487 Z M 148.07508 67.78487 "/>
<path transform="matrix(1,0,0,-1,3.321,167.824)" d="M 131.50429 76.85359 C 131.50429 77.95407 130.6122 78.84615 129.51174 78.84615 C 128.41126 78.84615 127.51918 77.95407 127.51918 76.85359 C 127.51918 75.75313 128.41126 74.86104 129.51174 74.86104 C 130.6122 74.86104 131.50429 75.75313 131.50429 76.85359 Z M 129.51174 76.85359 "/>
<path transform="matrix(1,0,0,-1,3.321,167.824)" stroke-width=".3985" stroke-linecap="butt" stroke-miterlimit="10" stroke-linejoin="miter" fill="none" stroke="#000000" d="M 131.50429 76.85359 C 131.50429 77.95407 130.6122 78.84615 129.51174 78.84615 C 128.41126 78.84615 127.51918 77.95407 127.51918 76.85359 C 127.51918 75.75313 128.41126 74.86104 129.51174 74.86104 C 130.6122 74.86104 131.50429 75.75313 131.50429 76.85359 Z M 129.51174 76.85359 "/>
<path transform="matrix(1,0,0,-1,3.321,167.824)" d="M 66.74841 45.15147 C 66.74841 46.25195 65.85634 47.14403 64.75586 47.14403 C 63.6554 47.14403 62.7633 46.25195 62.7633 45.15147 C 62.7633 44.05101 63.6554 43.15892 64.75586 43.15892 C 65.85634 43.15892 66.74841 44.05101 66.74841 45.15147 Z M 64.75586 45.15147 "/>
<path transform="matrix(1,0,0,-1,3.321,167.824)" stroke-width=".3985" stroke-linecap="butt" stroke-miterlimit="10" stroke-linejoin="miter" fill="none" stroke="#000000" d="M 66.74841 45.15147 C 66.74841 46.25195 65.85634 47.14403 64.75586 47.14403 C 63.6554 47.14403 62.7633 46.25195 62.7633 45.15147 C 62.7633 44.05101 63.6554 43.15892 64.75586 43.15892 C 65.85634 43.15892 66.74841 44.05101 66.74841 45.15147 Z M 64.75586 45.15147 "/>
<symbol id="font_1_6">
<path d="M .305 .31300003 C .311 .33900003 .334 .43100003 .404 .43100003 C .409 .43100003 .433 .43100003 .454 .418 C .426 .41300003 .40600003 .388 .40600003 .36400003 C .40600003 .34800003 .417 .32900004 .444 .32900004 C .46600003 .32900004 .498 .34700004 .498 .38700003 C .498 .43900005 .439 .45300005 .405 .45300005 C .347 .45300005 .312 .40000005 .3 .37700004 C .275 .44300003 .221 .45300005 .19200002 .45300005 C .08800001 .45300005 .031000002 .32400004 .031000002 .29900003 C .031000002 .28900004 .041 .28900004 .043000007 .28900004 C .051000008 .28900004 .054000006 .291 .056 .3 C .09 .40600003 .156 .43100003 .19000001 .43100003 C .209 .43100003 .244 .42200003 .244 .36400003 C .244 .33300004 .22700002 .26600004 .19000001 .126 C .17400001 .064 .13900002 .022000002 .095000009 .022000002 C .08900001 .022000002 .06600001 .022000002 .045 .035 C .07000001 .040000004 .09200001 .061 .09200001 .089 C .09200001 .116000007 .07000001 .124000009 .055000009 .124000009 C .025 .124000009 0 .098000008 0 .06600001 C 0 .020000002 .050000006 0 .094000007 0 C .16000001 0 .19600001 .07000001 .19900002 .076000008 C .21100001 .039 .24700003 0 .307 0 C .41 0 .467 .12900001 .467 .15400002 C .467 .16400002 .458 .16400002 .455 .16400002 C .446 .16400002 .444 .16000001 .442 .15300001 C .409 .046 .341 .022000002 .30900003 .022000002 C .27 .022000002 .254 .054 .254 .08800001 C .254 .11000001 .26 .13200002 .271 .17600002 L .305 .31300003 Z "/>
</symbol>
<use xlink:href="#font_1_6" transform="matrix(9.9626,0,0,-9.9626,195.02791,95.04759)"/>
<symbol id="font_1_7">
<path d="M .45700003 .586 C .461 .6 .461 .602 .461 .609 C .461 .62700006 .447 .63600006 .432 .63600006 C .42200003 .63600006 .40600003 .63 .397 .615 C .395 .61 .387 .579 .38300003 .561 C .37600003 .535 .36900003 .508 .363 .48100005 L .318 .301 C .314 .286 .271 .21600002 .20500002 .21600002 C .15400002 .21600002 .143 .26000003 .143 .29700003 C .143 .34300003 .16000001 .40500004 .194 .49300004 C .21000001 .53400006 .21400002 .545 .21400002 .56500008 C .21400002 .61 .18200001 .6470001 .13200002 .6470001 C .037 .6470001 0 .50200006 0 .49300004 C 0 .48300005 .01 .48300005 .012 .48300005 C .022000002 .48300005 .023 .485 .028000003 .50100007 C .055000009 .595 .095000009 .625 .12900001 .625 C .13700001 .625 .15400002 .625 .15400002 .59300008 C .15400002 .568 .14400001 .54200008 .13700001 .523 C .097 .41700004 .079 .36 .079 .31300003 C .079 .224 .142 .194 .201 .194 C .24000003 .194 .274 .21100001 .30200003 .23900002 C .289 .187 .277 .13800001 .237 .08500001 C .21100001 .051 .17300001 .022 .127 .022 C .113000009 .022 .068 .025000006 .051000008 .06400001 C .067 .06400001 .080000009 .06400001 .094000007 .076000008 C .104 .08500001 .11400001 .098000008 .11400001 .117000009 C .11400001 .148 .087000008 .15200001 .07700001 .15200001 C .054000006 .15200001 .021 .136 .021 .087000008 C .021 .037 .065000008 0 .127 0 C .23 0 .333 .091000009 .361 .20400001 L .45700003 .586 Z "/>
</symbol>
<use xlink:href="#font_1_7" transform="matrix(9.9626,0,0,-9.9626,104.26192,9.652334)"/>
</g>
</svg>
