<?xml version="1.0" encoding="UTF-8" standalone="no"?>
<!DOCTYPE svg PUBLIC "-//W3C//DTD SVG 1.1//EN" "http://www.w3.org/Graphics/SVG/1.1/DTD/svg11.dtd">
<svg xmlns="http://www.w3.org/2000/svg" xmlns:xlink="http://www.w3.org/1999/xlink" version="1.1" width="216.48pt" height="181.401pt" viewBox="0 0 216.48 181.401">
<g enable-background="new">
<path transform="matrix(1,0,0,-1,9.686,174.455)" stroke-width=".19925" stroke-linecap="butt" stroke-miterlimit="10" stroke-linejoin="miter" fill="none" stroke="#808080" d="M 16.18858 79.27774 L 16.18858 82.11252 M 48.56575 79.27774 L 48.56575 82.11252 M 80.94293 79.27774 L 80.94293 82.11252 M 113.3201 79.27774 L 113.3201 82.11252 M 145.69728 79.27774 L 145.69728 82.11252 M 178.07445 79.27774 L 178.07445 82.11252 "/>
<path transform="matrix(1,0,0,-1,9.686,174.455)" stroke-width=".19925" stroke-linecap="butt" stroke-miterlimit="10" stroke-linejoin="miter" fill="none" stroke="#808080" d="M 0 78.56927 L 0 82.82098 M 32.37717 78.56927 L 32.37717 82.82098 M 64.75433 78.56927 L 64.75433 82.82098 M 129.50868 78.56927 L 129.50868 82.82098 M 161.88587 78.56927 L 161.88587 82.82098 M 194.26303 78.56927 L 194.26303 82.82098 "/>
<path transform="matrix(1,0,0,-1,9.686,174.455)" stroke-width=".19925" stroke-linecap="butt" stroke-miterlimit="10" stroke-linejoin="miter" fill="none" stroke="#808080" d="M 95.71408 13.44919 L 98.54895 13.44919 M 95.71408 40.34756 L 98.54895 40.34756 M 95.71408 67.24594 L 98.54895 67.24594 M 95.71408 94.14432 L 98.54895 94.14432 M 95.71408 121.04271 L 98.54895 121.04271 M 95.71408 147.94109 L 98.54895 147.94109 "/>
<path transform="matrix(1,0,0,-1,9.686,174.455)" stroke-width=".19925" stroke-linecap="butt" stroke-miterlimit="10" stroke-linejoin="miter" fill="none" stroke="#808080" d="M 95.00558 0 L 99.25743 0 M 95.00558 26.89838 L 99.25743 26.89838 M 95.00558 53.79675 L 99.25743 53.79675 M 95.00558 107.59352 L 99.25743 107.59352 M 95.00558 134.4919 L 99.25743 134.4919 M 95.00558 161.39028 L 99.25743 161.39028 "/>
<path transform="matrix(1,0,0,-1,9.686,174.455)" stroke-width=".3985" stroke-linecap="butt" stroke-miterlimit="10" stroke-linejoin="miter" fill="none" stroke="#000000" d="M 0 80.69513 L 192.27051 80.69513 "/>
<path transform="matrix(1,0,0,-1,201.95652,93.75987)" d="M 1.99252 0 L -1.19551 1.59401 L 0 0 L -1.19551 -1.59401 "/>
<path transform="matrix(1,0,0,-1,9.686,174.455)" stroke-width=".3985" stroke-linecap="butt" stroke-miterlimit="10" stroke-linejoin="miter" fill="none" stroke="#000000" d="M 97.13152 0 L 97.13152 159.39775 "/>
<path transform="matrix(0,-1,-1,-0,106.81752,15.057251)" d="M 1.99252 0 L -1.19551 1.59401 L 0 0 L -1.19551 -1.59401 "/>
<symbol id="font_0_1">
<path d="M .57600006 0 C .59300008 0 .611 0 .611 .019999996 C .611 .040000008 .59300008 .040000008 .57600006 .040000008 L .035000005 .040000008 C .018 .040000008 0 .040000008 0 .019999996 C 0 0 .018 0 .035000005 0 L .57600006 0 Z "/>
</symbol>
<use xlink:href="#font_0_1" transform="matrix(9.9626,0,0,-9.9626,4.147896,103.53561)"/>
<symbol id="font_1_3">
<path d="M .089999999 .35000003 L .089999999 .37400005 C .089999999 .62700006 .21400002 .66300007 .26500003 .66300007 C .28900004 .66300007 .33100004 .65700009 .35300002 .623 C .33800004 .623 .298 .623 .298 .57800009 C .298 .54700008 .32200004 .53200009 .344 .53200009 C .36 .53200009 .39000003 .54100009 .39000003 .58000007 C .39000003 .64000007 .34600003 .688 .263 .688 C .13499999 .688 0 .559 0 .33800004 C 0 .071 .116000007 0 .20900002 0 C .32000003 0 .41500003 .094000007 .41500003 .22600001 C .41500003 .35300005 .32600004 .44900004 .215 .44900004 C .14700002 .44900004 .11000001 .39800004 .089999999 .35000003 M .20900002 .028 C .146 .028 .116000007 .088 .11000001 .103 C .092 .15 .092 .23 .092 .24800001 C .092 .32600004 .124000009 .42600004 .21400002 .42600004 C .23000002 .42600004 .27600003 .42600004 .307 .36400003 C .32500003 .32700003 .32500003 .27600003 .32500003 .22700002 C .32500003 .179 .32500003 .12900001 .30800004 .093 C .27800004 .033000005 .23200003 .028 .20900002 .028 Z "/>
</symbol>
<use xlink:href="#font_1_3" transform="matrix(9.9626,0,0,-9.9626,11.48743,106.04618)"/>
<use xlink:href="#font_0_1" transform="matrix(9.9626,0,0,-9.9626,36.523897,103.53561)"/>
<symbol id="font_1_2">
<path d="M .266 .165 L .266 .078 C .266 .042000005 .26400004 .031000002 .19000001 .031000002 L .16900002 .031000002 L .16900002 0 C .21000001 .003 .26200003 .003 .30400003 .003 C .34600003 .003 .39900003 .003 .44000004 0 L .44000004 .031000002 L .41900004 .031000002 C .34500004 .031000002 .34300003 .042000005 .34300003 .078 L .34300003 .165 L .44300003 .165 L .44300003 .19600001 L .34300003 .19600001 L .34300003 .651 C .34300003 .671 .34300003 .67700007 .32700003 .67700007 C .31800003 .67700007 .31500004 .67700007 .307 .665 L 0 .19600001 L 0 .165 L .266 .165 M .272 .19600001 L .028 .19600001 L .272 .569 L .272 .19600001 Z "/>
</symbol>
<use xlink:href="#font_1_2" transform="matrix(9.9626,0,0,-9.9626,43.724954,105.827)"/>
<use xlink:href="#font_0_1" transform="matrix(9.9626,0,0,-9.9626,68.900897,103.53561)"/>
<symbol id="font_1_1">
<path d="M .07700001 .07700001 L .18300002 .18 C .33900003 .31800003 .39900003 .372 .39900003 .47200004 C .39900003 .586 .30900003 .666 .18700002 .666 C .074 .666 0 .574 0 .485 C 0 .42900003 .05 .42900003 .053000008 .42900003 C .07000001 .42900003 .105000007 .441 .105000007 .48200003 C .105000007 .508 .08700001 .53400006 .052000006 .53400006 C .044000005 .53400006 .042000008 .53400006 .039 .53300008 C .062000004 .59800007 .11600001 .63500007 .17400001 .63500007 C .26500003 .63500007 .308 .554 .308 .47200004 C .308 .39200003 .25800003 .31300003 .20300003 .25100003 L .011000004 .037 C 0 .026 0 .024 0 0 L .37100003 0 L .39900003 .17400001 L .374 .17400001 C .36900003 .14400001 .36200003 .1 .352 .085 C .345 .07700001 .279 .07700001 .257 .07700001 L .07700001 .07700001 Z "/>
</symbol>
<use xlink:href="#font_1_1" transform="matrix(9.9626,0,0,-9.9626,76.32113,105.827)"/>
<use xlink:href="#font_1_1" transform="matrix(9.9626,0,0,-9.9626,137.20012,105.827)"/>
<use xlink:href="#font_1_2" transform="matrix(9.9626,0,0,-9.9626,169.35796,105.827)"/>
<use xlink:href="#font_1_3" transform="matrix(9.9626,0,0,-9.9626,201.87343,106.04618)"/>
<use xlink:href="#font_0_1" transform="matrix(9.9626,0,0,-9.9626,89.26689,174.9586)"/>
<use xlink:href="#font_1_3" transform="matrix(9.9626,0,0,-9.9626,96.60742,177.46918)"/>
<use xlink:href="#font_0_1" transform="matrix(9.9626,0,0,-9.9626,89.26689,148.06061)"/>
<use xlink:href="#font_1_2" transform="matrix(9.9626,0,0,-9.9626,96.46795,150.352)"/>
<use xlink:href="#font_0_1" transform="matrix(9.9626,0,0,-9.9626,89.26689,121.162609)"/>
<use xlink:href="#font_1_1" transform="matrix(9.9626,0,0,-9.9626,96.687129,123.454)"/>
<use xlink:href="#font_1_1" transform="matrix(9.9626,0,0,-9.9626,96.687129,70.073)"/>
<use xlink:href="#font_1_2" transform="matrix(9.9626,0,0,-9.9626,96.46795,43.175004)"/>
<use xlink:href="#font_1_3" transform="matrix(9.9626,0,0,-9.9626,96.60742,16.496186)"/>
<clipPath id="cp2">
<path transform="matrix(1,0,0,-1,9.686,174.455)" d="M 0 0 L 194.26303 0 L 194.26303 161.39028 L 0 161.39028 Z "/>
</clipPath>
<g clip-path="url(#cp2)">
<path transform="matrix(1,0,0,-1,9.686,174.455)" d="M 132.32677 94.14432 C 132.32677 95.70071 131.06508 96.9624 129.50868 96.9624 C 127.95229 96.9624 126.6906 95.70071 126.6906 94.14432 C 126.6906 92.58794 127.95229 91.32625 129.50868 91.32625 C 131.06508 91.32625 132.32677 92.58794 132.32677 94.14432 Z M 129.50868 94.14432 "/>
<symbol id="font_3_2">
<path d="M .192 .694 C .192 .695 .192 .705 .179 .705 C .156 .705 .083000008 .697 .057 .695 C .049 .694 .038 .693 .038 .675 C .038 .663 .047000003 .663 .062000004 .663 C .11 .663 .112 .656 .112 .646 C .112 .639 .103 .605 .098000008 .584 L .015999999 .25800003 C .0040000008 .20800002 0 .19200002 0 .15700002 C 0 .062000004 .053 0 .127 0 C .24500002 0 .36800004 .14900002 .36800004 .293 C .36800004 .38400004 .31500004 .45300005 .235 .45300005 C .18900001 .45300005 .148 .42400003 .118 .39300005 L .192 .694 M .098000008 .316 C .104 .33800004 .104 .34000004 .113000009 .351 C .162 .41600005 .207 .43100003 .233 .43100003 C .26900003 .43100003 .29600004 .40100003 .29600004 .337 C .29600004 .27800004 .263 .16300002 .24500002 .12500002 C .212 .058000003 .16600001 .022000002 .127 .022000002 C .092999998 .022000002 .060000007 .049000004 .060000007 .123 C .060000007 .14200002 .060000007 .16100002 .076000008 .22400002 L .098000008 .316 Z "/>
</symbol>
<use xlink:href="#font_3_2" transform="matrix(9.9626,0,0,-9.9626,128.84825,83.88059)"/>
<path transform="matrix(1,0,0,-1,9.686,174.455)" d="M 19.00667 40.34756 C 19.00667 41.90396 17.74498 43.16565 16.18858 43.16565 C 14.63219 43.16565 13.3705 41.90396 13.3705 40.34756 C 13.3705 38.79117 14.63219 37.52948 16.18858 37.52948 C 17.74498 37.52948 19.00667 38.79117 19.00667 40.34756 Z M 16.18858 40.34756 "/>
<symbol id="font_3_3">
<path d="M .35500003 .39100004 C .33900003 .39100004 .32500003 .39100004 .31100003 .37700004 C .29500003 .36200003 .293 .34500004 .293 .33800004 C .293 .314 .31100003 .30300004 .33 .30300004 C .359 .30300004 .386 .32700003 .386 .367 C .386 .41600005 .33900003 .45300005 .268 .45300005 C .13300002 .45300005 0 .31000004 0 .16900002 C 0 .079 .058000007 0 .162 0 C .305 0 .389 .106000009 .389 .11800001 C .389 .124000009 .38300003 .13100001 .377 .13100001 C .372 .13100001 .37 .12900001 .36400003 .12100001 C .285 .022000002 .176 .022000002 .164 .022000002 C .101 .022000002 .074 .071 .074 .13100001 C .074 .17200002 .094000007 .26900003 .12800002 .33100004 C .15900001 .388 .21400002 .43100003 .269 .43100003 C .303 .43100003 .34100003 .418 .35500003 .39100004 Z "/>
</symbol>
<use xlink:href="#font_3_3" transform="matrix(9.9626,0,0,-9.9626,15.434466,136.3626)"/>
<path transform="matrix(1,0,0,-1,9.686,174.455)" d="M 99.9496 134.4919 C 99.9496 136.0483 98.68791 137.30998 97.13152 137.30998 C 95.57512 137.30998 94.31343 136.0483 94.31343 134.4919 C 94.31343 132.9355 95.57512 131.67382 97.13152 131.67382 C 98.68791 131.67382 99.9496 132.9355 99.9496 134.4919 Z M 97.13152 134.4919 "/>
<symbol id="font_3_1">
<path d="M .33300004 .38900004 C .31500004 .42600004 .286 .45300005 .24100001 .45300005 C .124 .45300005 0 .30600003 0 .16000001 C 0 .06600001 .055000005 0 .133 0 C .153 0 .20300001 .0040000008 .263 .075 C .27100004 .033000005 .30600003 0 .35400004 0 C .38900004 0 .41200004 .023000002 .42800004 .055000005 C .44500003 .091000009 .45800004 .15200001 .45800004 .15400002 C .45800004 .16400002 .44900004 .16400002 .44600005 .16400002 C .43600003 .16400002 .43500004 .16000001 .43200005 .14600002 C .41500003 .081 .397 .022000002 .35600005 .022000002 C .32900004 .022000002 .32600004 .048 .32600004 .068 C .32600004 .09 .32800005 .098000008 .33900003 .14200002 C .35000003 .18400002 .35200004 .19400002 .36100004 .23200003 L .397 .37200005 C .40400005 .40000005 .40400005 .40200005 .40400005 .40600003 C .40400005 .42300005 .39200003 .43300004 .37500004 .43300004 C .35100005 .43300004 .33600004 .411 .33300004 .38900004 M .26800005 .13000001 C .263 .112 .263 .11000001 .24800001 .093 C .20400001 .038000004 .163 .022000002 .135 .022000002 C .08499999 .022000002 .07100001 .077 .07100001 .116000007 C .07100001 .16600001 .103 .28900004 .126 .335 C .157 .39400003 .202 .43100003 .242 .43100003 C .307 .43100003 .32100005 .34900005 .32100005 .34300003 C .32100005 .337 .31900005 .33100004 .31800003 .32600004 L .26800005 .13000001 Z "/>
</symbol>
<use xlink:href="#font_3_1" transform="matrix(9.9626,0,0,-9.9626,113.7515,42.21959)"/>
</g>
<path transform="matrix(1,0,0,-1,9.686,174.455)" d="M 131.50124 94.14432 C 131.50124 95.2448 130.60916 96.13687 129.50868 96.13687 C 128.40822 96.13687 127.51613 95.2448 127.51613 94.14432 C 127.51613 93.04385 128.40822 92.15176 129.50868 92.15176 C 130.60916 92.15176 131.50124 93.04385 131.50124 94.14432 Z M 129.50868 94.14432 "/>
<path transform="matrix(1,0,0,-1,9.686,174.455)" stroke-width=".3985" stroke-linecap="butt" stroke-miterlimit="10" stroke-linejoin="miter" fill="none" stroke="#000000" d="M 131.50124 94.14432 C 131.50124 95.2448 130.60916 96.13687 129.50868 96.13687 C 128.40822 96.13687 127.51613 95.2448 127.51613 94.14432 C 127.51613 93.04385 128.40822 92.15176 129.50868 92.15176 C 130.60916 92.15176 131.50124 93.04385 131.50124 94.14432 Z M 129.50868 94.14432 "/>
<path transform="matrix(1,0,0,-1,9.686,174.455)" d="M 18.18114 40.34756 C 18.18114 41.44803 17.28905 42.34012 16.18858 42.34012 C 15.0881 42.34012 14.19603 41.44803 14.19603 40.34756 C 14.19603 39.24709 15.0881 38.35501 16.18858 38.35501 C 17.28905 38.35501 18.18114 39.24709 18.18114 40.34756 Z M 16.18858 40.34756 "/>
<path transform="matrix(1,0,0,-1,9.686,174.455)" stroke-width=".3985" stroke-linecap="butt" stroke-miterlimit="10" stroke-linejoin="miter" fill="none" stroke="#000000" d="M 18.18114 40.34756 C 18.18114 41.44803 17.28905 42.34012 16.18858 42.34012 C 15.0881 42.34012 14.19603 41.44803 14.19603 40.34756 C 14.19603 39.24709 15.0881 38.35501 16.18858 38.35501 C 17.28905 38.35501 18.18114 39.24709 18.18114 40.34756 Z M 16.18858 40.34756 "/>
<path transform="matrix(1,0,0,-1,9.686,174.455)" d="M 99.12407 134.4919 C 99.12407 135.59236 98.23198 136.48445 97.13152 136.48445 C 96.03104 136.48445 95.13896 135.59236 95.13896 134.4919 C 95.13896 133.39142 96.03104 132.49935 97.13152 132.49935 C 98.23198 132.49935 99.12407 133.39142 99.12407 134.4919 Z M 97.13152 134.4919 "/>
<path transform="matrix(1,0,0,-1,9.686,174.455)" stroke-width=".3985" stroke-linecap="butt" stroke-miterlimit="10" stroke-linejoin="miter" fill="none" stroke="#000000" d="M 99.12407 134.4919 C 99.12407 135.59236 98.23198 136.48445 97.13152 136.48445 C 96.03104 136.48445 95.13896 135.59236 95.13896 134.4919 C 95.13896 133.39142 96.03104 132.49935 97.13152 132.49935 C 98.23198 132.49935 99.12407 133.39142 99.12407 134.4919 Z M 97.13152 134.4919 "/>
<symbol id="font_3_4">
<path d="M .305 .31300003 C .311 .33900003 .334 .43100003 .404 .43100003 C .409 .43100003 .433 .43100003 .454 .418 C .426 .41300003 .40600003 .388 .40600003 .36400003 C .40600003 .34800003 .417 .32900004 .444 .32900004 C .46600003 .32900004 .498 .34700004 .498 .38700003 C .498 .43900005 .439 .45300005 .405 .45300005 C .347 .45300005 .312 .40000005 .3 .37700004 C .275 .44300003 .221 .45300005 .19200002 .45300005 C .08800001 .45300005 .031000002 .32400004 .031000002 .29900003 C .031000002 .28900004 .041 .28900004 .043000007 .28900004 C .051000008 .28900004 .054000006 .291 .056 .3 C .09 .40600003 .156 .43100003 .19000001 .43100003 C .209 .43100003 .244 .42200003 .244 .36400003 C .244 .33300004 .22700002 .26600004 .19000001 .126 C .17400001 .064 .13900002 .022000002 .095000009 .022000002 C .08900001 .022000002 .06600001 .022000002 .045 .035 C .07000001 .040000004 .09200001 .061 .09200001 .089 C .09200001 .116000007 .07000001 .124000009 .055000009 .124000009 C .025 .124000009 0 .098000008 0 .06600001 C 0 .020000002 .050000006 0 .094000007 0 C .16000001 0 .19600001 .07000001 .19900002 .076000008 C .21100001 .039 .24700003 0 .307 0 C .41 0 .467 .12900001 .467 .15400002 C .467 .16400002 .458 .16400002 .455 .16400002 C .446 .16400002 .444 .16000001 .442 .15300001 C .409 .046 .341 .022000002 .30900003 .022000002 C .27 .022000002 .254 .054 .254 .08800001 C .254 .11000001 .26 .13200002 .271 .17600002 L .305 .31300003 Z "/>
</symbol>
<use xlink:href="#font_3_4" transform="matrix(9.9626,0,0,-9.9626,207.75492,176.7096)"/>
<symbol id="font_3_5">
<path d="M .45700003 .586 C .461 .6 .461 .602 .461 .609 C .461 .62700006 .447 .63600006 .432 .63600006 C .42200003 .63600006 .40600003 .63 .397 .615 C .395 .61 .387 .579 .38300003 .561 C .37600003 .535 .36900003 .508 .363 .48100005 L .318 .301 C .314 .286 .271 .21600002 .20500002 .21600002 C .15400002 .21600002 .143 .26000003 .143 .29700003 C .143 .34300003 .16000001 .40500004 .194 .49300004 C .21000001 .53400006 .21400002 .545 .21400002 .56500008 C .21400002 .61 .18200001 .6470001 .13200002 .6470001 C .037 .6470001 0 .50200006 0 .49300004 C 0 .48300005 .01 .48300005 .012 .48300005 C .022000002 .48300005 .023 .485 .028000003 .50100007 C .055000009 .595 .095000009 .625 .12900001 .625 C .13700001 .625 .15400002 .625 .15400002 .59300008 C .15400002 .568 .14400001 .54200008 .13700001 .523 C .097 .41700004 .079 .36 .079 .31300003 C .079 .224 .142 .194 .201 .194 C .24000003 .194 .274 .21100001 .30200003 .23900002 C .289 .187 .277 .13800001 .237 .08500001 C .21100001 .051 .17300001 .022 .127 .022 C .113000009 .022 .068 .025000006 .051000008 .06400001 C .067 .06400001 .080000009 .06400001 .094000007 .076000008 C .104 .08500001 .11400001 .098000008 .11400001 .117000009 C .11400001 .148 .087000008 .15200001 .07700001 .15200001 C .054000006 .15200001 .021 .136 .021 .087000008 C .021 .037 .065000008 0 .127 0 C .23 0 .333 .091000009 .361 .20400001 L .45700003 .586 Z "/>
</symbol>
<use xlink:href="#font_3_5" transform="matrix(9.9626,0,0,-9.9626,104.48392,9.652334)"/>
</g>
</svg>
