<?xml version="1.0" encoding="UTF-8" standalone="no"?>
<!DOCTYPE svg PUBLIC "-//W3C//DTD SVG 1.1//EN" "http://www.w3.org/Graphics/SVG/1.1/DTD/svg11.dtd">
<svg xmlns="http://www.w3.org/2000/svg" xmlns:xlink="http://www.w3.org/1999/xlink" version="1.1" width="200.63pt" height="168.015pt" viewBox="0 0 200.63 168.015">
<g enable-background="new">
<path transform="matrix(1,0,0,-1,.199,167.816)" stroke-width=".19925" stroke-linecap="butt" stroke-miterlimit="10" stroke-linejoin="miter" fill="none" stroke="#808080" d="M 0 79.27469 L 0 82.1095 M 38.85321 79.27469 L 38.85321 82.1095 M 77.70642 79.27469 L 77.70642 82.1095 M 116.55965 79.27469 L 116.55965 82.1095 M 155.41286 79.27469 L 155.41286 82.1095 M 194.26607 79.27469 L 194.26607 82.1095 "/>
<path transform="matrix(1,0,0,-1,.199,167.816)" stroke-width=".19925" stroke-linecap="butt" stroke-miterlimit="10" stroke-linejoin="miter" fill="none" stroke="#808080" d="M 19.4266 78.56621 L 19.4266 82.81796 M 58.27982 78.56621 L 58.27982 82.81796 M 135.98625 78.56621 L 135.98625 82.81796 M 174.83946 78.56621 L 174.83946 82.81796 "/>
<path transform="matrix(1,0,0,-1,.199,167.816)" stroke-width=".19925" stroke-linecap="butt" stroke-miterlimit="10" stroke-linejoin="miter" fill="none" stroke="#808080" d="M 95.71562 0 L 98.55045 0 M 95.71562 32.27684 L 98.55045 32.27684 M 95.71562 64.55368 L 98.55045 64.55368 M 95.71562 96.83052 L 98.55045 96.83052 M 95.71562 129.10736 L 98.55045 129.10736 M 95.71562 161.3842 L 98.55045 161.3842 "/>
<path transform="matrix(1,0,0,-1,.199,167.816)" stroke-width=".19925" stroke-linecap="butt" stroke-miterlimit="10" stroke-linejoin="miter" fill="none" stroke="#808080" d="M 95.00711 16.13841 L 99.25894 16.13841 M 95.00711 48.41525 L 99.25894 48.41525 M 95.00711 112.96893 L 99.25894 112.96893 M 95.00711 145.24578 L 99.25894 145.24578 "/>
<path transform="matrix(1,0,0,-1,.199,167.816)" stroke-width=".3985" stroke-linecap="butt" stroke-miterlimit="10" stroke-linejoin="miter" fill="none" stroke="#000000" d="M 0 80.6921 L 192.27355 80.6921 "/>
<path transform="matrix(1,0,0,-1,192.47255,87.12389)" d="M 1.99252 0 L -1.19551 1.59401 L 0 0 L -1.19551 -1.59401 "/>
<path transform="matrix(1,0,0,-1,.199,167.816)" stroke-width=".3985" stroke-linecap="butt" stroke-miterlimit="10" stroke-linejoin="miter" fill="none" stroke="#000000" d="M 97.13303 0 L 97.13303 159.39168 "/>
<path transform="matrix(0,-1,-1,-0,97.33203,8.424316)" d="M 1.99252 0 L -1.19551 1.59401 L 0 0 L -1.19551 -1.59401 "/>
<symbol id="font_0_1">
<path d="M .57600006 0 C .59300008 0 .611 0 .611 .019999996 C .611 .040000008 .59300008 .040000008 .57600006 .040000008 L .035000005 .040000008 C .018 .040000008 0 .040000008 0 .019999996 C 0 0 .018 0 .035000005 0 L .57600006 0 Z "/>
</symbol>
<use xlink:href="#font_0_1" transform="matrix(9.9626,0,0,-9.9626,14.087896,96.89959)"/>
<symbol id="font_1_2">
<path d="M .266 .165 L .266 .078 C .266 .042000005 .26400004 .031000002 .19000001 .031000002 L .16900002 .031000002 L .16900002 0 C .21000001 .003 .26200003 .003 .30400003 .003 C .34600003 .003 .39900003 .003 .44000004 0 L .44000004 .031000002 L .41900004 .031000002 C .34500004 .031000002 .34300003 .042000005 .34300003 .078 L .34300003 .165 L .44300003 .165 L .44300003 .19600001 L .34300003 .19600001 L .34300003 .651 C .34300003 .671 .34300003 .67700007 .32700003 .67700007 C .31800003 .67700007 .31500004 .67700007 .307 .665 L 0 .19600001 L 0 .165 L .266 .165 M .272 .19600001 L .028 .19600001 L .272 .569 L .272 .19600001 Z "/>
</symbol>
<use xlink:href="#font_1_2" transform="matrix(9.9626,0,0,-9.9626,21.287953,99.19099)"/>
<use xlink:href="#font_0_1" transform="matrix(9.9626,0,0,-9.9626,52.9399,96.89959)"/>
<symbol id="font_1_1">
<path d="M .07700001 .07700001 L .18300002 .18 C .33900003 .31800003 .39900003 .372 .39900003 .47200004 C .39900003 .586 .30900003 .666 .18700002 .666 C .074 .666 0 .574 0 .485 C 0 .42900003 .05 .42900003 .053000008 .42900003 C .07000001 .42900003 .105000007 .441 .105000007 .48200003 C .105000007 .508 .08700001 .53400006 .052000006 .53400006 C .044000005 .53400006 .042000008 .53400006 .039 .53300008 C .062000004 .59800007 .11600001 .63500007 .17400001 .63500007 C .26500003 .63500007 .308 .554 .308 .47200004 C .308 .39200003 .25800003 .31300003 .20300003 .25100003 L .011000004 .037 C 0 .026 0 .024 0 0 L .37100003 0 L .39900003 .17400001 L .374 .17400001 C .36900003 .14400001 .36200003 .1 .352 .085 C .345 .07700001 .279 .07700001 .257 .07700001 L .07700001 .07700001 Z "/>
</symbol>
<use xlink:href="#font_1_1" transform="matrix(9.9626,0,0,-9.9626,60.360136,99.19099)"/>
<use xlink:href="#font_1_1" transform="matrix(9.9626,0,0,-9.9626,134.19113,99.19099)"/>
<use xlink:href="#font_1_2" transform="matrix(9.9626,0,0,-9.9626,172.82495,99.19099)"/>
<use xlink:href="#font_0_1" transform="matrix(9.9626,0,0,-9.9626,79.78189,152.1816)"/>
<use xlink:href="#font_1_2" transform="matrix(9.9626,0,0,-9.9626,86.98295,154.47299)"/>
<use xlink:href="#font_0_1" transform="matrix(9.9626,0,0,-9.9626,79.78189,119.9046)"/>
<use xlink:href="#font_1_1" transform="matrix(9.9626,0,0,-9.9626,87.202129,122.196)"/>
<use xlink:href="#font_1_1" transform="matrix(9.9626,0,0,-9.9626,87.202129,58.058984)"/>
<use xlink:href="#font_1_2" transform="matrix(9.9626,0,0,-9.9626,86.98295,25.781998)"/>
<clipPath id="cp2">
<path transform="matrix(1,0,0,-1,.199,167.816)" d="M 0 0 L 194.26607 0 L 194.26607 161.3842 L 0 161.3842 Z "/>
</clipPath>
<g clip-path="url(#cp2)">
<path transform="matrix(1,0,0,-1,.199,167.816)" stroke-width=".3985" stroke-linecap="butt" stroke-miterlimit="10" stroke-linejoin="miter" fill="none" stroke="#000000" d="M 5.98553 126.90181 L 8.01346 121.36343 L 10.19896 115.80325 L 12.38445 110.65155 L 14.56995 105.90837 L 16.75543 101.57368 L 18.94093 97.64752 L 21.12642 94.12984 L 23.31192 91.02068 L 25.4974 88.32 L 27.6829 86.02785 L 29.8684 84.1442 L 32.0539 82.66905 L 34.23938 81.60239 L 36.42488 80.94424 L 38.61037 80.6946 L 40.79587 80.85349 L 42.98135 81.42084 L 45.16685 82.39671 L 47.35234 83.78108 L 49.53784 85.57396 L 51.72333 87.77533 L 53.90883 90.38522 L 56.09431 93.40361 L 58.27982 96.83052 "/>
<path transform="matrix(-.34383,-.939,-.939,.34383,6.18455,40.914194)" stroke-width=".31879" stroke-linecap="round" stroke-linejoin="round" fill="none" stroke="#000000" d="M -1.19551 1.59401 C -1.09587 .99626 0 .09961 .29886 0 C 0 -.09961 -1.09587 -.99626 -1.19551 -1.59401 "/>
<path transform="matrix(1,0,0,-1,.199,167.816)" stroke-width=".3985" stroke-linecap="butt" stroke-miterlimit="10" stroke-linejoin="miter" fill="none" stroke="#000000" d="M 58.27982 129.17594 L 59.39685 128.75295 L 60.51387 128.29496 L 61.63089 127.79738 L 62.74794 127.25578 L 63.86496 126.66237 L 64.982 126.01086 L 66.09901 125.2919 L 67.21605 124.4937 L 68.33308 123.60414 L 69.4501 122.60356 L 70.56714 121.47388 L 71.68417 120.1828 L 72.80121 118.69807 L 73.91823 116.97125 L 75.03525 114.94104 L 76.1523 112.5122 L 77.26932 109.55727 L 78.38635 105.88737 L 79.50337 101.20885 L 80.62042 95.0359 L 81.73744 86.51321 L 82.85446 73.99303 L 83.9715 53.79257 L 85.07512 16.18008 "/>
<path transform="matrix(.02931,.99951,.99951,-.02931,85.2741,151.63591)" stroke-width=".31879" stroke-linecap="round" stroke-linejoin="round" fill="none" stroke="#000000" d="M -1.19551 1.59401 C -1.09587 .99626 0 .09961 .29886 0 C 0 -.09961 -1.09587 -.99626 -1.19551 -1.59401 "/>
<path transform="matrix(1,0,0,-1,.199,167.816)" stroke-width=".3985" stroke-linecap="butt" stroke-miterlimit="10" stroke-linejoin="miter" fill="none" stroke="#000000" d="M 89.38446 31.48753 L 90.00993 44.44746 L 90.65749 52.74147 L 91.30504 58.48013 L 91.95259 62.76988 L 92.60016 66.16138 L 93.2477 68.96704 L 93.89525 71.3749 L 94.54282 73.50694 L 95.19035 75.44872 L 95.83792 77.26186 L 96.48546 78.99641 L 97.13301 80.6921 L 97.78058 82.38776 L 98.42812 84.12215 L 99.07568 85.9353 L 99.72324 87.8769 L 100.37079 90.00928 L 101.01834 92.41696 L 101.66588 95.2228 L 102.31345 98.61461 L 102.961 102.90404 L 103.60855 108.6427 L 104.2561 116.9367 L 104.88158 129.89842 "/>
<path transform="matrix(-.04817,.9988,.9988,.04817,89.58346,136.32845)" stroke-width=".31879" stroke-linecap="round" stroke-linejoin="round" fill="none" stroke="#000000" d="M -1.19551 1.59401 C -1.09587 .99626 0 .09961 .29886 0 C 0 -.09961 -1.09587 -.99626 -1.19551 -1.59401 "/>
<path transform="matrix(.04817,-.9988,-.9988,-.04817,105.080577,37.917589)" stroke-width=".31879" stroke-linecap="round" stroke-linejoin="round" fill="none" stroke="#000000" d="M -1.19551 1.59401 C -1.09587 .99626 0 .09961 .29886 0 C 0 -.09961 -1.09587 -.99626 -1.19551 -1.59401 "/>
<path transform="matrix(1,0,0,-1,.199,167.816)" stroke-width=".3985" stroke-linecap="butt" stroke-miterlimit="10" stroke-linejoin="miter" fill="none" stroke="#000000" d="M 109.80533 21.99628 L 109.91798 23.1373 L 110.07567 24.66077 L 110.23332 26.10873 L 110.39099 27.50114 L 110.54866 28.8377 L 110.70633 30.11748 L 110.864 31.34885 L 111.02167 32.53503 L 111.17932 33.67987 L 111.337 34.78406 L 111.49467 35.85341 L 111.65234 36.88663 L 111.81001 37.88947 L 111.96767 38.86064 L 112.12535 39.8028 L 112.283 40.72044 L 112.44067 41.61192 L 112.59834 42.47696 L 112.75601 43.32323 L 112.91368 44.14568 L 113.07135 44.94806 L 113.22902 45.73306 L 113.38669 46.4954 L 113.54436 47.24068 L 113.70203 47.97307 L 113.8597 48.68573 L 114.01735 49.38646 L 114.17503 50.06653 L 114.33269 50.73628 L 114.49036 51.39633 L 114.64804 52.03897 L 114.8057 52.669 L 114.96338 53.28777 L 115.12103 53.8939 L 115.2787 54.48943 L 115.43637 55.07396 L 115.59404 55.64784 L 115.75171 56.21205 L 115.90938 56.76721 L 116.06703 57.31236 L 116.22472 57.84782 L 116.38239 58.37524 L 116.54004 58.89426 L 116.69772 59.4055 L 116.85538 59.90773 L 117.01305 60.40222 L 117.17072 60.88992 L 117.32837 61.36923 L 117.48605 61.84209 L 117.6437 62.3088 L 117.80139 62.76941 L 117.95905 63.22192 L 118.11671 63.66798 L 118.27438 64.10825 L 118.43204 64.54399 L 118.5897 64.97327 L 118.74738 65.39738 L 118.90504 65.81505 L 119.06271 66.2256 L 119.22038 66.63391 L 119.37804 67.03833 L 119.5357 67.43631 L 119.69337 67.82686 L 119.85104 68.21353 L 120.00871 68.59602 L 120.16637 68.9743 L 120.32405 69.35226 L 120.4817 69.7199 L 120.63936 70.08784 L 120.79704 70.44644 L 120.9547 70.8044 L 121.11238 71.1575 L 121.27003 71.51094 L 121.4277 71.85501 L 121.58537 72.19778 L 121.74303 72.53508 L 121.90071 72.86948 L 122.05836 73.20708 L 122.21603 73.536 L 122.3737 73.86166 L 122.53137 74.18378 L 122.68904 74.50235 L 122.84671 74.81802 L 123.00436 75.1311 L 123.16203 75.43999 L 123.3197 75.74727 L 123.47736 76.05067 L 123.63504 76.3515 L 123.7927 76.65005 L 123.95038 76.94604 L 124.10803 77.23976 L 124.26569 77.52896 L 124.42337 77.81686 L 124.58102 78.10155 L 124.73871 78.38461 L 124.89636 78.6651 L 125.05403 78.94269 L 125.2117 79.21864 L 125.36935 79.49042 L 125.52702 79.76187 L 125.6847 80.03009 L 125.84236 80.29669 L 126.00003 80.56071 L 126.1577 80.82314 L 126.31535 81.082 L 126.47302 81.3402 L 126.63069 81.5952 L 126.78836 81.84889 L 126.94603 82.10129 L 127.10368 82.3508 L 127.26137 82.59868 L 127.41902 82.84496 L 127.57668 83.08896 L 127.73436 83.33138 L 127.89201 83.57216 L 128.0497 83.81003 L 128.20735 84.04758 L 128.36502 84.2829 L 128.52269 84.51624 L 128.68036 84.74896 L 128.83803 84.97878 L 128.99568 85.20697 L 129.15335 85.43356 L 129.31102 85.65886 L 129.46869 85.88318 L 129.62635 86.10522 L 129.78403 86.32632 L 129.94168 86.54613 L 130.09935 86.76369 L 130.25702 86.98026 L 130.41468 87.19426 L 130.57236 87.40695 L 130.73001 87.61966 L 130.8877 87.83109 L 131.04535 88.0399 L 131.203 88.2481 L 131.36069 88.45499 L 131.51834 88.65996 L 131.67601 88.86362 L 131.83368 89.06664 L 131.99135 89.26773 L 132.14902 89.46751 L 132.30667 89.66698 L 132.46434 89.86452 L 132.62201 90.0614 L 132.77968 90.257 L 132.93735 90.45067 L 133.09502 90.64304 L 133.25267 90.83508 L 133.41036 91.02649 L 133.56801 91.21596 L 133.72566 91.40509 L 133.88335 91.59166 L 134.041 91.77853 L 134.19869 91.96155 L 134.35634 92.14682 L 134.514 92.33015 L 134.67168 92.51283 L 134.82933 92.69391 L 134.98702 92.87465 L 135.14467 93.05348 L 135.30234 93.22969 L 135.46 93.40723 L 135.61768 93.58347 L 135.77535 93.75873 L 135.933 93.93399 L 136.09067 94.107 L 136.24834 94.27966 L 136.406 94.45105 L 136.56366 94.62051 L 136.72135 94.78964 L 136.879 94.95909 L 137.03667 95.12758 L 137.19434 95.29573 L 137.35199 95.46198 L 137.50968 95.62723 L 137.66733 95.79184 L 137.82501 95.95322 L 137.98267 96.11687 L 138.14034 96.2789 L 138.298 96.4393 L 138.45566 96.60037 L 138.61333 96.76015 L 138.771 96.92024 L 138.92867 97.07904 L 139.08634 97.233 L 139.244 97.38954 L 139.40166 97.54608 L 139.55933 97.7023 L 139.717 97.8553 L 139.87467 98.00894 L 140.03234 98.16289 L 140.18999 98.31201 L 140.34767 98.46371 L 140.50533 98.6154 L 140.66298 98.76518 L 140.82067 98.91624 L 140.97832 99.06407 L 141.136 99.21124 L 141.29366 99.35939 L 141.45133 99.50336 L 141.609 99.64957 L 141.76665 99.79578 L 141.92433 99.94102 L 142.08199 100.08337 L 142.23966 100.22797 L 142.39733 100.37128 L 142.555 100.51555 L 142.71265 100.65242 L 142.87032 100.79314 L 143.02799 100.93515 L 143.18566 101.07233 L 143.34333 101.21338 L 143.50098 101.35217 L 143.65866 101.49129 L 143.81632 101.62265 L 143.974 101.76015 L 144.13166 101.89636 L 144.2893 102.03352 L 144.44699 102.1691 L 144.60465 102.30336 L 144.76232 102.43764 L 144.91999 102.57224 L 145.07765 102.70102 L 145.23532 102.8311 L 145.39298 102.96666 L 145.55065 103.1019 L 145.70832 103.23262 L 145.86598 103.3627 L 146.02365 103.49213 L 146.18132 103.62059 L 146.33898 103.74872 L 146.49665 103.8772 L 146.65431 104.00436 L 146.81198 104.13152 L 146.96965 104.25804 L 147.1273 104.38394 L 147.28499 104.50981 L 147.44264 104.63472 L 147.6003 104.75899 L 147.75798 104.88358 L 147.91564 105.00623 L 148.07332 105.12985 L 148.23097 105.2525 L 148.38864 105.37451 L 148.54631 105.49619 L 148.70398 105.61691 L 148.86165 105.73795 L 149.0193 105.85835 L 149.17697 105.97775 L 149.33464 106.0975 L 149.49231 106.21727 L 149.64997 106.33539 L 149.80765 106.45352 L 149.9653 106.5707 L 150.12297 106.68849 L 150.28064 106.80566 L 150.4383 106.92154 L 150.59598 107.03807 L 150.75363 107.15327 L 150.91132 107.26883 L 151.06897 107.38342 L 151.22663 107.49768 L 151.38431 107.61194 L 151.54196 107.72522 L 151.69963 107.83853 L 151.8573 107.95117 L 152.01497 108.06413 L 152.17264 108.17549 L 152.33029 108.28783 L 152.48796 108.39851 L 152.64563 108.50987 L 152.8033 108.61995 L 152.96097 108.73033 L 153.11864 108.84071 L 153.27629 108.94948 L 153.43398 109.0586 L 153.59163 109.16638 L 153.74929 109.2742 L 153.90697 109.38297 L 154.06462 109.49045 L 154.2223 109.59729 L 154.37996 109.70413 L 154.53763 109.8116 L 154.6953 109.9165 L 154.85295 110.02205 L 155.01064 110.12825 L 155.16829 110.23314 L 155.32596 110.33803 L 155.48363 110.44133 L 155.6413 110.5472 L 155.79895 110.65016 L 155.95662 110.7541 L 156.11429 110.8561 L 156.27196 110.95905 L 156.42963 111.06201 L 156.58728 111.16336 L 156.74497 111.26599 L 156.90262 111.3667 L 157.06029 111.46806 L 157.21796 111.56876 L 157.37561 111.66881 L 157.5333 111.7692 L 157.69095 111.86862 L 157.84864 111.969 L 158.00629 112.06776 L 158.16394 112.16653 L 158.32163 112.26529 L 158.47928 112.36374 L 158.63695 112.46153 L 158.79462 112.559 L 158.95229 112.65712 L 159.10996 112.75365 L 159.26763 112.85176 L 159.42528 112.94666 L 159.58295 113.0438 L 159.74062 113.13869 L 159.89829 113.23488 L 160.05596 113.33043 L 160.21361 113.42532 L 160.37129 113.52087 L 160.52895 113.61446 L 160.6866 113.71 L 160.84429 113.80328 L 161.00194 113.89621 L 161.15962 113.99083 L 161.31728 114.08311 L 161.47495 114.17639 L 161.63262 114.26968 L 161.79027 114.36263 L 161.94795 114.45432 L 162.1056 114.54434 L 162.26328 114.63797 L 162.42095 114.72899 L 162.57862 114.82031 L 162.73627 114.91039 L 162.89394 115.00105 L 163.0516 115.09212 L 163.20928 115.18279 L 163.36695 115.27124 L 163.5246 115.36063 L 163.68228 115.45071 L 163.83994 115.53882 L 163.99762 115.62886 L 164.15528 115.71696 L 164.31293 115.80605 L 164.47061 115.89323 L 164.62827 115.98036 L 164.78594 116.0688 L 164.9436 116.15627 L 165.10128 116.24374 L 165.25894 116.32993 L 165.4166 116.41803 L 165.57427 116.50323 L 165.73194 116.59135 L 165.8896 116.67656 L 166.04727 116.76082 L 166.20494 116.8473 L 166.3626 116.9322 L 166.52027 117.01869 L 166.67794 117.10263 L 166.83559 117.18817 L 166.99327 117.27303 L 167.15093 117.35469 L 167.30861 117.44023 L 167.46627 117.52318 L 167.62392 117.60873 L 167.7816 117.69102 L 167.93926 117.77528 L 168.09694 117.8566 L 168.2546 117.9389 L 168.41226 118.02217 L 168.56993 118.10417 L 168.72759 118.18648 L 168.88526 118.26779 L 169.04293 118.35014 L 169.20059 118.43144 L 169.35826 118.5131 L 169.51593 118.59383 L 169.67359 118.67258 L 169.83127 118.75552 L 169.98892 118.83461 L 170.14659 118.91594 L 170.30426 118.9963 L 170.46192 119.07698 L 170.6196 119.1548 L 170.77725 119.23355 L 170.93494 119.31487 L 171.09259 119.39268 L 171.25025 119.47206 L 171.40793 119.54984 L 171.56558 119.62958 L 171.72325 119.70804 L 171.88092 119.78387 L 172.03859 119.86327 L 172.19626 119.93877 L 172.35391 120.01949 L 172.51158 120.09563 L 172.66925 120.17375 L 172.82692 120.24928 L 172.98459 120.3284 L 173.14226 120.40552 L 173.29991 120.4788 L 173.45758 120.55656 L 173.61525 120.6308 L 173.7729 120.7086 L 173.93059 120.78346 L 174.08824 120.86063 L 174.24593 120.93486 L 174.40358 121.00943 L 174.56125 121.08492 L 174.71892 121.15984 L 174.87657 121.23505 L 175.03426 121.30862 L 175.19191 121.38348 L 175.34958 121.45676 L 175.50725 121.53197 L 175.66492 121.60461 L 175.82257 121.67786 L 175.98024 121.7534 L 176.13791 121.8247 L 176.29558 121.89864 L 176.45325 121.97093 L 176.6109 122.04486 L 176.76859 122.11618 L 176.92624 122.18748 L 177.08391 122.26205 L 177.24158 122.3318 L 177.39923 122.40828 L 177.55692 122.47577 L 177.71457 122.55125 L 177.87224 122.62065 L 178.0299 122.69005 L 178.18756 122.76172 L 178.34525 122.83371 L 178.5029 122.90665 L 178.66057 122.97379 L 178.81824 123.04863 L 178.9759 123.11548 L 179.13358 123.18842 L 179.29125 123.25845 L 179.4489 123.32494 L 179.60657 123.39659 L 179.76424 123.46535 L 179.92189 123.53667 L 180.07958 123.6035 L 180.23723 123.67741 L 180.39492 123.74263 L 180.55257 123.81139 L 180.71022 123.88078 L 180.8679 123.9479 L 181.02556 124.01923 L 181.18325 124.08571 L 181.3409 124.15771 L 181.49857 124.22386 L 181.65624 124.29326 L 181.81389 124.35812 L 181.97158 124.42204 L 182.12923 124.49469 L 182.2869 124.5592 L 182.44457 124.62796 L 182.60224 124.69254 L 182.75989 124.76384 L 182.91756 124.82806 L 183.07523 124.89297 L 183.2329 124.96204 L 183.39057 125.0256 L 183.54822 125.09338 L 183.7059 125.15956 L 183.86356 125.22734 L 184.02123 125.2919 L 184.1789 125.35358 L 184.33655 125.42296 L 184.49423 125.4933 L 184.65189 125.5585 L 184.80956 125.62372 L 184.96723 125.68828 L 185.1249 125.75348 L 185.28256 125.81834 L 185.44022 125.8829 L 185.59789 125.94742 L 185.75556 126.01201 L 185.91323 126.07657 L 186.07089 126.14044 L 186.22856 126.20403 L 186.38622 126.26796 L 186.54389 126.33153 L 186.70156 126.39513 L 186.8592 126.4587 L 187.01689 126.52199 L 187.17455 126.58586 L 187.33223 126.64816 L 187.48989 126.71175 L 187.64754 126.7744 L 187.80522 126.837 L 187.96288 126.89958 L 188.12056 126.9619 L 188.27822 127.02455 L 188.00968 126.91853 "/>
<path transform="matrix(-.0982,.99512,.99512,.0982,110.00434,145.8197)" stroke-width=".31879" stroke-linecap="round" stroke-linejoin="round" fill="none" stroke="#000000" d="M -1.19551 1.59401 C -1.09587 .99626 0 .09961 .29886 0 C 0 -.09961 -1.09587 -.99626 -1.19551 -1.59401 "/>
<path transform="matrix(.93007,-.3672,-.3672,-.93007,188.20867,40.89746)" stroke-width=".31879" stroke-linecap="round" stroke-linejoin="round" fill="none" stroke="#000000" d="M -1.19551 1.59401 C -1.09587 .99626 0 .09961 .29886 0 C 0 -.09961 -1.09587 -.99626 -1.19551 -1.59401 "/>
<path transform="matrix(1,0,0,-1,.199,167.816)" d="M 60.39325 96.83052 C 60.39325 97.99774 59.44704 98.94395 58.27982 98.94395 C 57.1126 98.94395 56.16638 97.99774 56.16638 96.83052 C 56.16638 95.66328 57.1126 94.71707 58.27982 94.71707 C 59.44704 94.71707 60.39325 95.66328 60.39325 96.83052 Z M 58.27982 96.83052 "/>
<path transform="matrix(1,0,0,-1,.199,167.816)" d="M 60.39325 129.10736 C 60.39325 130.27458 59.44704 131.2208 58.27982 131.2208 C 57.1126 131.2208 56.16638 130.27458 56.16638 129.10736 C 56.16638 127.94012 57.1126 126.99391 58.27982 126.99391 C 59.44704 126.99391 60.39325 127.94012 60.39325 129.10736 Z M 58.27982 129.10736 " fill="#ffffff"/>
</g>
<path transform="matrix(1,0,0,-1,.199,167.816)" stroke-width=".3985" stroke-linecap="butt" stroke-miterlimit="10" stroke-linejoin="miter" fill="none" stroke="#000000" d="M 60.27237 129.10736 C 60.27237 130.20783 59.3803 131.09992 58.27982 131.09992 C 57.17935 131.09992 56.28726 130.20783 56.28726 129.10736 C 56.28726 128.00688 57.17935 127.1148 58.27982 127.1148 C 59.3803 127.1148 60.27237 128.00688 60.27237 129.10736 Z M 58.27982 129.10736 "/>
<symbol id="font_3_1">
<path d="M .305 .31300003 C .311 .33900003 .334 .43100003 .404 .43100003 C .409 .43100003 .433 .43100003 .454 .418 C .426 .41300003 .40600003 .388 .40600003 .36400003 C .40600003 .34800003 .417 .32900004 .444 .32900004 C .46600003 .32900004 .498 .34700004 .498 .38700003 C .498 .43900005 .439 .45300005 .405 .45300005 C .347 .45300005 .312 .40000005 .3 .37700004 C .275 .44300003 .221 .45300005 .19200002 .45300005 C .08800001 .45300005 .031000002 .32400004 .031000002 .29900003 C .031000002 .28900004 .041 .28900004 .043000007 .28900004 C .051000008 .28900004 .054000006 .291 .056 .3 C .09 .40600003 .156 .43100003 .19000001 .43100003 C .209 .43100003 .244 .42200003 .244 .36400003 C .244 .33300004 .22700002 .26600004 .19000001 .126 C .17400001 .064 .13900002 .022000002 .095000009 .022000002 C .08900001 .022000002 .06600001 .022000002 .045 .035 C .07000001 .040000004 .09200001 .061 .09200001 .089 C .09200001 .116000007 .07000001 .124000009 .055000009 .124000009 C .025 .124000009 0 .098000008 0 .06600001 C 0 .020000002 .050000006 0 .094000007 0 C .16000001 0 .19600001 .07000001 .19900002 .076000008 C .21100001 .039 .24700003 0 .307 0 C .41 0 .467 .12900001 .467 .15400002 C .467 .16400002 .458 .16400002 .455 .16400002 C .446 .16400002 .444 .16000001 .442 .15300001 C .409 .046 .341 .022000002 .30900003 .022000002 C .27 .022000002 .254 .054 .254 .08800001 C .254 .11000001 .26 .13200002 .271 .17600002 L .305 .31300003 Z "/>
</symbol>
<use xlink:href="#font_3_1" transform="matrix(9.9626,0,0,-9.9626,191.90493,95.04357)"/>
<symbol id="font_3_2">
<path d="M .45700003 .586 C .461 .6 .461 .602 .461 .609 C .461 .62700006 .447 .63600006 .432 .63600006 C .42200003 .63600006 .40600003 .63 .397 .615 C .395 .61 .387 .579 .38300003 .561 C .37600003 .535 .36900003 .508 .363 .48100005 L .318 .301 C .314 .286 .271 .21600002 .20500002 .21600002 C .15400002 .21600002 .143 .26000003 .143 .29700003 C .143 .34300003 .16000001 .40500004 .194 .49300004 C .21000001 .53400006 .21400002 .545 .21400002 .56500008 C .21400002 .61 .18200001 .6470001 .13200002 .6470001 C .037 .6470001 0 .50200006 0 .49300004 C 0 .48300005 .01 .48300005 .012 .48300005 C .022000002 .48300005 .023 .485 .028000003 .50100007 C .055000009 .595 .095000009 .625 .12900001 .625 C .13700001 .625 .15400002 .625 .15400002 .59300008 C .15400002 .568 .14400001 .54200008 .13700001 .523 C .097 .41700004 .079 .36 .079 .31300003 C .079 .224 .142 .194 .201 .194 C .24000003 .194 .274 .21100001 .30200003 .23900002 C .289 .187 .277 .13800001 .237 .08500001 C .21100001 .051 .17300001 .022 .127 .022 C .113000009 .022 .068 .025000006 .051000008 .06400001 C .067 .06400001 .080000009 .06400001 .094000007 .076000008 C .104 .08500001 .11400001 .098000008 .11400001 .117000009 C .11400001 .148 .087000008 .15200001 .07700001 .15200001 C .054000006 .15200001 .021 .136 .021 .087000008 C .021 .037 .065000008 0 .127 0 C .23 0 .333 .091000009 .361 .20400001 L .45700003 .586 Z "/>
</symbol>
<use xlink:href="#font_3_2" transform="matrix(9.9626,0,0,-9.9626,101.139919,9.652334)"/>
</g>
</svg>
