<?xml version="1.0" encoding="UTF-8" standalone="no"?>
<!DOCTYPE svg PUBLIC "-//W3C//DTD SVG 1.1//EN" "http://www.w3.org/Graphics/SVG/1.1/DTD/svg11.dtd">
<svg xmlns="http://www.w3.org/2000/svg" xmlns:xlink="http://www.w3.org/1999/xlink" version="1.1" width="110.182pt" height="95.338pt" viewBox="0 0 110.182 95.338">
<g enable-background="new">
<path transform="matrix(.5,0,0,-.5,6.78,87.2295)" stroke-width=".19925" stroke-linecap="butt" stroke-miterlimit="10" stroke-linejoin="miter" fill="none" stroke="#808080" d="M 16.18935 -1.41766 L 16.18935 1.41768 M 48.56804 -1.41766 L 48.56804 1.41768 M 80.94673 -1.41766 L 80.94673 1.41768 M 113.32542 -1.41766 L 113.32542 1.41768 M 145.70412 -1.41766 L 145.70412 1.41768 M 178.08281 -1.41766 L 178.08281 1.41768 "/>
<path transform="matrix(.5,0,0,-.5,6.78,87.2295)" stroke-width=".19925" stroke-linecap="butt" stroke-miterlimit="10" stroke-linejoin="miter" fill="none" stroke="#808080" d="M 0 -2.12631 L 0 2.12631 M 32.3787 -2.12631 L 32.3787 2.12631 M 64.75739 -2.12631 L 64.75739 2.12631 M 129.51477 -2.12631 L 129.51477 2.12631 M 161.89347 -2.12631 L 161.89347 2.12631 M 194.27216 -2.12631 L 194.27216 2.12631 "/>
<path transform="matrix(.5,0,0,-.5,6.78,87.2295)" stroke-width=".19925" stroke-linecap="butt" stroke-miterlimit="10" stroke-linejoin="miter" fill="none" stroke="#808080" d="M 95.71861 26.89914 L 98.55354 26.89914 M 95.71861 80.69742 L 98.55354 80.69742 M 95.71861 134.4957 L 98.55354 134.4957 "/>
<path transform="matrix(.5,0,0,-.5,6.78,87.2295)" stroke-width=".19925" stroke-linecap="butt" stroke-miterlimit="10" stroke-linejoin="miter" fill="none" stroke="#808080" d="M 95.01007 53.79828 L 99.26205 53.79828 M 95.01007 107.59656 L 99.26205 107.59656 M 95.01007 161.39484 L 99.26205 161.39484 "/>
<path transform="matrix(.5,0,0,-.5,6.78,87.2295)" stroke-width=".3985" stroke-linecap="butt" stroke-miterlimit="10" stroke-linejoin="miter" fill="none" stroke="#000000" d="M 0 0 L 192.27964 0 "/>
<path transform="matrix(.5,0,0,-.5,102.919818,87.2295)" d="M 1.99252 0 L -1.19551 1.59401 L 0 0 L -1.19551 -1.59401 "/>
<path transform="matrix(.5,0,0,-.5,6.78,87.2295)" stroke-width=".3985" stroke-linecap="butt" stroke-miterlimit="10" stroke-linejoin="miter" fill="none" stroke="#000000" d="M 97.13608 0 L 97.13608 159.40232 "/>
<path transform="matrix(0,-.5,-.5,-0,55.348039,7.528343)" d="M 1.99252 0 L -1.19551 1.59401 L 0 0 L -1.19551 -1.59401 "/>
<symbol id="font_0_1">
<path d="M .57600006 0 C .59300008 0 .611 0 .611 .019999996 C .611 .040000008 .59300008 .040000008 .57600006 .040000008 L .035000005 .040000008 C .018 .040000008 0 .040000008 0 .019999996 C 0 0 .018 0 .035000005 0 L .57600006 0 Z "/>
</symbol>
<use xlink:href="#font_0_1" transform="matrix(4.9813,0,0,-4.9813,2.073948,92.1168)"/>
<symbol id="font_1_2">
<path d="M .205 .64000007 C .205 .66400006 .205 .666 .18200003 .666 C .120000008 .60200008 .032000007 .60200008 0 .60200008 L 0 .57100006 C .020000004 .57100006 .07900001 .57100006 .13100001 .597 L .13100001 .079 C .13100001 .043 .128 .031000002 .038000004 .031000002 L .0060000049 .031000002 L .0060000049 0 C .04100001 .003 .128 .003 .168 .003 C .20800002 .003 .29500003 .003 .33000005 0 L .33000005 .031000002 L .29800005 .031000002 C .20800002 .031000002 .205 .042000005 .205 .079 L .205 .64000007 Z "/>
</symbol>
<use xlink:href="#font_1_2" transform="matrix(4.9813,0,0,-4.9813,5.9778358,93.2625)"/>
<symbol id="font_2_1">
<path d="M .106 .053000004 C .106 .082 .08200001 .106000009 .05300001 .106000009 C .024000004 .106000009 0 .082 0 .053000004 C 0 .024 .024000004 0 .05300001 0 C .08200001 0 .106 .024 .106 .053000004 Z "/>
</symbol>
<use xlink:href="#font_2_1" transform="matrix(4.9813,0,0,-4.9813,8.453892,93.2625)"/>
<symbol id="font_1_3">
<path d="M .39900003 .223 C .39900003 .34200005 .317 .44200004 .209 .44200004 C .16100002 .44200004 .118000019 .42600004 .082 .39100004 L .082 .586 C .10200001 .58000007 .135 .573 .16700001 .573 C .29 .573 .36 .66400006 .36 .67700007 C .36 .683 .357 .688 .35 .688 C .349 .688 .347 .688 .342 .68500009 C .322 .67600008 .273 .656 .20600002 .656 C .16600001 .656 .120000008 .66300007 .073 .6840001 C .065 .68700006 .06300001 .68700006 .061000009 .68700006 C .051000004 .68700006 .051000004 .679 .051000004 .66300007 L .051000004 .36700005 C .051000004 .34900005 .051000004 .34100003 .065 .34100003 C .07200001 .34100003 .074 .34400005 .07800001 .35000003 C .08900002 .36600004 .12600002 .42000006 .207 .42000006 C .259 .42000006 .284 .37400005 .292 .35600005 C .308 .31900005 .31 .28000004 .31 .23 C .31 .19500001 .31 .135 .286 .093 C .262 .054000006 .22500001 .028 .17900002 .028 C .106000009 .028 .049000008 .08100001 .032 .14000002 C .035 .13900002 .038000008 .13800001 .049000008 .13800001 C .082 .13800001 .09900001 .163 .09900001 .187 C .09900001 .21100001 .082 .23600002 .049000008 .23600002 C .035 .23600002 0 .22900002 0 .18300002 C 0 .097 .069000009 0 .18100001 0 C .297 0 .39900003 .096 .39900003 .223 Z "/>
</symbol>
<use xlink:href="#font_1_3" transform="matrix(4.9813,0,0,-4.9813,9.658066,93.372089)"/>
<use xlink:href="#font_0_1" transform="matrix(4.9813,0,0,-4.9813,20.19995,92.1168)"/>
<use xlink:href="#font_1_2" transform="matrix(4.9813,0,0,-4.9813,24.104338,93.2625)"/>
<use xlink:href="#font_0_1" transform="matrix(4.9813,0,0,-4.9813,34.451948,92.1168)"/>
<symbol id="font_1_1">
<path d="M .421 .34200005 C .421 .42200003 .416 .50200006 .381 .57600006 C .335 .67200008 .25300003 .688 .211 .688 C .15100001 .688 .07800001 .66200008 .037000006 .56900009 C .0050000029 .5 0 .42200003 0 .34200005 C 0 .26700003 .0040000008 .177 .045000007 .101 C .088 .020000002 .161 0 .21000001 0 C .264 0 .34 .021000002 .384 .116000007 C .416 .185 .421 .263 .421 .34200005 M .21000001 .022000002 C .171 .022000002 .112 .047000003 .094 .143 C .083000008 .20300001 .083000008 .29500003 .083000008 .35400004 C .083000008 .41800005 .083000008 .48400004 .091000009 .53800007 C .11 .65700009 .185 .66600009 .21000001 .66600009 C .243 .66600009 .30900003 .64800009 .328 .549 C .338 .49300004 .338 .41700004 .338 .35400004 C .338 .279 .338 .21100001 .32700003 .147 C .312 .052 .255 .022000002 .21000001 .022000002 Z "/>
</symbol>
<use xlink:href="#font_1_1" transform="matrix(4.9813,0,0,-4.9813,38.10727,93.372089)"/>
<use xlink:href="#font_2_1" transform="matrix(4.9813,0,0,-4.9813,40.83189,93.2625)"/>
<use xlink:href="#font_1_3" transform="matrix(4.9813,0,0,-4.9813,42.036565,93.372089)"/>
<use xlink:href="#font_1_1" transform="matrix(4.9813,0,0,-4.9813,68.54827,93.372089)"/>
<use xlink:href="#font_2_1" transform="matrix(4.9813,0,0,-4.9813,71.272899,93.2625)"/>
<use xlink:href="#font_1_3" transform="matrix(4.9813,0,0,-4.9813,72.47757,93.372089)"/>
<use xlink:href="#font_1_2" transform="matrix(4.9813,0,0,-4.9813,86.923839,93.2625)"/>
<use xlink:href="#font_1_2" transform="matrix(4.9813,0,0,-4.9813,101.175838,93.2625)"/>
<use xlink:href="#font_2_1" transform="matrix(4.9813,0,0,-4.9813,103.65139,93.2625)"/>
<use xlink:href="#font_1_3" transform="matrix(4.9813,0,0,-4.9813,104.85556,93.372089)"/>
<use xlink:href="#font_1_1" transform="matrix(4.9813,0,0,-4.9813,46.35377,62.045087)"/>
<use xlink:href="#font_2_1" transform="matrix(4.9813,0,0,-4.9813,49.078393,61.935499)"/>
<use xlink:href="#font_1_3" transform="matrix(4.9813,0,0,-4.9813,50.283067,62.045087)"/>
<use xlink:href="#font_1_2" transform="matrix(4.9813,0,0,-4.9813,50.477338,35.037)"/>
<use xlink:href="#font_1_2" transform="matrix(4.9813,0,0,-4.9813,46.602838,8.1380009)"/>
<use xlink:href="#font_2_1" transform="matrix(4.9813,0,0,-4.9813,49.078393,8.1380009)"/>
<use xlink:href="#font_1_3" transform="matrix(4.9813,0,0,-4.9813,50.283067,8.247589)"/>
<clipPath id="cp3">
<path transform="matrix(.5,0,0,-.5,6.78,87.2295)" d="M 0 0 L 194.27216 0 L 194.27216 161.39484 L 0 161.39484 Z "/>
</clipPath>
<g clip-path="url(#cp3)">
<path transform="matrix(.5,0,0,-.5,6.78,87.2295)" stroke-width=".3985" stroke-linecap="butt" stroke-miterlimit="10" stroke-linejoin="miter" fill="none" stroke="#000000" d="M 32.512 107.15811 L 33.72778 103.16005 L 35.0769 98.81696 L 36.42603 94.56725 L 37.77513 90.41096 L 39.12427 86.34805 L 40.47337 82.37856 L 41.82248 78.50246 L 43.1716 74.71976 L 44.52072 71.03044 L 45.86983 67.43457 L 47.21895 63.93205 L 48.56807 60.52296 L 49.91718 57.20726 L 51.2663 53.98497 L 52.6154 50.85605 L 53.96454 47.82057 L 55.31364 44.87846 L 56.66275 42.02979 L 58.01189 39.27448 L 59.36098 36.6126 L 60.71011 34.04408 L 62.05922 31.56898 L 63.40833 29.18729 L 64.75746 26.899 "/>
<path transform="matrix(-.145455,-.478355,-.478355,.145455,23.036002,33.650445)" stroke-width=".31879" stroke-linecap="round" stroke-linejoin="round" fill="none" stroke="#000000" d="M -1.19551 1.59401 C -1.09587 .99626 0 .09961 .29886 0 C 0 -.09961 -1.09587 -.99626 -1.19551 -1.59401 "/>
<path transform="matrix(.5,0,0,-.5,6.78,87.2295)" stroke-width=".3985" stroke-linecap="butt" stroke-miterlimit="10" stroke-linejoin="miter" fill="none" stroke="#000000" d="M 129.51477 26.89914 L 130.86386 29.18741 L 132.21298 31.5691 L 133.56209 34.0442 L 134.9112 36.61269 L 136.26032 39.2746 L 137.60942 42.02988 L 138.95853 44.87856 L 140.30764 47.82065 L 141.65676 50.85612 L 143.00586 53.985 L 144.35497 57.2073 L 145.70409 60.52298 L 147.05318 63.93205 L 148.4023 67.43454 L 149.75142 71.03044 L 151.10053 74.71974 L 152.44963 78.50241 L 153.79874 82.3785 L 155.14786 86.34796 L 156.49697 90.41084 L 157.84607 94.56712 L 159.19518 98.81679 L 160.54428 103.15987 L 161.7601 107.15791 "/>
<path transform="matrix(.145455,-.478355,-.478355,-.145455,87.66005,33.650545)" stroke-width=".31879" stroke-linecap="round" stroke-linejoin="round" fill="none" stroke="#000000" d="M -1.19551 1.59401 C -1.09587 .99626 0 .09961 .29886 0 C 0 -.09961 -1.09587 -.99626 -1.19551 -1.59401 "/>
</g>
<symbol id="font_2_2">
<path d="M .305 .31300003 C .311 .33900003 .334 .43100003 .404 .43100003 C .409 .43100003 .433 .43100003 .454 .418 C .426 .41300003 .40600003 .388 .40600003 .36400003 C .40600003 .34800003 .417 .32900004 .444 .32900004 C .46600003 .32900004 .498 .34700004 .498 .38700003 C .498 .43900005 .439 .45300005 .405 .45300005 C .347 .45300005 .312 .40000005 .3 .37700004 C .275 .44300003 .221 .45300005 .19200002 .45300005 C .08800001 .45300005 .031000002 .32400004 .031000002 .29900003 C .031000002 .28900004 .041 .28900004 .043000007 .28900004 C .051000008 .28900004 .054000006 .291 .056 .3 C .09 .40600003 .156 .43100003 .19000001 .43100003 C .209 .43100003 .244 .42200003 .244 .36400003 C .244 .33300004 .22700002 .26600004 .19000001 .126 C .17400001 .064 .13900002 .022000002 .095000009 .022000002 C .08900001 .022000002 .06600001 .022000002 .045 .035 C .07000001 .040000004 .09200001 .061 .09200001 .089 C .09200001 .116000007 .07000001 .124000009 .055000009 .124000009 C .025 .124000009 0 .098000008 0 .06600001 C 0 .020000002 .050000006 0 .094000007 0 C .16000001 0 .19600001 .07000001 .19900002 .076000008 C .21100001 .039 .24700003 0 .307 0 C .41 0 .467 .12900001 .467 .15400002 C .467 .16400002 .458 .16400002 .455 .16400002 C .446 .16400002 .444 .16000001 .442 .15300001 C .409 .046 .341 .022000002 .30900003 .022000002 C .27 .022000002 .254 .054 .254 .08800001 C .254 .11000001 .26 .13200002 .271 .17600002 L .305 .31300003 Z "/>
</symbol>
<use xlink:href="#font_2_2" transform="matrix(4.9813,0,0,-4.9813,105.818958,88.3568)"/>
<symbol id="font_2_3">
<path d="M .45700003 .586 C .461 .6 .461 .602 .461 .609 C .461 .62700006 .447 .63600006 .432 .63600006 C .42200003 .63600006 .40600003 .63 .397 .615 C .395 .61 .387 .579 .38300003 .561 C .37600003 .535 .36900003 .508 .363 .48100005 L .318 .301 C .314 .286 .271 .21600002 .20500002 .21600002 C .15400002 .21600002 .143 .26000003 .143 .29700003 C .143 .34300003 .16000001 .40500004 .194 .49300004 C .21000001 .53400006 .21400002 .545 .21400002 .56500008 C .21400002 .61 .18200001 .6470001 .13200002 .6470001 C .037 .6470001 0 .50200006 0 .49300004 C 0 .48300005 .01 .48300005 .012 .48300005 C .022000002 .48300005 .023 .485 .028000003 .50100007 C .055000009 .595 .095000009 .625 .12900001 .625 C .13700001 .625 .15400002 .625 .15400002 .59300008 C .15400002 .568 .14400001 .54200008 .13700001 .523 C .097 .41700004 .079 .36 .079 .31300003 C .079 .224 .142 .194 .201 .194 C .24000003 .194 .274 .21100001 .30200003 .23900002 C .289 .187 .277 .13800001 .237 .08500001 C .21100001 .051 .17300001 .022 .127 .022 C .113000009 .022 .068 .025000006 .051000008 .06400001 C .067 .06400001 .080000009 .06400001 .094000007 .076000008 C .104 .08500001 .11400001 .098000008 .11400001 .117000009 C .11400001 .148 .087000008 .15200001 .07700001 .15200001 C .054000006 .15200001 .021 .136 .021 .087000008 C .021 .037 .065000008 0 .127 0 C .23 0 .333 .091000009 .361 .20400001 L .45700003 .586 Z "/>
</symbol>
<use xlink:href="#font_2_3" transform="matrix(4.9813,0,0,-4.9813,54.181459,4.8256638)"/>
</g>
</svg>
