<?xml version="1.0" encoding="UTF-8" standalone="no"?>
<!DOCTYPE svg PUBLIC "-//W3C//DTD SVG 1.1//EN" "http://www.w3.org/Graphics/SVG/1.1/DTD/svg11.dtd">
<svg xmlns="http://www.w3.org/2000/svg" xmlns:xlink="http://www.w3.org/1999/xlink" version="1.1" width="103.502pt" height="87.324pt" viewBox="0 0 103.502 87.324">
<g enable-background="new">
<path transform="matrix(.5,0,0,-.5,.0995,87.224498)" stroke-width=".19925" stroke-linecap="butt" stroke-miterlimit="10" stroke-linejoin="miter" fill="none" stroke="#808080" d="M 0 79.27469 L 0 82.1095 M 38.85474 79.27469 L 38.85474 82.1095 M 77.70947 79.27469 L 77.70947 82.1095 M 116.56421 79.27469 L 116.56421 82.1095 M 155.41895 79.27469 L 155.41895 82.1095 M 194.27368 79.27469 L 194.27368 82.1095 "/>
<path transform="matrix(.5,0,0,-.5,.0995,87.224498)" stroke-width=".19925" stroke-linecap="butt" stroke-miterlimit="10" stroke-linejoin="miter" fill="none" stroke="#808080" d="M 19.42737 78.56621 L 19.42737 82.81796 M 58.2821 78.56621 L 58.2821 82.81796 M 135.99158 78.56621 L 135.99158 82.81796 M 174.84632 78.56621 L 174.84632 82.81796 "/>
<path transform="matrix(.5,0,0,-.5,.0995,87.224498)" stroke-width=".19925" stroke-linecap="butt" stroke-miterlimit="10" stroke-linejoin="miter" fill="none" stroke="#808080" d="M 95.71935 0 L 98.55432 0 M 95.71935 32.27684 L 98.55432 32.27684 M 95.71935 64.55368 L 98.55432 64.55368 M 95.71935 96.83052 L 98.55432 96.83052 M 95.71935 129.10736 L 98.55432 129.10736 M 95.71935 161.3842 L 98.55432 161.3842 "/>
<path transform="matrix(.5,0,0,-.5,.0995,87.224498)" stroke-width=".19925" stroke-linecap="butt" stroke-miterlimit="10" stroke-linejoin="miter" fill="none" stroke="#808080" d="M 95.0108 16.13841 L 99.26285 16.13841 M 95.0108 48.41525 L 99.26285 48.41525 M 95.0108 112.96893 L 99.26285 112.96893 M 95.0108 145.24578 L 99.26285 145.24578 "/>
<path transform="matrix(.5,0,0,-.5,.0995,87.224498)" stroke-width=".3985" stroke-linecap="butt" stroke-miterlimit="10" stroke-linejoin="miter" fill="none" stroke="#000000" d="M 0 80.6921 L 192.28116 80.6921 "/>
<path transform="matrix(.5,0,0,-.5,96.24008,46.878446)" d="M 1.99252 0 L -1.19551 1.59401 L 0 0 L -1.19551 -1.59401 "/>
<path transform="matrix(.5,0,0,-.5,.0995,87.224498)" stroke-width=".3985" stroke-linecap="butt" stroke-miterlimit="10" stroke-linejoin="miter" fill="none" stroke="#000000" d="M 97.13684 0 L 97.13684 159.39168 "/>
<path transform="matrix(0,-.5,-.5,-0,48.66792,7.528656)" d="M 1.99252 0 L -1.19551 1.59401 L 0 0 L -1.19551 -1.59401 "/>
<symbol id="font_0_1">
<path d="M .57600006 0 C .59300008 0 .611 0 .611 .019999996 C .611 .040000008 .59300008 .040000008 .57600006 .040000008 L .035000005 .040000008 C .018 .040000008 0 .040000008 0 .019999996 C 0 0 .018 0 .035000005 0 L .57600006 0 Z "/>
</symbol>
<use xlink:href="#font_0_1" transform="matrix(4.9813,0,0,-4.9813,7.043948,51.766294)"/>
<symbol id="font_1_2">
<path d="M .07700001 .07700001 L .18300002 .18 C .33900003 .31800003 .39900003 .372 .39900003 .47200004 C .39900003 .586 .30900003 .666 .18700002 .666 C .074 .666 0 .574 0 .485 C 0 .42900003 .05 .42900003 .053000008 .42900003 C .07000001 .42900003 .105000007 .441 .105000007 .48200003 C .105000007 .508 .08700001 .53400006 .052000006 .53400006 C .044000005 .53400006 .042000008 .53400006 .039 .53300008 C .062000004 .59800007 .11600001 .63500007 .17400001 .63500007 C .26500003 .63500007 .308 .554 .308 .47200004 C .308 .39200003 .25800003 .31300003 .20300003 .25100003 L .011000004 .037 C 0 .026 0 .024 0 0 L .37100003 0 L .39900003 .17400001 L .374 .17400001 C .36900003 .14400001 .36200003 .1 .352 .085 C .345 .07700001 .279 .07700001 .257 .07700001 L .07700001 .07700001 Z "/>
</symbol>
<use xlink:href="#font_1_2" transform="matrix(4.9813,0,0,-4.9813,10.754066,52.91199)"/>
<use xlink:href="#font_0_1" transform="matrix(4.9813,0,0,-4.9813,26.471449,51.766294)"/>
<symbol id="font_1_1">
<path d="M .205 .64000007 C .205 .66400006 .205 .666 .18200003 .666 C .120000008 .60200008 .032000007 .60200008 0 .60200008 L 0 .57100006 C .020000004 .57100006 .07900001 .57100006 .13100001 .597 L .13100001 .079 C .13100001 .043 .128 .031000002 .038000004 .031000002 L .0060000049 .031000002 L .0060000049 0 C .04100001 .003 .128 .003 .168 .003 C .20800002 .003 .29500003 .003 .33000005 0 L .33000005 .031000002 L .29800005 .031000002 C .20800002 .031000002 .205 .042000005 .205 .079 L .205 .64000007 Z "/>
</symbol>
<use xlink:href="#font_1_1" transform="matrix(4.9813,0,0,-4.9813,30.375338,52.91199)"/>
<use xlink:href="#font_1_1" transform="matrix(4.9813,0,0,-4.9813,67.292339,52.91199)"/>
<use xlink:href="#font_1_2" transform="matrix(4.9813,0,0,-4.9813,86.525569,52.91199)"/>
<use xlink:href="#font_0_1" transform="matrix(4.9813,0,0,-4.9813,39.89295,79.407299)"/>
<symbol id="font_1_3">
<path d="M .266 .165 L .266 .078 C .266 .042000005 .26400004 .031000002 .19000001 .031000002 L .16900002 .031000002 L .16900002 0 C .21000001 .003 .26200003 .003 .30400003 .003 C .34600003 .003 .39900003 .003 .44000004 0 L .44000004 .031000002 L .41900004 .031000002 C .34500004 .031000002 .34300003 .042000005 .34300003 .078 L .34300003 .165 L .44300003 .165 L .44300003 .19600001 L .34300003 .19600001 L .34300003 .651 C .34300003 .671 .34300003 .67700007 .32700003 .67700007 C .31800003 .67700007 .31500004 .67700007 .307 .665 L 0 .19600001 L 0 .165 L .266 .165 M .272 .19600001 L .028 .19600001 L .272 .569 L .272 .19600001 Z "/>
</symbol>
<use xlink:href="#font_1_3" transform="matrix(4.9813,0,0,-4.9813,43.493478,80.55299)"/>
<use xlink:href="#font_0_1" transform="matrix(4.9813,0,0,-4.9813,39.89295,63.2688)"/>
<use xlink:href="#font_1_2" transform="matrix(4.9813,0,0,-4.9813,43.603067,64.4145)"/>
<use xlink:href="#font_1_2" transform="matrix(4.9813,0,0,-4.9813,43.603067,32.34599)"/>
<use xlink:href="#font_1_3" transform="matrix(4.9813,0,0,-4.9813,43.493478,16.207497)"/>
<clipPath id="cp2">
<path transform="matrix(.5,0,0,-.5,.0995,87.224498)" d="M 0 0 L 194.27368 0 L 194.27368 161.3842 L 0 161.3842 Z "/>
</clipPath>
<g clip-path="url(#cp2)">
<path transform="matrix(.5,0,0,-.5,.0995,87.224498)" stroke-width=".3985" stroke-linecap="butt" stroke-miterlimit="10" stroke-linejoin="miter" fill="none" stroke="#000000" d="M 19.6711 144.85771 L 25.90312 134.93517 L 32.37889 125.52115 L 38.85464 117.0036 L 45.33041 109.38272 L 51.80617 102.6584 L 58.28194 96.83066 L 64.75769 91.89946 L 71.23346 87.86484 L 77.70923 84.72679 L 84.18498 82.48532 L 90.66075 81.14041 L 97.1365 80.6921 L 103.61227 81.14032 L 110.08803 82.48514 L 116.5638 84.72653 L 123.03957 87.86447 L 129.51532 91.899 L 135.99109 96.83012 L 142.46686 102.65778 L 148.94261 109.38199 L 155.41838 117.00287 L 161.89414 125.52023 L 168.3699 134.93419 L 174.60192 144.85662 "/>
<path transform="matrix(-.265925,-.4234,-.4234,.265925,9.93505,14.795647)" stroke-width=".31879" stroke-linecap="round" stroke-linejoin="round" fill="none" stroke="#000000" d="M -1.19551 1.59401 C -1.09587 .99626 0 .09961 .29886 0 C 0 -.09961 -1.09587 -.99626 -1.19551 -1.59401 "/>
<path transform="matrix(.265925,-.4234,-.4234,-.265925,87.40046,14.796196)" stroke-width=".31879" stroke-linecap="round" stroke-linejoin="round" fill="none" stroke="#000000" d="M -1.19551 1.59401 C -1.09587 .99626 0 .09961 .29886 0 C 0 -.09961 -1.09587 -.99626 -1.19551 -1.59401 "/>
</g>
<symbol id="font_3_1">
<path d="M .305 .31300003 C .311 .33900003 .334 .43100003 .404 .43100003 C .409 .43100003 .433 .43100003 .454 .418 C .426 .41300003 .40600003 .388 .40600003 .36400003 C .40600003 .34800003 .417 .32900004 .444 .32900004 C .46600003 .32900004 .498 .34700004 .498 .38700003 C .498 .43900005 .439 .45300005 .405 .45300005 C .347 .45300005 .312 .40000005 .3 .37700004 C .275 .44300003 .221 .45300005 .19200002 .45300005 C .08800001 .45300005 .031000002 .32400004 .031000002 .29900003 C .031000002 .28900004 .041 .28900004 .043000007 .28900004 C .051000008 .28900004 .054000006 .291 .056 .3 C .09 .40600003 .156 .43100003 .19000001 .43100003 C .209 .43100003 .244 .42200003 .244 .36400003 C .244 .33300004 .22700002 .26600004 .19000001 .126 C .17400001 .064 .13900002 .022000002 .095000009 .022000002 C .08900001 .022000002 .06600001 .022000002 .045 .035 C .07000001 .040000004 .09200001 .061 .09200001 .089 C .09200001 .116000007 .07000001 .124000009 .055000009 .124000009 C .025 .124000009 0 .098000008 0 .06600001 C 0 .020000002 .050000006 0 .094000007 0 C .16000001 0 .19600001 .07000001 .19900002 .076000008 C .21100001 .039 .24700003 0 .307 0 C .41 0 .467 .12900001 .467 .15400002 C .467 .16400002 .458 .16400002 .455 .16400002 C .446 .16400002 .444 .16000001 .442 .15300001 C .409 .046 .341 .022000002 .30900003 .022000002 C .27 .022000002 .254 .054 .254 .08800001 C .254 .11000001 .26 .13200002 .271 .17600002 L .305 .31300003 Z "/>
</symbol>
<use xlink:href="#font_3_1" transform="matrix(4.9813,0,0,-4.9813,99.13946,48.00579)"/>
<symbol id="font_3_2">
<path d="M .45700003 .586 C .461 .6 .461 .602 .461 .609 C .461 .62700006 .447 .63600006 .432 .63600006 C .42200003 .63600006 .40600003 .63 .397 .615 C .395 .61 .387 .579 .38300003 .561 C .37600003 .535 .36900003 .508 .363 .48100005 L .318 .301 C .314 .286 .271 .21600002 .20500002 .21600002 C .15400002 .21600002 .143 .26000003 .143 .29700003 C .143 .34300003 .16000001 .40500004 .194 .49300004 C .21000001 .53400006 .21400002 .545 .21400002 .56500008 C .21400002 .61 .18200001 .6470001 .13200002 .6470001 C .037 .6470001 0 .50200006 0 .49300004 C 0 .48300005 .01 .48300005 .012 .48300005 C .022000002 .48300005 .023 .485 .028000003 .50100007 C .055000009 .595 .095000009 .625 .12900001 .625 C .13700001 .625 .15400002 .625 .15400002 .59300008 C .15400002 .568 .14400001 .54200008 .13700001 .523 C .097 .41700004 .079 .36 .079 .31300003 C .079 .224 .142 .194 .201 .194 C .24000003 .194 .274 .21100001 .30200003 .23900002 C .289 .187 .277 .13800001 .237 .08500001 C .21100001 .051 .17300001 .022 .127 .022 C .113000009 .022 .068 .025000006 .051000008 .06400001 C .067 .06400001 .080000009 .06400001 .094000007 .076000008 C .104 .08500001 .11400001 .098000008 .11400001 .117000009 C .11400001 .148 .087000008 .15200001 .07700001 .15200001 C .054000006 .15200001 .021 .136 .021 .087000008 C .021 .037 .065000008 0 .127 0 C .23 0 .333 .091000009 .361 .20400001 L .45700003 .586 Z "/>
</symbol>
<use xlink:href="#font_3_2" transform="matrix(4.9813,0,0,-4.9813,47.501459,4.8261597)"/>
</g>
</svg>
