<?xml version="1.0" encoding="UTF-8" standalone="no"?>
<!DOCTYPE svg PUBLIC "-//W3C//DTD SVG 1.1//EN" "http://www.w3.org/Graphics/SVG/1.1/DTD/svg11.dtd">
<svg xmlns="http://www.w3.org/2000/svg" xmlns:xlink="http://www.w3.org/1999/xlink" version="1.1" width="103.502pt" height="95.334pt" viewBox="0 0 103.502 95.334">
<g enable-background="new">
<path transform="matrix(.5,0,0,-.5,.0995,87.2255)" stroke-width=".19925" stroke-linecap="butt" stroke-miterlimit="10" stroke-linejoin="miter" fill="none" stroke="#808080" d="M 1.47173 -1.41743 L 1.47173 1.41745 M 4.41524 -1.41743 L 4.41524 1.41745 M 7.35875 -1.41743 L 7.35875 1.41745 M 10.30226 -1.41743 L 10.30226 1.41745 M 13.24577 -1.41743 L 13.24577 1.41745 M 19.13286 -1.41743 L 19.13286 1.41745 M 22.07637 -1.41743 L 22.07637 1.41745 M 25.01988 -1.41743 L 25.01988 1.41745 M 27.9634 -1.41743 L 27.9634 1.41745 M 30.9069 -1.41743 L 30.9069 1.41745 M 33.85042 -1.41743 L 33.85042 1.41745 M 36.79393 -1.41743 L 36.79393 1.41745 M 39.73744 -1.41743 L 39.73744 1.41745 M 42.68095 -1.41743 L 42.68095 1.41745 M 45.62448 -1.41743 L 45.62448 1.41745 M 51.51155 -1.41743 L 51.51155 1.41745 M 54.45506 -1.41743 L 54.45506 1.41745 M 57.39857 -1.41743 L 57.39857 1.41745 M 60.34209 -1.41743 L 60.34209 1.41745 M 63.2856 -1.41743 L 63.2856 1.41745 M 66.22911 -1.41743 L 66.22911 1.41745 M 69.17262 -1.41743 L 69.17262 1.41745 M 72.11613 -1.41743 L 72.11613 1.41745 M 75.05965 -1.41743 L 75.05965 1.41745 M 78.00317 -1.41743 L 78.00317 1.41745 M 83.89024 -1.41743 L 83.89024 1.41745 M 86.83376 -1.41743 L 86.83376 1.41745 M 89.77727 -1.41743 L 89.77727 1.41745 M 92.72078 -1.41743 L 92.72078 1.41745 M 95.66429 -1.41743 L 95.66429 1.41745 M 98.6078 -1.41743 L 98.6078 1.41745 M 101.55132 -1.41743 L 101.55132 1.41745 M 104.49483 -1.41743 L 104.49483 1.41745 M 107.43835 -1.41743 L 107.43835 1.41745 M 110.38187 -1.41743 L 110.38187 1.41745 M 116.26894 -1.41743 L 116.26894 1.41745 M 119.21245 -1.41743 L 119.21245 1.41745 M 122.15596 -1.41743 L 122.15596 1.41745 M 125.09947 -1.41743 L 125.09947 1.41745 M 128.04299 -1.41743 L 128.04299 1.41745 M 130.9865 -1.41743 L 130.9865 1.41745 M 133.93001 -1.41743 L 133.93001 1.41745 M 136.87354 -1.41743 L 136.87354 1.41745 M 139.81705 -1.41743 L 139.81705 1.41745 M 142.76056 -1.41743 L 142.76056 1.41745 M 148.64763 -1.41743 L 148.64763 1.41745 M 151.59114 -1.41743 L 151.59114 1.41745 M 154.53466 -1.41743 L 154.53466 1.41745 M 157.47817 -1.41743 L 157.47817 1.41745 M 160.42168 -1.41743 L 160.42168 1.41745 M 163.36519 -1.41743 L 163.36519 1.41745 M 166.30872 -1.41743 L 166.30872 1.41745 M 169.25223 -1.41743 L 169.25223 1.41745 M 172.19574 -1.41743 L 172.19574 1.41745 M 175.13925 -1.41743 L 175.13925 1.41745 M 181.02632 -1.41743 L 181.02632 1.41745 M 183.96984 -1.41743 L 183.96984 1.41745 M 186.91335 -1.41743 L 186.91335 1.41745 M 189.85686 -1.41743 L 189.85686 1.41745 M 192.80037 -1.41743 L 192.80037 1.41745 "/>
<path transform="matrix(.5,0,0,-.5,.0995,87.2255)" stroke-width=".19925" stroke-linecap="butt" stroke-miterlimit="10" stroke-linejoin="miter" fill="none" stroke="#808080" d="M 16.18935 -2.12596 L 16.18935 2.12596 M 80.94673 -2.12596 L 80.94673 2.12596 M 113.32542 -2.12596 L 113.32542 2.12596 M 145.70412 -2.12596 L 145.70412 2.12596 M 178.08281 -2.12596 L 178.08281 2.12596 "/>
<path transform="matrix(.5,0,0,-.5,.0995,87.2255)" stroke-width=".19925" stroke-linecap="butt" stroke-miterlimit="10" stroke-linejoin="miter" fill="none" stroke="#808080" d="M 47.15063 4.19186 L 49.98543 4.19186 M 47.15063 8.38373 L 49.98543 8.38373 M 47.15063 12.5756 L 49.98543 12.5756 M 47.15063 16.76749 L 49.98543 16.76749 M 47.15063 20.95935 L 49.98543 20.95935 M 47.15063 25.15123 L 49.98543 25.15123 M 47.15063 29.34311 L 49.98543 29.34311 M 47.15063 33.53497 L 49.98543 33.53497 M 47.15063 37.72685 L 49.98543 37.72685 M 47.15063 41.91873 L 49.98543 41.91873 M 47.15063 50.3025 L 49.98543 50.3025 M 47.15063 54.49437 L 49.98543 54.49437 M 47.15063 58.68625 L 49.98543 58.68625 M 47.15063 62.87813 L 49.98543 62.87813 M 47.15063 67.06999 L 49.98543 67.06999 M 47.15063 71.26187 L 49.98543 71.26187 M 47.15063 75.45375 L 49.98543 75.45375 M 47.15063 79.64561 L 49.98543 79.64561 M 47.15063 83.8375 L 49.98543 83.8375 M 47.15063 88.02937 L 49.98543 88.02937 M 47.15063 96.41315 L 49.98543 96.41315 M 47.15063 100.60501 L 49.98543 100.60501 M 47.15063 104.79689 L 49.98543 104.79689 M 47.15063 108.98877 L 49.98543 108.98877 M 47.15063 113.18063 L 49.98543 113.18063 M 47.15063 117.37251 L 49.98543 117.37251 M 47.15063 121.56439 L 49.98543 121.56439 M 47.15063 125.75626 L 49.98543 125.75626 M 47.15063 129.94814 L 49.98543 129.94814 M 47.15063 134.14002 L 49.98543 134.14002 M 47.15063 142.52379 L 49.98543 142.52379 M 47.15063 146.71566 L 49.98543 146.71566 M 47.15063 150.90752 L 49.98543 150.90752 M 47.15063 155.09941 L 49.98543 155.09941 M 47.15063 159.29128 L 49.98543 159.29128 "/>
<path transform="matrix(.5,0,0,-.5,.0995,87.2255)" stroke-width=".19925" stroke-linecap="butt" stroke-miterlimit="10" stroke-linejoin="miter" fill="none" stroke="#808080" d="M 46.44214 46.11063 L 50.69391 46.11063 M 46.44214 92.22127 L 50.69391 92.22127 M 46.44214 138.33191 L 50.69391 138.33191 "/>
<path transform="matrix(.5,0,0,-.5,.0995,87.2255)" stroke-width=".3985" stroke-linecap="butt" stroke-miterlimit="10" stroke-linejoin="miter" fill="none" stroke="#000000" d="M 0 0 L 192.27964 0 "/>
<path transform="matrix(.5,0,0,-.5,96.23932,87.2255)" d="M 1.99252 0 L -1.19551 1.59401 L 0 0 L -1.19551 -1.59401 "/>
<path transform="matrix(.5,0,0,-.5,.0995,87.2255)" stroke-width=".3985" stroke-linecap="butt" stroke-miterlimit="10" stroke-linejoin="miter" fill="none" stroke="#000000" d="M 48.56804 0 L 48.56804 159.39472 "/>
<path transform="matrix(0,-.5,-.5,-0,24.38352,7.528145)" d="M 1.99252 0 L -1.19551 1.59401 L 0 0 L -1.19551 -1.59401 "/>
<symbol id="font_0_1">
<path d="M .57600006 0 C .59300008 0 .611 0 .611 .019999996 C .611 .040000008 .59300008 .040000008 .57600006 .040000008 L .035000005 .040000008 C .018 .040000008 0 .040000008 0 .019999996 C 0 0 .018 0 .035000005 0 L .57600006 0 Z "/>
</symbol>
<use xlink:href="#font_0_1" transform="matrix(4.9813,0,0,-4.9813,5.424948,92.1128)"/>
<symbol id="font_1_2">
<path d="M .205 .64000007 C .205 .66400006 .205 .666 .18200003 .666 C .120000008 .60200008 .032000007 .60200008 0 .60200008 L 0 .57100006 C .020000004 .57100006 .07900001 .57100006 .13100001 .597 L .13100001 .079 C .13100001 .043 .128 .031000002 .038000004 .031000002 L .0060000049 .031000002 L .0060000049 0 C .04100001 .003 .128 .003 .168 .003 C .20800002 .003 .29500003 .003 .33000005 0 L .33000005 .031000002 L .29800005 .031000002 C .20800002 .031000002 .205 .042000005 .205 .079 L .205 .64000007 Z "/>
</symbol>
<use xlink:href="#font_1_2" transform="matrix(4.9813,0,0,-4.9813,9.329335,93.2585)"/>
<use xlink:href="#font_1_2" transform="matrix(4.9813,0,0,-4.9813,39.770338,93.2585)"/>
<symbol id="font_1_3">
<path d="M .07700001 .07700001 L .18300002 .18 C .33900003 .31800003 .39900003 .372 .39900003 .47200004 C .39900003 .586 .30900003 .666 .18700002 .666 C .074 .666 0 .574 0 .485 C 0 .42900003 .05 .42900003 .053000008 .42900003 C .07000001 .42900003 .105000007 .441 .105000007 .48200003 C .105000007 .508 .08700001 .53400006 .052000006 .53400006 C .044000005 .53400006 .042000008 .53400006 .039 .53300008 C .062000004 .59800007 .11600001 .63500007 .17400001 .63500007 C .26500003 .63500007 .308 .554 .308 .47200004 C .308 .39200003 .25800003 .31300003 .20300003 .25100003 L .011000004 .037 C 0 .026 0 .024 0 0 L .37100003 0 L .39900003 .17400001 L .374 .17400001 C .36900003 .14400001 .36200003 .1 .352 .085 C .345 .07700001 .279 .07700001 .257 .07700001 L .07700001 .07700001 Z "/>
</symbol>
<use xlink:href="#font_1_3" transform="matrix(4.9813,0,0,-4.9813,55.765565,93.2585)"/>
<symbol id="font_1_4">
<path d="M .24800003 .37400005 C .33 .40100003 .388 .47100006 .388 .55 C .388 .632 .3 .688 .204 .688 C .10300001 .688 .027000003 .628 .027000003 .55200007 C .027000003 .519 .049000004 .5 .078 .5 C .109000008 .5 .12900001 .522 .12900001 .55100008 C .12900001 .6010001 .082 .6010001 .067 .6010001 C .098 .65000006 .164 .66300007 .20000002 .66300007 C .24100003 .66300007 .29600004 .64100006 .29600004 .55100008 C .29600004 .53900006 .29400004 .48100005 .268 .43700005 C .238 .38900004 .204 .38600005 .17900002 .38500003 C .171 .38400004 .14700002 .38200004 .14000002 .38200004 C .132 .38100005 .125 .38000003 .125 .37000004 C .125 .35900004 .132 .35900004 .14900002 .35900004 L .19300002 .35900004 C .275 .35900004 .312 .29100005 .312 .193 C .312 .057000005 .24300003 .028 .199 .028 C .15600002 .028 .081 .045 .046000005 .104 C .081 .09900001 .11200001 .12100001 .11200001 .15900001 C .11200001 .19500001 .085 .215 .056 .215 C .031999999 .215 0 .201 0 .157 C 0 .06600001 .093 0 .20200002 0 C .32400004 0 .41500003 .091000009 .41500003 .193 C .41500003 .27500005 .35200004 .35300005 .24800003 .37400005 Z "/>
</symbol>
<use xlink:href="#font_1_4" transform="matrix(4.9813,0,0,-4.9813,71.91472,93.36809)"/>
<symbol id="font_1_5">
<path d="M .266 .165 L .266 .078 C .266 .042000005 .26400004 .031000002 .19000001 .031000002 L .16900002 .031000002 L .16900002 0 C .21000001 .003 .26200003 .003 .30400003 .003 C .34600003 .003 .39900003 .003 .44000004 0 L .44000004 .031000002 L .41900004 .031000002 C .34500004 .031000002 .34300003 .042000005 .34300003 .078 L .34300003 .165 L .44300003 .165 L .44300003 .19600001 L .34300003 .19600001 L .34300003 .651 C .34300003 .671 .34300003 .67700007 .32700003 .67700007 C .31800003 .67700007 .31500004 .67700007 .307 .665 L 0 .19600001 L 0 .165 L .266 .165 M .272 .19600001 L .028 .19600001 L .272 .569 L .272 .19600001 Z "/>
</symbol>
<use xlink:href="#font_1_5" transform="matrix(4.9813,0,0,-4.9813,88.03397,93.2585)"/>
<symbol id="font_1_1">
<path d="M .421 .34200005 C .421 .42200003 .416 .50200006 .381 .57600006 C .335 .67200008 .25300003 .688 .211 .688 C .15100001 .688 .07800001 .66200008 .037000006 .56900009 C .0050000029 .5 0 .42200003 0 .34200005 C 0 .26700003 .0040000008 .177 .045000007 .101 C .088 .020000002 .161 0 .21000001 0 C .264 0 .34 .021000002 .384 .116000007 C .416 .185 .421 .263 .421 .34200005 M .21000001 .022000002 C .171 .022000002 .112 .047000003 .094 .143 C .083000008 .20300001 .083000008 .29500003 .083000008 .35400004 C .083000008 .41800005 .083000008 .48400004 .091000009 .53800007 C .11 .65700009 .185 .66600009 .21000001 .66600009 C .243 .66600009 .30900003 .64800009 .328 .549 C .338 .49300004 .338 .41700004 .338 .35400004 C .338 .279 .338 .21100001 .32700003 .147 C .312 .052 .255 .022000002 .21000001 .022000002 Z "/>
</symbol>
<use xlink:href="#font_1_3" transform="matrix(4.9813,0,0,-4.9813,16.828066,65.7755)"/>
<use xlink:href="#font_1_1" transform="matrix(4.9813,0,0,-4.9813,19.263922,65.885089)"/>
<use xlink:href="#font_1_5" transform="matrix(4.9813,0,0,-4.9813,16.718478,42.7205)"/>
<use xlink:href="#font_1_1" transform="matrix(4.9813,0,0,-4.9813,19.263922,42.83009)"/>
<symbol id="font_1_6">
<path d="M .089999999 .35000003 L .089999999 .37400005 C .089999999 .62700006 .21400002 .66300007 .26500003 .66300007 C .28900004 .66300007 .33100004 .65700009 .35300002 .623 C .33800004 .623 .298 .623 .298 .57800009 C .298 .54700008 .32200004 .53200009 .344 .53200009 C .36 .53200009 .39000003 .54100009 .39000003 .58000007 C .39000003 .64000007 .34600003 .688 .263 .688 C .13499999 .688 0 .559 0 .33800004 C 0 .071 .116000007 0 .20900002 0 C .32000003 0 .41500003 .094000007 .41500003 .22600001 C .41500003 .35300005 .32600004 .44900004 .215 .44900004 C .14700002 .44900004 .11000001 .39800004 .089999999 .35000003 M .20900002 .028 C .146 .028 .116000007 .088 .11000001 .103 C .092 .15 .092 .23 .092 .24800001 C .092 .32600004 .124000009 .42600004 .21400002 .42600004 C .23000002 .42600004 .27600003 .42600004 .307 .36400003 C .32500003 .32700003 .32500003 .27600003 .32500003 .22700002 C .32500003 .179 .32500003 .12900001 .30800004 .093 C .27800004 .033000005 .23200003 .028 .20900002 .028 Z "/>
</symbol>
<use xlink:href="#font_1_6" transform="matrix(4.9813,0,0,-4.9813,16.788216,19.775094)"/>
<use xlink:href="#font_1_1" transform="matrix(4.9813,0,0,-4.9813,19.263922,19.775094)"/>
<clipPath id="cp2">
<path transform="matrix(.5,0,0,-.5,.0995,87.2255)" d="M 0 0 L 194.27216 0 L 194.27216 161.38724 L 0 161.38724 Z "/>
</clipPath>
<g clip-path="url(#cp2)">
<path transform="matrix(.5,0,0,-.5,.0995,87.2255)" stroke-width=".3985" stroke-linecap="butt" stroke-miterlimit="10" stroke-linejoin="miter" fill="none" stroke="#000000" d="M 16.27147 147.10321 L 22.93488 110.53433 L 29.68044 82.80756 L 36.42598 62.0354 L 43.17154 46.47443 L 49.9171 34.81697 L 56.66264 26.08362 L 63.4082 19.54027 L 70.15376 14.63857 L 76.8993 10.96664 L 83.64487 8.21562 L 90.39041 6.15475 L 97.13597 4.61086 L 103.88152 3.45428 L 110.62706 2.58781 L 117.37262 1.93918 L 124.11815 1.45259 L 130.86371 1.0882 L 137.60926 .81517 L 144.35482 .61063 L 151.10036 .45749 L 157.8459 .34264 L 164.59146 .25662 L 171.337 .19232 L 177.62433 .14734 "/>
<path transform="matrix(-.08962,-.49188,-.49188,.08962,8.23524,13.673904)" stroke-width=".31879" stroke-linecap="round" stroke-linejoin="round" fill="none" stroke="#000000" d="M -1.19551 1.59401 C -1.09587 .99626 0 .09961 .29886 0 C 0 -.09961 -1.09587 -.99626 -1.19551 -1.59401 "/>
<path transform="matrix(.49996,.00358,.00358,-.49996,88.91167,87.151828)" stroke-width=".31879" stroke-linecap="round" stroke-linejoin="round" fill="none" stroke="#000000" d="M -1.19551 1.59401 C -1.09587 .99626 0 .09961 .29886 0 C 0 -.09961 -1.09587 -.99626 -1.19551 -1.59401 "/>
</g>
<symbol id="font_3_1">
<path d="M .305 .31300003 C .311 .33900003 .334 .43100003 .404 .43100003 C .409 .43100003 .433 .43100003 .454 .418 C .426 .41300003 .40600003 .388 .40600003 .36400003 C .40600003 .34800003 .417 .32900004 .444 .32900004 C .46600003 .32900004 .498 .34700004 .498 .38700003 C .498 .43900005 .439 .45300005 .405 .45300005 C .347 .45300005 .312 .40000005 .3 .37700004 C .275 .44300003 .221 .45300005 .19200002 .45300005 C .08800001 .45300005 .031000002 .32400004 .031000002 .29900003 C .031000002 .28900004 .041 .28900004 .043000007 .28900004 C .051000008 .28900004 .054000006 .291 .056 .3 C .09 .40600003 .156 .43100003 .19000001 .43100003 C .209 .43100003 .244 .42200003 .244 .36400003 C .244 .33300004 .22700002 .26600004 .19000001 .126 C .17400001 .064 .13900002 .022000002 .095000009 .022000002 C .08900001 .022000002 .06600001 .022000002 .045 .035 C .07000001 .040000004 .09200001 .061 .09200001 .089 C .09200001 .116000007 .07000001 .124000009 .055000009 .124000009 C .025 .124000009 0 .098000008 0 .06600001 C 0 .020000002 .050000006 0 .094000007 0 C .16000001 0 .19600001 .07000001 .19900002 .076000008 C .21100001 .039 .24700003 0 .307 0 C .41 0 .467 .12900001 .467 .15400002 C .467 .16400002 .458 .16400002 .455 .16400002 C .446 .16400002 .444 .16000001 .442 .15300001 C .409 .046 .341 .022000002 .30900003 .022000002 C .27 .022000002 .254 .054 .254 .08800001 C .254 .11000001 .26 .13200002 .271 .17600002 L .305 .31300003 Z "/>
</symbol>
<use xlink:href="#font_3_1" transform="matrix(4.9813,0,0,-4.9813,99.138957,88.3528)"/>
<symbol id="font_3_2">
<path d="M .45700003 .586 C .461 .6 .461 .602 .461 .609 C .461 .62700006 .447 .63600006 .432 .63600006 C .42200003 .63600006 .40600003 .63 .397 .615 C .395 .61 .387 .579 .38300003 .561 C .37600003 .535 .36900003 .508 .363 .48100005 L .318 .301 C .314 .286 .271 .21600002 .20500002 .21600002 C .15400002 .21600002 .143 .26000003 .143 .29700003 C .143 .34300003 .16000001 .40500004 .194 .49300004 C .21000001 .53400006 .21400002 .545 .21400002 .56500008 C .21400002 .61 .18200001 .6470001 .13200002 .6470001 C .037 .6470001 0 .50200006 0 .49300004 C 0 .48300005 .01 .48300005 .012 .48300005 C .022000002 .48300005 .023 .485 .028000003 .50100007 C .055000009 .595 .095000009 .625 .12900001 .625 C .13700001 .625 .15400002 .625 .15400002 .59300008 C .15400002 .568 .14400001 .54200008 .13700001 .523 C .097 .41700004 .079 .36 .079 .31300003 C .079 .224 .142 .194 .201 .194 C .24000003 .194 .274 .21100001 .30200003 .23900002 C .289 .187 .277 .13800001 .237 .08500001 C .21100001 .051 .17300001 .022 .127 .022 C .113000009 .022 .068 .025000006 .051000008 .06400001 C .067 .06400001 .080000009 .06400001 .094000007 .076000008 C .104 .08500001 .11400001 .098000008 .11400001 .117000009 C .11400001 .148 .087000008 .15200001 .07700001 .15200001 C .054000006 .15200001 .021 .136 .021 .087000008 C .021 .037 .065000008 0 .127 0 C .23 0 .333 .091000009 .361 .20400001 L .45700003 .586 Z "/>
</symbol>
<use xlink:href="#font_3_2" transform="matrix(4.9813,0,0,-4.9813,23.217457,4.825671)"/>
</g>
</svg>
