<?xml version="1.0" encoding="UTF-8" standalone="no"?>
<!DOCTYPE svg PUBLIC "-//W3C//DTD SVG 1.1//EN" "http://www.w3.org/Graphics/SVG/1.1/DTD/svg11.dtd">
<svg xmlns="http://www.w3.org/2000/svg" xmlns:xlink="http://www.w3.org/1999/xlink" version="1.1" width="217.9pt" height="183.307pt" viewBox="0 0 217.9 183.307">
<g enable-background="new">
<path transform="matrix(1,0,0,-1,13.948,167.92002)" stroke-width=".19925" stroke-linecap="butt" stroke-miterlimit="10" stroke-linejoin="miter" fill="none" stroke="#808080" d="M 4.62544 -1.41739 L 4.62544 1.4174 M 9.25089 -1.41739 L 9.25089 1.4174 M 13.87634 -1.41739 L 13.87634 1.4174 M 18.50179 -1.41739 L 18.50179 1.4174 M 23.12724 -1.41739 L 23.12724 1.4174 M 32.37817 -1.41739 L 32.37817 1.4174 M 37.00362 -1.41739 L 37.00362 1.4174 M 41.62907 -1.41739 L 41.62907 1.4174 M 46.25452 -1.41739 L 46.25452 1.4174 M 50.87997 -1.41739 L 50.87997 1.4174 M 60.1309 -1.41739 L 60.1309 1.4174 M 64.75635 -1.41739 L 64.75635 1.4174 M 69.3818 -1.41739 L 69.3818 1.4174 M 74.00725 -1.41739 L 74.00725 1.4174 M 78.6327 -1.41739 L 78.6327 1.4174 M 87.88364 -1.41739 L 87.88364 1.4174 M 92.50908 -1.41739 L 92.50908 1.4174 M 97.13454 -1.41739 L 97.13454 1.4174 M 101.75998 -1.41739 L 101.75998 1.4174 M 106.38544 -1.41739 L 106.38544 1.4174 M 115.63637 -1.41739 L 115.63637 1.4174 M 120.26181 -1.41739 L 120.26181 1.4174 M 124.88727 -1.41739 L 124.88727 1.4174 M 129.51271 -1.41739 L 129.51271 1.4174 M 134.13817 -1.41739 L 134.13817 1.4174 M 143.3891 -1.41739 L 143.3891 1.4174 M 148.01454 -1.41739 L 148.01454 1.4174 M 152.64 -1.41739 L 152.64 1.4174 M 157.26544 -1.41739 L 157.26544 1.4174 M 161.8909 -1.41739 L 161.8909 1.4174 M 171.14183 -1.41739 L 171.14183 1.4174 M 175.76728 -1.41739 L 175.76728 1.4174 M 180.39273 -1.41739 L 180.39273 1.4174 M 185.01818 -1.41739 L 185.01818 1.4174 M 189.64365 -1.41739 L 189.64365 1.4174 "/>
<path transform="matrix(1,0,0,-1,13.948,167.92002)" stroke-width=".19925" stroke-linecap="butt" stroke-miterlimit="10" stroke-linejoin="miter" fill="none" stroke="#808080" d="M 27.75273 -2.12592 L 27.75273 2.12592 M 55.50546 -2.12592 L 55.50546 2.12592 M 83.2582 -2.12592 L 83.2582 2.12592 M 111.01093 -2.12592 L 111.01093 2.12592 M 138.76366 -2.12592 L 138.76366 2.12592 M 166.51639 -2.12592 L 166.51639 2.12592 M 194.26912 -2.12592 L 194.26912 2.12592 "/>
<path transform="matrix(1,0,0,-1,13.948,167.92002)" stroke-width=".19925" stroke-linecap="butt" stroke-miterlimit="10" stroke-linejoin="miter" fill="none" stroke="#808080" d="M -1.41753 5.37971 L 1.41754 5.37971 M -1.41753 10.75943 L 1.41754 10.75943 M -1.41753 16.13916 L 1.41754 16.13916 M -1.41753 21.51888 L 1.41754 21.51888 M -1.41753 26.8986 L 1.41754 26.8986 M -1.41753 37.65808 L 1.41754 37.65808 M -1.41753 43.0378 L 1.41754 43.0378 M -1.41753 48.41751 L 1.41754 48.41751 M -1.41753 53.79724 L 1.41754 53.79724 M -1.41753 59.17696 L 1.41754 59.17696 M -1.41753 69.93643 L 1.41754 69.93643 M -1.41753 75.31616 L 1.41754 75.31616 M -1.41753 80.69588 L 1.41754 80.69588 M -1.41753 86.0756 L 1.41754 86.0756 M -1.41753 91.45532 L 1.41754 91.45532 M -1.41753 102.2148 L 1.41754 102.2148 M -1.41753 107.59451 L 1.41754 107.59451 M -1.41753 112.97424 L 1.41754 112.97424 M -1.41753 118.35396 L 1.41754 118.35396 M -1.41753 123.73369 L 1.41754 123.73369 M -1.41753 134.49317 L 1.41754 134.49317 M -1.41753 139.87288 L 1.41754 139.87288 M -1.41753 145.2526 L 1.41754 145.2526 M -1.41753 150.63233 L 1.41754 150.63233 M -1.41753 156.01204 L 1.41754 156.01204 "/>
<path transform="matrix(1,0,0,-1,13.948,167.92002)" stroke-width=".19925" stroke-linecap="butt" stroke-miterlimit="10" stroke-linejoin="miter" fill="none" stroke="#808080" d="M -2.12611 32.27835 L 2.12611 32.27835 M -2.12611 64.55672 L 2.12611 64.55672 M -2.12611 96.83507 L 2.12611 96.83507 M -2.12611 129.11344 L 2.12611 129.11344 M -2.12611 161.3918 L 2.12611 161.3918 "/>
<path transform="matrix(1,0,0,-1,13.948,167.92002)" stroke-width=".3985" stroke-linecap="butt" stroke-miterlimit="10" stroke-linejoin="miter" fill="none" stroke="#000000" d="M 0 0 L 192.2766 0 "/>
<path transform="matrix(1,0,0,-1,206.2246,167.92002)" d="M 1.99252 0 L -1.19551 1.59401 L 0 0 L -1.19551 -1.59401 "/>
<path transform="matrix(1,0,0,-1,13.948,167.92002)" stroke-width=".3985" stroke-linecap="butt" stroke-miterlimit="10" stroke-linejoin="miter" fill="none" stroke="#000000" d="M 0 0 L 0 159.39928 "/>
<path transform="matrix(0,-1,-1,-0,13.948,8.520737)" d="M 1.99252 0 L -1.19551 1.59401 L 0 0 L -1.19551 -1.59401 "/>
<symbol id="font_0_1">
<path d="M .421 .34200005 C .421 .42200003 .416 .50200006 .381 .57600006 C .335 .67200008 .25300003 .688 .211 .688 C .15100001 .688 .07800001 .66200008 .037000006 .56900009 C .0050000029 .5 0 .42200003 0 .34200005 C 0 .26700003 .0040000008 .177 .045000007 .101 C .088 .020000002 .161 0 .21000001 0 C .264 0 .34 .021000002 .384 .116000007 C .416 .185 .421 .263 .421 .34200005 M .21000001 .022000002 C .171 .022000002 .112 .047000003 .094 .143 C .083000008 .20300001 .083000008 .29500003 .083000008 .35400004 C .083000008 .41800005 .083000008 .48400004 .091000009 .53800007 C .11 .65700009 .185 .66600009 .21000001 .66600009 C .243 .66600009 .30900003 .64800009 .328 .549 C .338 .49300004 .338 .41700004 .338 .35400004 C .338 .279 .338 .21100001 .32700003 .147 C .312 .052 .255 .022000002 .21000001 .022000002 Z "/>
</symbol>
<use xlink:href="#font_0_1" transform="matrix(9.9626,0,0,-9.9626,35.72354,180.20519)"/>
<symbol id="font_1_1">
<path d="M .106 .053000004 C .106 .082 .08200001 .106000009 .05300001 .106000009 C .024000004 .106000009 0 .082 0 .053000004 C 0 .024 .024000004 0 .05300001 0 C .08200001 0 .106 .024 .106 .053000004 Z "/>
</symbol>
<use xlink:href="#font_1_1" transform="matrix(9.9626,0,0,-9.9626,41.172784,179.98601)"/>
<symbol id="font_0_6">
<path d="M .39900003 .223 C .39900003 .34200005 .317 .44200004 .209 .44200004 C .16100002 .44200004 .118000019 .42600004 .082 .39100004 L .082 .586 C .10200001 .58000007 .135 .573 .16700001 .573 C .29 .573 .36 .66400006 .36 .67700007 C .36 .683 .357 .688 .35 .688 C .349 .688 .347 .688 .342 .68500009 C .322 .67600008 .273 .656 .20600002 .656 C .16600001 .656 .120000008 .66300007 .073 .6840001 C .065 .68700006 .06300001 .68700006 .061000009 .68700006 C .051000004 .68700006 .051000004 .679 .051000004 .66300007 L .051000004 .36700005 C .051000004 .34900005 .051000004 .34100003 .065 .34100003 C .07200001 .34100003 .074 .34400005 .07800001 .35000003 C .08900002 .36600004 .12600002 .42000006 .207 .42000006 C .259 .42000006 .284 .37400005 .292 .35600005 C .308 .31900005 .31 .28000004 .31 .23 C .31 .19500001 .31 .135 .286 .093 C .262 .054000006 .22500001 .028 .17900002 .028 C .106000009 .028 .049000008 .08100001 .032 .14000002 C .035 .13900002 .038000008 .13800001 .049000008 .13800001 C .082 .13800001 .09900001 .163 .09900001 .187 C .09900001 .21100001 .082 .23600002 .049000008 .23600002 C .035 .23600002 0 .22900002 0 .18300002 C 0 .097 .069000009 0 .18100001 0 C .297 0 .39900003 .096 .39900003 .223 Z "/>
</symbol>
<use xlink:href="#font_0_6" transform="matrix(9.9626,0,0,-9.9626,43.58213,180.20519)"/>
<symbol id="font_0_2">
<path d="M .205 .64000007 C .205 .66400006 .205 .666 .18200003 .666 C .120000008 .60200008 .032000007 .60200008 0 .60200008 L 0 .57100006 C .020000004 .57100006 .07900001 .57100006 .13100001 .597 L .13100001 .079 C .13100001 .043 .128 .031000002 .038000004 .031000002 L .0060000049 .031000002 L .0060000049 0 C .04100001 .003 .128 .003 .168 .003 C .20800002 .003 .29500003 .003 .33000005 0 L .33000005 .031000002 L .29800005 .031000002 C .20800002 .031000002 .205 .042000005 .205 .079 L .205 .64000007 Z "/>
</symbol>
<use xlink:href="#font_0_2" transform="matrix(9.9626,0,0,-9.9626,67.84867,179.98601)"/>
<use xlink:href="#font_0_2" transform="matrix(9.9626,0,0,-9.9626,91.72667,179.98601)"/>
<use xlink:href="#font_1_1" transform="matrix(9.9626,0,0,-9.9626,96.67778,179.98601)"/>
<use xlink:href="#font_0_6" transform="matrix(9.9626,0,0,-9.9626,99.08713,180.20519)"/>
<symbol id="font_0_3">
<path d="M .07700001 .07700001 L .18300002 .18 C .33900003 .31800003 .39900003 .372 .39900003 .47200004 C .39900003 .586 .30900003 .666 .18700002 .666 C .074 .666 0 .574 0 .485 C 0 .42900003 .05 .42900003 .053000008 .42900003 C .07000001 .42900003 .105000007 .441 .105000007 .48200003 C .105000007 .508 .08700001 .53400006 .052000006 .53400006 C .044000005 .53400006 .042000008 .53400006 .039 .53300008 C .062000004 .59800007 .11600001 .63500007 .17400001 .63500007 C .26500003 .63500007 .308 .554 .308 .47200004 C .308 .39200003 .25800003 .31300003 .20300003 .25100003 L .011000004 .037 C 0 .026 0 .024 0 0 L .37100003 0 L .39900003 .17400001 L .374 .17400001 C .36900003 .14400001 .36200003 .1 .352 .085 C .345 .07700001 .279 .07700001 .257 .07700001 L .07700001 .07700001 Z "/>
</symbol>
<use xlink:href="#font_0_3" transform="matrix(9.9626,0,0,-9.9626,122.965129,179.98601)"/>
<use xlink:href="#font_0_3" transform="matrix(9.9626,0,0,-9.9626,146.84313,179.98601)"/>
<use xlink:href="#font_1_1" transform="matrix(9.9626,0,0,-9.9626,152.18279,179.98601)"/>
<use xlink:href="#font_0_6" transform="matrix(9.9626,0,0,-9.9626,154.59113,180.20519)"/>
<symbol id="font_0_4">
<path d="M .24800003 .37400005 C .33 .40100003 .388 .47100006 .388 .55 C .388 .632 .3 .688 .204 .688 C .10300001 .688 .027000003 .628 .027000003 .55200007 C .027000003 .519 .049000004 .5 .078 .5 C .109000008 .5 .12900001 .522 .12900001 .55100008 C .12900001 .6010001 .082 .6010001 .067 .6010001 C .098 .65000006 .164 .66300007 .20000002 .66300007 C .24100003 .66300007 .29600004 .64100006 .29600004 .55100008 C .29600004 .53900006 .29400004 .48100005 .268 .43700005 C .238 .38900004 .204 .38600005 .17900002 .38500003 C .171 .38400004 .14700002 .38200004 .14000002 .38200004 C .132 .38100005 .125 .38000003 .125 .37000004 C .125 .35900004 .132 .35900004 .14900002 .35900004 L .19300002 .35900004 C .275 .35900004 .312 .29100005 .312 .193 C .312 .057000005 .24300003 .028 .199 .028 C .15600002 .028 .081 .045 .046000005 .104 C .081 .09900001 .11200001 .12100001 .11200001 .15900001 C .11200001 .19500001 .085 .215 .056 .215 C .031999999 .215 0 .201 0 .157 C 0 .06600001 .093 0 .20200002 0 C .32400004 0 .41500003 .091000009 .41500003 .193 C .41500003 .27500005 .35200004 .35300005 .24800003 .37400005 Z "/>
</symbol>
<use xlink:href="#font_0_4" transform="matrix(9.9626,0,0,-9.9626,178.38942,180.20519)"/>
<use xlink:href="#font_0_4" transform="matrix(9.9626,0,0,-9.9626,202.26743,180.20519)"/>
<use xlink:href="#font_1_1" transform="matrix(9.9626,0,0,-9.9626,207.68778,179.98601)"/>
<use xlink:href="#font_0_6" transform="matrix(9.9626,0,0,-9.9626,210.09612,180.20519)"/>
<use xlink:href="#font_0_2" transform="matrix(9.9626,0,0,-9.9626,4.2076718,138.85301)"/>
<use xlink:href="#font_0_3" transform="matrix(9.9626,0,0,-9.9626,3.8191303,106.575008)"/>
<use xlink:href="#font_0_4" transform="matrix(9.9626,0,0,-9.9626,3.7394293,74.51618)"/>
<symbol id="font_0_5">
<path d="M .266 .165 L .266 .078 C .266 .042000005 .26400004 .031000002 .19000001 .031000002 L .16900002 .031000002 L .16900002 0 C .21000001 .003 .26200003 .003 .30400003 .003 C .34600003 .003 .39900003 .003 .44000004 0 L .44000004 .031000002 L .41900004 .031000002 C .34500004 .031000002 .34300003 .042000005 .34300003 .078 L .34300003 .165 L .44300003 .165 L .44300003 .19600001 L .34300003 .19600001 L .34300003 .651 C .34300003 .671 .34300003 .67700007 .32700003 .67700007 C .31800003 .67700007 .31500004 .67700007 .307 .665 L 0 .19600001 L 0 .165 L .266 .165 M .272 .19600001 L .028 .19600001 L .272 .569 L .272 .19600001 Z "/>
</symbol>
<use xlink:href="#font_0_5" transform="matrix(9.9626,0,0,-9.9626,3.599953,42.019014)"/>
<use xlink:href="#font_0_6" transform="matrix(9.9626,0,0,-9.9626,3.8191303,9.96019)"/>
<clipPath id="cp2">
<path transform="matrix(1,0,0,-1,13.948,167.92002)" d="M 0 0 L 194.26912 0 L 194.26912 161.3918 L 0 161.3918 Z "/>
</clipPath>
<g clip-path="url(#cp2)">
<path transform="matrix(1,0,0,-1,13.948,167.92002)" stroke-width=".79701" stroke-linecap="butt" stroke-miterlimit="10" stroke-linejoin="miter" fill="none" stroke="#0000ff" d="M 0 0 L .66873 3.54294 L 1.33746 5.01048 L 2.00621 6.13657 L 2.67494 7.0859 L 3.34369 7.92227 L 4.01244 8.67842 L 4.68117 9.37378 L 5.34991 10.02098 L 6.01865 10.62901 L 6.6874 11.20398 L 7.35614 11.75082 L 8.02487 12.27333 L 8.6936 12.77449 L 9.36237 13.25671 L 10.0311 13.722 L 10.69984 14.17203 L 11.36858 14.60818 L 12.03731 15.03171 L 12.70607 15.4436 L 13.3748 15.8448 L 14.04353 16.2361 L 14.71228 16.61818 L 15.38103 16.99167 L 16.04976 17.35713 L 16.7185 17.71504 L 17.38724 18.06586 L 18.05597 18.41 L 18.72473 18.74783 L 19.39346 19.07968 L 20.0622 19.40585 L 20.73094 19.72662 L 21.39967 20.04227 L 22.06842 20.35303 L 22.73717 20.6591 L 23.4059 20.96071 L 24.07463 21.25804 L 24.7434 21.55127 L 25.41212 21.84056 L 26.08086 22.12608 L 26.7496 22.40796 L 27.41833 22.68631 L 28.08708 22.96132 L 28.75583 23.23305 L 29.42456 23.50166 L 30.09329 23.76723 L 30.76205 24.02985 L 31.43079 24.28964 L 32.09952 24.54668 L 32.76826 24.80106 L 33.437 25.05286 L 34.10574 25.30214 L 34.77449 25.54898 L 35.44322 25.79349 L 36.11195 26.03568 L 36.7807 26.27565 L 37.44945 26.51344 L 38.1182 26.74911 L 38.78693 26.98274 L 39.45566 27.21436 L 40.12442 27.44402 L 40.79315 27.67177 L 41.46188 27.89767 L 42.13063 28.12175 L 42.79936 28.34407 L 43.46811 28.56465 L 44.13686 28.78354 L 44.80559 29.00078 L 45.47432 29.21638 L 46.14308 29.43044 L 46.81181 29.64293 L 47.48055 29.85391 L 48.14929 30.06343 L 48.81802 30.27147 L 49.48677 30.4781 L 50.15552 30.68335 L 50.82425 30.88724 L 51.49298 31.08977 L 52.16173 31.291 L 52.83047 31.49095 L 53.4992 31.68962 L 54.16795 31.88707 L 54.83669 32.0833 L 55.50543 32.27834 L 56.17418 32.4717 L 56.84291 32.6644 L 57.51164 32.856 L 58.18039 33.04643 L 58.84914 33.23582 L 59.51787 33.42418 L 60.18661 33.61145 L 60.85535 33.79759 L 61.5241 33.9828 L 62.19284 34.16699 L 62.86157 34.35023 L 63.5303 34.53244 L 64.19905 34.71373 L 64.8678 34.89403 L 65.53654 35.07346 L 66.20528 35.25192 L 66.87401 35.42955 L 67.54276 35.60625 L 68.2115 35.78209 L 68.88023 35.95705 L 69.54898 36.1312 L 70.21771 36.30446 L 70.88646 36.47693 L 71.5552 36.64862 L 72.22394 36.81946 L 72.89267 36.98953 L 73.56142 37.15883 L 74.23016 37.32736 L 74.8989 37.49512 L 75.56764 37.66212 L 76.23637 37.82841 L 76.90512 37.99393 L 77.57387 38.15881 L 78.2426 38.32289 L 78.91133 38.48631 L 79.58008 38.64906 L 80.24883 38.8111 L 80.91756 38.97249 L 81.5863 39.1332 L 82.25504 39.29327 L 82.92377 39.45267 L 83.59253 39.6114 L 84.26126 39.76956 L 84.93 39.92706 L 85.59874 40.08392 L 86.26749 40.24022 L 86.93622 40.3959 L 87.60497 40.55096 L 88.2737 40.70541 L 88.94243 40.85933 L 89.61119 41.01265 L 90.27992 41.16545 L 90.94865 41.31757 L 91.6174 41.46922 L 92.28615 41.62029 L 92.95488 41.7708 L 93.62363 41.92076 L 94.29236 42.07025 L 94.9611 42.21922 L 95.62985 42.36758 L 96.29858 42.51546 L 96.96733 42.66281 L 97.63606 42.80968 L 98.3048 42.95602 L 98.97356 43.10191 L 99.64229 43.24724 L 100.31102 43.39217 L 100.97977 43.53656 L 101.64851 43.6805 L 102.31725 43.8239 L 102.986 43.96689 L 103.65472 44.10944 L 104.32346 44.2515 L 104.99222 44.39305 L 105.66095 44.53426 L 106.32968 44.67494 L 106.99843 44.81523 L 107.66718 44.95502 L 108.3359 45.09444 L 109.00465 45.23343 L 109.67339 45.37196 L 110.34212 45.51009 L 111.01088 45.64778 L 111.67961 45.78506 L 112.34834 45.92192 L 113.01709 46.0584 L 113.68582 46.19444 L 114.35457 46.33015 L 115.02332 46.4654 L 115.69205 46.6003 L 116.36078 46.73476 L 117.02954 46.86888 L 117.69827 47.00261 L 118.367 47.13591 L 119.03575 47.2689 L 119.70448 47.40149 L 120.37323 47.53374 L 121.04198 47.66557 L 121.71071 47.79709 L 122.37946 47.92818 L 123.0482 48.05898 L 123.71693 48.18938 L 124.38568 48.31946 L 125.05441 48.44919 L 125.72314 48.57852 L 126.3919 48.70758 L 127.06064 48.83627 L 127.72937 48.96465 L 128.39812 49.09262 L 129.06685 49.22029 L 129.7356 49.34767 L 130.40435 49.47469 L 131.07308 49.60138 L 131.7418 49.72774 L 132.41057 49.85379 L 133.0793 49.97954 L 133.74803 50.10493 L 134.41678 50.23003 L 135.08551 50.35484 L 135.75426 50.47934 L 136.423 50.60352 L 137.09174 50.72737 L 137.76047 50.85095 L 138.42923 50.97423 L 139.09796 51.09721 L 139.7667 51.21994 L 140.43544 51.3423 L 141.10417 51.4644 L 141.77292 51.58618 L 142.44167 51.70773 L 143.1104 51.82896 L 143.77913 51.94994 L 144.44789 52.07057 L 145.11663 52.191 L 145.78536 52.31111 L 146.4541 52.43097 L 147.12284 52.55054 L 147.79158 52.66982 L 148.46033 52.78882 L 149.12906 52.90761 L 149.7978 53.02608 L 150.46654 53.14435 L 151.13529 53.26228 L 151.80403 53.37999 L 152.47277 53.49745 L 153.1415 53.61464 L 153.81026 53.73158 L 154.47899 53.84822 L 155.14772 53.96469 L 155.81647 54.08086 L 156.4852 54.19681 L 157.15395 54.31247 L 157.8227 54.42792 L 158.49143 54.54312 L 159.16016 54.65807 L 159.82892 54.77278 L 160.49765 54.88724 L 161.16638 55.00143 L 161.83513 55.11542 L 162.50386 55.22919 L 163.1726 55.34271 L 163.84136 55.45602 L 164.51009 55.56909 L 165.17882 55.68193 L 165.84757 55.79453 L 165.81879 55.7897 "/>
<path transform="matrix(.98611,-.16571,-.16571,-.98611,179.76677,112.130329)" stroke-width=".6376" stroke-linecap="round" stroke-linejoin="round" fill="none" stroke="#0000ff" d="M -1.55415 2.0722 C -1.42464 1.29512 0 .1295 .38852 0 C 0 -.1295 -1.42464 -1.29512 -1.55415 -2.0722 "/>
<symbol id="font_3_1">
<path d="M .328 .60200008 L .421 .60200008 C .441 .60200008 .453 .60200008 .453 .62100008 C .453 .63500007 .44000004 .63500007 .423 .63500007 L .33400003 .63500007 C .35000003 .725 .36 .782 .37 .827 C .374 .84400007 .377 .855 .39200003 .86700007 C .405 .878 .41300003 .88000008 .42400003 .88000008 C .439 .88000008 .45500005 .87700006 .468 .869 C .463 .86700007 .45700003 .864 .45200003 .861 C .435 .852 .423 .83400008 .423 .814 C .423 .791 .441 .777 .463 .777 C .49200005 .777 .519 .80200007 .519 .837 C .519 .884 .47100003 .90800008 .423 .90800008 C .38900004 .90800008 .326 .892 .294 .8 C .285 .777 .285 .77500006 .25800003 .63500007 L .183 .63500007 C .163 .63500007 .15100001 .63500007 .15100001 .61600008 C .15100001 .60200008 .164 .60200008 .18100001 .60200008 L .252 .60200008 L .18 .21400002 C .161 .113000009 .146 .027999998 .092999998 .027999998 C .09 .027999998 .069000009 .027999998 .05 .040000008 C .096 .051 .096 .093 .096 .094000007 C .096 .117000009 .077999997 .13100001 .056000007 .13100001 C .029000003 .13100001 0 .10800001 0 .07000001 C 0 .027999998 .043 0 .092999998 0 C .154 0 .19600001 .06400001 .20899999 .08900001 C .245 .155 .268 .28000004 .27 .29000003 L .328 .60200008 Z "/>
</symbol>
<use xlink:href="#font_3_1" transform="matrix(7.9701,0,0,-7.9701,80.87135,144.46791)" fill="#0000ff"/>
<symbol id="font_4_2">
<path d="M .22999999 0 C .238 0 .25 0 .25 .0119999949 C .25 .015999988 .24900002 .01699999 .236 .029999987 C .099 .159 .065000008 .345 .065000008 .5 C .065000008 .78800007 .18399999 .92300006 .23500002 .96900007 C .24900002 .98200008 .25 .98300006 .25 .98800006 C .25 .99300006 .24599999 1 .236 1 C .22 1 .16999999 .94900009 .162 .94000008 C .028000005 .8 0 .62 0 .5 C 0 .276 .094000007 .095999989 .22999999 0 Z "/>
</symbol>
<use xlink:href="#font_4_2" transform="matrix(7.9701,0,0,-7.9701,86.20092,144.83454)" fill="#0000ff"/>
<symbol id="font_3_3">
<path d="M .46900005 .409 C .425 .398 .423 .359 .423 .35500003 C .423 .333 .44000004 .31800003 .462 .31800003 C .48400004 .31800003 .518 .335 .518 .37800003 C .518 .435 .455 .451 .418 .451 C .37100003 .451 .333 .418 .31 .379 C .28800003 .432 .236 .451 .19500001 .451 C .08600001 .451 .025000003 .326 .025000003 .298 C .025000003 .289 .032 .285 .040000004 .285 C .052000006 .285 .054 .29 .057 .30200003 C .08 .375 .14 .423 .192 .423 C .231 .423 .25 .395 .25 .359 C .25 .33900003 .238 .293 .23000002 .261 C .22300002 .23200003 .201 .143 .19600001 .124000009 C .18200001 .07 .146 .028 .100999999 .028 C .097 .028 .07100001 .028 .05 .042000005 C .096 .053000004 .096 .095 .096 .096 C .096 .119 .07800001 .133 .056000007 .133 C .029000003 .133 0 .11 0 .072000008 C 0 .026 .049 0 .099999997 0 C .153 0 .19000001 .040000004 .208 .072000008 C .23000002 .023000002 .27600003 0 .324 0 C .43300004 0 .49300004 .125 .49300004 .15300001 C .49300004 .16300002 .485 .16600001 .47800005 .16600001 C .46600003 .16600001 .46400003 .15900001 .46100004 .14900002 C .441 .082 .384 .028 .326 .028 C .293 .028 .26900003 .050000006 .26900003 .092 C .26900003 .112 .275 .135 .289 .19100002 C .296 .22100002 .31800003 .30900003 .323 .328 C .337 .38 .372 .423 .41700004 .423 C .42200003 .423 .448 .423 .46900005 .409 Z "/>
</symbol>
<use xlink:href="#font_3_3" transform="matrix(7.9701,0,0,-7.9701,88.92804,142.9217)" fill="#0000ff"/>
<symbol id="font_4_3">
<path d="M .24900002 .5 C .24900002 .595 .23300001 .709 .171 .827 C .12200001 .919 .031000004 1 .013000004 1 C .0029999987 1 0 .99300006 0 .98800006 C 0 .984 0 .98200008 .012000002 .97 C .15200001 .837 .18400002 .65400007 .18400002 .5 C .18400002 .213 .065 .07699999 .013999999 .030999989 C .001000002 .017999992 0 .01699999 0 .0119999949 C 0 .0069999846 .0029999987 0 .013000004 0 C .029 0 .07900001 .050999986 .087 .059999989 C .22100002 .2 .24900002 .38 .24900002 .5 Z "/>
</symbol>
<symbol id="font_4_4">
<path d="M .672 .212 C .68700006 .212 .707 .212 .707 .235 C .707 .25800003 .683 .25800003 .66800007 .25800003 L .039 .25800003 C .024 .25800003 0 .25800003 0 .235 C 0 .212 .02 .212 .035 .212 L .672 .212 M .66800007 0 C .683 0 .707 0 .707 .023000002 C .707 .046000005 .68700006 .046000005 .672 .046000005 L .035 .046000005 C .02 .046000005 0 .046000005 0 .023000002 C 0 0 .024 0 .039 0 L .66800007 0 Z "/>
</symbol>
<symbol id="font_4_c">
<path d="M .22800002 .032999994 C .16400002 .032999994 .15200001 .032999994 .15200001 .078 L .15200001 .243 C .19900002 .192 .25000004 .184 .282 .184 C .40900005 .184 .519 .282 .519 .41000004 C .519 .535 .418 .635 .29700003 .635 C .25800003 .635 .20000002 .625 .14900002 .573 L .14900002 .635 L 0 .624 L 0 .591 C .07100001 .591 .076000008 .58500006 .076000008 .543 L .076000008 .078 C .076000008 .032999994 .06400001 .032999994 0 .032999994 L 0 0 C .043 .0029999912 .08700001 .0029999912 .11400001 .0029999912 C .143 .0029999912 .18500002 .0029999912 .22800002 0 L .22800002 .032999994 M .15200001 .527 C .17500001 .56700006 .22500003 .60400006 .28800003 .60400006 C .365 .60400006 .43000005 .51900008 .43000005 .41000004 C .43000005 .29500003 .358 .21200001 .277 .21200001 C .24200002 .21200001 .19600001 .227 .16400002 .277 C .15200001 .294 .15200001 .29500003 .15200001 .314 L .15200001 .527 Z "/>
</symbol>
<symbol id="font_4_d">
<path d="M .14900002 .22800002 C .14900002 .303 .18 .411 .27600003 .41300003 C .27 .409 .26000003 .40100003 .26000003 .37800003 C .26000003 .347 .284 .333 .30400003 .333 C .328 .333 .349 .349 .349 .37800003 C .349 .41300003 .31700004 .441 .27300004 .441 C .20800002 .441 .16400002 .39200003 .143 .33600004 L .142 .33600004 L .142 .441 L 0 .43 L 0 .397 C .068 .397 .076000008 .39000003 .076000008 .34100003 L .076000008 .078 C .076000008 .033 .06400001 .033 0 .033 L 0 0 C .039 .003 .09400001 .003 .118000019 .003 C .17700002 .003 .17900002 .003 .24400002 0 L .24400002 .033 L .224 .033 C .15100001 .033 .14900002 .044000005 .14900002 .080000009 L .14900002 .22800002 Z "/>
</symbol>
<symbol id="font_4_b">
<path d="M .47 .22300002 C .47 .34800003 .367 .456 .23500002 .456 C .103 .456 0 .34800003 0 .22300002 C 0 .098000008 .10700001 0 .23500002 0 C .36400003 0 .47 .098000008 .47 .22300002 M .23500002 .031000004 C .18100001 .031000004 .13900002 .057000005 .117 .092 C .09200001 .133 .089 .18200001 .089 .23200003 C .089 .27 .089 .33 .120000008 .373 C .14600002 .40800003 .18800001 .428 .23500002 .428 C .287 .428 .33 .403 .35300002 .368 C .38000003 .326 .381 .272 .381 .23200003 C .381 .18600002 .379 .13100001 .351 .089 C .324 .049000004 .279 .031000004 .23500002 .031000004 Z "/>
</symbol>
<symbol id="font_4_9">
<path d="M .263 .82000008 C .263 .851 .238 .87600007 .207 .87600007 C .177 .87600007 .15200001 .852 .15200001 .82100006 C .15200001 .787 .179 .76500007 .207 .76500007 C .24000001 .76500007 .263 .792 .263 .82000008 M .106000009 .634 L .106000009 .601 C .18100001 .601 .19000001 .59400007 .19000001 .545 L .19000001 .15600002 C .19000001 .12900001 .186 .027999998 .117 .027999998 C .102 .027999998 .080000009 .032000007 .067 .037 C .073 .039000006 .094000007 .052 .094000007 .080000009 C .094000007 .10700001 .075 .127 .047000003 .127 C .022000002 .127 0 .11000001 0 .07900001 C 0 .027999998 .056 0 .118 0 C .198 0 .263 .06400001 .263 .158 L .263 .64500007 L .106000009 .634 Z "/>
</symbol>
<symbol id="font_4_8">
<path d="M .38300003 .23800002 C .40500004 .23800002 .411 .23800002 .411 .261 C .411 .35 .36200003 .456 .22100002 .456 C .097 .456 0 .35300002 0 .22900002 C 0 .1 .10800001 0 .234 0 C .36100004 0 .411 .107 .411 .13000001 C .411 .134 .40800003 .14400001 .395 .14400001 C .38400004 .14400001 .38200004 .13700001 .38000003 .13100001 C .344 .034 .25800003 .031000004 .24000001 .031000004 C .19500001 .031000004 .149 .052000006 .119 .098000008 C .089 .14400001 .089 .20800002 .089 .23800002 L .38300003 .23800002 M .09 .264 C .09900001 .404 .18400002 .428 .22100002 .428 C .33800004 .428 .342 .287 .34300003 .264 L .09 .264 Z "/>
</symbol>
<symbol id="font_4_6">
<path d="M .33300004 .407 C .305 .398 .30100004 .375 .30100004 .363 C .30100004 .336 .32000003 .316 .34800003 .316 C .374 .316 .395 .334 .395 .364 C .395 .426 .32700003 .456 .23300001 .456 C .09400001 .456 0 .345 0 .22600001 C 0 .099 .10400002 0 .23000002 0 C .37100003 0 .40600003 .118 .40600003 .13000001 C .40600003 .142 .39300005 .142 .39000003 .142 C .38300003 .142 .37800003 .14100002 .37500004 .13100001 C .36800004 .11 .34000004 .031000004 .24000001 .031000004 C .17800002 .031000004 .089 .079 .089 .22700002 C .089 .37100003 .16300002 .425 .23600003 .425 C .245 .425 .298 .425 .33300004 .407 Z "/>
</symbol>
<symbol id="font_4_f">
<path d="M .16600001 .40800003 L .315 .40800003 L .315 .441 L .16600001 .441 L .16600001 .625 L .135 .625 C .13400002 .53400006 .093 .439 0 .43600003 L 0 .40800003 L .09 .40800003 L .09 .135 C .09 .018000002 .18 0 .22600001 0 C .293 0 .333 .060000004 .333 .135 L .333 .19100002 L .30200003 .19100002 L .30200003 .13700001 C .30200003 .068 .271 .031000004 .23300003 .031000004 C .16600001 .031000004 .16600001 .117000009 .16600001 .133 L .16600001 .40800003 Z "/>
</symbol>
<symbol id="font_4_7">
<path d="M .29400004 .693 L .29400004 .66 C .36200003 .66 .37000004 .653 .37000004 .60400006 L .37000004 .393 C .335 .43100003 .28800003 .451 .23600003 .451 C .11100002 .451 0 .354 0 .22500001 C 0 .102000009 .10000001 0 .22600001 0 C .28500004 0 .33400003 .028 .367 .063 L .367 0 L .519 .010000001 L .519 .043 C .45100004 .043 .44300003 .050000006 .44300003 .099 L .44300003 .704 L .29400004 .693 M .367 .134 C .367 .116000007 .367 .112 .35200004 .092 C .32400004 .052000006 .27800004 .028 .231 .028 C .18500002 .028 .14500001 .052000006 .12100001 .089 C .09400001 .128 .089 .17700002 .089 .22400002 C .089 .282 .098000008 .323 .12100001 .358 C .14500001 .395 .19000001 .423 .24100003 .423 C .289 .423 .337 .39900003 .367 .347 L .367 .134 Z "/>
</symbol>
<symbol id="font_4_1">
<path d="M .318 .43400003 C .307 .43300004 .30200003 .43300004 .3 .432 C .298 .43100003 .296 .43100003 .282 .43100003 L .15200001 .43100003 L .15200001 .54 C .15200001 .63900008 .24500002 .67600008 .307 .67600008 C .337 .67600008 .367 .669 .39200003 .65000006 C .39000003 .65000006 .351 .642 .351 .601 C .351 .569 .377 .55300006 .39900003 .55300006 C .41300003 .55300006 .447 .56200006 .447 .60300007 C .447 .656 .395 .70400008 .31 .70400008 C .21200001 .70400008 .08200001 .65500006 .08200001 .541 L .08200001 .43100003 L 0 .43100003 L 0 .39800004 L .08200001 .39800004 L .08200001 .078 C .08200001 .033 .07000001 .033 .005999999 .033 L .005999999 0 C .045 .003 .10100001 .003 .118 .003 C .13800001 .003 .19200002 .003 .23100002 0 L .23100002 .033 C .16700001 .033 .15500002 .033 .15500002 .078 L .15500002 .39800004 L .327 .39800004 C .36900003 .39800004 .37600003 .386 .37600003 .344 L .37600003 .078 C .37600003 .033 .364 .033 .3 .033 L .3 0 C .33900003 .003 .395 .003 .412 .003 C .432 .003 .48600004 .003 .52500006 0 L .52500006 .033 C .461 .033 .449 .033 .449 .078 L .449 .44300003 L .318 .43400003 Z "/>
</symbol>
<symbol id="font_4_e">
<path d="M .321 .43 C .321 .446 .321 .456 .30800004 .456 C .30300004 .456 .3 .456 .284 .44 C .282 .439 .27300004 .43 .27 .43 C .26900003 .43 .26700003 .43 .261 .43400003 C .245 .44500003 .21600002 .456 .17100002 .456 C .031 .456 0 .38 0 .33200003 C 0 .282 .037000006 .25300003 .040000004 .25 C .08 .22000002 .103000018 .21600002 .17000002 .20400001 C .21700001 .19500001 .29400004 .18100001 .29400004 .113000009 C .29400004 .074 .268 .028 .17600002 .028 C .075 .028 .046 .106 .033000005 .15900001 C .029000003 .172 .028 .17700002 .016000003 .17700002 C 0 .17700002 0 .16900002 0 .15 L 0 .026 C 0 .010000001 0 0 .013 0 C .019000002 0 .020000004 .0010000002 .038000008 .020000002 C .043 .025000003 .054 .038000004 .059000005 .043 C .10400002 .0020000004 .15100001 0 .17700002 0 C .30400003 0 .34800003 .073 .34800003 .13900002 C .34800003 .187 .319 .257 .20000002 .279 C .19200002 .28100003 .136 .291 .13200002 .291 C .10100001 .298 .054 .319 .054 .359 C .054 .389 .076000008 .43100003 .17100002 .43100003 C .28300003 .43100003 .28800003 .349 .29000003 .321 C .291 .313 .298 .31 .305 .31 C .321 .31 .321 .317 .321 .336 L .321 .43 Z "/>
</symbol>
<use xlink:href="#font_4_3" transform="matrix(7.9701,0,0,-7.9701,93.9182,144.83454)" fill="#0000ff"/>
<use xlink:href="#font_4_4" transform="matrix(7.9701,0,0,-7.9701,99.55306,141.87763)" fill="#0000ff"/>
<use xlink:href="#font_4_c" transform="matrix(7.9701,0,0,-7.9701,108.7665,144.38822)" fill="#0000ff"/>
<use xlink:href="#font_4_d" transform="matrix(7.9701,0,0,-7.9701,113.468868,142.84201)" fill="#0000ff"/>
<use xlink:href="#font_4_b" transform="matrix(7.9701,0,0,-7.9701,116.72864,142.9217)" fill="#0000ff"/>
<use xlink:href="#font_4_9" transform="matrix(7.9701,0,0,-7.9701,120.90497,144.46791)" fill="#0000ff"/>
<use xlink:href="#font_4_8" transform="matrix(7.9701,0,0,-7.9701,124.021289,142.9217)" fill="#0000ff"/>
<use xlink:href="#font_4_6" transform="matrix(7.9701,0,0,-7.9701,127.82302,142.9217)" fill="#0000ff"/>
<use xlink:href="#font_4_f" transform="matrix(7.9701,0,0,-7.9701,131.46537,142.9217)" fill="#0000ff"/>
<use xlink:href="#font_4_8" transform="matrix(7.9701,0,0,-7.9701,134.83672,142.9217)" fill="#0000ff"/>
<use xlink:href="#font_4_7" transform="matrix(7.9701,0,0,-7.9701,138.63845,142.9217)" fill="#0000ff"/>
<use xlink:href="#font_4_c" transform="matrix(7.9701,0,0,-7.9701,146.16222,144.38822)" fill="#0000ff"/>
<use xlink:href="#font_4_d" transform="matrix(7.9701,0,0,-7.9701,150.86458,142.84201)" fill="#0000ff"/>
<use xlink:href="#font_4_b" transform="matrix(7.9701,0,0,-7.9701,154.12436,142.9217)" fill="#0000ff"/>
<use xlink:href="#font_4_1" transform="matrix(7.9701,0,0,-7.9701,158.34851,142.84201)" fill="#0000ff"/>
<use xlink:href="#font_4_f" transform="matrix(7.9701,0,0,-7.9701,162.97914,142.9217)" fill="#0000ff"/>
<use xlink:href="#font_4_e" transform="matrix(7.9701,0,0,-7.9701,166.39034,142.9217)" fill="#0000ff"/>
<path transform="matrix(1,0,0,-1,13.948,167.92002)" stroke-width=".79701" stroke-linecap="butt" stroke-miterlimit="10" stroke-linejoin="miter" fill="none" stroke="#800080" d="M 0 0 L .57547 6.57324 L 1.15094 9.29597 L 1.72641 11.38536 L 2.30188 13.1467 L 2.87737 14.69846 L 3.45284 16.10133 L 4.0283 17.39143 L 4.60379 18.59222 L 5.17926 19.72005 L 5.75473 20.78676 L 6.33022 21.80133 L 6.90569 22.77075 L 7.48116 23.70055 L 8.05663 24.59521 L 8.63211 25.45845 L 9.20758 26.2934 L 9.78307 27.1026 L 10.35854 27.88834 L 10.93402 28.65256 L 11.50949 29.3969 L 12.08496 30.12286 L 12.66043 30.83173 L 13.23592 31.52467 L 13.81139 32.2027 L 14.38686 32.86623 L 14.96233 33.5171 L 15.5378 34.15555 L 16.11328 34.78238 L 16.68875 35.39801 L 17.26422 36.00314 L 17.83969 36.59825 L 18.41518 37.18388 L 18.99065 37.76044 L 19.56613 38.32828 L 20.1416 38.88782 L 20.71709 39.43945 L 21.29256 39.9835 L 21.86803 40.52025 L 22.4435 41.0499 L 23.01898 41.57288 L 23.59445 42.08931 L 24.16992 42.59947 L 24.74539 43.10367 L 25.32088 43.60199 L 25.89635 44.09465 L 26.47182 44.5819 L 27.04729 45.0639 L 27.62276 45.54076 L 28.19824 46.01268 L 28.77371 46.47986 L 29.3492 46.94234 L 29.92467 47.40038 L 30.50015 47.85397 L 31.07562 48.30328 L 31.6511 48.7485 L 32.22656 49.18965 L 32.80205 49.62692 L 33.37752 50.06036 L 33.95299 50.49008 L 34.52846 50.9162 L 35.10394 51.33871 L 35.67941 51.75781 L 36.25488 52.17357 L 36.83035 52.58598 L 37.40584 52.99524 L 37.98131 53.4013 L 38.55678 53.80437 L 39.13226 54.20439 L 39.70773 54.60152 L 40.28322 54.99571 L 40.85869 55.3872 L 41.43416 55.77585 L 42.00963 56.16185 L 42.58511 56.54521 L 43.16058 56.92601 L 43.73605 57.30421 L 44.31152 57.68002 L 44.88701 58.05336 L 45.46248 58.42427 L 46.03795 58.79288 L 46.61342 59.15926 L 47.1889 59.52332 L 47.76437 59.88513 L 48.33984 60.2448 L 48.91533 60.60234 L 49.49081 60.9578 L 50.06628 61.31119 L 50.64175 61.66257 L 51.21722 62.01192 L 51.7927 62.3593 L 52.36818 62.70479 L 52.94365 63.04837 L 53.51912 63.3901 L 54.09459 63.72998 L 54.67007 64.0681 L 55.24554 64.40442 L 55.82101 64.73898 L 56.39648 65.07184 L 56.97197 65.40298 L 57.54744 65.73248 L 58.12292 66.06036 L 58.6984 66.3866 L 59.27388 66.71118 L 59.84935 67.03426 L 60.42482 67.35576 L 61.00029 67.67577 L 61.57578 67.99422 L 62.15125 68.31119 L 62.72672 68.62672 L 63.30219 68.94081 L 63.87766 69.25348 L 64.45314 69.56473 L 65.02861 69.87456 L 65.60408 70.18312 L 66.17955 70.49025 L 66.75504 70.79605 L 67.3305 71.10059 L 67.90599 71.4038 L 68.48146 71.70566 L 69.05695 72.00629 L 69.63242 72.30577 L 70.20789 72.60393 L 70.78336 72.90082 L 71.35884 73.1966 L 71.93431 73.49117 L 72.50978 73.78455 L 73.08525 74.07675 L 73.66072 74.36784 L 74.2362 74.65773 L 74.81168 74.94656 L 75.38715 75.2343 L 75.96262 75.5209 L 76.5381 75.8064 L 77.11357 76.09084 L 77.68906 76.37424 L 78.26453 76.65657 L 78.84001 76.93788 L 79.41548 77.21819 L 79.99095 77.49745 L 80.56642 77.77573 L 81.1419 78.05302 L 81.71738 78.3293 L 82.29285 78.6046 L 82.86832 78.879 L 83.4438 79.1524 L 84.01927 79.42485 L 84.59474 79.6964 L 85.17021 79.96704 L 85.74568 80.2367 L 86.32117 80.50551 L 86.89664 80.77342 L 87.47212 81.04044 L 88.04759 81.3066 L 88.62308 81.57193 L 89.19855 81.83629 L 89.77402 82.09982 L 90.34949 82.36255 L 90.92497 82.6245 L 91.50044 82.88553 L 92.07591 83.14578 L 92.65138 83.40521 L 93.22687 83.66374 L 93.80234 83.92159 L 94.3778 84.17865 L 94.95328 84.4349 L 95.52876 84.6904 L 96.10423 84.94507 L 96.6797 85.19907 L 97.25519 85.45222 L 97.83066 85.70464 L 98.40614 85.95639 L 98.98161 86.20732 L 99.55708 86.45758 L 100.13255 86.70709 L 100.70804 86.95592 L 101.28351 87.20401 L 101.85898 87.45143 L 102.43445 87.69812 L 103.00993 87.94409 L 103.5854 88.18938 L 104.16087 88.434 L 104.73634 88.67796 L 105.31183 88.92126 L 105.8873 89.16388 L 106.46278 89.40588 L 107.03825 89.64717 L 107.61374 89.88786 L 108.18921 90.12785 L 108.76468 90.36722 L 109.34015 90.60596 L 109.91562 90.84412 L 110.4911 91.08159 L 111.06657 91.31851 L 111.64204 91.55478 L 112.21751 91.79045 L 112.793 92.02545 L 113.36847 92.25996 L 113.94394 92.49382 L 114.51941 92.7271 L 115.0949 92.9598 L 115.67036 93.19188 L 116.24585 93.4234 L 116.82132 93.65434 L 117.3968 93.88477 L 117.97227 94.11465 L 118.54774 94.34386 L 119.12321 94.57259 L 119.6987 94.8008 L 120.27417 95.02832 L 120.84964 95.25542 L 121.42511 95.48196 L 122.00058 95.7079 L 122.57607 95.9334 L 123.15154 96.15831 L 123.727 96.38278 L 124.30247 96.60663 L 124.87796 96.83 L 125.45343 97.05284 L 126.02892 97.27519 L 126.60439 97.49702 L 127.17987 97.71837 L 127.75534 97.93921 L 128.33081 98.15952 L 128.90628 98.3794 L 129.48177 98.59875 L 130.05724 98.81761 L 130.6327 99.03596 L 131.20818 99.2539 L 131.78366 99.47128 L 132.35913 99.68825 L 132.9346 99.90474 L 133.51007 100.12079 L 134.08554 100.3363 L 134.66103 100.55139 L 135.2365 100.76602 L 135.81198 100.98018 L 136.38745 101.19391 L 136.96294 101.40717 L 137.5384 101.61998 L 138.11388 101.83238 L 138.68935 102.04431 L 139.26483 102.25728 L 139.8403 102.46832 L 140.41577 102.67897 L 140.99124 102.88918 L 141.56673 103.0989 L 142.1422 103.30823 L 142.71767 103.51718 L 143.29314 103.72566 L 143.86862 103.93373 L 144.44409 104.1414 L 145.01956 104.34866 L 145.59505 104.55548 L 146.17052 104.76192 L 146.746 104.96793 L 147.32147 105.17352 L 147.89694 105.37875 L 148.47241 105.5836 L 149.0479 105.788 L 149.62337 105.99202 L 150.19884 106.19566 L 150.7743 106.39891 L 151.3498 106.60175 L 151.92527 106.80424 L 152.50074 107.00633 L 153.0762 107.20804 L 153.65169 107.40936 L 154.22716 107.61032 L 154.80263 107.8109 L 155.37812 108.0111 L 155.95359 108.21095 L 156.52907 108.41042 L 157.10454 108.60951 L 157.68001 108.80824 L 158.25548 109.00662 L 158.83097 109.20462 L 159.40644 109.4023 L 159.9819 109.59961 L 160.55738 109.79651 L 161.13286 109.99312 L 161.70833 110.18938 L 162.2838 110.38527 L 162.85927 110.58081 L 163.43476 110.77599 L 164.01023 110.97086 L 164.58571 111.16537 L 165.16118 111.35956 L 165.73667 111.55339 L 166.31214 111.74689 L 166.8876 111.94005 L 167.46308 112.13292 L 168.03855 112.32542 L 168.61403 112.51758 L 169.1895 112.70941 L 169.76497 112.90096 L 170.34044 113.09213 L 170.91593 113.28299 L 171.4914 113.47356 L 171.39528 113.44179 "/>
<path transform="matrix(.94943,-.31383,-.31383,-.94943,185.34328,54.47824)" stroke-width=".6376" stroke-linecap="round" stroke-linejoin="round" fill="none" stroke="#800080" d="M -1.55415 2.0722 C -1.42464 1.29512 0 .1295 .38852 0 C 0 -.1295 -1.42464 -1.29512 -1.55415 -2.0722 "/>
<symbol id="font_3_2">
<path d="M .47500003 .573 C .479 .588 .479 .59400007 .479 .595 C .479 .61800006 .46000005 .62600007 .44700004 .62600007 C .42400003 .62600007 .40600003 .60800006 .402 .587 C .39400003 .60200008 .36400003 .64500007 .30400003 .64500007 C .18500002 .64500007 .055000005 .512 .055000005 .366 C .055000005 .25800003 .126 .20400001 .20000002 .20400001 C .24600002 .20400001 .28700004 .22900002 .32000003 .25800003 L .298 .16800002 C .28700004 .12600002 .28000004 .097 .24100003 .06400001 C .19900002 .027999998 .16100002 .027999998 .136 .027999998 C .111 .027999998 .087 .029 .06300001 .03400001 C .08500001 .046000005 .095 .067 .095 .08400001 C .095 .10800001 .07700001 .12100001 .056000007 .12100001 C .031 .12100001 0 .101 0 .061000006 C 0 .004000008 .07800001 0 .13800001 0 C .28000004 0 .351 .076000008 .36600004 .13700001 L .47500003 .573 M .34000004 .33600004 C .333 .30800004 .31100003 .28800003 .29000003 .26900003 C .28100003 .26200003 .243 .23200001 .202 .23200001 C .16200002 .23200001 .13300002 .26500003 .13300002 .32500003 C .13300002 .367 .158 .476 .18500002 .527 C .21700001 .58400008 .26400004 .61700007 .30400003 .61700007 C .37100003 .61700007 .38900004 .54300007 .38900004 .53400006 L .386 .52000007 L .34000004 .33600004 Z "/>
</symbol>
<use xlink:href="#font_3_2" transform="matrix(7.9701,0,0,-7.9701,86.68337,54.089906)" fill="#800080"/>
<use xlink:href="#font_4_2" transform="matrix(7.9701,0,0,-7.9701,91.651927,54.456529)" fill="#800080"/>
<use xlink:href="#font_3_3" transform="matrix(7.9701,0,0,-7.9701,94.38004,52.543706)" fill="#800080"/>
<symbol id="font_4_5">
<path d="M .37600003 .308 C .37600003 .40600003 .28100003 .456 .19000001 .456 C .10700001 .456 .033000005 .42400003 .033000005 .358 C .033000005 .328 .054 .31 .08 .31 C .10800001 .31 .127 .33 .127 .357 C .127 .381 .112 .398 .09 .403 C .127 .428 .18100001 .428 .18800001 .428 C .24400002 .428 .3 .389 .3 .307 L .3 .276 C .24200002 .273 .17500001 .27 .105000007 .24100001 C .017 .20300001 0 .14500001 0 .112 C 0 .026 .10100001 0 .17000002 0 C .243 0 .28800003 .041 .31 .081 C .31500004 .043 .34100003 .0050000005 .38500003 .0050000005 C .395 .0050000005 .48000006 .009000001 .48000006 .1 L .48000006 .15500002 L .44900004 .15500002 L .44900004 .1 C .44900004 .059000005 .43400003 .043 .41300003 .043 C .37600003 .043 .37600003 .089 .37600003 .1 L .37600003 .308 M .3 .15100001 C .3 .054000006 .21800003 .028 .17800002 .028 C .126 .028 .082 .063 .082 .111 C .082 .17700002 .14400001 .24500002 .3 .25 L .3 .15100001 Z "/>
</symbol>
<symbol id="font_4_10">
<path d="M .293 .44 L .293 .407 C .361 .407 .36900003 .4 .36900003 .351 L .36900003 .17700002 C .36900003 .091 .317 .028 .24200002 .028 C .15600002 .028 .15200001 .071 .15200001 .12100001 L .15200001 .451 L 0 .44 L 0 .407 C .076000008 .407 .076000008 .404 .076000008 .315 L .076000008 .165 C .076000008 .093 .076000008 0 .236 0 C .33 0 .366 .072000008 .37100003 .081 L .372 .081 L .372 0 L .521 .010000001 L .521 .043 C .453 .043 .44500003 .050000006 .44500003 .099 L .44500003 .451 L .293 .44 Z "/>
</symbol>
<symbol id="font_4_a">
<path d="M .14900002 .694 L 0 .683 L 0 .65000006 C .068 .65000006 .076000008 .643 .076000008 .59400007 L .076000008 .078 C .076000008 .033 .064 .033 0 .033 L 0 0 C .038999998 .003 .095000009 .003 .11200001 .003 C .132 .003 .18600002 .003 .22500003 0 L .22500003 .033 C .16100002 .033 .14900002 .033 .14900002 .078 L .14900002 .694 Z "/>
</symbol>
<use xlink:href="#font_4_3" transform="matrix(7.9701,0,0,-7.9701,99.3692,54.456529)" fill="#800080"/>
<use xlink:href="#font_4_4" transform="matrix(7.9701,0,0,-7.9701,105.474308,51.499624)" fill="#800080"/>
<use xlink:href="#font_4_5" transform="matrix(7.9701,0,0,-7.9701,114.759479,52.543706)" fill="#800080"/>
<use xlink:href="#font_4_6" transform="matrix(7.9701,0,0,-7.9701,118.91987,52.543706)" fill="#800080"/>
<use xlink:href="#font_4_f" transform="matrix(7.9701,0,0,-7.9701,122.5622,52.543706)" fill="#800080"/>
<use xlink:href="#font_4_10" transform="matrix(7.9701,0,0,-7.9701,126.021228,52.543706)" fill="#800080"/>
<use xlink:href="#font_4_5" transform="matrix(7.9701,0,0,-7.9701,130.74748,52.543706)" fill="#800080"/>
<use xlink:href="#font_4_a" transform="matrix(7.9701,0,0,-7.9701,134.96367,52.464006)" fill="#800080"/>
<use xlink:href="#font_4_c" transform="matrix(7.9701,0,0,-7.9701,140.08844,54.010206)" fill="#800080"/>
<use xlink:href="#font_4_d" transform="matrix(7.9701,0,0,-7.9701,144.7908,52.464006)" fill="#800080"/>
<use xlink:href="#font_4_b" transform="matrix(7.9701,0,0,-7.9701,148.05059,52.543706)" fill="#800080"/>
<use xlink:href="#font_4_1" transform="matrix(7.9701,0,0,-7.9701,152.26677,52.464006)" fill="#800080"/>
<use xlink:href="#font_4_f" transform="matrix(7.9701,0,0,-7.9701,156.8974,52.543706)" fill="#800080"/>
<use xlink:href="#font_4_e" transform="matrix(7.9701,0,0,-7.9701,160.3086,52.543706)" fill="#800080"/>
</g>
<symbol id="font_1_2">
<path d="M .305 .31300003 C .311 .33900003 .334 .43100003 .404 .43100003 C .409 .43100003 .433 .43100003 .454 .418 C .426 .41300003 .40600003 .388 .40600003 .36400003 C .40600003 .34800003 .417 .32900004 .444 .32900004 C .46600003 .32900004 .498 .34700004 .498 .38700003 C .498 .43900005 .439 .45300005 .405 .45300005 C .347 .45300005 .312 .40000005 .3 .37700004 C .275 .44300003 .221 .45300005 .19200002 .45300005 C .08800001 .45300005 .031000002 .32400004 .031000002 .29900003 C .031000002 .28900004 .041 .28900004 .043000007 .28900004 C .051000008 .28900004 .054000006 .291 .056 .3 C .09 .40600003 .156 .43100003 .19000001 .43100003 C .209 .43100003 .244 .42200003 .244 .36400003 C .244 .33300004 .22700002 .26600004 .19000001 .126 C .17400001 .064 .13900002 .022000002 .095000009 .022000002 C .08900001 .022000002 .06600001 .022000002 .045 .035 C .07000001 .040000004 .09200001 .061 .09200001 .089 C .09200001 .116000007 .07000001 .124000009 .055000009 .124000009 C .025 .124000009 0 .098000008 0 .06600001 C 0 .020000002 .050000006 0 .094000007 0 C .16000001 0 .19600001 .07000001 .19900002 .076000008 C .21100001 .039 .24700003 0 .307 0 C .41 0 .467 .12900001 .467 .15400002 C .467 .16400002 .458 .16400002 .455 .16400002 C .446 .16400002 .444 .16000001 .442 .15300001 C .409 .046 .341 .022000002 .30900003 .022000002 C .27 .022000002 .254 .054 .254 .08800001 C .254 .11000001 .26 .13200002 .271 .17600002 L .305 .31300003 Z "/>
</symbol>
<use xlink:href="#font_1_2" transform="matrix(9.9626,0,0,-9.9626,205.65592,164.5106)"/>
<symbol id="font_1_3">
<path d="M .45700003 .586 C .461 .6 .461 .602 .461 .609 C .461 .62700006 .447 .63600006 .432 .63600006 C .42200003 .63600006 .40600003 .63 .397 .615 C .395 .61 .387 .579 .38300003 .561 C .37600003 .535 .36900003 .508 .363 .48100005 L .318 .301 C .314 .286 .271 .21600002 .20500002 .21600002 C .15400002 .21600002 .143 .26000003 .143 .29700003 C .143 .34300003 .16000001 .40500004 .194 .49300004 C .21000001 .53400006 .21400002 .545 .21400002 .56500008 C .21400002 .61 .18200001 .6470001 .13200002 .6470001 C .037 .6470001 0 .50200006 0 .49300004 C 0 .48300005 .01 .48300005 .012 .48300005 C .022000002 .48300005 .023 .485 .028000003 .50100007 C .055000009 .595 .095000009 .625 .12900001 .625 C .13700001 .625 .15400002 .625 .15400002 .59300008 C .15400002 .568 .14400001 .54200008 .13700001 .523 C .097 .41700004 .079 .36 .079 .31300003 C .079 .224 .142 .194 .201 .194 C .24000003 .194 .274 .21100001 .30200003 .23900002 C .289 .187 .277 .13800001 .237 .08500001 C .21100001 .051 .17300001 .022 .127 .022 C .113000009 .022 .068 .025000006 .051000008 .06400001 C .067 .06400001 .080000009 .06400001 .094000007 .076000008 C .104 .08500001 .11400001 .098000008 .11400001 .117000009 C .11400001 .148 .087000008 .15200001 .07700001 .15200001 C .054000006 .15200001 .021 .136 .021 .087000008 C .021 .037 .065000008 0 .127 0 C .23 0 .333 .091000009 .361 .20400001 L .45700003 .586 Z "/>
</symbol>
<use xlink:href="#font_1_3" transform="matrix(9.9626,0,0,-9.9626,17.756916,9.74935)"/>
</g>
</svg>
