<?xml version="1.0" encoding="UTF-8" standalone="no"?>
<!DOCTYPE svg PUBLIC "-//W3C//DTD SVG 1.1//EN" "http://www.w3.org/Graphics/SVG/1.1/DTD/svg11.dtd">
<svg xmlns="http://www.w3.org/2000/svg" xmlns:xlink="http://www.w3.org/1999/xlink" version="1.1" width="205.559pt" height="170.477pt" viewBox="0 0 205.559 170.477">
<g enable-background="new">
<path transform="matrix(1,0,0,-1,2.987,170.278)" stroke-width=".19925" stroke-linecap="butt" stroke-miterlimit="10" stroke-linejoin="miter" fill="none" stroke="#808080" d="M 6.69905 51.67194 L 6.69905 55.92459 M 33.49527 51.67194 L 33.49527 55.92459 M 87.08772 51.67194 L 87.08772 55.92459 M 113.88394 51.67194 L 113.88394 55.92459 M 140.68016 51.67194 L 140.68016 55.92459 M 167.4764 51.67194 L 167.4764 55.92459 M 194.27262 51.67194 L 194.27262 55.92459 "/>
<path transform="matrix(1,0,0,-1,2.987,170.278)" stroke-width=".19925" stroke-linecap="butt" stroke-miterlimit="10" stroke-linejoin="miter" fill="none" stroke="#808080" d="M 58.16536 10.75964 L 62.41762 10.75964 M 58.16536 32.27896 L 62.41762 32.27896 M 58.16536 75.31758 L 62.41762 75.31758 M 58.16536 96.8369 L 62.41762 96.8369 M 58.16536 118.35622 L 62.41762 118.35622 M 58.16536 139.87552 L 62.41762 139.87552 M 58.16536 161.39484 L 62.41762 161.39484 "/>
<path transform="matrix(1,0,0,-1,2.987,170.278)" stroke-width=".3985" stroke-linecap="butt" stroke-miterlimit="10" stroke-linejoin="miter" fill="none" stroke="#000000" d="M 0 53.79828 L 192.28009 53.79828 "/>
<path transform="matrix(1,0,0,-1,195.26709,116.47972)" d="M 1.99252 0 L -1.19551 1.59401 L 0 0 L -1.19551 -1.59401 "/>
<path transform="matrix(1,0,0,-1,2.987,170.278)" stroke-width=".3985" stroke-linecap="butt" stroke-miterlimit="10" stroke-linejoin="miter" fill="none" stroke="#000000" d="M 60.29149 0 L 60.29149 159.40232 "/>
<path transform="matrix(0,-1,-1,-0,63.27849,10.875687)" d="M 1.99252 0 L -1.19551 1.59401 L 0 0 L -1.19551 -1.59401 "/>
<symbol id="font_0_1">
<path d="M .57600006 0 C .59300008 0 .611 0 .611 .019999996 C .611 .040000008 .59300008 .040000008 .57600006 .040000008 L .035000005 .040000008 C .018 .040000008 0 .040000008 0 .019999996 C 0 0 .018 0 .035000005 0 L .57600006 0 Z "/>
</symbol>
<use xlink:href="#font_0_1" transform="matrix(9.9626,0,0,-9.9626,4.147896,126.2556)"/>
<symbol id="font_1_4">
<path d="M .266 .165 L .266 .078 C .266 .042000005 .26400004 .031000002 .19000001 .031000002 L .16900002 .031000002 L .16900002 0 C .21000001 .003 .26200003 .003 .30400003 .003 C .34600003 .003 .39900003 .003 .44000004 0 L .44000004 .031000002 L .41900004 .031000002 C .34500004 .031000002 .34300003 .042000005 .34300003 .078 L .34300003 .165 L .44300003 .165 L .44300003 .19600001 L .34300003 .19600001 L .34300003 .651 C .34300003 .671 .34300003 .67700007 .32700003 .67700007 C .31800003 .67700007 .31500004 .67700007 .307 .665 L 0 .19600001 L 0 .165 L .266 .165 M .272 .19600001 L .028 .19600001 L .272 .569 L .272 .19600001 Z "/>
</symbol>
<use xlink:href="#font_1_4" transform="matrix(9.9626,0,0,-9.9626,11.347953,128.547)"/>
<use xlink:href="#font_0_1" transform="matrix(9.9626,0,0,-9.9626,30.942896,126.2556)"/>
<symbol id="font_1_3">
<path d="M .07700001 .07700001 L .18300002 .18 C .33900003 .31800003 .39900003 .372 .39900003 .47200004 C .39900003 .586 .30900003 .666 .18700002 .666 C .074 .666 0 .574 0 .485 C 0 .42900003 .05 .42900003 .053000008 .42900003 C .07000001 .42900003 .105000007 .441 .105000007 .48200003 C .105000007 .508 .08700001 .53400006 .052000006 .53400006 C .044000005 .53400006 .042000008 .53400006 .039 .53300008 C .062000004 .59800007 .11600001 .63500007 .17400001 .63500007 C .26500003 .63500007 .308 .554 .308 .47200004 C .308 .39200003 .25800003 .31300003 .20300003 .25100003 L .011000004 .037 C 0 .026 0 .024 0 0 L .37100003 0 L .39900003 .17400001 L .374 .17400001 C .36900003 .14400001 .36200003 .1 .352 .085 C .345 .07700001 .279 .07700001 .257 .07700001 L .07700001 .07700001 Z "/>
</symbol>
<use xlink:href="#font_1_3" transform="matrix(9.9626,0,0,-9.9626,38.36313,128.547)"/>
<use xlink:href="#font_1_3" transform="matrix(9.9626,0,0,-9.9626,88.08113,128.547)"/>
<use xlink:href="#font_1_4" transform="matrix(9.9626,0,0,-9.9626,114.65695,128.547)"/>
<symbol id="font_1_5">
<path d="M .089999999 .35000003 L .089999999 .37400005 C .089999999 .62700006 .21400002 .66300007 .26500003 .66300007 C .28900004 .66300007 .33100004 .65700009 .35300002 .623 C .33800004 .623 .298 .623 .298 .57800009 C .298 .54700008 .32200004 .53200009 .344 .53200009 C .36 .53200009 .39000003 .54100009 .39000003 .58000007 C .39000003 .64000007 .34600003 .688 .263 .688 C .13499999 .688 0 .559 0 .33800004 C 0 .071 .116000007 0 .20900002 0 C .32000003 0 .41500003 .094000007 .41500003 .22600001 C .41500003 .35300005 .32600004 .44900004 .215 .44900004 C .14700002 .44900004 .11000001 .39800004 .089999999 .35000003 M .20900002 .028 C .146 .028 .116000007 .088 .11000001 .103 C .092 .15 .092 .23 .092 .24800001 C .092 .32600004 .124000009 .42600004 .21400002 .42600004 C .23000002 .42600004 .27600003 .42600004 .307 .36400003 C .32500003 .32700003 .32500003 .27600003 .32500003 .22700002 C .32500003 .179 .32500003 .12900001 .30800004 .093 C .27800004 .033000005 .23200003 .028 .20900002 .028 Z "/>
</symbol>
<use xlink:href="#font_1_5" transform="matrix(9.9626,0,0,-9.9626,141.59243,128.76618)"/>
<symbol id="font_1_6">
<path d="M .121 .47900004 C .075 .509 .071 .54300007 .071 .56000009 C .071 .62100008 .136 .66300007 .20700002 .66300007 C .28000004 .66300007 .344 .61100009 .344 .53900006 C .344 .48200003 .305 .43400005 .245 .39900003 L .121 .47900004 M .26700003 .38400004 C .33900003 .42100004 .388 .47300006 .388 .53900006 C .388 .63100007 .29900003 .688 .208 .688 C .108 .688 .027000003 .614 .027000003 .521 C .027000003 .503 .029 .45800004 .071 .41100005 C .082 .39900003 .11900001 .37400005 .144 .35700003 C .086 .32800005 0 .272 0 .17300001 C 0 .067 .102000009 0 .20700002 0 C .32000003 0 .41500003 .083000008 .41500003 .19000001 C .41500003 .22600001 .404 .27100004 .36600004 .31300003 C .34700004 .33400003 .33100004 .34400005 .26700003 .38400004 M .167 .34200005 L .29000003 .26400004 C .31800003 .245 .365 .215 .365 .154 C .365 .080000009 .29000003 .028 .208 .028 C .122 .028 .050000006 .09 .050000006 .17300001 C .050000006 .231 .082 .29500003 .167 .34200005 Z "/>
</symbol>
<use xlink:href="#font_1_6" transform="matrix(9.9626,0,0,-9.9626,168.38843,128.76618)"/>
<symbol id="font_1_2">
<path d="M .205 .64000007 C .205 .66400006 .205 .666 .18200003 .666 C .120000008 .60200008 .032000007 .60200008 0 .60200008 L 0 .57100006 C .020000004 .57100006 .07900001 .57100006 .13100001 .597 L .13100001 .079 C .13100001 .043 .128 .031000002 .038000004 .031000002 L .0060000049 .031000002 L .0060000049 0 C .04100001 .003 .128 .003 .168 .003 C .20800002 .003 .29500003 .003 .33000005 0 L .33000005 .031000002 L .29800005 .031000002 C .20800002 .031000002 .205 .042000005 .205 .079 L .205 .64000007 Z "/>
</symbol>
<symbol id="font_1_1">
<path d="M .421 .34200005 C .421 .42200003 .416 .50200006 .381 .57600006 C .335 .67200008 .25300003 .688 .211 .688 C .15100001 .688 .07800001 .66200008 .037000006 .56900009 C .0050000029 .5 0 .42200003 0 .34200005 C 0 .26700003 .0040000008 .177 .045000007 .101 C .088 .020000002 .161 0 .21000001 0 C .264 0 .34 .021000002 .384 .116000007 C .416 .185 .421 .263 .421 .34200005 M .21000001 .022000002 C .171 .022000002 .112 .047000003 .094 .143 C .083000008 .20300001 .083000008 .29500003 .083000008 .35400004 C .083000008 .41800005 .083000008 .48400004 .091000009 .53800007 C .11 .65700009 .185 .66600009 .21000001 .66600009 C .243 .66600009 .30900003 .64800009 .328 .549 C .338 .49300004 .338 .41700004 .338 .35400004 C .338 .279 .338 .21100001 .32700003 .147 C .312 .052 .255 .022000002 .21000001 .022000002 Z "/>
</symbol>
<use xlink:href="#font_1_2" transform="matrix(9.9626,0,0,-9.9626,193.16167,128.547)"/>
<use xlink:href="#font_1_1" transform="matrix(9.9626,0,0,-9.9626,197.64482,128.76618)"/>
<use xlink:href="#font_0_1" transform="matrix(9.9626,0,0,-9.9626,45.727899,160.0216)"/>
<use xlink:href="#font_1_4" transform="matrix(9.9626,0,0,-9.9626,52.928956,162.313)"/>
<use xlink:href="#font_0_1" transform="matrix(9.9626,0,0,-9.9626,45.727899,138.50261)"/>
<use xlink:href="#font_1_3" transform="matrix(9.9626,0,0,-9.9626,53.148134,140.794)"/>
<use xlink:href="#font_1_3" transform="matrix(9.9626,0,0,-9.9626,53.14813,98.17099)"/>
<use xlink:href="#font_1_4" transform="matrix(9.9626,0,0,-9.9626,52.92895,76.65199)"/>
<use xlink:href="#font_1_5" transform="matrix(9.9626,0,0,-9.9626,53.068429,55.35218)"/>
<use xlink:href="#font_1_6" transform="matrix(9.9626,0,0,-9.9626,53.068429,33.833177)"/>
<use xlink:href="#font_1_2" transform="matrix(9.9626,0,0,-9.9626,48.55567,12.095001)"/>
<use xlink:href="#font_1_1" transform="matrix(9.9626,0,0,-9.9626,53.03884,12.314178)"/>
<clipPath id="cp2">
<path transform="matrix(1,0,0,-1,2.987,170.278)" d="M 0 0 L 194.27262 0 L 194.27262 161.39484 L 0 161.39484 Z "/>
</clipPath>
<g clip-path="url(#cp2)">
<path transform="matrix(1,0,0,-1,2.987,170.278)" stroke-width=".3985" stroke-linecap="butt" stroke-miterlimit="10" stroke-linejoin="miter" fill="none" stroke="#000000" d="M 21.47076 145.92984 L 21.9702 139.17829 L 22.50346 133.78748 L 23.03671 129.4791 L 23.56993 125.8916 L 24.1032 122.8189 L 24.63644 120.1296 L 25.16966 117.74011 L 25.70291 115.58775 L 26.23618 113.6325 L 26.7694 111.83952 L 27.30264 110.18533 L 27.8359 108.64883 L 28.36914 107.21674 L 28.90237 105.87263 L 29.43564 104.60558 L 29.96887 103.41383 L 30.5021 102.27913 L 31.03535 101.20273 L 31.5686 100.17863 L 32.10184 99.20035 L 32.63509 98.26535 L 33.16835 97.36842 L 33.70158 96.5085 L 34.23482 95.68109 L 34.76808 94.88443 L 35.30132 94.11621 L 35.83455 93.37337 L 36.3678 92.6572 L 36.90105 91.96298 L 37.43428 91.29135 L 37.96753 90.63913 L 38.50078 90.0071 L 39.03403 89.39227 L 39.56726 88.79405 L 40.1005 88.21281 L 40.63376 87.64708 L 41.16699 87.09554 L 41.70024 86.55862 L 42.23349 86.03398 L 42.76672 85.51967 L 43.29997 85.01956 L 43.83322 84.53215 L 44.36647 84.0542 L 44.8997 83.58746 L 45.43295 83.13081 L 45.9662 82.68362 L 46.49944 82.24142 L 47.03268 81.80995 L 47.56593 81.38754 L 48.09917 80.97415 L 48.63242 80.56873 L 49.16566 80.17018 L 49.69891 79.77853 L 50.23215 79.3942 L 50.7654 79.01653 L 51.29865 78.64575 L 51.83188 78.28142 L 52.36514 77.9227 L 52.89838 77.5698 L 53.43161 77.22269 L 53.96487 76.88116 L 54.49811 76.54527 L 55.03136 76.2143 L 55.5646 75.8887 L 56.09784 75.56741 L 56.63109 75.25066 L 57.16434 74.93842 L 57.69759 74.63133 L 58.23082 74.32898 L 58.76405 74.03052 L 59.29732 73.73549 L 59.83055 73.44452 L 60.3638 73.15855 L 60.89705 72.87515 L 61.43028 72.59624 L 61.96353 72.31973 L 62.49678 72.04814 L 63.03003 71.77896 L 63.56326 71.51233 L 64.09653 71.24959 L 64.62976 70.99046 L 65.163 70.73569 L 65.69626 70.48221 L 66.22949 70.23236 L 66.76274 69.98509 L 67.29599 69.74106 L 67.82922 69.49896 L 68.36247 69.26031 L 68.89572 69.02383 L 69.42897 68.7912 L 69.9622 68.5573 L 70.49545 68.3292 L 71.0287 68.10278 L 71.56194 67.87964 L 72.0952 67.65736 L 72.62843 67.437 L 73.16167 67.22113 L 73.69492 67.00294 L 74.22816 66.7901 L 74.76141 66.57922 L 75.29465 66.3705 L 75.8279 66.16393 L 76.36115 65.95842 L 76.89438 65.75548 L 77.42764 65.55426 L 77.96088 65.35544 L 78.49411 65.15787 L 79.02736 64.9625 L 79.56061 64.76883 L 80.09386 64.57664 L 80.62709 64.38577 L 81.16034 64.19705 L 81.69359 64.01025 L 82.22682 63.82477 L 82.76009 63.64055 L 83.29332 63.45828 L 83.82655 63.27708 L 84.3598 63.09761 L 84.89305 62.9201 L 85.4263 62.74384 L 85.95953 62.5687 L 86.49278 62.39479 L 87.02603 62.22328 L 87.55927 62.05264 L 88.09253 61.88309 L 88.62576 61.71457 L 89.159 61.54823 L 89.69225 61.38275 L 90.2255 61.21811 L 90.75874 61.05565 L 91.29198 60.8934 L 91.82523 60.73349 L 92.35847 60.57428 L 92.89171 60.41568 L 93.42497 60.25902 L 93.9582 60.1028 L 94.49144 59.94807 L 95.0247 59.79504 L 95.55794 59.64206 L 96.09119 59.49077 L 96.62442 59.34033 L 97.15767 59.191 L 97.69092 59.04144 L 98.22415 58.89447 L 98.75742 58.74834 L 99.29065 58.60225 L 99.82388 58.45827 L 100.35715 58.31516 L 100.89038 58.17271 L 101.42363 58.03154 L 101.95686 57.89037 L 102.49011 57.75139 L 103.02336 57.61256 L 103.5566 57.47374 L 104.08986 57.33688 L 104.6231 57.20068 L 105.15633 57.06511 L 105.68959 56.93083 L 106.22282 56.79805 L 106.75607 56.66507 L 107.2893 56.53337 L 107.82256 56.40274 L 108.3558 56.2717 L 108.88904 56.14174 L 109.4223 56.01367 L 109.95554 55.885 L 110.48877 55.75888 L 111.02202 55.63022 L 111.55527 55.50432 L 112.08852 55.37909 L 112.62175 55.25447 L 113.155 55.13202 L 113.68825 55.00763 L 114.22148 54.8865 L 114.75475 54.76427 L 115.28798 54.64377 L 115.82123 54.52434 L 116.35446 54.40468 L 116.88771 54.28587 L 117.42096 54.1673 L 117.9542 54.05067 L 118.48746 53.933 L 119.02069 53.81807 L 119.55392 53.70143 L 120.08719 53.58716 L 120.62042 53.47289 L 121.15367 53.35886 L 121.6869 53.24586 L 122.22015 53.13373 L 122.7534 53.02098 L 123.28664 52.91039 L 123.8199 52.80064 L 124.35313 52.68916 L 124.88637 52.57552 L 125.41963 52.46814 L 125.95287 52.35907 L 126.48611 52.25146 L 127.01935 52.14473 L 127.5526 52.03499 L 128.08585 51.92867 L 128.61908 51.82257 L 129.15235 51.71669 L 129.68558 51.6119 L 130.21881 51.50754 L 130.75208 51.40361 L 131.28531 51.3005 L 131.81856 51.19745 L 132.3518 51.09523 L 132.88504 50.99301 L 133.41829 50.89168 L 133.95153 50.7905 L 134.48479 50.68979 L 135.01802 50.58974 L 135.55126 50.48965 L 136.08452 50.39046 L 136.61775 50.29211 L 137.151 50.19377 L 137.68425 50.09628 L 138.21749 49.99883 L 138.75074 49.90154 L 139.28395 49.80513 L 139.81723 49.70915 L 140.35047 49.61363 L 140.8837 49.51851 L 141.41696 49.42337 L 141.9502 49.3289 L 142.48345 49.23509 L 143.0167 49.14148 L 143.54993 49.04852 L 144.08318 48.956 L 144.6164 48.86366 L 145.14968 48.77202 L 145.6829 48.6801 L 146.21613 48.58887 L 146.7494 48.49826 L 147.28264 48.40767 L 147.81587 48.3173 L 148.3491 48.22757 L 148.88237 48.13869 L 149.4156 48.0496 L 149.94884 47.96094 L 150.48212 47.87314 L 151.01535 47.7847 L 151.54857 47.69733 L 152.08185 47.61038 L 152.61508 47.52322 L 153.14832 47.43695 L 153.68158 47.35107 L 154.21482 47.26521 L 154.74805 47.17958 L 155.28128 47.09479 L 155.81456 47.01021 L 156.34778 46.92566 L 156.88101 46.84172 L 157.41429 46.758 L 157.94751 46.67451 L 158.48076 46.59212 L 159.01403 46.50903 L 159.54724 46.42662 L 160.08049 46.3442 L 160.61373 46.2624 L 161.147 46.18106 L 161.68022 46.10016 L 162.21347 46.01883 L 162.74674 45.93835 L 163.27996 45.85786 L 163.8132 45.77844 L 164.34644 45.69838 L 164.8797 45.61922 L 165.41294 45.54001 L 165.94617 45.46082 L 166.47943 45.3825 L 167.01267 45.30396 L 167.54592 45.22603 L 168.07917 45.14857 L 168.6124 45.07112 L 169.14565 44.99428 L 169.67888 44.91725 L 170.21215 44.84 L 170.74538 44.76404 L 171.27861 44.68872 L 171.81188 44.61276 L 172.34511 44.53702 L 172.87836 44.46144 L 173.4116 44.3868 L 173.94484 44.31192 L 174.47809 44.23744 L 175.01134 44.163 L 175.54459 44.08939 L 176.07782 44.01581 L 176.61106 43.942 L 177.14432 43.86841 L 177.67755 43.7961 L 178.2108 43.724 L 178.74405 43.65106 L 179.27729 43.57854 L 179.81053 43.50645 L 180.34378 43.43459 L 180.42282 43.42401 "/>
<path transform="matrix(-.07376,-.99722,-.99722,.07376,24.45776,24.34816)" stroke-width=".31879" stroke-linecap="round" stroke-linejoin="round" fill="none" stroke="#000000" d="M -1.19551 1.59401 C -1.09587 .99626 0 .09961 .29886 0 C 0 -.09961 -1.09587 -.99626 -1.19551 -1.59401 "/>
<path transform="matrix(.99113,.13246,.13246,-.99113,183.4098,126.85399)" stroke-width=".31879" stroke-linecap="round" stroke-linejoin="round" fill="none" stroke="#000000" d="M -1.19551 1.59401 C -1.09587 .99626 0 .09961 .29886 0 C 0 -.09961 -1.09587 -.99626 -1.19551 -1.59401 "/>
</g>
<symbol id="font_3_1">
<path d="M .305 .31300003 C .311 .33900003 .334 .43100003 .404 .43100003 C .409 .43100003 .433 .43100003 .454 .418 C .426 .41300003 .40600003 .388 .40600003 .36400003 C .40600003 .34800003 .417 .32900004 .444 .32900004 C .46600003 .32900004 .498 .34700004 .498 .38700003 C .498 .43900005 .439 .45300005 .405 .45300005 C .347 .45300005 .312 .40000005 .3 .37700004 C .275 .44300003 .221 .45300005 .19200002 .45300005 C .08800001 .45300005 .031000002 .32400004 .031000002 .29900003 C .031000002 .28900004 .041 .28900004 .043000007 .28900004 C .051000008 .28900004 .054000006 .291 .056 .3 C .09 .40600003 .156 .43100003 .19000001 .43100003 C .209 .43100003 .244 .42200003 .244 .36400003 C .244 .33300004 .22700002 .26600004 .19000001 .126 C .17400001 .064 .13900002 .022000002 .095000009 .022000002 C .08900001 .022000002 .06600001 .022000002 .045 .035 C .07000001 .040000004 .09200001 .061 .09200001 .089 C .09200001 .116000007 .07000001 .124000009 .055000009 .124000009 C .025 .124000009 0 .098000008 0 .06600001 C 0 .020000002 .050000006 0 .094000007 0 C .16000001 0 .19600001 .07000001 .19900002 .076000008 C .21100001 .039 .24700003 0 .307 0 C .41 0 .467 .12900001 .467 .15400002 C .467 .16400002 .458 .16400002 .455 .16400002 C .446 .16400002 .444 .16000001 .442 .15300001 C .409 .046 .341 .022000002 .30900003 .022000002 C .27 .022000002 .254 .054 .254 .08800001 C .254 .11000001 .26 .13200002 .271 .17600002 L .305 .31300003 Z "/>
</symbol>
<use xlink:href="#font_3_1" transform="matrix(9.9626,0,0,-9.9626,188.3659,113.06059)"/>
<symbol id="font_3_2">
<path d="M .45700003 .586 C .461 .6 .461 .602 .461 .609 C .461 .62700006 .447 .63600006 .432 .63600006 C .42200003 .63600006 .40600003 .63 .397 .615 C .395 .61 .387 .579 .38300003 .561 C .37600003 .535 .36900003 .508 .363 .48100005 L .318 .301 C .314 .286 .271 .21600002 .20500002 .21600002 C .15400002 .21600002 .143 .26000003 .143 .29700003 C .143 .34300003 .16000001 .40500004 .194 .49300004 C .21000001 .53400006 .21400002 .545 .21400002 .56500008 C .21400002 .61 .18200001 .6470001 .13200002 .6470001 C .037 .6470001 0 .50200006 0 .49300004 C 0 .48300005 .01 .48300005 .012 .48300005 C .022000002 .48300005 .023 .485 .028000003 .50100007 C .055000009 .595 .095000009 .625 .12900001 .625 C .13700001 .625 .15400002 .625 .15400002 .59300008 C .15400002 .568 .14400001 .54200008 .13700001 .523 C .097 .41700004 .079 .36 .079 .31300003 C .079 .224 .142 .194 .201 .194 C .24000003 .194 .274 .21100001 .30200003 .23900002 C .289 .187 .277 .13800001 .237 .08500001 C .21100001 .051 .17300001 .022 .127 .022 C .113000009 .022 .068 .025000006 .051000008 .06400001 C .067 .06400001 .080000009 .06400001 .094000007 .076000008 C .104 .08500001 .11400001 .098000008 .11400001 .117000009 C .11400001 .148 .087000008 .15200001 .07700001 .15200001 C .054000006 .15200001 .021 .136 .021 .087000008 C .021 .037 .065000008 0 .127 0 C .23 0 .333 .091000009 .361 .20400001 L .45700003 .586 Z "/>
</symbol>
<use xlink:href="#font_3_2" transform="matrix(9.9626,0,0,-9.9626,67.097919,18.71134)"/>
<path transform="matrix(1,0,0,-1,2.987,170.278)" stroke-width=".3985" stroke-linecap="butt" stroke-dasharray="2.98883,2.98883" stroke-miterlimit="10" stroke-linejoin="miter" fill="none" stroke="#000000" d="M 19.84267 0 L 19.84267 170.08086 "/>
</g>
</svg>
