<?xml version="1.0" encoding="UTF-8" standalone="no"?>
<!DOCTYPE svg PUBLIC "-//W3C//DTD SVG 1.1//EN" "http://www.w3.org/Graphics/SVG/1.1/DTD/svg11.dtd">
<svg xmlns="http://www.w3.org/2000/svg" xmlns:xlink="http://www.w3.org/1999/xlink" version="1.1" width="362.12pt" height="221.266pt" viewBox="0 0 362.12 221.266">
<g enable-background="new">
<path transform="matrix(1,0,0,-1,13.897,167.042)" stroke-width=".3985" stroke-linecap="butt" stroke-miterlimit="10" stroke-linejoin="miter" fill="none" stroke="#000000" d="M 56.69362 5.6697 C 72.42587 8.02953 105.52112 6.78238 113.38724 17.00824 C 121.25334 27.2341 117.32028 62.06526 113.38724 79.37071 C 109.45418 96.67615 94.47974 133.08124 85.0404 141.73403 C 75.60107 150.38681 54.79437 151.96 45.35504 141.73403 C 35.9157 131.50806 24.87434 82.97774 17.00824 68.03217 C 9.14212 53.08658 -8.97871 43.45583 -11.33855 34.01648 C -13.69838 24.57715 -9.43933 3.93304 0 0 C 9.43933 -3.93304 40.96136 3.30986 56.69362 5.6697 Z "/>
<symbol id="font_0_5">
<path d="M 0 .683 L 0 .652 L .024000004 .652 C .10100001 .652 .103000018 .64100006 .103000018 .605 L .103000018 .078 C .103000018 .042000005 .10100001 .031000002 .024000004 .031000002 L 0 .031000002 L 0 0 L .36600004 0 C .534 0 .672 .148 .672 .33600004 C .672 .526 .537 .683 .36600004 .683 L 0 .683 M .238 .031000002 C .19100002 .031000002 .18900001 .038000004 .18900001 .071 L .18900001 .61200007 C .18900001 .64500007 .19100002 .652 .238 .652 L .33800004 .652 C .40000005 .652 .469 .63000008 .52 .559 C .563 .5 .572 .41400004 .572 .33600004 C .572 .22500001 .553 .165 .517 .116000007 C .497 .089 .44000004 .031000002 .33900003 .031000002 L .238 .031000002 Z "/>
</symbol>
<symbol id="font_0_b">
<path d="M .44300003 .22500003 C .44300003 .35300002 .34300003 .45900003 .222 .45900003 C .097 .45900003 0 .35000003 0 .22500003 C 0 .096 .104 0 .22100002 0 C .342 0 .44300003 .098000008 .44300003 .22500003 M .222 .025000003 C .17900002 .025000003 .135 .046 .10800001 .092 C .083000008 .136 .083000008 .19700001 .083000008 .23300003 C .083000008 .272 .083000008 .32600004 .10700001 .37000004 C .134 .41600005 .18100001 .43700005 .22100002 .43700005 C .26500003 .43700005 .30800004 .41500003 .33400003 .37200005 C .36 .32900004 .36 .27100004 .36 .23300003 C .36 .19700001 .36 .143 .33800004 .09900001 C .316 .054 .272 .025000003 .222 .025000003 Z "/>
</symbol>
<symbol id="font_0_9">
<path d="M .07800001 .344 L .07800001 .076000008 C .07800001 .031000002 .067 .031000002 0 .031000002 L 0 0 C .035 .001 .08600001 .003 .113000009 .003 C .139 .003 .191 .001 .225 0 L .225 .031000002 C .158 .031000002 .147 .031000002 .147 .076000008 L .147 .26000003 C .147 .36400003 .218 .42000003 .282 .42000003 C .345 .42000003 .356 .36600004 .356 .30900003 L .356 .076000008 C .356 .031000002 .345 .031000002 .278 .031000002 L .278 0 C .31300003 .001 .36400003 .003 .391 .003 C .41700004 .003 .46900005 .001 .503 0 L .503 .031000002 C .43600003 .031000002 .425 .031000002 .425 .076000008 L .425 .26000003 C .425 .36400003 .496 .42000003 .56 .42000003 C .623 .42000003 .634 .36600004 .634 .30900003 L .634 .076000008 C .634 .031000002 .623 .031000002 .556 .031000002 L .556 0 C .591 .001 .642 .003 .669 .003 C .69500008 .003 .74700006 .001 .781 0 L .781 .031000002 C .72900006 .031000002 .70400008 .031000002 .703 .061000006 L .703 .252 C .703 .33800004 .703 .36900003 .67200008 .40500004 C .65800008 .42200003 .625 .44200004 .56700006 .44200004 C .48300005 .44200004 .439 .38200004 .42200003 .344 C .40800003 .43100003 .33400003 .44200004 .289 .44200004 C .216 .44200004 .169 .39900003 .141 .337 L .141 .44200004 L 0 .43100003 L 0 .4 C .07000001 .4 .07800001 .393 .07800001 .344 Z "/>
</symbol>
<symbol id="font_0_6">
<path d="M .291 .087000008 C .29500003 .047000003 .32200004 .005000001 .36900003 .005000001 C .39000003 .005000001 .45100004 .019000002 .45100004 .1 L .45100004 .15600002 L .42600004 .15600002 L .42600004 .1 C .42600004 .042000005 .40100003 .036000004 .39000003 .036000004 C .35700003 .036000004 .35300002 .081 .35300002 .086 L .35300002 .286 C .35300002 .328 .35300002 .367 .31700004 .404 C .27800004 .44300003 .22800002 .45900003 .18 .45900003 C .098 .45900003 .029 .41200004 .029 .34600003 C .029 .316 .049000004 .29900003 .075 .29900003 C .10300001 .29900003 .121 .31900005 .121 .34500004 C .121 .35700003 .116000007 .39000003 .07 .39100004 C .09700001 .42600004 .146 .43700005 .178 .43700005 C .22700003 .43700005 .284 .39800004 .284 .30900003 L .284 .272 C .23300001 .26900003 .16300002 .26600004 .1 .23600002 C .024999999 .20200002 0 .15000002 0 .106000009 C 0 .025000003 .09700001 0 .16 0 C .22600001 0 .272 .040000004 .291 .087000008 M .284 .25100003 L .284 .15100001 C .284 .056 .21200001 .022000002 .167 .022000002 C .11800001 .022000002 .077 .057000005 .077 .107 C .077 .16200002 .11900001 .24500002 .284 .25100003 Z "/>
</symbol>
<symbol id="font_0_8">
<path d="M .144 .44200004 L .0040000008 .43100003 L .0040000008 .4 C .069000009 .4 .07800001 .39400003 .07800001 .34500004 L .07800001 .076000008 C .07800001 .031000002 .067 .031000002 0 .031000002 L 0 0 C .032000007 .001 .086 .003 .11000001 .003 C .14500001 .003 .18 .001 .21400002 0 L .21400002 .031000002 C .148 .031000002 .144 .036000004 .144 .075 L .144 .44200004 M .148 .61600008 C .148 .648 .123 .669 .095000009 .669 C .064 .669 .042000005 .642 .042000005 .61600008 C .042000005 .58900007 .064 .563 .095000009 .563 C .123 .563 .148 .58400008 .148 .61600008 Z "/>
</symbol>
<symbol id="font_0_a">
<path d="M .07800001 .344 L .07800001 .076000008 C .07800001 .031000002 .067 .031000002 0 .031000002 L 0 0 C .035 .001 .08600001 .003 .113000009 .003 C .139 .003 .191 .001 .225 0 L .225 .031000002 C .158 .031000002 .147 .031000002 .147 .076000008 L .147 .26000003 C .147 .36400003 .218 .42000003 .282 .42000003 C .345 .42000003 .356 .36600004 .356 .30900003 L .356 .076000008 C .356 .031000002 .345 .031000002 .278 .031000002 L .278 0 C .31300003 .001 .36400003 .003 .391 .003 C .41700004 .003 .46900005 .001 .503 0 L .503 .031000002 C .451 .031000002 .42600004 .031000002 .425 .061000006 L .425 .252 C .425 .33800004 .425 .36900003 .39400003 .40500004 C .38000003 .42200003 .347 .44200004 .289 .44200004 C .216 .44200004 .169 .39900003 .141 .337 L .141 .44200004 L 0 .43100003 L 0 .4 C .07000001 .4 .07800001 .393 .07800001 .344 Z "/>
</symbol>
<use xlink:href="#font_0_5" transform="matrix(9.9626,0,0,-9.9626,53.85069,113.753009)"/>
<use xlink:href="#font_0_b" transform="matrix(9.9626,0,0,-9.9626,61.39238,113.862598)"/>
<use xlink:href="#font_0_9" transform="matrix(9.9626,0,0,-9.9626,66.41353,113.753009)"/>
<use xlink:href="#font_0_6" transform="matrix(9.9626,0,0,-9.9626,74.812,113.862598)"/>
<use xlink:href="#font_0_8" transform="matrix(9.9626,0,0,-9.9626,79.703639,113.753009)"/>
<use xlink:href="#font_0_a" transform="matrix(9.9626,0,0,-9.9626,82.46327,113.753009)"/>
<path transform="matrix(1,0,0,-1,13.897,167.042)" stroke-width=".3985" stroke-linecap="butt" stroke-miterlimit="10" stroke-linejoin="miter" fill="none" stroke="#000000" d="M 283.4681 5.6697 C 299.20036 8.02953 332.2956 6.78238 340.1617 17.00824 C 348.02784 27.2341 344.09477 62.06526 340.1617 79.37071 C 336.22865 96.67615 321.25425 133.08124 311.81489 141.73403 C 302.37556 150.38681 281.56886 151.96 272.12953 141.73403 C 262.6902 131.50806 251.64884 82.97774 243.78272 68.03217 C 235.91661 53.08658 217.79573 43.45583 215.4359 34.01648 C 213.07607 24.57715 217.33515 3.93304 226.77448 0 C 236.2138 -3.93304 267.73585 3.30986 283.4681 5.6697 Z "/>
<symbol id="font_0_4">
<path d="M 0 .36400003 C 0 .157 .162 0 .34800003 0 C .51100006 0 .609 .13900002 .609 .25500003 C .609 .26500003 .609 .272 .596 .272 C .58500006 .272 .58500006 .26600004 .58400008 .256 C .57600006 .113000009 .46900005 .031000004 .36 .031000004 C .29900003 .031000004 .10300001 .065000008 .10300001 .36300005 C .10300001 .66200008 .298 .69600006 .35900004 .69600006 C .46800006 .69600006 .55700007 .605 .577 .45900003 C .57900008 .44500003 .57900008 .44200004 .59300008 .44200004 C .609 .44200004 .609 .44500003 .609 .46600006 L .609 .70300009 C .609 .72 .609 .72700008 .59800007 .72700008 C .59400007 .72700008 .59000006 .72700008 .582 .71500006 L .532 .64100006 C .495 .67700007 .444 .72700008 .34800003 .72700008 C .16100002 .72700008 0 .568 0 .36400003 Z "/>
</symbol>
<symbol id="font_0_7">
<path d="M .34600003 .06600001 L .34600003 0 L .493 .011000001 L .493 .042000005 C .423 .042000005 .41500003 .049000004 .41500003 .098000008 L .41500003 .705 L .271 .694 L .271 .663 C .34100003 .663 .349 .656 .349 .607 L .349 .39100004 C .32 .42700003 .277 .45300005 .22299999 .45300005 C .10500001 .45300005 0 .35500003 0 .22600001 C 0 .09900001 .098 0 .21200001 0 C .276 0 .321 .034 .34600003 .06600001 M .34600003 .33400003 L .34600003 .12900001 C .34600003 .111 .34600003 .109000008 .335 .092 C .305 .044 .26 .022000002 .21700001 .022000002 C .17200002 .022000002 .136 .048 .11200001 .086 C .086 .127 .083000008 .18400002 .083000008 .22500003 C .083000008 .26200003 .085 .32200004 .114 .367 C .13500002 .39800004 .17300001 .43100003 .227 .43100003 C .262 .43100003 .30400003 .41600005 .335 .37100003 C .34600003 .35400004 .34600003 .35200004 .34600003 .33400003 Z "/>
</symbol>
<use xlink:href="#font_0_4" transform="matrix(9.9626,0,0,-9.9626,275.6419,114.02718)"/>
<use xlink:href="#font_0_b" transform="matrix(9.9626,0,0,-9.9626,282.55598,113.917598)"/>
<use xlink:href="#font_0_7" transform="matrix(9.9626,0,0,-9.9626,287.87599,113.917598)"/>
<use xlink:href="#font_0_b" transform="matrix(9.9626,0,0,-9.9626,293.35545,113.917598)"/>
<use xlink:href="#font_0_9" transform="matrix(9.9626,0,0,-9.9626,298.3766,113.80801)"/>
<use xlink:href="#font_0_6" transform="matrix(9.9626,0,0,-9.9626,306.77507,113.917598)"/>
<use xlink:href="#font_0_8" transform="matrix(9.9626,0,0,-9.9626,311.6667,113.80801)"/>
<use xlink:href="#font_0_a" transform="matrix(9.9626,0,0,-9.9626,314.42634,113.80801)"/>
<path transform="matrix(1,0,0,-1,13.897,167.042)" stroke-width=".3985" stroke-linecap="butt" stroke-miterlimit="10" stroke-linejoin="miter" fill="none" stroke="#000000" d="M 56.69362 85.0404 C 56.69362 85.0404 94.56667 141.73403 170.08086 141.73403 C 245.59503 141.73403 283.4681 85.0404 278.85523 91.9458 "/>
<path transform="matrix(.55545,.8315,.8315,-.55545,292.75224,75.09618)" d="M 7.48325 0 C 6.56427 .22145 2.52473 1.47641 0 2.84209 L 0 -2.84209 C 2.52473 -1.47641 6.56427 -.22145 7.48325 0 Z "/>
<path transform="matrix(.55545,.8315,.8315,-.55545,292.75224,75.09618)" stroke-width=".3985" stroke-linecap="butt" stroke-miterlimit="10" stroke-linejoin="miter" fill="none" stroke="#000000" d="M 7.48325 0 C 6.56427 .22145 2.52473 1.47641 0 2.84209 L 0 -2.84209 C 2.52473 -1.47641 6.56427 -.22145 7.48325 0 Z "/>
<symbol id="font_1_1">
<path d="M .314 .605 L .4 .605 C .42000003 .605 .43 .605 .43 .625 C .43 .63600006 .42000003 .63600006 .40300004 .63600006 L .32000003 .63600006 L .34100003 .75 C .34500004 .771 .35900004 .842 .365 .8540001 C .374 .873 .39100004 .888 .41200004 .888 C .416 .888 .44200004 .888 .461 .87 C .41700004 .86600008 .407 .8310001 .407 .816 C .407 .793 .425 .781 .444 .781 C .47 .781 .49900005 .8030001 .49900005 .8410001 C .49900005 .8870001 .45300005 .9100001 .41200004 .9100001 C .37800003 .9100001 .31500004 .8920001 .28500004 .793 C .279 .7720001 .27600003 .7620001 .252 .63600006 L .18300002 .63600006 C .164 .63600006 .15300001 .63600006 .15300001 .61700007 C .15300001 .605 .162 .605 .18100001 .605 L .24700001 .605 L .172 .21000001 C .15400002 .113000009 .13700001 .022 .08500001 .022 C .081 .022 .056 .022 .037 .040000008 C .083000008 .043000014 .09200001 .07900001 .09200001 .094000007 C .09200001 .117000009 .074 .12900001 .055 .12900001 C .029 .12900001 0 .10700001 0 .069000009 C 0 .024000004 .044 0 .08500001 0 C .14 0 .18 .059 .19800002 .09700001 C .23000002 .16000001 .25300003 .28100003 .254 .28800003 L .314 .605 Z "/>
</symbol>
<use xlink:href="#font_1_1" transform="matrix(9.9626,0,0,-9.9626,174.80802,12.834341)"/>
<symbol id="font_0_1">
<path d="M .23200003 .00999999 C .23200003 .012999982 .23200003 .014999986 .215 .03199999 C .09 .15799999 .058 .347 .058 .5 C .058 .674 .096 .84800007 .21900001 .97300007 C .23200003 .985 .23200003 .98700007 .23200003 .99 C .23200003 .99700006 .22800002 1 .222 1 C .21200001 1 .12200001 .93200007 .06299999 .805 C .012000002 .69500008 0 .584 0 .5 C 0 .422 .011 .301 .066 .188 C .126 .065 .21200001 0 .222 0 C .22800002 0 .23200003 .0029999912 .23200003 .00999999 Z "/>
</symbol>
<use xlink:href="#font_0_1" transform="matrix(9.9626,0,0,-9.9626,181.2163,13.282658)"/>
<symbol id="font_1_2">
<path d="M .305 .31300003 C .311 .33900003 .334 .43100003 .404 .43100003 C .409 .43100003 .433 .43100003 .454 .418 C .426 .41300003 .40600003 .388 .40600003 .36400003 C .40600003 .34800003 .417 .32900004 .444 .32900004 C .46600003 .32900004 .498 .34700004 .498 .38700003 C .498 .43900005 .439 .45300005 .405 .45300005 C .347 .45300005 .312 .40000005 .3 .37700004 C .275 .44300003 .221 .45300005 .19200002 .45300005 C .08800001 .45300005 .031000002 .32400004 .031000002 .29900003 C .031000002 .28900004 .041 .28900004 .043000007 .28900004 C .051000008 .28900004 .054000006 .291 .056 .3 C .09 .40600003 .156 .43100003 .19000001 .43100003 C .209 .43100003 .244 .42200003 .244 .36400003 C .244 .33300004 .22700002 .26600004 .19000001 .126 C .17400001 .064 .13900002 .022000002 .095000009 .022000002 C .08900001 .022000002 .06600001 .022000002 .045 .035 C .07000001 .040000004 .09200001 .061 .09200001 .089 C .09200001 .116000007 .07000001 .124000009 .055000009 .124000009 C .025 .124000009 0 .098000008 0 .06600001 C 0 .020000002 .050000006 0 .094000007 0 C .16000001 0 .19600001 .07000001 .19900002 .076000008 C .21100001 .039 .24700003 0 .307 0 C .41 0 .467 .12900001 .467 .15400002 C .467 .16400002 .458 .16400002 .455 .16400002 C .446 .16400002 .444 .16000001 .442 .15300001 C .409 .046 .341 .022000002 .30900003 .022000002 C .27 .022000002 .254 .054 .254 .08800001 C .254 .11000001 .26 .13200002 .271 .17600002 L .305 .31300003 Z "/>
</symbol>
<use xlink:href="#font_1_2" transform="matrix(9.9626,0,0,-9.9626,184.3929,10.901596)"/>
<symbol id="font_0_2">
<path d="M .232 .5 C .232 .578 .22100002 .699 .16600001 .81200006 C .106 .93500009 .020000004 1 .009999998 1 C .0040000008 1 0 .99600008 0 .99 C 0 .98700007 0 .985 .019000002 .967 C .117000009 .86800006 .174 .709 .174 .5 C .174 .329 .137 .153 .012999997 .026999996 C 0 .014999986 0 .012999982 0 .00999999 C 0 .003999993 .0040000008 0 .009999998 0 C .020000004 0 .11000001 .06799999 .169 .195 C .22 .305 .232 .416 .232 .5 Z "/>
</symbol>
<use xlink:href="#font_0_2" transform="matrix(9.9626,0,0,-9.9626,190.36586,13.282658)"/>
<path transform="matrix(1,0,0,-1,13.897,167.042)" d="M 58.83453 85.56621 C 58.83453 86.74863 57.87602 87.70714 56.69362 87.70714 C 55.5112 87.70714 54.55269 86.74863 54.55269 85.56621 C 54.55269 84.3838 55.5112 83.4253 56.69362 83.4253 C 57.87602 83.4253 58.83453 84.3838 58.83453 85.56621 Z M 56.69362 85.56621 "/>
<symbol id="font_0_3">
<path d="M .106 .053000004 C .106 .082 .08200001 .106000009 .05300001 .106000009 C .024000004 .106000009 0 .082 0 .053000004 C 0 .024 .024000004 0 .05300001 0 C .08200001 0 .106 .024 .106 .053000004 Z "/>
</symbol>
<use xlink:href="#font_0_3" transform="matrix(9.9626,0,0,-9.9626,70.06378,82.002017)"/>
<use xlink:href="#font_1_2" transform="matrix(9.9626,0,0,-9.9626,65.79792,92.013599)"/>
<symbol id="font_2_1">
<path d="M .22600001 .63600006 C .22600001 .66300007 .224 .66400006 .19600001 .66400006 C .132 .601 .041 .6 0 .6 L 0 .564 C .023999997 .564 .09000001 .564 .14500001 .592 L .14500001 .082 C .14500001 .049000004 .14500001 .036000004 .04500001 .036000004 L .0069999995 .036000004 L .0069999995 0 C .024999999 .001 .148 .004 .185 .004 C .21600002 .004 .34200005 .001 .36400003 0 L .36400003 .036000004 L .32600004 .036000004 C .22600001 .036000004 .22600001 .049000004 .22600001 .082 L .22600001 .63600006 Z "/>
</symbol>
<use xlink:href="#font_2_1" transform="matrix(6.9738,0,0,-6.9738,71.96315,93.39801)"/>
<symbol id="font_1_3">
<path d="M .45700003 .586 C .461 .6 .461 .602 .461 .609 C .461 .62700006 .447 .63600006 .432 .63600006 C .42200003 .63600006 .40600003 .63 .397 .615 C .395 .61 .387 .579 .38300003 .561 C .37600003 .535 .36900003 .508 .363 .48100005 L .318 .301 C .314 .286 .271 .21600002 .20500002 .21600002 C .15400002 .21600002 .143 .26000003 .143 .29700003 C .143 .34300003 .16000001 .40500004 .194 .49300004 C .21000001 .53400006 .21400002 .545 .21400002 .56500008 C .21400002 .61 .18200001 .6470001 .13200002 .6470001 C .037 .6470001 0 .50200006 0 .49300004 C 0 .48300005 .01 .48300005 .012 .48300005 C .022000002 .48300005 .023 .485 .028000003 .50100007 C .055000009 .595 .095000009 .625 .12900001 .625 C .13700001 .625 .15400002 .625 .15400002 .59300008 C .15400002 .568 .14400001 .54200008 .13700001 .523 C .097 .41700004 .079 .36 .079 .31300003 C .079 .224 .142 .194 .201 .194 C .24000003 .194 .274 .21100001 .30200003 .23900002 C .289 .187 .277 .13800001 .237 .08500001 C .21100001 .051 .17300001 .022 .127 .022 C .113000009 .022 .068 .025000006 .051000008 .06400001 C .067 .06400001 .080000009 .06400001 .094000007 .076000008 C .104 .08500001 .11400001 .098000008 .11400001 .117000009 C .11400001 .148 .087000008 .15200001 .07700001 .15200001 C .054000006 .15200001 .021 .136 .021 .087000008 C .021 .037 .065000008 0 .127 0 C .23 0 .333 .091000009 .361 .20400001 L .45700003 .586 Z "/>
</symbol>
<use xlink:href="#font_1_3" transform="matrix(9.9626,0,0,-9.9626,292.9739,90.89034)"/>
<use xlink:href="#font_2_1" transform="matrix(6.9738,0,0,-6.9738,298.32914,90.343)"/>
<path transform="matrix(1,0,0,-1,13.897,167.042)" stroke-width=".3985" stroke-linecap="butt" stroke-miterlimit="10" stroke-linejoin="miter" fill="none" stroke="#000000" d="M 283.4681 31.18166 C 283.4681 31.18166 245.59503 -27.4028 170.08086 -28.34679 C 94.56667 -29.29077 56.69362 28.34679 61.2539 21.40668 "/>
<path transform="matrix(-.54912,-.83568,-.83568,.54912,75.150928,145.63533)" d="M 7.48325 0 C 6.56427 .22145 2.52473 1.47641 0 2.84209 L 0 -2.84209 C 2.52473 -1.47641 6.56427 -.22145 7.48325 0 Z "/>
<path transform="matrix(-.54912,-.83568,-.83568,.54912,75.150928,145.63533)" stroke-width=".3985" stroke-linecap="butt" stroke-miterlimit="10" stroke-linejoin="miter" fill="none" stroke="#000000" d="M 7.48325 0 C 6.56427 .22145 2.52473 1.47641 0 2.84209 L 0 -2.84209 C 2.52473 -1.47641 6.56427 -.22145 7.48325 0 Z "/>
<use xlink:href="#font_1_1" transform="matrix(9.9626,0,0,-9.9626,181.02402,217.49733)"/>
<symbol id="font_3_1">
<path d="M .63600006 0 C .65200009 0 .67600008 0 .67600008 .023999989 C .67600008 .048999996 .65300008 .048999996 .63600006 .048999996 L .04 .048999996 C .023999997 .048999996 0 .048999996 0 .025000006 C 0 0 .02300001 0 .04 0 L .63600006 0 Z "/>
</symbol>
<use xlink:href="#font_3_1" transform="matrix(6.9738,0,0,-6.9738,187.19918,209.76493)"/>
<use xlink:href="#font_2_1" transform="matrix(6.9738,0,0,-6.9738,193.43315,211.341)"/>
<use xlink:href="#font_0_1" transform="matrix(9.9626,0,0,-9.9626,198.1283,217.94565)"/>
<use xlink:href="#font_1_3" transform="matrix(9.9626,0,0,-9.9626,201.30591,217.49733)"/>
<use xlink:href="#font_0_2" transform="matrix(9.9626,0,0,-9.9626,206.82587,217.94565)"/>
<path transform="matrix(1,0,0,-1,13.897,167.042)" d="M 285.609 31.70746 C 285.609 32.88986 284.6505 33.84839 283.4681 33.84839 C 282.28569 33.84839 281.32716 32.88986 281.32716 31.70746 C 281.32716 30.52505 282.28569 29.56653 283.4681 29.56653 C 284.6505 29.56653 285.609 30.52505 285.609 31.70746 Z M 283.4681 31.70746 "/>
<use xlink:href="#font_0_3" transform="matrix(9.9626,0,0,-9.9626,296.83479,135.86101)"/>
<use xlink:href="#font_1_3" transform="matrix(9.9626,0,0,-9.9626,292.9739,130.57534)"/>
<symbol id="font_2_2">
<path d="M .442 .18200001 L .40800003 .18200001 C .40500004 .16000001 .39500005 .101 .38200004 .091000009 C .374 .085 .29700003 .085 .28300003 .085 L .099 .085 C .20400003 .178 .23900002 .20600002 .29900003 .25300003 C .37300004 .312 .442 .374 .442 .469 C .442 .59000006 .33600004 .66400006 .20800004 .66400006 C .084 .66400006 0 .577 0 .485 C 0 .43400003 .043000007 .42900003 .053000004 .42900003 C .077 .42900003 .10600001 .446 .10600001 .48200003 C .10600001 .5 .099 .535 .047000007 .535 C .078 .606 .146 .628 .19300002 .628 C .293 .628 .34500004 .55 .34500004 .469 C .34500004 .38200004 .28300003 .31300003 .25100003 .277 L .010000005 .039 C 0 .030000002 0 .028 0 0 L .41200004 0 L .442 .18200001 Z "/>
</symbol>
<use xlink:href="#font_2_2" transform="matrix(6.9738,0,0,-6.9738,298.00837,130.02802)"/>
<use xlink:href="#font_1_2" transform="matrix(9.9626,0,0,-9.9626,65.79792,134.5326)"/>
<use xlink:href="#font_2_2" transform="matrix(6.9738,0,0,-6.9738,71.64235,135.918)"/>
</g>
</svg>
