<?xml version="1.0" encoding="UTF-8" standalone="no"?>
<!DOCTYPE svg PUBLIC "-//W3C//DTD SVG 1.1//EN" "http://www.w3.org/Graphics/SVG/1.1/DTD/svg11.dtd">
<svg xmlns="http://www.w3.org/2000/svg" xmlns:xlink="http://www.w3.org/1999/xlink" version="1.1" width="194.664pt" height="167.185pt" viewBox="0 0 194.664 167.185">
<g enable-background="new">
<path transform="matrix(1,0,0,-1,.199,164.082)" stroke-width=".19925" stroke-linecap="butt" stroke-miterlimit="10" stroke-linejoin="miter" fill="none" stroke="#808080" d="M 10.79263 78.57187 L 10.79263 82.82385 M 32.37793 78.57187 L 32.37793 82.82385 M 53.96321 78.57187 L 53.96321 82.82385 M 75.54851 78.57187 L 75.54851 82.82385 M 118.71909 78.57187 L 118.71909 82.82385 M 140.30437 78.57187 L 140.30437 82.82385 M 161.88967 78.57187 L 161.88967 82.82385 M 183.47495 78.57187 L 183.47495 82.82385 "/>
<path transform="matrix(1,0,0,-1,.199,164.082)" stroke-width=".19925" stroke-linecap="butt" stroke-miterlimit="10" stroke-linejoin="miter" fill="none" stroke="#808080" d="M 95.00781 3.84274 L 99.25977 3.84274 M 95.00781 19.21378 L 99.25977 19.21378 M 95.00781 34.5848 L 99.25977 34.5848 M 95.00781 49.95583 L 99.25977 49.95583 M 95.00781 65.32684 L 99.25977 65.32684 M 95.00781 96.0689 L 99.25977 96.0689 M 95.00781 111.43993 L 99.25977 111.43993 M 95.00781 126.81094 L 99.25977 126.81094 M 95.00781 142.18196 L 99.25977 142.18196 M 95.00781 157.553 L 99.25977 157.553 "/>
<path transform="matrix(1,0,0,-1,.199,164.082)" stroke-width=".3985" stroke-linecap="butt" stroke-miterlimit="10" stroke-linejoin="miter" fill="none" stroke="#000000" d="M 0 80.69788 L 192.27507 80.69788 "/>
<path transform="matrix(1,0,0,-1,192.47408,83.38412)" d="M 1.99252 0 L -1.19551 1.59401 L 0 0 L -1.19551 -1.59401 "/>
<path transform="matrix(1,0,0,-1,.199,164.082)" stroke-width=".3985" stroke-linecap="butt" stroke-miterlimit="10" stroke-linejoin="miter" fill="none" stroke="#000000" d="M 97.13379 0 L 97.13379 159.40323 "/>
<path transform="matrix(0,-1,-1,-0,97.33279,4.678772)" d="M 1.99252 0 L -1.19551 1.59401 L 0 0 L -1.19551 -1.59401 "/>
<symbol id="font_0_1">
<path d="M .57600006 0 C .59300008 0 .611 0 .611 .019999996 C .611 .040000008 .59300008 .040000008 .57600006 .040000008 L .035000005 .040000008 C .018 .040000008 0 .040000008 0 .019999996 C 0 0 .018 0 .035000005 0 L .57600006 0 Z "/>
</symbol>
<use xlink:href="#font_0_1" transform="matrix(9.9626,0,0,-9.9626,5.4538958,93.1596)"/>
<symbol id="font_1_5">
<path d="M .266 .165 L .266 .078 C .266 .042000005 .26400004 .031000002 .19000001 .031000002 L .16900002 .031000002 L .16900002 0 C .21000001 .003 .26200003 .003 .30400003 .003 C .34600003 .003 .39900003 .003 .44000004 0 L .44000004 .031000002 L .41900004 .031000002 C .34500004 .031000002 .34300003 .042000005 .34300003 .078 L .34300003 .165 L .44300003 .165 L .44300003 .19600001 L .34300003 .19600001 L .34300003 .651 C .34300003 .671 .34300003 .67700007 .32700003 .67700007 C .31800003 .67700007 .31500004 .67700007 .307 .665 L 0 .19600001 L 0 .165 L .266 .165 M .272 .19600001 L .028 .19600001 L .272 .569 L .272 .19600001 Z "/>
</symbol>
<use xlink:href="#font_1_5" transform="matrix(9.9626,0,0,-9.9626,12.653953,95.451)"/>
<use xlink:href="#font_0_1" transform="matrix(9.9626,0,0,-9.9626,27.038897,93.1596)"/>
<symbol id="font_1_4">
<path d="M .24800003 .37400005 C .33 .40100003 .388 .47100006 .388 .55 C .388 .632 .3 .688 .204 .688 C .10300001 .688 .027000003 .628 .027000003 .55200007 C .027000003 .519 .049000004 .5 .078 .5 C .109000008 .5 .12900001 .522 .12900001 .55100008 C .12900001 .6010001 .082 .6010001 .067 .6010001 C .098 .65000006 .164 .66300007 .20000002 .66300007 C .24100003 .66300007 .29600004 .64100006 .29600004 .55100008 C .29600004 .53900006 .29400004 .48100005 .268 .43700005 C .238 .38900004 .204 .38600005 .17900002 .38500003 C .171 .38400004 .14700002 .38200004 .14000002 .38200004 C .132 .38100005 .125 .38000003 .125 .37000004 C .125 .35900004 .132 .35900004 .14900002 .35900004 L .19300002 .35900004 C .275 .35900004 .312 .29100005 .312 .193 C .312 .057000005 .24300003 .028 .199 .028 C .15600002 .028 .081 .045 .046000005 .104 C .081 .09900001 .11200001 .12100001 .11200001 .15900001 C .11200001 .19500001 .085 .215 .056 .215 C .031999999 .215 0 .201 0 .157 C 0 .06600001 .093 0 .20200002 0 C .32400004 0 .41500003 .091000009 .41500003 .193 C .41500003 .27500005 .35200004 .35300005 .24800003 .37400005 Z "/>
</symbol>
<use xlink:href="#font_1_4" transform="matrix(9.9626,0,0,-9.9626,34.37843,95.67017)"/>
<use xlink:href="#font_0_1" transform="matrix(9.9626,0,0,-9.9626,48.623899,93.1596)"/>
<symbol id="font_1_3">
<path d="M .07700001 .07700001 L .18300002 .18 C .33900003 .31800003 .39900003 .372 .39900003 .47200004 C .39900003 .586 .30900003 .666 .18700002 .666 C .074 .666 0 .574 0 .485 C 0 .42900003 .05 .42900003 .053000008 .42900003 C .07000001 .42900003 .105000007 .441 .105000007 .48200003 C .105000007 .508 .08700001 .53400006 .052000006 .53400006 C .044000005 .53400006 .042000008 .53400006 .039 .53300008 C .062000004 .59800007 .11600001 .63500007 .17400001 .63500007 C .26500003 .63500007 .308 .554 .308 .47200004 C .308 .39200003 .25800003 .31300003 .20300003 .25100003 L .011000004 .037 C 0 .026 0 .024 0 0 L .37100003 0 L .39900003 .17400001 L .374 .17400001 C .36900003 .14400001 .36200003 .1 .352 .085 C .345 .07700001 .279 .07700001 .257 .07700001 L .07700001 .07700001 Z "/>
</symbol>
<use xlink:href="#font_1_3" transform="matrix(9.9626,0,0,-9.9626,56.044134,95.451)"/>
<use xlink:href="#font_0_1" transform="matrix(9.9626,0,0,-9.9626,70.20889,93.1596)"/>
<symbol id="font_1_2">
<path d="M .205 .64000007 C .205 .66400006 .205 .666 .18200003 .666 C .120000008 .60200008 .032000007 .60200008 0 .60200008 L 0 .57100006 C .020000004 .57100006 .07900001 .57100006 .13100001 .597 L .13100001 .079 C .13100001 .043 .128 .031000002 .038000004 .031000002 L .0060000049 .031000002 L .0060000049 0 C .04100001 .003 .128 .003 .168 .003 C .20800002 .003 .29500003 .003 .33000005 0 L .33000005 .031000002 L .29800005 .031000002 C .20800002 .031000002 .205 .042000005 .205 .079 L .205 .64000007 Z "/>
</symbol>
<use xlink:href="#font_1_2" transform="matrix(9.9626,0,0,-9.9626,78.01767,95.451)"/>
<use xlink:href="#font_1_2" transform="matrix(9.9626,0,0,-9.9626,117.31267,95.451)"/>
<use xlink:href="#font_1_3" transform="matrix(9.9626,0,0,-9.9626,138.50913,95.451)"/>
<use xlink:href="#font_1_4" transform="matrix(9.9626,0,0,-9.9626,160.01444,95.67017)"/>
<use xlink:href="#font_1_5" transform="matrix(9.9626,0,0,-9.9626,181.45995,95.451)"/>
<use xlink:href="#font_0_1" transform="matrix(9.9626,0,0,-9.9626,74.801898,160.7426)"/>
<symbol id="font_1_1">
<path d="M .421 .34200005 C .421 .42200003 .416 .50200006 .381 .57600006 C .335 .67200008 .25300003 .688 .211 .688 C .15100001 .688 .07800001 .66200008 .037000006 .56900009 C .0050000029 .5 0 .42200003 0 .34200005 C 0 .26700003 .0040000008 .177 .045000007 .101 C .088 .020000002 .161 0 .21000001 0 C .264 0 .34 .021000002 .384 .116000007 C .416 .185 .421 .263 .421 .34200005 M .21000001 .022000002 C .171 .022000002 .112 .047000003 .094 .143 C .083000008 .20300001 .083000008 .29500003 .083000008 .35400004 C .083000008 .41800005 .083000008 .48400004 .091000009 .53800007 C .11 .65700009 .185 .66600009 .21000001 .66600009 C .243 .66600009 .30900003 .64800009 .328 .549 C .338 .49300004 .338 .41700004 .338 .35400004 C .338 .279 .338 .21100001 .32700003 .147 C .312 .052 .255 .022000002 .21000001 .022000002 Z "/>
</symbol>
<use xlink:href="#font_1_2" transform="matrix(9.9626,0,0,-9.9626,82.60967,163.034)"/>
<use xlink:href="#font_1_1" transform="matrix(9.9626,0,0,-9.9626,87.09284,163.25318)"/>
<use xlink:href="#font_0_1" transform="matrix(9.9626,0,0,-9.9626,79.7829,145.3716)"/>
<symbol id="font_1_7">
<path d="M .121 .47900004 C .075 .509 .071 .54300007 .071 .56000009 C .071 .62100008 .136 .66300007 .20700002 .66300007 C .28000004 .66300007 .344 .61100009 .344 .53900006 C .344 .48200003 .305 .43400005 .245 .39900003 L .121 .47900004 M .26700003 .38400004 C .33900003 .42100004 .388 .47300006 .388 .53900006 C .388 .63100007 .29900003 .688 .208 .688 C .108 .688 .027000003 .614 .027000003 .521 C .027000003 .503 .029 .45800004 .071 .41100005 C .082 .39900003 .11900001 .37400005 .144 .35700003 C .086 .32800005 0 .272 0 .17300001 C 0 .067 .102000009 0 .20700002 0 C .32000003 0 .41500003 .083000008 .41500003 .19000001 C .41500003 .22600001 .404 .27100004 .36600004 .31300003 C .34700004 .33400003 .33100004 .34400005 .26700003 .38400004 M .167 .34200005 L .29000003 .26400004 C .31800003 .245 .365 .215 .365 .154 C .365 .080000009 .29000003 .028 .208 .028 C .122 .028 .050000006 .09 .050000006 .17300001 C .050000006 .231 .082 .29500003 .167 .34200005 Z "/>
</symbol>
<use xlink:href="#font_1_7" transform="matrix(9.9626,0,0,-9.9626,87.12343,147.88217)"/>
<use xlink:href="#font_0_1" transform="matrix(9.9626,0,0,-9.9626,79.7829,130.0016)"/>
<symbol id="font_1_6">
<path d="M .089999999 .35000003 L .089999999 .37400005 C .089999999 .62700006 .21400002 .66300007 .26500003 .66300007 C .28900004 .66300007 .33100004 .65700009 .35300002 .623 C .33800004 .623 .298 .623 .298 .57800009 C .298 .54700008 .32200004 .53200009 .344 .53200009 C .36 .53200009 .39000003 .54100009 .39000003 .58000007 C .39000003 .64000007 .34600003 .688 .263 .688 C .13499999 .688 0 .559 0 .33800004 C 0 .071 .116000007 0 .20900002 0 C .32000003 0 .41500003 .094000007 .41500003 .22600001 C .41500003 .35300005 .32600004 .44900004 .215 .44900004 C .14700002 .44900004 .11000001 .39800004 .089999999 .35000003 M .20900002 .028 C .146 .028 .116000007 .088 .11000001 .103 C .092 .15 .092 .23 .092 .24800001 C .092 .32600004 .124000009 .42600004 .21400002 .42600004 C .23000002 .42600004 .27600003 .42600004 .307 .36400003 C .32500003 .32700003 .32500003 .27600003 .32500003 .22700002 C .32500003 .179 .32500003 .12900001 .30800004 .093 C .27800004 .033000005 .23200003 .028 .20900002 .028 Z "/>
</symbol>
<use xlink:href="#font_1_6" transform="matrix(9.9626,0,0,-9.9626,87.12343,132.51218)"/>
<use xlink:href="#font_0_1" transform="matrix(9.9626,0,0,-9.9626,79.7829,114.6306)"/>
<use xlink:href="#font_1_5" transform="matrix(9.9626,0,0,-9.9626,86.983959,116.922)"/>
<use xlink:href="#font_0_1" transform="matrix(9.9626,0,0,-9.9626,79.7829,99.2596)"/>
<use xlink:href="#font_1_3" transform="matrix(9.9626,0,0,-9.9626,87.20313,101.550998)"/>
<use xlink:href="#font_1_3" transform="matrix(9.9626,0,0,-9.9626,87.203128,71.224)"/>
<use xlink:href="#font_1_5" transform="matrix(9.9626,0,0,-9.9626,86.98395,55.853998)"/>
<use xlink:href="#font_1_6" transform="matrix(9.9626,0,0,-9.9626,87.12342,40.70217)"/>
<use xlink:href="#font_1_7" transform="matrix(9.9626,0,0,-9.9626,87.12342,25.331177)"/>
<use xlink:href="#font_1_2" transform="matrix(9.9626,0,0,-9.9626,82.60967,9.740997)"/>
<use xlink:href="#font_1_1" transform="matrix(9.9626,0,0,-9.9626,87.09284,9.960175)"/>
<clipPath id="cp2">
<path transform="matrix(1,0,0,-1,.199,164.082)" d="M 0 0 L 194.2676 0 L 194.2676 161.39575 L 0 161.39575 Z "/>
</clipPath>
<g clip-path="url(#cp2)">
<path transform="matrix(1,0,0,-1,.199,164.082)" stroke-width=".3985" stroke-linecap="butt" stroke-miterlimit="10" stroke-linejoin="miter" fill="none" stroke="#000000" d="M 11.25076 78.76625 L 11.07417 78.77019 L 11.35571 78.76381 L 11.63725 78.7575 L 11.91881 78.75104 L 12.20035 78.74467 L 12.4819 78.73814 L 12.76344 78.7316 L 13.045 78.72499 L 13.32654 78.71829 L 13.60808 78.71178 L 13.88963 78.70494 L 14.17117 78.69824 L 14.45271 78.69148 L 14.73425 78.68457 L 15.01581 78.67764 L 15.29735 78.67073 L 15.57889 78.66382 L 15.86043 78.65659 L 16.14198 78.6496 L 16.42352 78.64246 L 16.70506 78.63515 L 16.98662 78.628 L 17.26816 78.62062 L 17.5497 78.61339 L 17.83124 78.60594 L 18.1128 78.5985 L 18.39435 78.59097 L 18.67589 78.58336 L 18.95743 78.57582 L 19.23898 78.56813 L 19.52052 78.56052 L 19.80206 78.5526 L 20.08362 78.54477 L 20.36516 78.53693 L 20.6467 78.52895 L 20.92824 78.52094 L 21.2098 78.51288 L 21.49133 78.50465 L 21.77287 78.49658 L 22.05441 78.48828 L 22.33597 78.4799 L 22.61751 78.4716 L 22.89905 78.46315 L 23.1806 78.45454 L 23.46214 78.44601 L 23.74368 78.43747 L 24.02522 78.42879 L 24.30678 78.41997 L 24.58833 78.41104 L 24.86987 78.4022 L 25.15143 78.3932 L 25.43297 78.3842 L 25.71451 78.37508 L 25.99605 78.36578 L 26.2776 78.35655 L 26.55914 78.34724 L 26.84068 78.3378 L 27.12222 78.32843 L 27.40378 78.31874 L 27.68532 78.3092 L 27.96686 78.29945 L 28.24841 78.2896 L 28.52995 78.2797 L 28.8115 78.26978 L 29.09303 78.25964 L 29.37459 78.24957 L 29.65613 78.23935 L 29.93767 78.22905 L 30.21921 78.2186 L 30.50076 78.20822 L 30.78232 78.19762 L 31.06386 78.18701 L 31.34541 78.17616 L 31.62695 78.1654 L 31.9085 78.15451 L 32.19003 78.14343 L 32.47159 78.1323 L 32.75313 78.12114 L 33.03467 78.10977 L 33.31621 78.09839 L 33.59776 78.08679 L 33.8793 78.07518 L 34.16084 78.0635 L 34.4424 78.05167 L 34.72394 78.03975 L 35.00548 78.0277 L 35.28702 78.01555 L 35.56857 78.00333 L 35.85011 77.99088 L 36.13165 77.97835 L 36.4132 77.96582 L 36.69476 77.95299 L 36.9763 77.94022 L 37.25784 77.92723 L 37.5394 77.91417 L 37.82094 77.90096 L 38.10248 77.88757 L 38.38402 77.87405 L 38.66557 77.86061 L 38.94711 77.84685 L 39.22865 77.83293 L 39.51021 77.81888 L 39.79175 77.80481 L 40.07329 77.79044 L 40.35483 77.77614 L 40.63638 77.76154 L 40.91792 77.74684 L 41.19946 77.73195 L 41.481 77.71704 L 41.76256 77.70181 L 42.0441 77.68652 L 42.32564 77.67108 L 42.6072 77.65547 L 42.88875 77.63965 L 43.17029 77.62367 L 43.45183 77.60751 L 43.73338 77.59122 L 44.01492 77.57478 L 44.29646 77.55818 L 44.578 77.54143 L 44.85956 77.52437 L 45.1411 77.50714 L 45.42264 77.48978 L 45.7042 77.47218 L 45.98573 77.4545 L 46.26727 77.43651 L 46.54881 77.41838 L 46.83037 77.39992 L 47.11191 77.38141 L 47.39345 77.36266 L 47.67499 77.34367 L 47.95654 77.32446 L 48.23808 77.3051 L 48.51962 77.28534 L 48.8012 77.2655 L 49.08273 77.24538 L 49.36427 77.22508 L 49.64581 77.2045 L 49.92737 77.18373 L 50.20891 77.1626 L 50.49045 77.14124 L 50.77199 77.11963 L 51.05354 77.09789 L 51.33508 77.0756 L 51.61662 77.05331 L 51.89818 77.03058 L 52.17972 77.00766 L 52.46126 76.98438 L 52.7428 76.96078 L 53.02435 76.93689 L 53.3059 76.91267 L 53.58743 76.88815 L 53.86899 76.86342 L 54.15053 76.83835 L 54.43207 76.81284 L 54.71361 76.78723 L 54.99518 76.76103 L 55.27672 76.73451 L 55.55826 76.7077 L 55.8398 76.6805 L 56.12135 76.65297 L 56.4029 76.625 L 56.68443 76.59663 L 56.96599 76.5679 L 57.24753 76.5387 L 57.52907 76.50917 L 57.81061 76.47914 L 58.09216 76.44861 L 58.3737 76.41795 L 58.65524 76.3866 L 58.93678 76.35477 L 59.21834 76.32251 L 59.49988 76.28976 L 59.78142 76.25656 L 60.06297 76.22275 L 60.34451 76.18861 L 60.62605 76.15381 L 60.90761 76.11852 L 61.18916 76.08264 L 61.4707 76.04613 L 61.75224 76.00908 L 62.03378 75.97173 L 62.31534 75.9334 L 62.59688 75.89458 L 62.87842 75.855 L 63.15997 75.81488 L 63.44151 75.77406 L 63.72305 75.73256 L 64.0046 75.69044 L 64.28615 75.64742 L 64.56769 75.60382 L 64.84923 75.55933 L 65.13078 75.51436 L 65.41232 75.4681 L 65.69386 75.42139 L 65.9754 75.37373 L 66.25696 75.32507 L 66.5385 75.27574 L 66.82004 75.22525 L 67.1016 75.17404 L 67.38315 75.1217 L 67.66469 75.06845 L 67.94623 75.0142 L 68.22778 74.95886 L 68.50932 74.90245 L 68.79086 74.8448 L 69.0724 74.78609 L 69.35396 74.72615 L 69.6355 74.66496 L 69.91704 74.60255 L 70.19858 74.53885 L 70.48013 74.47383 L 70.76167 74.40742 L 71.04321 74.3395 L 71.32477 74.27025 L 71.60631 74.19922 L 71.88785 74.12675 L 72.16939 74.05266 L 72.45094 73.9769 L 72.73248 73.89943 L 73.01402 73.82002 L 73.29558 73.73871 L 73.57713 73.65547 L 73.85867 73.57047 L 74.14021 73.4831 L 74.42177 73.3937 L 74.70331 73.30186 L 74.98485 73.20795 L 75.26639 73.1115 L 75.54794 73.01274 L 75.82948 72.9109 L 76.11102 72.80637 L 76.39256 72.69878 L 76.67412 72.58965 L 76.95566 72.4759 L 77.23721 72.35986 L 77.51875 72.23994 L 77.8003 72.11699 L 78.08183 71.99017 L 78.36339 71.86029 L 78.64493 71.7258 L 78.92647 71.58669 L 79.20804 71.44296 L 79.48958 71.29617 L 79.77112 71.14247 L 80.05267 70.98569 L 80.33421 70.82352 L 80.61575 70.65443 L 80.89731 70.47998 L 81.17885 70.3009 L 81.46039 70.11415 L 81.74194 69.9197 L 82.02348 69.7191 L 82.30502 69.51006 L 82.58658 69.29411 L 82.86812 69.06969 L 83.14966 68.8345 L 83.4312 68.59088 L 83.71275 68.33727 L 83.9943 68.07211 L 84.27583 67.79544 L 84.55739 67.50722 L 84.83893 67.20439 L 85.12047 66.88931 L 85.40204 66.5573 L 85.68358 66.20914 L 85.96512 65.84409 L 86.24667 65.46056 L 86.52821 65.0563 L 86.80975 64.62898 L 87.09131 64.17862 L 87.37285 63.70288 L 87.65439 63.19795 L 87.93593 62.6615 L 88.21748 62.09277 L 88.49902 61.48563 L 88.78058 60.8385 L 89.06212 60.1445 L 89.34366 59.40285 L 89.62521 58.60356 L 89.90675 57.74278 L 90.1883 56.81282 L 90.46983 55.80373 L 90.75139 54.7047 L 91.03293 53.50652 L 91.31448 52.19 L 91.59604 50.74051 L 91.87758 49.13654 L 92.15912 47.35043 L 92.44067 45.3499 L 92.72221 43.09341 L 93.00375 40.53029 L 93.28531 37.59213 L 93.56685 34.18898 L 93.84839 30.20328 L 94.12994 25.46977 L 94.41148 19.75945 L 94.69302 12.7295 L 94.96004 4.32689 "/>
<path transform="matrix(-.9997,-.02238,-.02238,.9997,11.44978,85.31575)" stroke-width=".31879" stroke-linecap="round" stroke-linejoin="round" fill="none" stroke="#000000" d="M -1.19551 1.59401 C -1.09587 .99626 0 .09961 .29886 0 C 0 -.09961 -1.09587 -.99626 -1.19551 -1.59401 "/>
<path transform="matrix(.03174,.99947,.99947,-.03174,95.15902,159.7551)" stroke-width=".31879" stroke-linecap="round" stroke-linejoin="round" fill="none" stroke="#000000" d="M -1.19551 1.59401 C -1.09587 .99626 0 .09961 .29886 0 C 0 -.09961 -1.09587 -.99626 -1.19551 -1.59401 "/>
<path transform="matrix(1,0,0,-1,.199,164.082)" stroke-width=".3985" stroke-linecap="butt" stroke-miterlimit="10" stroke-linejoin="miter" fill="none" stroke="#000000" d="M 99.30684 157.09497 L 99.57387 148.68468 L 99.85541 141.65166 L 100.13696 135.93749 L 100.4185 131.20244 L 100.70006 127.2152 L 100.9816 123.81128 L 101.26315 120.87311 L 101.5447 118.3077 L 101.82623 116.05122 L 102.10779 114.0499 L 102.38933 112.26227 L 102.67088 110.6583 L 102.95242 109.2088 L 103.23398 107.89304 L 103.51552 106.69257 L 103.79707 105.5943 L 104.07861 104.58444 L 104.36015 103.65448 L 104.64172 102.79372 L 104.92326 101.9952 L 105.20482 101.252 L 105.48636 100.55875 L 105.76791 99.91165 L 106.04945 99.30525 L 106.33101 98.73576 L 106.61255 98.19931 L 106.8941 97.69438 L 107.17564 97.21786 L 107.45718 96.7675 L 107.73874 96.34096 L 108.02028 95.93593 L 108.30183 95.55243 L 108.58337 95.18658 L 108.86493 94.8392 L 109.14647 94.50795 L 109.42802 94.19133 L 109.70956 93.89005 L 109.9911 93.6003 L 110.27266 93.32439 L 110.5542 93.05923 L 110.83577 92.80484 L 111.11731 92.56122 L 111.39886 92.32758 L 111.6804 92.1024 L 111.96196 91.88568 L 112.2435 91.67662 L 112.52505 91.47603 L 112.8066 91.28311 L 113.08813 91.09636 L 113.36969 90.91574 L 113.65123 90.74129 L 113.93279 90.57375 L 114.21432 90.41003 L 114.49588 90.25325 L 114.77742 90.10031 L 115.05898 89.95276 L 115.34052 89.80981 L 115.62206 89.66992 L 115.90361 89.53621 L 116.18515 89.40555 L 116.4667 89.27873 L 116.74825 89.15578 L 117.02982 89.03587 L 117.31136 88.91982 L 117.59291 88.80608 L 117.87445 88.69542 L 118.156 88.58936 L 118.43755 88.48483 L 118.71909 88.38338 L 119.00064 88.2844 L 119.28218 88.18785 L 119.56372 88.09393 L 119.84526 88.00226 L 120.12682 87.9128 L 120.40836 87.82549 L 120.6899 87.74042 L 120.97145 87.65726 L 121.25299 87.57593 L 121.53453 87.49655 L 121.81607 87.41908 L 122.09763 87.34314 L 122.37917 87.26904 L 122.6607 87.19658 L 122.94225 87.12572 L 123.22382 87.05646 L 123.50536 86.98845 L 123.7869 86.92189 L 124.06845 86.85704 L 124.34999 86.79324 L 124.63153 86.73091 L 124.91307 86.66966 L 125.19463 86.6098 L 125.47617 86.551 L 125.7577 86.4935 L 126.03926 86.43701 L 126.3208 86.38153 L 126.60234 86.32735 L 126.88388 86.27417 L 127.16544 86.22183 L 127.44698 86.17056 L 127.72852 86.12016 L 128.01006 86.0708 L 128.29161 86.02208 L 128.57315 85.9745 L 128.85469 85.92763 L 129.13626 85.88158 L 129.4178 85.8364 L 129.69934 85.79205 L 129.98088 85.74832 L 130.26244 85.7055 L 130.54398 85.66324 L 130.82552 85.62173 L 131.10706 85.58086 L 131.38861 85.54082 L 131.67015 85.50131 L 131.95169 85.46234 L 132.23325 85.42415 L 132.51479 85.38664 L 132.79633 85.3496 L 133.07787 85.31317 L 133.35942 85.27736 L 133.64096 85.242 L 133.9225 85.20717 L 134.20404 85.17299 L 134.4856 85.13933 L 134.76714 85.10596 L 135.04868 85.07321 L 135.33025 85.04102 L 135.61179 85.0092 L 135.89333 84.97792 L 136.17487 84.94711 L 136.45642 84.91667 L 136.73796 84.88655 L 137.0195 84.85703 L 137.30104 84.8279 L 137.5826 84.79924 L 137.86414 84.7708 L 138.14568 84.74275 L 138.42723 84.7154 L 138.70877 84.68802 L 138.99031 84.66121 L 139.27185 84.63475 L 139.5534 84.60849 L 139.83495 84.58289 L 140.11649 84.55737 L 140.39804 84.53232 L 140.67958 84.50758 L 140.96112 84.48299 L 141.24266 84.45885 L 141.52423 84.43494 L 141.80577 84.41135 L 142.08731 84.38814 L 142.36885 84.36514 L 142.6504 84.3424 L 142.93195 84.32013 L 143.21349 84.29799 L 143.49504 84.2761 L 143.77658 84.25458 L 144.05812 84.2332 L 144.33966 84.21214 L 144.62122 84.19122 L 144.90276 84.17072 L 145.1843 84.15034 L 145.46584 84.13028 L 145.74739 84.11038 L 146.02893 84.09064 L 146.31047 84.07126 L 146.59203 84.05205 L 146.87357 84.03307 L 147.1551 84.01431 L 147.43666 83.9958 L 147.71822 83.97734 L 147.99976 83.95929 L 148.2813 83.94138 L 148.56284 83.92355 L 148.84439 83.90594 L 149.12593 83.88858 L 149.40747 83.87144 L 149.68903 83.85431 L 149.97057 83.83755 L 150.2521 83.82095 L 150.53365 83.8045 L 150.8152 83.78821 L 151.09674 83.77216 L 151.37828 83.75609 L 151.65982 83.74026 L 151.94138 83.72472 L 152.22292 83.70927 L 152.50446 83.69391 L 152.78601 83.67877 L 153.06755 83.66377 L 153.34909 83.64888 L 153.63065 83.63419 L 153.9122 83.61966 L 154.19374 83.6053 L 154.47528 83.59091 L 154.75684 83.57686 L 155.03838 83.56279 L 155.31992 83.54895 L 155.60146 83.53528 L 155.88301 83.52167 L 156.16455 83.50815 L 156.44609 83.49478 L 156.72763 83.48155 L 157.00919 83.46849 L 157.29073 83.4555 L 157.57227 83.44273 L 157.85382 83.42992 L 158.13536 83.41739 L 158.4169 83.40486 L 158.69844 83.39256 L 158.98 83.38019 L 159.26154 83.36804 L 159.54309 83.35599 L 159.82463 83.34407 L 160.10619 83.33221 L 160.38773 83.32054 L 160.66927 83.30893 L 160.95082 83.29741 L 161.23236 83.28595 L 161.5139 83.27467 L 161.79544 83.26343 L 162.077 83.25229 L 162.35854 83.24123 L 162.64008 83.23032 L 162.92162 83.21956 L 163.20317 83.20872 L 163.48471 83.1981 L 163.76625 83.1875 L 164.0478 83.17712 L 164.32935 83.16667 L 164.61089 83.15639 L 164.89243 83.14615 L 165.17398 83.13608 L 165.45552 83.12595 L 165.73708 83.11603 L 166.01863 83.10612 L 166.30017 83.09627 L 166.58171 83.08653 L 166.86325 83.07698 L 167.1448 83.06729 L 167.42635 83.05794 L 167.70789 83.04848 L 167.98943 83.03917 L 168.27098 83.02994 L 168.55252 83.02066 L 168.83406 83.01167 L 169.11562 83.0026 L 169.39716 82.99352 L 169.6787 82.9847 L 169.96024 82.97586 L 170.24179 82.96709 L 170.52333 82.95825 L 170.80487 82.9497 L 171.08641 82.94118 L 171.36797 82.93257 L 171.6495 82.92412 L 171.93106 82.91566 L 172.21262 82.90744 L 172.49416 82.89915 L 172.7757 82.89107 L 173.05724 82.88286 L 173.33879 82.87479 L 173.62033 82.86678 L 173.90187 82.8588 L 174.18341 82.85095 L 174.46497 82.84312 L 174.7465 82.83536 L 175.02805 82.82759 L 175.3096 82.8199 L 175.59114 82.8123 L 175.87268 82.80476 L 176.15422 82.79723 L 176.43578 82.78978 L 176.71732 82.78233 L 176.99886 82.7751 L 177.2804 82.76773 L 177.56195 82.76057 L 177.8435 82.75327 L 178.12505 82.74612 L 178.4066 82.73915 L 178.68814 82.73206 L 178.96968 82.72499 L 179.25122 82.71808 L 179.53278 82.71117 L 179.81432 82.70439 L 180.09586 82.69748 L 180.37741 82.6908 L 180.65895 82.6841 L 180.94049 82.67743 L 181.22203 82.67079 L 181.50359 82.66412 L 181.78513 82.6576 L 182.06667 82.65114 L 182.3482 82.64468 L 182.62976 82.63821 L 182.9113 82.63191 L 183.19284 82.62555 L 183.01628 82.62947 "/>
<path transform="matrix(-.03171,-.99947,-.99947,.03171,99.50584,6.9870455)" stroke-width=".31879" stroke-linecap="round" stroke-linejoin="round" fill="none" stroke="#000000" d="M -1.19551 1.59401 C -1.09587 .99626 0 .09961 .29886 0 C 0 -.09961 -1.09587 -.99626 -1.19551 -1.59401 "/>
<path transform="matrix(.9997,.02231,.02231,-.9997,183.21527,81.45253)" stroke-width=".31879" stroke-linecap="round" stroke-linejoin="round" fill="none" stroke="#000000" d="M -1.19551 1.59401 C -1.09587 .99626 0 .09961 .29886 0 C 0 -.09961 -1.09587 -.99626 -1.19551 -1.59401 "/>
</g>
<symbol id="font_3_1">
<path d="M .305 .31300003 C .311 .33900003 .334 .43100003 .404 .43100003 C .409 .43100003 .433 .43100003 .454 .418 C .426 .41300003 .40600003 .388 .40600003 .36400003 C .40600003 .34800003 .417 .32900004 .444 .32900004 C .46600003 .32900004 .498 .34700004 .498 .38700003 C .498 .43900005 .439 .45300005 .405 .45300005 C .347 .45300005 .312 .40000005 .3 .37700004 C .275 .44300003 .221 .45300005 .19200002 .45300005 C .08800001 .45300005 .031000002 .32400004 .031000002 .29900003 C .031000002 .28900004 .041 .28900004 .043000007 .28900004 C .051000008 .28900004 .054000006 .291 .056 .3 C .09 .40600003 .156 .43100003 .19000001 .43100003 C .209 .43100003 .244 .42200003 .244 .36400003 C .244 .33300004 .22700002 .26600004 .19000001 .126 C .17400001 .064 .13900002 .022000002 .095000009 .022000002 C .08900001 .022000002 .06600001 .022000002 .045 .035 C .07000001 .040000004 .09200001 .061 .09200001 .089 C .09200001 .116000007 .07000001 .124000009 .055000009 .124000009 C .025 .124000009 0 .098000008 0 .06600001 C 0 .020000002 .050000006 0 .094000007 0 C .16000001 0 .19600001 .07000001 .19900002 .076000008 C .21100001 .039 .24700003 0 .307 0 C .41 0 .467 .12900001 .467 .15400002 C .467 .16400002 .458 .16400002 .455 .16400002 C .446 .16400002 .444 .16000001 .442 .15300001 C .409 .046 .341 .022000002 .30900003 .022000002 C .27 .022000002 .254 .054 .254 .08800001 C .254 .11000001 .26 .13200002 .271 .17600002 L .305 .31300003 Z "/>
</symbol>
<use xlink:href="#font_3_1" transform="matrix(9.9626,0,0,-9.9626,185.56792,79.963588)"/>
<symbol id="font_3_2">
<path d="M .45700003 .586 C .461 .6 .461 .602 .461 .609 C .461 .62700006 .447 .63600006 .432 .63600006 C .42200003 .63600006 .40600003 .63 .397 .615 C .395 .61 .387 .579 .38300003 .561 C .37600003 .535 .36900003 .508 .363 .48100005 L .318 .301 C .314 .286 .271 .21600002 .20500002 .21600002 C .15400002 .21600002 .143 .26000003 .143 .29700003 C .143 .34300003 .16000001 .40500004 .194 .49300004 C .21000001 .53400006 .21400002 .545 .21400002 .56500008 C .21400002 .61 .18200001 .6470001 .13200002 .6470001 C .037 .6470001 0 .50200006 0 .49300004 C 0 .48300005 .01 .48300005 .012 .48300005 C .022000002 .48300005 .023 .485 .028000003 .50100007 C .055000009 .595 .095000009 .625 .12900001 .625 C .13700001 .625 .15400002 .625 .15400002 .59300008 C .15400002 .568 .14400001 .54200008 .13700001 .523 C .097 .41700004 .079 .36 .079 .31300003 C .079 .224 .142 .194 .201 .194 C .24000003 .194 .274 .21100001 .30200003 .23900002 C .289 .187 .277 .13800001 .237 .08500001 C .21100001 .051 .17300001 .022 .127 .022 C .113000009 .022 .068 .025000006 .051000008 .06400001 C .067 .06400001 .080000009 .06400001 .094000007 .076000008 C .104 .08500001 .11400001 .098000008 .11400001 .117000009 C .11400001 .148 .087000008 .15200001 .07700001 .15200001 C .054000006 .15200001 .021 .136 .021 .087000008 C .021 .037 .065000008 0 .127 0 C .23 0 .333 .091000009 .361 .20400001 L .45700003 .586 Z "/>
</symbol>
<use xlink:href="#font_3_2" transform="matrix(9.9626,0,0,-9.9626,101.15891,12.504339)"/>
</g>
</svg>
