<?xml version="1.0" encoding="iso-8859-1" standalone="no"?> 
<?xml-stylesheet href="POI-Discontinuity.css" type="text/css"?> 
<svg xmlns="http://www.w3.org/2000/svg" xmlns:xlink="http://www.w3.org/1999/xlink" width="196.30466pt" height="167.81172pt" viewBox="-1.11107 -3.11475 196.30466 167.81172 "> 
<g transform="translate(0, 164.69698 ) scale(1,-1) translate(0,3.11475 )"> 
<g stroke="#000" fill="#000">
 <g stroke-width="0.4">
 <g stroke-width="0.2">
 <g stroke="#808080" fill="#808080">
 <path d=" M 10.83298 78.86551 L 10.83298 83.13338 M 32.49893 78.86551 L 32.49893 83.13338 M 54.16489 78.86551 L 54.16489 83.13338 M 75.83084 78.86551 L 75.83084 83.13338 M 119.16275 78.86551 L 119.16275 83.13338 M 140.8287 78.86551 L 140.8287 83.13338 M 162.49466 78.86551 L 162.49466 83.13338 M 184.16061 78.86551 L 184.16061 83.13338  " fill="none"/>
 </g>
 </g>
 <g stroke-width="0.2">
 <g stroke="#808080" fill="#808080">
 <path d=" M 95.36287 3.85712 L 99.6307 3.85712 M 95.36287 19.28558 L 99.6307 19.28558 M 95.36287 34.71405 L 99.6307 34.71405 M 95.36287 50.14252 L 99.6307 50.14252 M 95.36287 65.57098 L 99.6307 65.57098 M 95.36287 96.42792 L 99.6307 96.42792 M 95.36287 111.85638 L 99.6307 111.85638 M 95.36287 127.28485 L 99.6307 127.28485 M 95.36287 142.71332 L 99.6307 142.71332 M 95.36287 158.14178 L 99.6307 158.14178  " fill="none"/>
 </g>
 </g>
 <path d=" M 0.0 80.99945 L 192.99362 80.99945  " fill="none"/>
 <g transform="translate(192.99362,80.99945)">
 <path d=" M 1.99997 0.0 L -1.19998 1.59998 L 0.0 0.0 L -1.19998 -1.59998  " stroke="none"/>
  </g>
 <path d=" M 97.4968 0.0 L 97.4968 159.99893  " fill="none"/>
 <g transform="matrix(0.0,1.0,-1.0,0.0,97.4968,159.99893)">
 <path d=" M 1.99997 0.0 L -1.19998 1.59998 L 0.0 0.0 L -1.19998 -1.59998  " stroke="none"/>
  </g>
 <g transform="translate(2.22191,68.88809)">
 <g fill="#000">
 <text style="stroke:none" transform="scale(1,-1) translate(8.61107,0)" text-anchor="middle"  font-size="10"> 
<g fill="#000">
 <g stroke="none">  − 4</g> </g>
 </text> 
</g>
 </g>
 <g transform="translate(23.88786,68.88809)">
 <g fill="#000">
 <text style="stroke:none" transform="scale(1,-1) translate(8.61107,0)" text-anchor="middle"  font-size="10"> 
<g fill="#000">
 <g stroke="none">  − 3</g> </g>
 </text> 
</g>
 </g>
 <g transform="translate(45.55382,68.88809)">
 <g fill="#000">
 <text style="stroke:none" transform="scale(1,-1) translate(8.61107,0)" text-anchor="middle"  font-size="10"> 
<g fill="#000">
 <g stroke="none">  − 2</g> </g>
 </text> 
</g>
 </g>
 <g transform="translate(67.21977,68.88809)">
 <g fill="#000">
 <text style="stroke:none" transform="scale(1,-1) translate(8.61107,0)" text-anchor="middle"  font-size="10"> 
<g fill="#000">
 <g stroke="none">  − 1</g> </g>
 </text> 
</g>
 </g>
 <g transform="translate(116.66275,68.8881)">
 <g fill="#000">
 <text style="stroke:none" transform="scale(1,-1) translate(2.5,0)" text-anchor="middle"  font-size="10"> 
<g fill="#000">
 <g stroke="none"> 1 </g> </g>
 </text> 
</g>
 </g>
 <g transform="translate(138.3287,68.8881)">
 <g fill="#000">
 <text style="stroke:none" transform="scale(1,-1) translate(2.5,0)" text-anchor="middle"  font-size="10"> 
<g fill="#000">
 <g stroke="none"> 2 </g> </g>
 </text> 
</g>
 </g>
 <g transform="translate(159.99466,68.8881)">
 <g fill="#000">
 <text style="stroke:none" transform="scale(1,-1) translate(2.5,0)" text-anchor="middle"  font-size="10"> 
<g fill="#000">
 <g stroke="none"> 3 </g> </g>
 </text> 
</g>
 </g>
 <g transform="translate(181.66061,68.8881)">
 <g fill="#000">
 <text style="stroke:none" transform="scale(1,-1) translate(2.5,0)" text-anchor="middle"  font-size="10"> 
<g fill="#000">
 <g stroke="none"> 4 </g> </g>
 </text> 
</g>
 </g>
 <g transform="translate(69.60773,1.05156)">
 <g fill="#000">
 <text style="stroke:none" transform="scale(1,-1) translate(11.11108,0)" text-anchor="middle"  font-size="10"> 
<g fill="#000">
 <g stroke="none">  − 10</g> </g>
 </text> 
</g>
 </g>
 <g transform="translate(74.60776,16.48003)">
 <g fill="#000">
 <text style="stroke:none" transform="scale(1,-1) translate(8.61107,0)" text-anchor="middle"  font-size="10"> 
<g fill="#000">
 <g stroke="none">  − 8 </g> </g>
 </text> 
</g>
 </g>
 <g transform="translate(74.60776,31.9085)">
 <g fill="#000">
 <text style="stroke:none" transform="scale(1,-1) translate(8.61107,0)" text-anchor="middle"  font-size="10"> 
<g fill="#000">
 <g stroke="none">  − 6 </g> </g>
 </text> 
</g>
 </g>
 <g transform="translate(74.60776,47.33696)">
 <g fill="#000">
 <text style="stroke:none" transform="scale(1,-1) translate(8.61107,0)" text-anchor="middle"  font-size="10"> 
<g fill="#000">
 <g stroke="none">  − 4 </g> </g>
 </text> 
</g>
 </g>
 <g transform="translate(74.60776,62.76543)">
 <g fill="#000">
 <text style="stroke:none" transform="scale(1,-1) translate(8.61107,0)" text-anchor="middle"  font-size="10"> 
<g fill="#000">
 <g stroke="none">  − 2 </g> </g>
 </text> 
</g>
 </g>
 <g transform="translate(86.8299,93.2057)">
 <g fill="#000">
 <text style="stroke:none" transform="scale(1,-1) translate(2.5,0)" text-anchor="middle"  font-size="10"> 
<g fill="#000">
 <g stroke="none"> 2 </g> </g>
 </text> 
</g>
 </g>
 <g transform="translate(86.8299,108.63417)">
 <g fill="#000">
 <text style="stroke:none" transform="scale(1,-1) translate(2.5,0)" text-anchor="middle"  font-size="10"> 
<g fill="#000">
 <g stroke="none"> 4 </g> </g>
 </text> 
</g>
 </g>
 <g transform="translate(86.8299,124.06264)">
 <g fill="#000">
 <text style="stroke:none" transform="scale(1,-1) translate(2.5,0)" text-anchor="middle"  font-size="10"> 
<g fill="#000">
 <g stroke="none"> 6 </g> </g>
 </text> 
</g>
 </g>
 <g transform="translate(86.8299,139.4911)">
 <g fill="#000">
 <text style="stroke:none" transform="scale(1,-1) translate(2.5,0)" text-anchor="middle"  font-size="10"> 
<g fill="#000">
 <g stroke="none"> 8 </g> </g>
 </text> 
</g>
 </g>
 <g transform="translate(81.82986,154.91957)">
 <g fill="#000">
 <text style="stroke:none" transform="scale(1,-1) translate(5.00002,0)" text-anchor="middle"  font-size="10"> 
<g fill="#000">
 <g stroke="none"> 10 </g> </g>
 </text> 
</g>
 </g>
 <clipPath id="pgfcp2"><path d=" M 0.0 0.0 L 194.99359 0.0 L 194.99359 161.9989 L 0.0 161.9989 Z  "/> </clipPath>
 <g clip-path="url(#pgfcp2)">
 <path d=" M 11.29282 79.06061 L 11.11557 79.06456 L 11.39816 79.05817 L 11.68076 79.05183 L 11.96336 79.04535 L 12.24596 79.03896 L 12.52855 79.0324 L 12.81114 79.02583 L 13.09375 79.0192 L 13.37634 79.01248 L 13.65894 79.00594 L 13.94154 78.99907 L 14.22414 78.99236 L 14.50673 78.98557 L 14.78932 78.97862 L 15.07193 78.97168 L 15.35452 78.96474 L 15.63712 78.9578 L 15.91971 78.95053 L 16.20232 78.94353 L 16.48491 78.93636 L 16.7675 78.92902 L 17.05011 78.92184 L 17.3327 78.91444 L 17.6153 78.90718 L 17.89789 78.8997 L 18.1805 78.89223 L 18.46309 78.88467 L 18.74568 78.87703 L 19.02827 78.86948 L 19.31088 78.86176 L 19.59348 78.85411 L 19.87607 78.84616 L 20.15868 78.8383 L 20.44127 78.83043 L 20.72386 78.82242 L 21.00645 78.81438 L 21.28906 78.80629 L 21.57166 78.79803 L 21.85425 78.78993 L 22.13684 78.7816 L 22.41945 78.7732 L 22.70204 78.76486 L 22.98463 78.75638 L 23.26724 78.74774 L 23.54984 78.73918 L 23.83243 78.7306 L 24.11502 78.7219 L 24.39763 78.71303 L 24.68022 78.70407 L 24.96281 78.6952 L 25.24542 78.68617 L 25.52802 78.67714 L 25.81061 78.66797 L 26.0932 78.65865 L 26.37581 78.64938 L 26.6584 78.64005 L 26.941 78.63055 L 27.22359 78.62115 L 27.5062 78.61143 L 27.78879 78.60185 L 28.07138 78.59207 L 28.35399 78.58218 L 28.63658 78.57224 L 28.91917 78.56229 L 29.20177 78.55211 L 29.48438 78.542 L 29.76697 78.53174 L 30.04956 78.52141 L 30.33215 78.51091 L 30.61476 78.5005 L 30.89735 78.48985 L 31.17995 78.4792 L 31.46255 78.46832 L 31.74515 78.45752 L 32.02774 78.44658 L 32.31033 78.43547 L 32.59294 78.42429 L 32.87553 78.41309 L 33.15813 78.40169 L 33.44072 78.39026 L 33.72333 78.37862 L 34.00592 78.36696 L 34.28851 78.35524 L 34.57112 78.34335 L 34.85371 78.33139 L 35.1363 78.31929 L 35.4189 78.3071 L 35.7015 78.29483 L 35.9841 78.28233 L 36.2667 78.26976 L 36.54929 78.25719 L 36.8319 78.24431 L 37.11449 78.23149 L 37.39708 78.21846 L 37.67969 78.20535 L 37.96228 78.19208 L 38.24487 78.17865 L 38.52747 78.16508 L 38.81007 78.15158 L 39.09267 78.13777 L 39.37526 78.12381 L 39.65787 78.1097 L 39.94046 78.09558 L 40.22305 78.08115 L 40.50565 78.0668 L 40.78825 78.05214 L 41.07085 78.0374 L 41.35344 78.02245 L 41.63603 78.00748 L 41.91864 77.9922 L 42.20123 77.97685 L 42.48383 77.96135 L 42.76643 77.94568 L 43.04903 77.9298 L 43.33162 77.91376 L 43.61421 77.89755 L 43.89682 77.8812 L 44.17941 77.86469 L 44.462 77.84802 L 44.7446 77.8312 L 45.0272 77.81409 L 45.3098 77.7968 L 45.59239 77.77937 L 45.875 77.7617 L 46.1576 77.74396 L 46.44019 77.7259 L 46.72278 77.7077 L 47.00539 77.68918 L 47.28798 77.6706 L 47.57057 77.65178 L 47.85316 77.63272 L 48.13577 77.61343 L 48.41837 77.594 L 48.70096 77.57417 L 48.98357 77.55426 L 49.26616 77.53406 L 49.54875 77.51369 L 49.83134 77.49303 L 50.11395 77.47218 L 50.39655 77.45097 L 50.67914 77.42952 L 50.96173 77.40784 L 51.24434 77.38602 L 51.52693 77.36365 L 51.80952 77.34128 L 52.09213 77.31845 L 52.37473 77.29546 L 52.65732 77.27208 L 52.93991 77.2484 L 53.22252 77.22441 L 53.50511 77.2001 L 53.7877 77.17549 L 54.07031 77.15067 L 54.3529 77.1255 L 54.6355 77.0999 L 54.91809 77.0742 L 55.2007 77.0479 L 55.48329 77.02129 L 55.76588 76.99437 L 56.04848 76.96706 L 56.33109 76.93944 L 56.61368 76.91136 L 56.89627 76.88289 L 57.17888 76.85405 L 57.46147 76.82474 L 57.74406 76.7951 L 58.02666 76.76495 L 58.30927 76.73431 L 58.59186 76.70354 L 58.87445 76.67206 L 59.15704 76.64012 L 59.43965 76.60774 L 59.72224 76.57487 L 60.00484 76.54155 L 60.28745 76.5076 L 60.57004 76.47334 L 60.85263 76.4384 L 61.13522 76.40298 L 61.41783 76.36697 L 61.70042 76.33032 L 61.98302 76.29314 L 62.26561 76.25565 L 62.54822 76.21716 L 62.83081 76.1782 L 63.1134 76.13847 L 63.39601 76.0982 L 63.6786 76.05724 L 63.9612 76.01558 L 64.24379 75.97331 L 64.5264 75.93011 L 64.80899 75.88637 L 65.09158 75.8417 L 65.37419 75.79657 L 65.65678 75.75014 L 65.93938 75.70325 L 66.22197 75.65541 L 66.50458 75.60658 L 66.78717 75.55705 L 67.06976 75.50638 L 67.35236 75.45499 L 67.63496 75.40245 L 67.91756 75.349 L 68.20015 75.29454 L 68.48276 75.239 L 68.76535 75.18237 L 69.04794 75.12451 L 69.33054 75.06558 L 69.61314 75.00542 L 69.89574 74.944 L 70.17833 74.88136 L 70.46092 74.81741 L 70.74353 74.75215 L 71.02612 74.6855 L 71.30872 74.61731 L 71.59132 74.5478 L 71.87392 74.47652 L 72.15651 74.40378 L 72.4391 74.3294 L 72.72171 74.25336 L 73.0043 74.1756 L 73.2869 74.0959 L 73.56949 74.01428 L 73.8521 73.93074 L 74.13469 73.84541 L 74.41728 73.7577 L 74.69989 73.66798 L 74.98248 73.5758 L 75.26508 73.48154 L 75.54767 73.38472 L 75.83028 73.2856 L 76.11287 73.18338 L 76.39546 73.07846 L 76.67805 72.97046 L 76.96066 72.86093 L 77.24326 72.74677 L 77.52586 72.63028 L 77.80846 72.50992 L 78.09105 72.3865 L 78.37364 72.25922 L 78.65625 72.12885 L 78.93884 71.99385 L 79.22144 71.85422 L 79.50404 71.70996 L 79.78664 71.56262 L 80.06923 71.40834 L 80.35184 71.25098 L 80.63443 71.0882 L 80.91702 70.91849 L 81.19963 70.74338 L 81.48222 70.56363 L 81.76482 70.37617 L 82.04742 70.181 L 82.33002 69.97966 L 82.61261 69.76982 L 82.89522 69.55307 L 83.17781 69.3278 L 83.4604 69.09175 L 83.743 68.84721 L 84.0256 68.59265 L 84.3082 68.3265 L 84.59079 68.0488 L 84.8734 67.7595 L 85.15599 67.45555 L 85.43858 67.13928 L 85.72119 66.80603 L 86.00378 66.45657 L 86.28638 66.09015 L 86.56898 65.7052 L 86.85158 65.29944 L 87.13417 64.87051 L 87.41678 64.41847 L 87.69937 63.94095 L 87.98196 63.43413 L 88.26456 62.89568 L 88.54716 62.32483 L 88.82976 61.71541 L 89.11237 61.06587 L 89.39496 60.36928 L 89.67755 59.62485 L 89.96016 58.82257 L 90.24275 57.95857 L 90.52534 57.02515 L 90.80794 56.01227 L 91.09055 54.90913 L 91.37314 53.70648 L 91.65573 52.38504 L 91.93834 50.93013 L 92.22093 49.32018 L 92.50352 47.52739 L 92.78613 45.51938 L 93.06873 43.25447 L 93.35132 40.68176 L 93.63393 37.73262 L 93.91652 34.31676 L 94.19911 30.31616 L 94.48172 25.56496 L 94.76431 19.8333 L 95.0469 12.77708 L 95.31491 4.34306  " fill="none"/>
 <g transform="matrix(-0.9997,0.02238,-0.02238,-0.9997,11.29283,79.06061)">
 <g stroke-width="0.31999">
 <g stroke-dasharray="none" stroke-dashoffset="0.0">
 <g stroke-linecap="round">
 <g stroke-linejoin="round">
 <path d=" M -1.19998 1.59998 C -1.09998 0.99998 0.0 0.09999 0.29999 0.0 C 0.0 -0.09999 -1.09998 -0.99998 -1.19998 -1.59998  " fill="none"/>
 </g>
 </g>
 </g>
 </g>
  </g>
 <g transform="matrix(0.03174,-0.99947,0.99947,0.03174,95.3149,4.34308)">
 <g stroke-width="0.31999">
 <g stroke-dasharray="none" stroke-dashoffset="0.0">
 <g stroke-linecap="round">
 <g stroke-linejoin="round">
 <path d=" M -1.19998 1.59998 C -1.09998 0.99998 0.0 0.09999 0.29999 0.0 C 0.0 -0.09999 -1.09998 -0.99998 -1.19998 -1.59998  " fill="none"/>
 </g>
 </g>
 </g>
 </g>
  </g>
 <path d=" M 99.67796 157.68205 L 99.94598 149.24033 L 100.22858 142.18103 L 100.51118 136.4455 L 100.79378 131.69276 L 101.07639 127.69061 L 101.35898 124.27397 L 101.64159 121.32483 L 101.92418 118.74982 L 102.20677 116.48492 L 102.48938 114.47612 L 102.77197 112.68181 L 103.05458 111.07184 L 103.33717 109.61693 L 103.61978 108.29625 L 103.90237 107.0913 L 104.18498 105.98892 L 104.46758 104.97528 L 104.75017 104.04185 L 105.03278 103.17787 L 105.31537 102.37636 L 105.59798 101.63039 L 105.88057 100.93456 L 106.16318 100.28503 L 106.44577 99.67638 L 106.72838 99.10475 L 107.01097 98.5663 L 107.29358 98.05948 L 107.57617 97.58118 L 107.85876 97.12914 L 108.14137 96.701 L 108.42397 96.29445 L 108.70657 95.90952 L 108.98917 95.54231 L 109.27177 95.19363 L 109.55437 94.86115 L 109.83698 94.54333 L 110.11957 94.24092 L 110.40216 93.95009 L 110.68477 93.67316 L 110.96736 93.40701 L 111.24997 93.15167 L 111.53256 92.90714 L 111.81517 92.67262 L 112.09776 92.4466 L 112.38037 92.22906 L 112.66296 92.01923 L 112.94557 91.81789 L 113.22816 91.62425 L 113.51076 91.4368 L 113.79337 91.25551 L 114.07596 91.0804 L 114.35857 90.91223 L 114.64116 90.74791 L 114.92377 90.59055 L 115.20636 90.43703 L 115.48897 90.28893 L 115.77156 90.14545 L 116.05415 90.00504 L 116.33676 89.87082 L 116.61935 89.73967 L 116.90196 89.61238 L 117.18456 89.48897 L 117.46716 89.3686 L 117.74976 89.25212 L 118.03236 89.13795 L 118.31496 89.02689 L 118.59756 88.92043 L 118.88016 88.8155 L 119.16275 88.71368 L 119.44536 88.61432 L 119.72795 88.51743 L 120.01054 88.42316 L 120.29314 88.33113 L 120.57574 88.24133 L 120.85834 88.1537 L 121.14093 88.06831 L 121.42354 87.98485 L 121.70613 87.90321 L 121.98872 87.82353 L 122.27132 87.74577 L 122.55392 87.66956 L 122.83652 87.59518 L 123.11911 87.52245 L 123.4017 87.45132 L 123.68431 87.3818 L 123.9669 87.31354 L 124.2495 87.24673 L 124.5321 87.18164 L 124.8147 87.1176 L 125.09729 87.05504 L 125.37988 86.99356 L 125.66249 86.93347 L 125.94508 86.87445 L 126.22768 86.81674 L 126.51028 86.76004 L 126.79288 86.70435 L 127.07547 86.64996 L 127.35806 86.59659 L 127.64067 86.54405 L 127.92326 86.4926 L 128.20586 86.442 L 128.48845 86.39246 L 128.77106 86.34355 L 129.05365 86.2958 L 129.33624 86.24875 L 129.61885 86.20253 L 129.90144 86.15718 L 130.18404 86.11267 L 130.46663 86.06877 L 130.74924 86.0258 L 131.03183 85.98337 L 131.31442 85.94171 L 131.59702 85.90068 L 131.87962 85.86049 L 132.16222 85.82085 L 132.44481 85.78172 L 132.72742 85.7434 L 133.01001 85.70575 L 133.2926 85.66856 L 133.5752 85.632 L 133.8578 85.59605 L 134.1404 85.56056 L 134.42299 85.5256 L 134.70558 85.49129 L 134.98819 85.4575 L 135.27078 85.42401 L 135.55338 85.39114 L 135.83598 85.35883 L 136.11858 85.32689 L 136.40117 85.2955 L 136.68376 85.26457 L 136.96637 85.23402 L 137.24896 85.20378 L 137.53156 85.17415 L 137.81415 85.14491 L 138.09676 85.11615 L 138.37935 85.0876 L 138.66194 85.05945 L 138.94455 85.03198 L 139.22714 85.00452 L 139.50974 84.9776 L 139.79233 84.95105 L 140.07494 84.92468 L 140.35753 84.89899 L 140.64012 84.87338 L 140.92273 84.84822 L 141.20532 84.8234 L 141.48792 84.7987 L 141.77051 84.77448 L 142.05312 84.75049 L 142.33571 84.7268 L 142.6183 84.7035 L 142.9009 84.68044 L 143.1835 84.65761 L 143.4661 84.63524 L 143.74869 84.61302 L 144.0313 84.59105 L 144.31389 84.56944 L 144.59648 84.54799 L 144.87907 84.52686 L 145.16168 84.50586 L 145.44427 84.48528 L 145.72687 84.46483 L 146.00946 84.44469 L 146.29207 84.42471 L 146.57466 84.40489 L 146.85725 84.38545 L 147.13986 84.36617 L 147.42245 84.3471 L 147.70505 84.3283 L 147.98764 84.30971 L 148.27025 84.29118 L 148.55284 84.27306 L 148.83543 84.25508 L 149.11803 84.23718 L 149.40063 84.21951 L 149.68323 84.20209 L 149.96582 84.18489 L 150.24843 84.16768 L 150.53102 84.15086 L 150.81361 84.1342 L 151.0962 84.11769 L 151.37881 84.10133 L 151.6614 84.08522 L 151.944 84.06909 L 152.2266 84.0532 L 152.5092 84.03761 L 152.7918 84.02211 L 153.07439 84.00668 L 153.357 83.99149 L 153.63959 83.97644 L 153.92218 83.96149 L 154.20477 83.94675 L 154.48738 83.93216 L 154.76997 83.91774 L 155.05257 83.9033 L 155.33517 83.88919 L 155.61777 83.87508 L 155.90036 83.86119 L 156.18295 83.84746 L 156.46556 83.8338 L 156.74815 83.82024 L 157.03075 83.80681 L 157.31334 83.79353 L 157.59595 83.78043 L 157.87854 83.7674 L 158.16113 83.75458 L 158.44374 83.7417 L 158.72633 83.72913 L 159.00893 83.71655 L 159.29152 83.70421 L 159.57413 83.69179 L 159.85672 83.6796 L 160.13931 83.6675 L 160.4219 83.65553 L 160.70451 83.64365 L 160.9871 83.63193 L 161.2697 83.62027 L 161.5523 83.6087 L 161.8349 83.5972 L 162.1175 83.58588 L 162.40009 83.5746 L 162.6827 83.56342 L 162.96529 83.5523 L 163.24788 83.54137 L 163.53047 83.53056 L 163.81308 83.51968 L 164.09567 83.50903 L 164.37827 83.49838 L 164.66087 83.48798 L 164.94347 83.47748 L 165.22606 83.46715 L 165.50865 83.45688 L 165.79126 83.44678 L 166.07385 83.4366 L 166.35645 83.42665 L 166.63905 83.4167 L 166.92165 83.40681 L 167.20424 83.39703 L 167.48683 83.38745 L 167.76944 83.37773 L 168.05203 83.36833 L 168.33463 83.35884 L 168.61722 83.3495 L 168.89983 83.34024 L 169.18242 83.33092 L 169.46501 83.3219 L 169.74762 83.31279 L 170.03021 83.30368 L 170.3128 83.29482 L 170.5954 83.28595 L 170.878 83.27715 L 171.1606 83.26828 L 171.44319 83.2597 L 171.72578 83.25114 L 172.00839 83.24251 L 172.29099 83.23402 L 172.57358 83.22554 L 172.85619 83.21729 L 173.13878 83.20895 L 173.42137 83.20085 L 173.70396 83.1926 L 173.98657 83.18451 L 174.26917 83.17647 L 174.55176 83.16846 L 174.83435 83.16058 L 175.11696 83.15273 L 175.39955 83.14493 L 175.68214 83.13713 L 175.96475 83.12941 L 176.24734 83.12178 L 176.52994 83.11421 L 176.81253 83.10666 L 177.09514 83.09918 L 177.37773 83.0917 L 177.66032 83.08444 L 177.94292 83.07704 L 178.22552 83.06987 L 178.50812 83.06253 L 178.79071 83.05536 L 179.07332 83.04836 L 179.35591 83.04124 L 179.6385 83.03415 L 179.9211 83.0272 L 180.2037 83.02026 L 180.4863 83.01347 L 180.76889 83.00653 L 181.0515 82.99982 L 181.33409 82.9931 L 181.61668 82.9864 L 181.89928 82.97975 L 182.18188 82.97305 L 182.46448 82.96649 L 182.74707 82.96002 L 183.02966 82.95354 L 183.31227 82.94705 L 183.59486 82.94072 L 183.87746 82.93433 L 183.70023 82.93826  " fill="none"/>
 <g transform="matrix(-0.03171,0.99947,-0.99947,-0.03171,99.67796,157.68204)">
 <g stroke-width="0.31999">
 <g stroke-dasharray="none" stroke-dashoffset="0.0">
 <g stroke-linecap="round">
 <g stroke-linejoin="round">
 <path d=" M -1.19998 1.59998 C -1.09998 0.99998 0.0 0.09999 0.29999 0.0 C 0.0 -0.09999 -1.09998 -0.99998 -1.19998 -1.59998  " fill="none"/>
 </g>
 </g>
 </g>
 </g>
  </g>
 <g transform="matrix(0.9997,-0.02231,0.02231,0.9997,183.70021,82.93826)">
 <g stroke-width="0.31999">
 <g stroke-dasharray="none" stroke-dashoffset="0.0">
 <g stroke-linecap="round">
 <g stroke-linejoin="round">
 <path d=" M -1.19998 1.59998 C -1.09998 0.99998 0.0 0.09999 0.29999 0.0 C 0.0 -0.09999 -1.09998 -0.99998 -1.19998 -1.59998  " fill="none"/>
 </g>
 </g>
 </g>
 </g>
  </g>
 </g>
 <g transform="translate(185.77377,84.54396)">
 <g fill="#000">
 <text style="stroke:none" transform="scale(1,-1) translate(2.85764,0)" text-anchor="middle"  font-size="10"> 
<g fill="#000">
 <g stroke="none"> x </g> </g>
 </text> 
</g>
 </g>
 <g transform="translate(101.04846,154.19589)">
 <g fill="#000">
 <text style="stroke:none" transform="scale(1,-1) translate(2.6308,0)" text-anchor="middle"  font-size="10"> 
<g fill="#000">
 <g stroke="none"> y </g> </g>
 </text> 
</g>
 </g>
 </g>
 </g>
                                             </g> 
</svg> 
