<?xml version="1.0" encoding="iso-8859-1" standalone="no"?> 
<?xml-stylesheet href="transformationsAnalytic.css" type="text/css"?> 
<svg xmlns="http://www.w3.org/2000/svg" xmlns:xlink="http://www.w3.org/1999/xlink" width="201.38268pt" height="168.64526pt" viewBox="-0.2 -0.2 201.38268 168.64526 "> 
<g transform="translate(0, 168.44527 ) scale(1,-1) translate(0,0.2 )"> 
<g stroke="#000" fill="#000">
 <g stroke-width="0.4">
 <g stroke-width="0.2">
 <g stroke="#808080" fill="#808080">
 <path d=" M 0.0 79.57095 L 0.0 82.41635 M 6.49973 79.57095 L 6.49973 82.41635 M 12.99947 79.57095 L 12.99947 82.41635 M 25.99893 79.57095 L 25.99893 82.41635 M 32.49867 79.57095 L 32.49867 82.41635 M 38.9984 79.57095 L 38.9984 82.41635 M 45.49814 79.57095 L 45.49814 82.41635 M 51.99788 79.57095 L 51.99788 82.41635 M 64.99734 79.57095 L 64.99734 82.41635 M 71.49709 79.57095 L 71.49709 82.41635 M 77.99681 79.57095 L 77.99681 82.41635 M 84.49655 79.57095 L 84.49655 82.41635 M 90.99629 79.57095 L 90.99629 82.41635 M 103.99576 79.57095 L 103.99576 82.41635 M 110.4955 79.57095 L 110.4955 82.41635 M 116.99522 79.57095 L 116.99522 82.41635 M 123.49496 79.57095 L 123.49496 82.41635 M 129.9947 79.57095 L 129.9947 82.41635 M 142.99417 79.57095 L 142.99417 82.41635 M 149.49391 79.57095 L 149.49391 82.41635 M 155.99364 79.57095 L 155.99364 82.41635 M 162.49338 79.57095 L 162.49338 82.41635 M 168.99312 79.57095 L 168.99312 82.41635 M 181.99258 79.57095 L 181.99258 82.41635 M 188.49232 79.57095 L 188.49232 82.41635 M 194.99205 79.57095 L 194.99205 82.41635  " fill="none"/>
 </g>
 </g>
 <g stroke-width="0.2">
 <g stroke="#808080" fill="#808080">
 <path d=" M 19.4992 78.85982 L 19.4992 83.12747 M 58.49762 78.85982 L 58.49762 83.12747 M 136.49445 78.85982 L 136.49445 83.12747 M 175.49286 78.85982 L 175.49286 83.12747  " fill="none"/>
 </g>
 </g>
 <g stroke-width="0.2">
 <g stroke="#808080" fill="#808080">
 <path d=" M 96.07332 0.0 L 98.91875 0.0 M 96.07332 5.39957 L 98.91875 5.39957 M 96.07332 10.79915 L 98.91875 10.79915 M 96.07332 21.5983 L 98.91875 21.5983 M 96.07332 26.99788 L 98.91875 26.99788 M 96.07332 32.39745 L 98.91875 32.39745 M 96.07332 37.79703 L 98.91875 37.79703 M 96.07332 43.19661 L 98.91875 43.19661 M 96.07332 53.99576 L 98.91875 53.99576 M 96.07332 59.39534 L 98.91875 59.39534 M 96.07332 64.7949 L 98.91875 64.7949 M 96.07332 70.19449 L 98.91875 70.19449 M 96.07332 75.59407 L 98.91875 75.59407 M 96.07332 86.39322 L 98.91875 86.39322 M 96.07332 91.7928 L 98.91875 91.7928 M 96.07332 97.19237 L 98.91875 97.19237 M 96.07332 102.59195 L 98.91875 102.59195 M 96.07332 107.99153 L 98.91875 107.99153 M 96.07332 118.79068 L 98.91875 118.79068 M 96.07332 124.19026 L 98.91875 124.19026 M 96.07332 129.58983 L 98.91875 129.58983 M 96.07332 134.98941 L 98.91875 134.98941 M 96.07332 140.38899 L 98.91875 140.38899 M 96.07332 151.18814 L 98.91875 151.18814 M 96.07332 156.58772 L 98.91875 156.58772 M 96.07332 161.98729 L 98.91875 161.98729  " fill="none"/>
 </g>
 </g>
 <g stroke-width="0.2">
 <g stroke="#808080" fill="#808080">
 <path d=" M 95.36217 16.19873 L 99.62988 16.19873 M 95.36217 48.59619 L 99.62988 48.59619 M 95.36217 113.39111 L 99.62988 113.39111 M 95.36217 145.78857 L 99.62988 145.78857  " fill="none"/>
 </g>
 </g>
 <path d=" M 0.0 80.99365 L 192.9921 80.99365  " fill="none"/>
 <g transform="translate(192.9921,80.99365)">
 <path d=" M 1.99997 0.0 L -1.19998 1.59998 L 0.0 0.0 L -1.19998 -1.59998  " stroke="none"/>
  </g>
 <path d=" M 97.49603 0.0 L 97.49603 159.98734  " fill="none"/>
 <g transform="matrix(0.0,1.0,-1.0,0.0,97.49603,159.98734)">
 <path d=" M 1.99997 0.0 L -1.19998 1.59998 L 0.0 0.0 L -1.19998 -1.59998  " stroke="none"/>
  </g>
 <g transform="translate(10.88814,68.8824)">
 <g fill="#000">
 <text style="stroke:none" transform="scale(1,-1) translate(8.61107,0)" text-anchor="middle"  font-size="10"> 
<g fill="#000">
 <g stroke="none">  − 4</g> </g>
 </text> 
</g>
 </g>
 <g transform="translate(49.88655,68.8824)">
 <g fill="#000">
 <text style="stroke:none" transform="scale(1,-1) translate(8.61107,0)" text-anchor="middle"  font-size="10"> 
<g fill="#000">
 <g stroke="none">  − 2</g> </g>
 </text> 
</g>
 </g>
 <g transform="translate(133.99445,68.88242)">
 <g fill="#000">
 <text style="stroke:none" transform="scale(1,-1) translate(2.5,0)" text-anchor="middle"  font-size="10"> 
<g fill="#000">
 <g stroke="none"> 2 </g> </g>
 </text> 
</g>
 </g>
 <g transform="translate(172.99286,68.88242)">
 <g fill="#000">
 <text style="stroke:none" transform="scale(1,-1) translate(2.5,0)" text-anchor="middle"  font-size="10"> 
<g fill="#000">
 <g stroke="none"> 4 </g> </g>
 </text> 
</g>
 </g>
 <g transform="translate(74.60706,13.39317)">
 <g fill="#000">
 <text style="stroke:none" transform="scale(1,-1) translate(8.61107,0)" text-anchor="middle"  font-size="10"> 
<g fill="#000">
 <g stroke="none">  − 4</g> </g>
 </text> 
</g>
 </g>
 <g transform="translate(74.60706,45.79063)">
 <g fill="#000">
 <text style="stroke:none" transform="scale(1,-1) translate(8.61107,0)" text-anchor="middle"  font-size="10"> 
<g fill="#000">
 <g stroke="none">  − 2</g> </g>
 </text> 
</g>
 </g>
 <g transform="translate(86.8292,110.1689)">
 <g fill="#000">
 <text style="stroke:none" transform="scale(1,-1) translate(2.5,0)" text-anchor="middle"  font-size="10"> 
<g fill="#000">
 <g stroke="none"> 2 </g> </g>
 </text> 
</g>
 </g>
 <g transform="translate(86.8292,142.56636)">
 <g fill="#000">
 <text style="stroke:none" transform="scale(1,-1) translate(2.5,0)" text-anchor="middle"  font-size="10"> 
<g fill="#000">
 <g stroke="none"> 4 </g> </g>
 </text> 
</g>
 </g>
 <clipPath id="pgfcp1"><path d=" M 0.0 0.0 L 194.99207 0.0 L 194.99207 161.9873 L 0.0 161.9873 Z  "/> </clipPath>
 <g clip-path="url(#pgfcp1)">
 <path d=" M 19.84941 93.05914 L 20.02092 92.96451 L 20.54263 92.66855 L 21.06435 92.36354 L 21.58606 92.05139 L 22.10777 91.73033 L 22.62949 91.40262 L 23.1512 91.0665 L 23.67291 90.72357 L 24.19463 90.37369 L 24.71634 90.01698 L 25.23805 89.65381 L 25.75977 89.28464 L 26.2815 88.90932 L 26.8032 88.52817 L 27.32492 88.14215 L 27.84663 87.75078 L 28.36835 87.35457 L 28.89006 86.95348 L 29.41177 86.54884 L 29.93349 86.13933 L 30.4552 85.72675 L 30.97691 85.31061 L 31.49863 84.89139 L 32.02034 84.4694 L 32.54205 84.045 L 33.06378 83.61816 L 33.5855 83.18971 L 34.10721 82.75948 L 34.62892 82.3281 L 35.15063 81.89592 L 35.67235 81.46275 L 36.19406 81.02945 L 36.71577 80.59645 L 37.23749 80.16362 L 37.7592 79.73111 L 38.28091 79.29958 L 38.80263 78.86919 L 39.32434 78.4404 L 39.84607 78.01324 L 40.36778 77.58835 L 40.8895 77.16621 L 41.41121 76.74634 L 41.93292 76.32954 L 42.45464 75.91615 L 42.97635 75.50633 L 43.49806 75.10088 L 44.01978 74.69914 L 44.54149 74.30211 L 45.0632 73.90994 L 45.58492 73.5228 L 46.10664 73.1405 L 46.62836 72.7647 L 47.15007 72.39423 L 47.67178 72.0304 L 48.1935 71.67258 L 48.71521 71.32155 L 49.23692 70.97748 L 49.75864 70.64038 L 50.28035 70.31091 L 50.80206 69.98871 L 51.32378 69.67479 L 51.84549 69.36879 L 52.3672 69.07138 L 52.88893 68.78207 L 53.41064 68.502 L 53.93236 68.23018 L 54.45407 67.96825 L 54.97578 67.71506 L 55.4975 67.47208 L 56.01921 67.238 L 56.54092 67.0143 L 57.06264 66.80032 L 57.58435 66.59654 L 58.10606 66.40329 L 58.62778 66.22008 L 59.14949 66.04788 L 59.67122 65.8859 L 60.19293 65.73541 L 60.71465 65.5948 L 61.23636 65.4665 L 61.75807 65.3481 L 62.27979 65.24184 L 62.8015 65.1461 L 63.32321 65.06236 L 63.84492 64.98962 L 64.36664 64.92871 L 64.88835 64.87866 L 65.41006 64.84108 L 65.9318 64.81435 L 66.4535 64.79913 L 66.97522 64.79588 L 67.49693 64.80399 L 68.01865 64.82407 L 68.54036 64.85518 L 69.06207 64.89827 L 69.58379 64.95204 L 70.1055 65.01878 L 70.62721 65.09572 L 71.14893 65.18466 L 71.67064 65.2846 L 72.19235 65.39604 L 72.71408 65.51836 L 73.2358 65.65215 L 73.7575 65.79648 L 74.27922 65.952 L 74.80093 66.11835 L 75.32265 66.29475 L 75.84436 66.48233 L 76.36607 66.6798 L 76.88779 66.88828 L 77.4095 67.10567 L 77.93121 67.3344 L 78.45293 67.57138 L 78.97464 67.81953 L 79.49637 68.07597 L 80.01808 68.3426 L 80.5398 68.6175 L 81.06151 68.90146 L 81.58322 69.19385 L 82.10493 69.49513 L 82.62665 69.8047 L 83.14836 70.1217 L 83.67007 70.44698 L 84.19179 70.77954 L 84.71352 71.11955 L 85.23523 71.46635 L 85.75694 71.82079 L 86.27866 72.1804 L 86.80037 72.54762 L 87.32208 72.9202 L 87.8438 73.29926 L 88.36551 73.683 L 88.88722 74.07257 L 89.40894 74.46686 L 89.93066 74.86566 L 90.45238 75.26901 L 90.97409 75.67625 L 91.4958 76.08769 L 92.01752 76.50255 L 92.53923 76.92047 L 93.06094 77.34116 L 93.58266 77.76476 L 94.10437 78.19078 L 94.62608 78.61826 L 95.1478 79.04785 L 95.66953 79.47874 L 96.19124 79.91077 L 96.71295 80.34358 L 97.23466 80.77658 L 97.75638 81.2099 L 98.27809 81.64288 L 98.7998 82.07571 L 99.32152 82.50758 L 99.84323 82.93846 L 100.36496 83.36806 L 100.88667 83.79587 L 101.40839 84.22173 L 101.9301 84.64516 L 102.45181 85.06601 L 102.97353 85.48393 L 103.49524 85.89879 L 104.01695 86.31007 L 104.53867 86.71762 L 105.0604 87.12082 L 105.5821 87.51979 L 106.10382 87.91406 L 106.62553 88.30333 L 107.14725 88.6874 L 107.66896 89.06628 L 108.19067 89.43886 L 108.71239 89.80576 L 109.2341 90.16602 L 109.75581 90.52011 L 110.27753 90.86693 L 110.79926 91.2071 L 111.32097 91.53983 L 111.84268 91.8651 L 112.3644 92.18211 L 112.88611 92.49167 L 113.40782 92.7928 L 113.92953 93.08534 L 114.45125 93.36931 L 114.97296 93.64453 L 115.49469 93.91084 L 116.0164 94.16727 L 116.53812 94.41542 L 117.05983 94.65274 L 117.58154 94.88113 L 118.10326 95.09885 L 118.62497 95.30684 L 119.14668 95.50447 L 119.6684 95.69237 L 120.19011 95.86845 L 120.71182 96.03514 L 121.23354 96.19032 L 121.75525 96.33514 L 122.27698 96.46861 L 122.79869 96.59076 L 123.3204 96.70268 L 123.84212 96.8023 L 124.36383 96.89157 L 124.88554 96.9685 L 125.40726 97.03493 L 125.92897 97.0887 L 126.45068 97.13211 L 126.9724 97.16289 L 127.49411 97.1833 L 128.01582 97.1914 L 128.53755 97.18816 L 129.05927 97.1731 L 129.58098 97.14638 L 130.10269 97.10863 L 130.6244 97.05858 L 131.14612 96.99783 L 131.66783 96.9251 L 132.18954 96.84135 L 132.71126 96.74577 L 133.23297 96.63968 L 133.75468 96.5211 L 134.2764 96.3928 L 134.79811 96.25237 L 135.31984 96.10188 L 135.84155 95.93973 L 136.36327 95.76738 L 136.88498 95.58449 L 137.4067 95.39124 L 137.9284 95.1873 L 138.45012 94.97348 L 138.97183 94.74977 L 139.49355 94.5157 L 140.01526 94.27255 L 140.53697 94.01936 L 141.05869 93.75743 L 141.5804 93.48578 L 142.10213 93.2057 L 142.62384 92.91623 L 143.14555 92.61899 L 143.66727 92.31299 L 144.18898 91.99907 L 144.7107 91.6772 L 145.2324 91.34772 L 145.75412 91.01062 L 146.27583 90.66655 L 146.79755 90.31552 L 147.31926 89.9577 L 147.84097 89.59372 L 148.3627 89.22325 L 148.88441 88.8476 L 149.40613 88.46515 L 149.92784 88.07816 L 150.44955 87.68582 L 150.97127 87.28896 L 151.49298 86.88722 L 152.0147 86.48161 L 152.5364 86.07195 L 153.05812 85.65855 L 153.57983 85.24176 L 154.10155 84.82205 L 154.62326 84.39992 L 155.14499 83.97485 L 155.6667 83.54787 L 156.18842 83.11908 L 156.71013 82.68852 L 157.23184 82.25699 L 157.75356 81.82497 L 158.27527 81.39165 L 158.79698 80.9585 L 159.3187 80.5255 L 159.84041 80.09218 L 160.36212 79.66017 L 160.88383 79.22864 L 161.40555 78.79855 L 161.92728 78.36993 L 162.44899 77.94327 L 162.9707 77.51886 L 163.49242 77.09705 L 164.01413 76.67781 L 164.53584 76.26135 L 165.05756 75.84843 L 165.57927 75.43942 L 166.10098 75.03477 L 166.6227 74.6337 L 167.14441 74.23747 L 167.66612 73.84612 L 168.18784 73.45978 L 168.70956 73.07846 L 169.23128 72.70314 L 169.75299 72.33412 L 170.2747 71.97112 L 170.79642 71.61441 L 171.31813 71.2642 L 171.83984 70.9216 L 172.36156 70.58514 L 172.88327 70.25745 L 173.40498 69.93639 L 173.9267 69.62424 L 174.44841 69.31921 L 174.97014 69.02327 L 175.14165 68.92863  " fill="none"/>
 <g transform="matrix(-0.87553,0.4831,-0.4831,-0.87553,19.6743,93.15575)">
 <g stroke-dasharray="none" stroke-dashoffset="0.0">
 <g stroke-linecap="round">
 <g stroke-linejoin="round">
 <path d=" M -2.07999 2.39998 C -1.69998 0.95998 -0.85318 0.28 0.0 0.0 C -0.85318 -0.28 -1.69998 -0.95998 -2.07999 -2.39998  " fill="none"/>
 </g>
 </g>
 </g>
  </g>
 <g transform="matrix(0.87553,-0.4831,0.4831,0.87553,175.31676,68.83203)">
 <g stroke-dasharray="none" stroke-dashoffset="0.0">
 <g stroke-linecap="round">
 <g stroke-linejoin="round">
 <path d=" M -2.07999 2.39998 C -1.69998 0.95998 -0.85318 0.28 0.0 0.0 C -0.85318 -0.28 -1.69998 -0.95998 -2.07999 -2.39998  " fill="none"/>
 </g>
 </g>
 </g>
  </g>
 </g>
 <g transform="translate(192.13443,84.52663)">
 <g fill="#000">
 <text style="stroke:none" transform="scale(1,-1) translate(2.85764,0)" text-anchor="middle"  font-size="10"> 
<g fill="#000">
 <g stroke="none"> x </g> </g>
 </text> 
</g>
 </g>
 <g transform="translate(101.029,160.80675)">
 <g fill="#000">
 <text style="stroke:none" transform="scale(1,-1) translate(2.6308,0)" text-anchor="middle"  font-size="10"> 
<g fill="#000">
 <g stroke="none"> y </g> </g>
 </text> 
</g>
 </g>
 </g>
 </g>
                                                </g> 
</svg> 
