<?xml version="1.0" encoding="iso-8859-1" standalone="no"?> 
<?xml-stylesheet href="transformationsAnalytic.css" type="text/css"?> 
<svg xmlns="http://www.w3.org/2000/svg" xmlns:xlink="http://www.w3.org/1999/xlink" width="201.38268pt" height="168.64526pt" viewBox="-0.2 -0.2 201.38268 168.64526 "> 
<g transform="translate(0, 168.44527 ) scale(1,-1) translate(0,0.2 )"> 
<g stroke="#000" fill="#000">
 <g stroke-width="0.4">
 <g stroke-width="0.2">
 <g stroke="#808080" fill="#808080">
 <path d=" M 0.0 79.57095 L 0.0 82.41635 M 6.49973 79.57095 L 6.49973 82.41635 M 12.99947 79.57095 L 12.99947 82.41635 M 25.99893 79.57095 L 25.99893 82.41635 M 32.49867 79.57095 L 32.49867 82.41635 M 38.9984 79.57095 L 38.9984 82.41635 M 45.49814 79.57095 L 45.49814 82.41635 M 51.99788 79.57095 L 51.99788 82.41635 M 64.99734 79.57095 L 64.99734 82.41635 M 71.49709 79.57095 L 71.49709 82.41635 M 77.99681 79.57095 L 77.99681 82.41635 M 84.49655 79.57095 L 84.49655 82.41635 M 90.99629 79.57095 L 90.99629 82.41635 M 103.99576 79.57095 L 103.99576 82.41635 M 110.4955 79.57095 L 110.4955 82.41635 M 116.99522 79.57095 L 116.99522 82.41635 M 123.49496 79.57095 L 123.49496 82.41635 M 129.9947 79.57095 L 129.9947 82.41635 M 142.99417 79.57095 L 142.99417 82.41635 M 149.49391 79.57095 L 149.49391 82.41635 M 155.99364 79.57095 L 155.99364 82.41635 M 162.49338 79.57095 L 162.49338 82.41635 M 168.99312 79.57095 L 168.99312 82.41635 M 181.99258 79.57095 L 181.99258 82.41635 M 188.49232 79.57095 L 188.49232 82.41635 M 194.99205 79.57095 L 194.99205 82.41635  " fill="none"/>
 </g>
 </g>
 <g stroke-width="0.2">
 <g stroke="#808080" fill="#808080">
 <path d=" M 19.4992 78.85982 L 19.4992 83.12747 M 58.49762 78.85982 L 58.49762 83.12747 M 136.49445 78.85982 L 136.49445 83.12747 M 175.49286 78.85982 L 175.49286 83.12747  " fill="none"/>
 </g>
 </g>
 <g stroke-width="0.2">
 <g stroke="#808080" fill="#808080">
 <path d=" M 96.07332 0.0 L 98.91875 0.0 M 96.07332 5.39957 L 98.91875 5.39957 M 96.07332 10.79915 L 98.91875 10.79915 M 96.07332 21.5983 L 98.91875 21.5983 M 96.07332 26.99788 L 98.91875 26.99788 M 96.07332 32.39745 L 98.91875 32.39745 M 96.07332 37.79703 L 98.91875 37.79703 M 96.07332 43.19661 L 98.91875 43.19661 M 96.07332 53.99576 L 98.91875 53.99576 M 96.07332 59.39534 L 98.91875 59.39534 M 96.07332 64.7949 L 98.91875 64.7949 M 96.07332 70.19449 L 98.91875 70.19449 M 96.07332 75.59407 L 98.91875 75.59407 M 96.07332 86.39322 L 98.91875 86.39322 M 96.07332 91.7928 L 98.91875 91.7928 M 96.07332 97.19237 L 98.91875 97.19237 M 96.07332 102.59195 L 98.91875 102.59195 M 96.07332 107.99153 L 98.91875 107.99153 M 96.07332 118.79068 L 98.91875 118.79068 M 96.07332 124.19026 L 98.91875 124.19026 M 96.07332 129.58983 L 98.91875 129.58983 M 96.07332 134.98941 L 98.91875 134.98941 M 96.07332 140.38899 L 98.91875 140.38899 M 96.07332 151.18814 L 98.91875 151.18814 M 96.07332 156.58772 L 98.91875 156.58772 M 96.07332 161.98729 L 98.91875 161.98729  " fill="none"/>
 </g>
 </g>
 <g stroke-width="0.2">
 <g stroke="#808080" fill="#808080">
 <path d=" M 95.36217 16.19873 L 99.62988 16.19873 M 95.36217 48.59619 L 99.62988 48.59619 M 95.36217 113.39111 L 99.62988 113.39111 M 95.36217 145.78857 L 99.62988 145.78857  " fill="none"/>
 </g>
 </g>
 <path d=" M 0.0 80.99365 L 192.9921 80.99365  " fill="none"/>
 <g transform="translate(192.9921,80.99365)">
 <path d=" M 1.99997 0.0 L -1.19998 1.59998 L 0.0 0.0 L -1.19998 -1.59998  " stroke="none"/>
  </g>
 <path d=" M 97.49603 0.0 L 97.49603 159.98734  " fill="none"/>
 <g transform="matrix(0.0,1.0,-1.0,0.0,97.49603,159.98734)">
 <path d=" M 1.99997 0.0 L -1.19998 1.59998 L 0.0 0.0 L -1.19998 -1.59998  " stroke="none"/>
  </g>
 <g transform="translate(10.88814,68.8824)">
 <g fill="#000">
 <text style="stroke:none" transform="scale(1,-1) translate(8.61107,0)" text-anchor="middle"  font-size="10"> 
<g fill="#000">
 <g stroke="none">  − 4</g> </g>
 </text> 
</g>
 </g>
 <g transform="translate(49.88655,68.8824)">
 <g fill="#000">
 <text style="stroke:none" transform="scale(1,-1) translate(8.61107,0)" text-anchor="middle"  font-size="10"> 
<g fill="#000">
 <g stroke="none">  − 2</g> </g>
 </text> 
</g>
 </g>
 <g transform="translate(133.99445,68.88242)">
 <g fill="#000">
 <text style="stroke:none" transform="scale(1,-1) translate(2.5,0)" text-anchor="middle"  font-size="10"> 
<g fill="#000">
 <g stroke="none"> 2 </g> </g>
 </text> 
</g>
 </g>
 <g transform="translate(172.99286,68.88242)">
 <g fill="#000">
 <text style="stroke:none" transform="scale(1,-1) translate(2.5,0)" text-anchor="middle"  font-size="10"> 
<g fill="#000">
 <g stroke="none"> 4 </g> </g>
 </text> 
</g>
 </g>
 <g transform="translate(74.60706,13.39317)">
 <g fill="#000">
 <text style="stroke:none" transform="scale(1,-1) translate(8.61107,0)" text-anchor="middle"  font-size="10"> 
<g fill="#000">
 <g stroke="none">  − 4</g> </g>
 </text> 
</g>
 </g>
 <g transform="translate(74.60706,45.79063)">
 <g fill="#000">
 <text style="stroke:none" transform="scale(1,-1) translate(8.61107,0)" text-anchor="middle"  font-size="10"> 
<g fill="#000">
 <g stroke="none">  − 2</g> </g>
 </text> 
</g>
 </g>
 <g transform="translate(86.8292,110.1689)">
 <g fill="#000">
 <text style="stroke:none" transform="scale(1,-1) translate(2.5,0)" text-anchor="middle"  font-size="10"> 
<g fill="#000">
 <g stroke="none"> 2 </g> </g>
 </text> 
</g>
 </g>
 <g transform="translate(86.8292,142.56636)">
 <g fill="#000">
 <text style="stroke:none" transform="scale(1,-1) translate(2.5,0)" text-anchor="middle"  font-size="10"> 
<g fill="#000">
 <g stroke="none"> 4 </g> </g>
 </text> 
</g>
 </g>
 <clipPath id="pgfcp2"><path d=" M 0.0 0.0 L 194.99207 0.0 L 194.99207 161.9873 L 0.0 161.9873 Z  "/> </clipPath>
 <g clip-path="url(#pgfcp2)">
 <path d=" M 19.70602 117.42744 L 20.02092 116.90623 L 20.54263 116.01837 L 21.06435 115.10332 L 21.58606 114.16687 L 22.10777 113.20369 L 22.62949 112.22058 L 23.1512 111.21222 L 23.67291 110.18343 L 24.19463 109.13376 L 24.71634 108.06366 L 25.23805 106.97414 L 25.75977 105.86664 L 26.2815 104.74066 L 26.8032 103.5972 L 27.32492 102.43915 L 27.84663 101.26506 L 28.36835 100.0764 L 28.89006 98.87315 L 29.41177 97.65923 L 29.93349 96.43071 L 30.4552 95.19296 L 30.97691 93.94453 L 31.49863 92.68686 L 32.02034 91.42093 L 32.54205 90.1477 L 33.06378 88.8672 L 33.5855 87.58183 L 34.10721 86.29112 L 34.62892 84.997 L 35.15063 83.70045 L 35.67235 82.40099 L 36.19406 81.10104 L 36.71577 79.80206 L 37.23749 78.50357 L 37.7592 77.20605 L 38.28091 75.91145 L 38.80263 74.62025 L 39.32434 73.33392 L 39.84607 72.05243 L 40.36778 70.77776 L 40.8895 69.51134 L 41.41121 68.25172 L 41.93292 67.00134 L 42.45464 65.76117 L 42.97635 64.5317 L 43.49806 63.31532 L 44.01978 62.11014 L 44.54149 60.91904 L 45.0632 59.74254 L 45.58492 58.58109 L 46.10664 57.43422 L 46.62836 56.30678 L 47.15007 55.19539 L 47.67178 54.10391 L 48.1935 53.03043 L 48.71521 51.97734 L 49.23692 50.94516 L 49.75864 49.93387 L 50.28035 48.94543 L 50.80206 47.97885 L 51.32378 47.03706 L 51.84549 46.11906 L 52.3672 45.22685 L 52.88893 44.35892 L 53.41064 43.51869 L 53.93236 42.70325 L 54.45407 41.91745 L 54.97578 41.15788 L 55.4975 40.42894 L 56.01921 39.72673 L 56.54092 39.05562 L 57.06264 38.41367 L 57.58435 37.80232 L 58.10606 37.22256 L 58.62778 36.67294 L 59.14949 36.15637 L 59.67122 35.67041 L 60.19293 35.21895 L 60.71465 34.79713 L 61.23636 34.41225 L 61.75807 34.057 L 62.27979 33.73822 L 62.8015 33.45102 L 63.32321 33.19978 L 63.84492 32.98158 L 64.36664 32.79886 L 64.88835 32.6487 L 65.41006 32.53595 L 65.9318 32.45576 L 66.4535 32.4101 L 66.97522 32.40036 L 67.49693 32.42467 L 68.01865 32.48492 L 68.54036 32.57823 L 69.06207 32.7075 L 69.58379 32.86884 L 70.1055 33.06906 L 70.62721 33.29988 L 71.14893 33.56668 L 71.67064 33.86652 L 72.19235 34.20085 L 72.71408 34.56776 L 73.2358 34.96916 L 73.7575 35.40216 L 74.27922 35.86868 L 74.80093 36.36777 L 75.32265 36.89697 L 75.84436 37.45972 L 76.36607 38.05211 L 76.88779 38.67754 L 77.4095 39.3297 L 77.93121 40.01588 L 78.45293 40.72684 L 78.97464 41.47133 L 79.49637 42.24062 L 80.01808 43.04051 L 80.5398 43.86519 L 81.06151 44.71707 L 81.58322 45.59424 L 82.10493 46.49812 L 82.62665 47.4268 L 83.14836 48.37782 L 83.67007 49.35364 L 84.19179 50.35132 L 84.71352 51.37135 L 85.23523 52.41179 L 85.75694 53.47508 L 86.27866 54.55391 L 86.80037 55.6556 L 87.32208 56.7733 L 87.8438 57.91046 L 88.36551 59.0617 L 88.88722 60.23044 L 89.40894 61.41327 L 89.93066 62.60971 L 90.45238 63.81975 L 90.97409 65.04146 L 91.4958 66.2758 L 92.01752 67.52036 L 92.53923 68.77412 L 93.06094 70.03618 L 93.58266 71.30696 L 94.10437 72.58505 L 94.62608 73.8675 L 95.1478 75.15628 L 95.66953 76.44893 L 96.19124 77.745 L 96.71295 79.04347 L 97.23466 80.34245 L 97.75638 81.64241 L 98.27809 82.94138 L 98.7998 84.23987 L 99.32152 85.53545 L 99.84323 86.8281 L 100.36496 88.11688 L 100.88667 89.4003 L 101.40839 90.67789 L 101.9301 91.9482 L 102.45181 93.21072 L 102.97353 94.46451 L 103.49524 95.70906 L 104.01695 96.94292 L 104.53867 98.16559 L 105.0604 99.37515 L 105.5821 100.57208 L 106.10382 101.75491 L 106.62553 102.92268 L 107.14725 104.07489 L 107.66896 105.21156 L 108.19067 106.32927 L 108.71239 107.42998 L 109.2341 108.51074 L 109.75581 109.57306 L 110.27753 110.61351 L 110.79926 111.63403 L 111.32097 112.63219 L 111.84268 113.60802 L 112.3644 114.55904 L 112.88611 115.4877 L 113.40782 116.39111 L 113.92953 117.26875 L 114.45125 118.12065 L 114.97296 118.9463 L 115.49469 119.74522 L 116.0164 120.5145 L 116.53812 121.25899 L 117.05983 121.97093 L 117.58154 122.65613 L 118.10326 123.30927 L 118.62497 123.93324 L 119.14668 124.52611 L 119.6684 125.08983 L 120.19011 125.61807 L 120.71182 126.11812 L 121.23354 126.58368 L 121.75525 127.01813 L 122.27698 127.41856 L 122.79869 127.78497 L 123.3204 128.12077 L 123.84212 128.41963 L 124.36383 128.68741 L 124.88554 128.91823 L 125.40726 129.11748 L 125.92897 129.27882 L 126.45068 129.40906 L 126.9724 129.50139 L 127.49411 129.56262 L 128.01582 129.58693 L 128.53755 129.5772 L 129.05927 129.532 L 129.58098 129.45183 L 130.10269 129.3386 L 130.6244 129.18843 L 131.14612 129.0062 L 131.66783 128.788 L 132.18954 128.53676 L 132.71126 128.25003 L 133.23297 127.93173 L 133.75468 127.576 L 134.2764 127.19113 L 134.79811 126.7698 L 135.31984 126.31834 L 135.84155 125.8319 L 136.36327 125.31483 L 136.88498 124.76617 L 137.4067 124.18642 L 137.9284 123.5746 L 138.45012 122.93314 L 138.97183 122.26202 L 139.49355 121.5598 L 140.01526 120.83037 L 140.53697 120.07082 L 141.05869 119.28502 L 141.5804 118.47005 L 142.10213 117.62984 L 142.62384 116.76141 L 143.14555 115.86967 L 143.66727 114.95169 L 144.18898 114.0099 L 144.7107 113.0443 L 145.2324 112.05585 L 145.75412 111.04456 L 146.27583 110.01237 L 146.79755 108.95929 L 147.31926 107.8858 L 147.84097 106.79385 L 148.3627 105.68245 L 148.88441 104.55551 L 149.40613 103.40814 L 149.92784 102.2472 L 150.44955 101.07019 L 150.97127 99.8796 L 151.49298 98.6744 L 152.0147 97.45755 L 152.5364 96.22855 L 153.05812 94.98837 L 153.57983 93.73799 L 154.10155 92.47887 L 154.62326 91.21245 L 155.14499 89.93729 L 155.6667 88.6563 L 156.18842 87.36995 L 156.71013 86.07826 L 157.23184 84.78366 L 157.75356 83.4876 L 158.27527 82.18765 L 158.79698 80.88818 L 159.3187 79.58922 L 159.84041 78.28926 L 160.36212 76.99321 L 160.88383 75.69861 L 161.40555 74.40837 L 161.92728 73.12251 L 162.44899 71.8425 L 162.9707 70.56927 L 163.49242 69.30383 L 164.01413 68.04616 L 164.53584 66.79675 L 165.05756 65.55803 L 165.57927 64.33098 L 166.10098 63.11705 L 166.6227 61.91382 L 167.14441 60.72514 L 167.66612 59.55107 L 168.18784 58.39204 L 168.70956 57.24808 L 169.23128 56.12212 L 169.75299 55.01509 L 170.2747 53.92606 L 170.79642 52.85596 L 171.31813 51.80531 L 171.83984 50.77751 L 172.36156 49.76816 L 172.88327 48.78506 L 173.40498 47.82188 L 173.9267 46.88544 L 174.44841 45.97037 L 174.97014 45.08252 L 175.28503 44.56131  " fill="none"/>
 <g transform="matrix(-0.51706,0.85591,-0.85591,-0.51706,19.60262,117.59862)">
 <g stroke-dasharray="none" stroke-dashoffset="0.0">
 <g stroke-linecap="round">
 <g stroke-linejoin="round">
 <path d=" M -2.07999 2.39998 C -1.69998 0.95998 -0.85318 0.28 0.0 0.0 C -0.85318 -0.28 -1.69998 -0.95998 -2.07999 -2.39998  " fill="none"/>
 </g>
 </g>
 </g>
  </g>
 <g transform="matrix(0.51706,-0.85591,0.85591,0.51706,175.38844,44.39014)">
 <g stroke-dasharray="none" stroke-dashoffset="0.0">
 <g stroke-linecap="round">
 <g stroke-linejoin="round">
 <path d=" M -2.07999 2.39998 C -1.69998 0.95998 -0.85318 0.28 0.0 0.0 C -0.85318 -0.28 -1.69998 -0.95998 -2.07999 -2.39998  " fill="none"/>
 </g>
 </g>
 </g>
  </g>
 </g>
 <g transform="translate(192.13443,84.52663)">
 <g fill="#000">
 <text style="stroke:none" transform="scale(1,-1) translate(2.85764,0)" text-anchor="middle"  font-size="10"> 
<g fill="#000">
 <g stroke="none"> x </g> </g>
 </text> 
</g>
 </g>
 <g transform="translate(101.029,160.80675)">
 <g fill="#000">
 <text style="stroke:none" transform="scale(1,-1) translate(2.6308,0)" text-anchor="middle"  font-size="10"> 
<g fill="#000">
 <g stroke="none"> y </g> </g>
 </text> 
</g>
 </g>
 </g>
 </g>
                                                </g> 
</svg> 
