<?xml version="1.0" encoding="iso-8859-1" standalone="no"?> 
<?xml-stylesheet href="transformationsAnalytic.css" type="text/css"?> 
<svg xmlns="http://www.w3.org/2000/svg" xmlns:xlink="http://www.w3.org/1999/xlink" width="201.38695pt" height="168.64526pt" viewBox="-0.2 -0.2 201.38695 168.64526 "> 
<g transform="translate(0, 168.44527 ) scale(1,-1) translate(0,0.2 )"> 
<g stroke="#000" fill="#000">
 <g stroke-width="0.4">
 <g stroke-width="0.2">
 <g stroke="#808080" fill="#808080">
 <path d=" M 2.70827 79.57095 L 2.70827 82.41635 M 7.22206 79.57095 L 7.22206 82.41635 M 11.73587 79.57095 L 11.73587 82.41635 M 20.76349 79.57095 L 20.76349 82.41635 M 25.27728 79.57095 L 25.27728 82.41635 M 29.79109 79.57095 L 29.79109 82.41635 M 34.30489 79.57095 L 34.30489 82.41635 M 38.8187 79.57095 L 38.8187 82.41635 M 47.84631 79.57095 L 47.84631 82.41635 M 52.3601 79.57095 L 52.3601 82.41635 M 56.87392 79.57095 L 56.87392 82.41635 M 61.38771 79.57095 L 61.38771 82.41635 M 65.90152 79.57095 L 65.90152 82.41635 M 74.92914 79.57095 L 74.92914 82.41635 M 79.44293 79.57095 L 79.44293 82.41635 M 83.95674 79.57095 L 83.95674 82.41635 M 88.47054 79.57095 L 88.47054 82.41635 M 92.98434 79.57095 L 92.98434 82.41635 M 102.01196 79.57095 L 102.01196 82.41635 M 106.52576 79.57095 L 106.52576 82.41635 M 111.03957 79.57095 L 111.03957 82.41635 M 115.55336 79.57095 L 115.55336 82.41635 M 120.06717 79.57095 L 120.06717 82.41635 M 129.09479 79.57095 L 129.09479 82.41635 M 133.60858 79.57095 L 133.60858 82.41635 M 138.12239 79.57095 L 138.12239 82.41635 M 142.63618 79.57095 L 142.63618 82.41635 M 147.15 79.57095 L 147.15 82.41635 M 156.17761 79.57095 L 156.17761 82.41635 M 160.6914 79.57095 L 160.6914 82.41635 M 165.20522 79.57095 L 165.20522 82.41635 M 169.71901 79.57095 L 169.71901 82.41635 M 174.23282 79.57095 L 174.23282 82.41635 M 183.26044 79.57095 L 183.26044 82.41635 M 187.77423 79.57095 L 187.77423 82.41635 M 192.28804 79.57095 L 192.28804 82.41635  " fill="none"/>
 </g>
 </g>
 <g stroke-width="0.2">
 <g stroke="#808080" fill="#808080">
 <path d=" M 16.2497 78.85982 L 16.2497 83.12747 M 43.33252 78.85982 L 43.33252 83.12747 M 70.41534 78.85982 L 70.41534 83.12747 M 124.581 78.85982 L 124.581 83.12747 M 151.66382 78.85982 L 151.66382 83.12747 M 178.74664 78.85982 L 178.74664 83.12747  " fill="none"/>
 </g>
 </g>
 <g stroke-width="0.2">
 <g stroke="#808080" fill="#808080">
 <path d=" M 96.07538 0.0 L 98.92097 0.0 M 96.07538 5.39957 L 98.92097 5.39957 M 96.07538 10.79915 L 98.92097 10.79915 M 96.07538 21.5983 L 98.92097 21.5983 M 96.07538 26.99788 L 98.92097 26.99788 M 96.07538 32.39745 L 98.92097 32.39745 M 96.07538 37.79703 L 98.92097 37.79703 M 96.07538 43.19661 L 98.92097 43.19661 M 96.07538 53.99576 L 98.92097 53.99576 M 96.07538 59.39534 L 98.92097 59.39534 M 96.07538 64.7949 L 98.92097 64.7949 M 96.07538 70.19449 L 98.92097 70.19449 M 96.07538 75.59407 L 98.92097 75.59407 M 96.07538 86.39322 L 98.92097 86.39322 M 96.07538 91.7928 L 98.92097 91.7928 M 96.07538 97.19237 L 98.92097 97.19237 M 96.07538 102.59195 L 98.92097 102.59195 M 96.07538 107.99153 L 98.92097 107.99153 M 96.07538 118.79068 L 98.92097 118.79068 M 96.07538 124.19026 L 98.92097 124.19026 M 96.07538 129.58983 L 98.92097 129.58983 M 96.07538 134.98941 L 98.92097 134.98941 M 96.07538 140.38899 L 98.92097 140.38899 M 96.07538 151.18814 L 98.92097 151.18814 M 96.07538 156.58772 L 98.92097 156.58772 M 96.07538 161.98729 L 98.92097 161.98729  " fill="none"/>
 </g>
 </g>
 <g stroke-width="0.2">
 <g stroke="#808080" fill="#808080">
 <path d=" M 95.36418 16.19873 L 99.63214 16.19873 M 95.36418 48.59619 L 99.63214 48.59619 M 95.36418 113.39111 L 99.63214 113.39111 M 95.36418 145.78857 L 99.63214 145.78857  " fill="none"/>
 </g>
 </g>
 <path d=" M 0.0 80.99365 L 192.99637 80.99365  " fill="none"/>
 <g transform="translate(192.99637,80.99365)">
 <path d=" M 1.99997 0.0 L -1.19998 1.59998 L 0.0 0.0 L -1.19998 -1.59998  " stroke="none"/>
  </g>
 <path d=" M 97.49817 0.0 L 97.49817 159.98734  " fill="none"/>
 <g transform="matrix(0.0,1.0,-1.0,0.0,97.49817,159.98734)">
 <path d=" M 1.99997 0.0 L -1.19998 1.59998 L 0.0 0.0 L -1.19998 -1.59998  " stroke="none"/>
  </g>
 <g transform="translate(5.13861,68.8824)">
 <g fill="#000">
 <text style="stroke:none" transform="scale(1,-1) translate(11.11108,0)" text-anchor="middle"  font-size="10"> 
<g fill="#000">
 <g stroke="none">  − 15</g> </g>
 </text> 
</g>
 </g>
 <g transform="translate(32.22144,68.8824)">
 <g fill="#000">
 <text style="stroke:none" transform="scale(1,-1) translate(11.11108,0)" text-anchor="middle"  font-size="10"> 
<g fill="#000">
 <g stroke="none">  − 10</g> </g>
 </text> 
</g>
 </g>
 <g transform="translate(61.80428,68.8824)">
 <g fill="#000">
 <text style="stroke:none" transform="scale(1,-1) translate(8.61107,0)" text-anchor="middle"  font-size="10"> 
<g fill="#000">
 <g stroke="none">  − 5 </g> </g>
 </text> 
</g>
 </g>
 <g transform="translate(122.081,68.88242)">
 <g fill="#000">
 <text style="stroke:none" transform="scale(1,-1) translate(2.5,0)" text-anchor="middle"  font-size="10"> 
<g fill="#000">
 <g stroke="none"> 5 </g> </g>
 </text> 
</g>
 </g>
 <g transform="translate(146.6638,68.88242)">
 <g fill="#000">
 <text style="stroke:none" transform="scale(1,-1) translate(5.00002,0)" text-anchor="middle"  font-size="10"> 
<g fill="#000">
 <g stroke="none"> 10 </g> </g>
 </text> 
</g>
 </g>
 <g transform="translate(173.74663,68.88242)">
 <g fill="#000">
 <text style="stroke:none" transform="scale(1,-1) translate(5.00002,0)" text-anchor="middle"  font-size="10"> 
<g fill="#000">
 <g stroke="none"> 15 </g> </g>
 </text> 
</g>
 </g>
 <g transform="translate(74.60907,13.39317)">
 <g fill="#000">
 <text style="stroke:none" transform="scale(1,-1) translate(8.61107,0)" text-anchor="middle"  font-size="10"> 
<g fill="#000">
 <g stroke="none">  − 4 </g> </g>
 </text> 
</g>
 </g>
 <g transform="translate(74.60907,45.79063)">
 <g fill="#000">
 <text style="stroke:none" transform="scale(1,-1) translate(8.61107,0)" text-anchor="middle"  font-size="10"> 
<g fill="#000">
 <g stroke="none">  − 2 </g> </g>
 </text> 
</g>
 </g>
 <g transform="translate(86.8312,110.1689)">
 <g fill="#000">
 <text style="stroke:none" transform="scale(1,-1) translate(2.5,0)" text-anchor="middle"  font-size="10"> 
<g fill="#000">
 <g stroke="none"> 2 </g> </g>
 </text> 
</g>
 </g>
 <g transform="translate(86.8312,142.56636)">
 <g fill="#000">
 <text style="stroke:none" transform="scale(1,-1) translate(2.5,0)" text-anchor="middle"  font-size="10"> 
<g fill="#000">
 <g stroke="none"> 4 </g> </g>
 </text> 
</g>
 </g>
 <clipPath id="pgfcp4"><path d=" M 0.0 0.0 L 194.99634 0.0 L 194.99634 161.9873 L 0.0 161.9873 Z  "/> </clipPath>
 <g clip-path="url(#pgfcp4)">
 <path d=" M 11.19124 93.07423 L 11.41283 92.96402 L 11.99252 92.66759 L 12.57222 92.36337 L 13.15192 92.05186 L 13.73163 91.72887 L 14.31133 91.40166 L 14.89102 91.06488 L 15.47072 90.72293 L 16.05043 90.37369 L 16.63013 90.01505 L 17.20982 89.65268 L 17.78952 89.28415 L 18.36923 88.90689 L 18.94893 88.52654 L 19.52863 88.14117 L 20.10832 87.74916 L 20.68803 87.35213 L 21.26773 86.95381 L 21.84743 86.54657 L 22.42712 86.13803 L 23.00684 85.7266 L 23.58653 85.30948 L 24.16623 84.89105 L 24.74593 84.46843 L 25.32564 84.04306 L 25.90533 83.61736 L 26.48503 83.18971 L 27.06473 82.75703 L 27.64444 82.32664 L 28.22414 81.89365 L 28.80383 81.46147 L 29.38353 81.02928 L 29.96324 80.59402 L 30.54294 80.16168 L 31.12263 79.7303 L 31.70233 79.29796 L 32.28204 78.86838 L 32.86174 78.43895 L 33.44144 78.01129 L 34.02113 77.58705 L 34.60085 77.16588 L 35.18054 76.74374 L 35.76024 76.32808 L 36.33994 75.91534 L 36.91965 75.50487 L 37.49934 75.10022 L 38.07904 74.69963 L 38.65874 74.30017 L 39.23843 73.90865 L 39.81815 73.52263 L 40.39784 73.13823 L 40.97754 72.76323 L 41.55724 72.39229 L 42.13695 72.02927 L 42.71664 71.67209 L 43.29634 71.31927 L 43.87604 70.977 L 44.45575 70.64006 L 45.03545 70.31058 L 45.61514 69.98856 L 46.19485 69.67479 L 46.77455 69.36862 L 47.35425 69.07138 L 47.93396 68.78159 L 48.51366 68.50183 L 49.09337 68.22986 L 49.67307 67.96808 L 50.25276 67.71474 L 50.83246 67.47176 L 51.41217 67.23769 L 51.99188 67.01414 L 52.57158 66.79999 L 53.15128 66.59654 L 53.73097 66.40297 L 54.31067 66.22008 L 54.89038 66.04756 L 55.4701 65.88574 L 56.04979 65.73492 L 56.62949 65.59448 L 57.20918 65.46619 L 57.7889 65.34761 L 58.36859 65.24184 L 58.9483 65.1461 L 59.528 65.0622 L 60.1077 64.98962 L 60.68741 64.92871 L 61.2671 64.87898 L 61.8468 64.84091 L 62.42651 64.81435 L 63.00621 64.79913 L 63.58592 64.79588 L 64.16562 64.80399 L 64.74532 64.82407 L 65.32501 64.85501 L 65.90472 64.89827 L 66.48442 64.95236 L 67.06413 65.01878 L 67.64383 65.0954 L 68.22353 65.18498 L 68.80322 65.2846 L 69.38293 65.39621 L 69.96263 65.51868 L 70.54234 65.65215 L 71.12204 65.79665 L 71.70174 65.95215 L 72.28145 66.11852 L 72.86115 66.29492 L 73.44084 66.48282 L 74.02055 66.68013 L 74.60025 66.88844 L 75.17996 67.10616 L 75.75966 67.3344 L 76.33936 67.57187 L 76.91905 67.81987 L 77.49876 68.07613 L 78.07846 68.3426 L 78.65817 68.61781 L 79.23787 68.90195 L 79.81757 69.19432 L 80.39726 69.49547 L 80.97697 69.80486 L 81.55667 70.1222 L 82.13638 70.44746 L 82.71608 70.78001 L 83.29578 71.12003 L 83.87549 71.46684 L 84.45518 71.82127 L 85.03488 72.18153 L 85.6146 72.54828 L 86.19429 72.921 L 86.774 73.29958 L 87.3537 73.6838 L 87.9334 74.07306 L 88.51309 74.46718 L 89.0928 74.86615 L 89.6725 75.26967 L 90.25221 75.6769 L 90.83191 76.08818 L 91.4116 76.50336 L 91.9913 76.92096 L 92.57101 77.34196 L 93.15071 77.76556 L 93.73042 78.19127 L 94.31012 78.61908 L 94.88983 79.04834 L 95.46953 79.47939 L 96.04922 79.91124 L 96.62892 80.34407 L 97.20863 80.77739 L 97.78835 81.21039 L 98.36804 81.6437 L 98.94774 82.0762 L 99.52745 82.50822 L 100.10715 82.93912 L 100.68684 83.3687 L 101.26656 83.79651 L 101.84625 84.22253 L 102.42596 84.64581 L 103.00566 85.0665 L 103.58536 85.48457 L 104.16505 85.8996 L 104.74477 86.31055 L 105.32446 86.71796 L 105.90417 87.1213 L 106.48387 87.52028 L 107.06358 87.91472 L 107.64328 88.3038 L 108.22298 88.68788 L 108.80267 89.06677 L 109.38239 89.43935 L 109.96208 89.8064 L 110.5418 90.1665 L 111.12149 90.5206 L 111.70119 90.86742 L 112.28088 91.2076 L 112.8606 91.54031 L 113.44029 91.86559 L 114.02 92.18292 L 114.5997 92.49216 L 115.1794 92.79344 L 115.7591 93.08568 L 116.3388 93.36948 L 116.9185 93.64485 L 117.49821 93.91132 L 118.07791 94.16776 L 118.65762 94.41591 L 119.23732 94.6529 L 119.81702 94.8813 L 120.39671 95.09901 L 120.97643 95.3075 L 121.55612 95.50462 L 122.13583 95.69254 L 122.71553 95.86894 L 123.29523 96.0353 L 123.87492 96.19064 L 124.45464 96.33514 L 125.03433 96.46893 L 125.61404 96.59125 L 126.19374 96.70302 L 126.77344 96.80263 L 127.35315 96.89189 L 127.93285 96.9685 L 128.51254 97.03493 L 129.09225 97.08902 L 129.67195 97.13211 L 130.25166 97.16322 L 130.83136 97.1833 L 131.41106 97.1914 L 131.99075 97.18816 L 132.57047 97.17294 L 133.15016 97.14621 L 133.72987 97.1083 L 134.30957 97.05858 L 134.88927 96.99783 L 135.46896 96.9246 L 136.04868 96.84135 L 136.62839 96.74529 L 137.20808 96.63951 L 137.78778 96.52078 L 138.36748 96.39249 L 138.94719 96.2522 L 139.52689 96.1014 L 140.1066 95.9394 L 140.6863 95.76721 L 141.26599 95.584 L 141.8457 95.39075 L 142.4254 95.18681 L 143.0051 94.97282 L 143.58481 94.74928 L 144.1645 94.51505 L 144.7442 94.27223 L 145.32391 94.01904 L 145.90361 93.75694 L 146.4833 93.48497 L 147.06302 93.20522 L 147.64272 92.91591 L 148.22243 92.6185 L 148.80212 92.31252 L 149.38182 91.99825 L 149.96152 91.67638 L 150.54123 91.34691 L 151.12093 91.00981 L 151.70064 90.66559 L 152.28033 90.3152 L 152.86003 89.95802 L 153.43973 89.59225 L 154.01944 89.22406 L 154.59914 88.84906 L 155.17883 88.46466 L 155.75853 88.07864 L 156.33824 87.68712 L 156.91794 87.28766 L 157.49763 86.88707 L 158.07733 86.48242 L 158.65704 86.07195 L 159.23674 85.65921 L 159.81644 85.24063 L 160.39613 84.82141 L 160.97583 84.40024 L 161.55554 83.97421 L 162.13524 83.54834 L 162.71494 83.11891 L 163.29463 82.68771 L 163.87434 82.25699 L 164.45404 81.8256 L 165.03374 81.39182 L 165.61343 80.95801 L 166.19315 80.52582 L 166.77284 80.0917 L 167.35254 79.66064 L 167.93224 79.23026 L 168.51195 78.79758 L 169.09164 78.36993 L 169.67134 77.94423 L 170.25104 77.51886 L 170.83075 77.09624 L 171.41045 76.67781 L 171.99014 76.2607 L 172.56984 75.84926 L 173.14955 75.43764 L 173.72925 75.03348 L 174.30894 74.63516 L 174.88864 74.23521 L 175.46835 73.84612 L 176.04805 73.46075 L 176.62775 73.07733 L 177.20744 72.70314 L 177.78716 72.33461 L 178.36685 71.96965 L 178.94655 71.6136 L 179.52625 71.26436 L 180.10596 70.92111 L 180.68565 70.58563 L 181.26535 70.25842 L 181.84505 69.93542 L 182.42476 69.62392 L 183.00446 69.3197 L 183.58415 69.02327 L 183.80574 68.91306  " fill="none"/>
 <g transform="matrix(-0.8953,0.44534,-0.44534,-0.8953,11.01219,93.1633)">
 <g stroke-dasharray="none" stroke-dashoffset="0.0">
 <g stroke-linecap="round">
 <g stroke-linejoin="round">
 <path d=" M -2.07999 2.39998 C -1.69998 0.95998 -0.85318 0.28 0.0 0.0 C -0.85318 -0.28 -1.69998 -0.95998 -2.07999 -2.39998  " fill="none"/>
 </g>
 </g>
 </g>
  </g>
 <g transform="matrix(0.8953,-0.44534,0.44534,0.8953,183.98479,68.82399)">
 <g stroke-dasharray="none" stroke-dashoffset="0.0">
 <g stroke-linecap="round">
 <g stroke-linejoin="round">
 <path d=" M -2.07999 2.39998 C -1.69998 0.95998 -0.85318 0.28 0.0 0.0 C -0.85318 -0.28 -1.69998 -0.95998 -2.07999 -2.39998  " fill="none"/>
 </g>
 </g>
 </g>
  </g>
 </g>
 <g transform="translate(192.1387,84.52663)">
 <g fill="#000">
 <text style="stroke:none" transform="scale(1,-1) translate(2.85764,0)" text-anchor="middle"  font-size="10"> 
<g fill="#000">
 <g stroke="none"> x </g> </g>
 </text> 
</g>
 </g>
 <g transform="translate(101.03114,160.80675)">
 <g fill="#000">
 <text style="stroke:none" transform="scale(1,-1) translate(2.6308,0)" text-anchor="middle"  font-size="10"> 
<g fill="#000">
 <g stroke="none"> y </g> </g>
 </text> 
</g>
 </g>
 </g>
 </g>
                                               </g> 
</svg> 
