<?xml version="1.0" encoding="iso-8859-1" standalone="no"?> 
<?xml-stylesheet href="transformationsAnalytic.css" type="text/css"?> 
<svg xmlns="http://www.w3.org/2000/svg" xmlns:xlink="http://www.w3.org/1999/xlink" width="201.38268pt" height="168.64526pt" viewBox="-0.2 -0.2 201.38268 168.64526 "> 
<g transform="translate(0, 168.44527 ) scale(1,-1) translate(0,0.2 )"> 
<g stroke="#000" fill="#000">
 <g stroke-width="0.4">
 <g stroke-width="0.2">
 <g stroke="#808080" fill="#808080">
 <path d=" M 0.0 79.57095 L 0.0 82.41635 M 6.49973 79.57095 L 6.49973 82.41635 M 12.99947 79.57095 L 12.99947 82.41635 M 25.99893 79.57095 L 25.99893 82.41635 M 32.49867 79.57095 L 32.49867 82.41635 M 38.9984 79.57095 L 38.9984 82.41635 M 45.49814 79.57095 L 45.49814 82.41635 M 51.99788 79.57095 L 51.99788 82.41635 M 64.99734 79.57095 L 64.99734 82.41635 M 71.49709 79.57095 L 71.49709 82.41635 M 77.99681 79.57095 L 77.99681 82.41635 M 84.49655 79.57095 L 84.49655 82.41635 M 90.99629 79.57095 L 90.99629 82.41635 M 103.99576 79.57095 L 103.99576 82.41635 M 110.4955 79.57095 L 110.4955 82.41635 M 116.99522 79.57095 L 116.99522 82.41635 M 123.49496 79.57095 L 123.49496 82.41635 M 129.9947 79.57095 L 129.9947 82.41635 M 142.99417 79.57095 L 142.99417 82.41635 M 149.49391 79.57095 L 149.49391 82.41635 M 155.99364 79.57095 L 155.99364 82.41635 M 162.49338 79.57095 L 162.49338 82.41635 M 168.99312 79.57095 L 168.99312 82.41635 M 181.99258 79.57095 L 181.99258 82.41635 M 188.49232 79.57095 L 188.49232 82.41635 M 194.99205 79.57095 L 194.99205 82.41635  " fill="none"/>
 </g>
 </g>
 <g stroke-width="0.2">
 <g stroke="#808080" fill="#808080">
 <path d=" M 19.4992 78.85982 L 19.4992 83.12747 M 58.49762 78.85982 L 58.49762 83.12747 M 136.49445 78.85982 L 136.49445 83.12747 M 175.49286 78.85982 L 175.49286 83.12747  " fill="none"/>
 </g>
 </g>
 <g stroke-width="0.2">
 <g stroke="#808080" fill="#808080">
 <path d=" M 96.07332 0.0 L 98.91875 0.0 M 96.07332 5.39957 L 98.91875 5.39957 M 96.07332 10.79915 L 98.91875 10.79915 M 96.07332 21.5983 L 98.91875 21.5983 M 96.07332 26.99788 L 98.91875 26.99788 M 96.07332 32.39745 L 98.91875 32.39745 M 96.07332 37.79703 L 98.91875 37.79703 M 96.07332 43.19661 L 98.91875 43.19661 M 96.07332 53.99576 L 98.91875 53.99576 M 96.07332 59.39534 L 98.91875 59.39534 M 96.07332 64.7949 L 98.91875 64.7949 M 96.07332 70.19449 L 98.91875 70.19449 M 96.07332 75.59407 L 98.91875 75.59407 M 96.07332 86.39322 L 98.91875 86.39322 M 96.07332 91.7928 L 98.91875 91.7928 M 96.07332 97.19237 L 98.91875 97.19237 M 96.07332 102.59195 L 98.91875 102.59195 M 96.07332 107.99153 L 98.91875 107.99153 M 96.07332 118.79068 L 98.91875 118.79068 M 96.07332 124.19026 L 98.91875 124.19026 M 96.07332 129.58983 L 98.91875 129.58983 M 96.07332 134.98941 L 98.91875 134.98941 M 96.07332 140.38899 L 98.91875 140.38899 M 96.07332 151.18814 L 98.91875 151.18814 M 96.07332 156.58772 L 98.91875 156.58772 M 96.07332 161.98729 L 98.91875 161.98729  " fill="none"/>
 </g>
 </g>
 <g stroke-width="0.2">
 <g stroke="#808080" fill="#808080">
 <path d=" M 95.36217 16.19873 L 99.62988 16.19873 M 95.36217 48.59619 L 99.62988 48.59619 M 95.36217 113.39111 L 99.62988 113.39111 M 95.36217 145.78857 L 99.62988 145.78857  " fill="none"/>
 </g>
 </g>
 <path d=" M 0.0 80.99365 L 192.9921 80.99365  " fill="none"/>
 <g transform="translate(192.9921,80.99365)">
 <path d=" M 1.99997 0.0 L -1.19998 1.59998 L 0.0 0.0 L -1.19998 -1.59998  " stroke="none"/>
  </g>
 <path d=" M 97.49603 0.0 L 97.49603 159.98734  " fill="none"/>
 <g transform="matrix(0.0,1.0,-1.0,0.0,97.49603,159.98734)">
 <path d=" M 1.99997 0.0 L -1.19998 1.59998 L 0.0 0.0 L -1.19998 -1.59998  " stroke="none"/>
  </g>
 <g transform="translate(10.88814,68.8824)">
 <g fill="#000">
 <text style="stroke:none" transform="scale(1,-1) translate(8.61107,0)" text-anchor="middle"  font-size="10"> 
<g fill="#000">
 <g stroke="none">  − 4</g> </g>
 </text> 
</g>
 </g>
 <g transform="translate(49.88655,68.8824)">
 <g fill="#000">
 <text style="stroke:none" transform="scale(1,-1) translate(8.61107,0)" text-anchor="middle"  font-size="10"> 
<g fill="#000">
 <g stroke="none">  − 2</g> </g>
 </text> 
</g>
 </g>
 <g transform="translate(133.99445,68.88242)">
 <g fill="#000">
 <text style="stroke:none" transform="scale(1,-1) translate(2.5,0)" text-anchor="middle"  font-size="10"> 
<g fill="#000">
 <g stroke="none"> 2 </g> </g>
 </text> 
</g>
 </g>
 <g transform="translate(172.99286,68.88242)">
 <g fill="#000">
 <text style="stroke:none" transform="scale(1,-1) translate(2.5,0)" text-anchor="middle"  font-size="10"> 
<g fill="#000">
 <g stroke="none"> 4 </g> </g>
 </text> 
</g>
 </g>
 <g transform="translate(74.60706,13.39317)">
 <g fill="#000">
 <text style="stroke:none" transform="scale(1,-1) translate(8.61107,0)" text-anchor="middle"  font-size="10"> 
<g fill="#000">
 <g stroke="none">  − 4</g> </g>
 </text> 
</g>
 </g>
 <g transform="translate(74.60706,45.79063)">
 <g fill="#000">
 <text style="stroke:none" transform="scale(1,-1) translate(8.61107,0)" text-anchor="middle"  font-size="10"> 
<g fill="#000">
 <g stroke="none">  − 2</g> </g>
 </text> 
</g>
 </g>
 <g transform="translate(86.8292,110.1689)">
 <g fill="#000">
 <text style="stroke:none" transform="scale(1,-1) translate(2.5,0)" text-anchor="middle"  font-size="10"> 
<g fill="#000">
 <g stroke="none"> 2 </g> </g>
 </text> 
</g>
 </g>
 <g transform="translate(86.8292,142.56636)">
 <g fill="#000">
 <text style="stroke:none" transform="scale(1,-1) translate(2.5,0)" text-anchor="middle"  font-size="10"> 
<g fill="#000">
 <g stroke="none"> 4 </g> </g>
 </text> 
</g>
 </g>
 <clipPath id="pgfcp3"><path d=" M 0.0 0.0 L 194.99207 0.0 L 194.99207 161.9873 L 0.0 161.9873 Z  "/> </clipPath>
 <g clip-path="url(#pgfcp3)">
 <path d=" M 78.16188 92.88805 L 78.12724 92.96451 L 78.25768 92.66855 L 78.3881 92.36354 L 78.51854 92.05139 L 78.64897 91.73033 L 78.7794 91.40262 L 78.90984 91.0665 L 79.04025 90.72389 L 79.17068 90.37369 L 79.30112 90.01698 L 79.43155 89.65381 L 79.56198 89.28464 L 79.69241 88.90932 L 79.82285 88.52817 L 79.95328 88.14182 L 80.0837 87.75029 L 80.21413 87.3544 L 80.34456 86.95348 L 80.47499 86.54868 L 80.60542 86.13933 L 80.73586 85.72675 L 80.86629 85.31029 L 80.9967 84.89139 L 81.12714 84.4694 L 81.25757 84.045 L 81.388 83.61816 L 81.51843 83.18954 L 81.64886 82.75931 L 81.7793 82.32793 L 81.90973 81.89592 L 82.04015 81.46275 L 82.17058 81.02945 L 82.30101 80.59645 L 82.43144 80.16347 L 82.56187 79.73079 L 82.6923 79.29926 L 82.82274 78.8687 L 82.95316 78.44008 L 83.08359 78.01324 L 83.21402 77.58803 L 83.34445 77.16588 L 83.47488 76.74602 L 83.60532 76.32954 L 83.73575 75.91599 L 83.86618 75.50616 L 83.9966 75.10054 L 84.12703 74.69914 L 84.25746 74.30196 L 84.3879 73.90962 L 84.51833 73.52263 L 84.64876 73.14018 L 84.77919 72.76453 L 84.9096 72.39423 L 85.04004 72.03024 L 85.17047 71.67224 L 85.3009 71.32138 L 85.43134 70.977 L 85.56177 70.64006 L 85.6922 70.31058 L 85.82263 69.98856 L 85.95305 69.67479 L 86.08348 69.36862 L 86.21391 69.07138 L 86.34435 68.78174 L 86.47478 68.502 L 86.60521 68.22986 L 86.73564 67.96808 L 86.86606 67.71474 L 86.99649 67.47176 L 87.12692 67.23769 L 87.25735 67.01414 L 87.38779 66.79999 L 87.51822 66.59654 L 87.64865 66.40297 L 87.77908 66.21991 L 87.9095 66.04788 L 88.03993 65.8859 L 88.17036 65.73492 L 88.3008 65.5948 L 88.43123 65.4665 L 88.56166 65.34778 L 88.6921 65.24184 L 88.82251 65.14594 L 88.95294 65.06236 L 89.08337 64.98962 L 89.2138 64.92839 L 89.34424 64.87898 L 89.47467 64.84091 L 89.6051 64.81435 L 89.73553 64.79913 L 89.86595 64.79588 L 89.99638 64.80399 L 90.12682 64.82407 L 90.25725 64.85501 L 90.38768 64.89827 L 90.51811 64.95236 L 90.64854 65.01862 L 90.77896 65.09572 L 90.9094 65.18498 L 91.03983 65.2846 L 91.17026 65.39621 L 91.30069 65.51868 L 91.43112 65.65215 L 91.56155 65.79665 L 91.69199 65.95215 L 91.8224 66.11852 L 91.95284 66.29492 L 92.08327 66.48282 L 92.2137 66.68013 L 92.34413 66.88844 L 92.47456 67.10599 L 92.605 67.3344 L 92.73541 67.57187 L 92.86584 67.81987 L 92.99628 68.07645 L 93.12671 68.3426 L 93.25714 68.61781 L 93.38757 68.90195 L 93.518 69.19449 L 93.64844 69.49562 L 93.77885 69.80518 L 93.90929 70.12202 L 94.03972 70.44746 L 94.17015 70.78001 L 94.30058 71.12003 L 94.43102 71.46684 L 94.56145 71.82127 L 94.69186 72.18121 L 94.8223 72.54843 L 94.95273 72.92068 L 95.08316 73.2999 L 95.2136 73.68349 L 95.34402 74.07306 L 95.47446 74.46718 L 95.60489 74.86647 L 95.7353 75.26967 L 95.86574 75.6769 L 95.99617 76.08818 L 96.1266 76.50336 L 96.25703 76.92096 L 96.38747 77.34196 L 96.5179 77.76524 L 96.64833 78.19142 L 96.77875 78.61908 L 96.90918 79.04866 L 97.03961 79.47939 L 97.17004 79.91124 L 97.30048 80.3444 L 97.43091 80.77739 L 97.56134 81.21071 L 97.69176 81.6437 L 97.82219 82.07652 L 97.95262 82.50822 L 98.08305 82.93944 L 98.21349 83.3687 L 98.34392 83.79683 L 98.47435 84.22253 L 98.60478 84.64581 L 98.73521 85.0665 L 98.86563 85.48474 L 98.99606 85.8996 L 99.1265 86.31088 L 99.25693 86.71828 L 99.38736 87.12163 L 99.51779 87.52043 L 99.64822 87.91472 L 99.77866 88.30414 L 99.90907 88.68805 L 100.0395 89.06677 L 100.16994 89.43967 L 100.30037 89.80656 L 100.4308 90.1665 L 100.56123 90.5206 L 100.69167 90.86742 L 100.82208 91.20775 L 100.95251 91.54063 L 101.08295 91.86559 L 101.21338 92.18259 L 101.34381 92.49216 L 101.47424 92.79312 L 101.60468 93.08583 L 101.7351 93.3698 L 101.86552 93.64517 L 101.99596 93.91165 L 102.12639 94.16776 L 102.25682 94.41591 L 102.38725 94.65323 L 102.51768 94.88162 L 102.64812 95.09901 L 102.77853 95.3075 L 102.90897 95.50496 L 103.0394 95.69254 L 103.16983 95.86894 L 103.30026 96.0353 L 103.4307 96.19064 L 103.56113 96.33546 L 103.69156 96.46893 L 103.82198 96.59125 L 103.95241 96.70268 L 104.08284 96.8023 L 104.21327 96.89189 L 104.3437 96.96867 L 104.47414 97.03493 L 104.60457 97.08902 L 104.73499 97.13211 L 104.86542 97.16322 L 104.99585 97.1833 L 105.12628 97.1914 L 105.25671 97.18816 L 105.38715 97.17294 L 105.51758 97.14621 L 105.64801 97.1083 L 105.77843 97.05858 L 105.90886 96.99767 L 106.03929 96.9246 L 106.16972 96.84119 L 106.30016 96.74529 L 106.43059 96.63919 L 106.56102 96.52078 L 106.69144 96.39215 L 106.82187 96.2522 L 106.9523 96.10107 L 107.08273 95.93924 L 107.21317 95.76689 L 107.3436 95.584 L 107.47403 95.39043 L 107.60446 95.18681 L 107.73488 94.97282 L 107.86531 94.74928 L 107.99574 94.51505 L 108.12617 94.27223 L 108.2566 94.01872 L 108.38704 93.75694 L 108.51747 93.48497 L 108.64789 93.20506 L 108.77832 92.91559 L 108.90875 92.61818 L 109.03918 92.31218 L 109.16962 91.99825 L 109.30005 91.67622 L 109.43048 91.34674 L 109.56091 91.00964 L 109.69133 90.66559 L 109.82176 90.31456 L 109.9522 89.95656 L 110.08263 89.59274 L 110.21306 89.2221 L 110.34349 88.8463 L 110.47392 88.46417 L 110.60434 88.0772 L 110.73477 87.68486 L 110.8652 87.28766 L 110.99564 86.88594 L 111.12607 86.48032 L 111.2565 86.07065 L 111.38693 85.65726 L 111.51736 85.24078 L 111.64778 84.8206 L 111.77821 84.39862 L 111.90865 83.97356 L 112.03908 83.54672 L 112.16951 83.11778 L 112.29994 82.68723 L 112.43037 82.25601 L 112.56079 81.82335 L 112.69122 81.39035 L 112.82166 80.95737 L 112.95209 80.52405 L 113.08252 80.0909 L 113.21295 79.6587 L 113.34338 79.22734 L 113.47382 78.7971 L 113.60423 78.36864 L 113.73466 77.9418 L 113.8651 77.5174 L 113.99553 77.09541 L 114.12596 76.6762 L 114.2564 76.26006 L 114.38683 75.84747 L 114.51726 75.43797 L 114.64767 75.03333 L 114.7781 74.6324 L 114.90854 74.23618 L 115.03897 73.84467 L 115.1694 73.45865 L 115.29984 73.07733 L 115.43027 72.70216 L 115.56068 72.333 L 115.69112 71.96982 L 115.82155 71.61313 L 115.95198 71.26306 L 116.08241 70.9203 L 116.21284 70.58418 L 116.34328 70.25648 L 116.47371 69.93542 L 116.60413 69.62328 L 116.73456 69.31825 L 116.86499 69.0223 L 116.83034 69.09877  " fill="none"/>
 <g transform="matrix(-0.41264,0.91083,-0.91083,-0.41264,78.07936,93.0702)">
 <g stroke-dasharray="none" stroke-dashoffset="0.0">
 <g stroke-linecap="round">
 <g stroke-linejoin="round">
 <path d=" M -2.07999 2.39998 C -1.69998 0.95998 -0.85318 0.28 0.0 0.0 C -0.85318 -0.28 -1.69998 -0.95998 -2.07999 -2.39998  " fill="none"/>
 </g>
 </g>
 </g>
  </g>
 <g transform="matrix(0.41272,-0.91081,0.91081,0.41272,116.91287,68.91661)">
 <g stroke-dasharray="none" stroke-dashoffset="0.0">
 <g stroke-linecap="round">
 <g stroke-linejoin="round">
 <path d=" M -2.07999 2.39998 C -1.69998 0.95998 -0.85318 0.28 0.0 0.0 C -0.85318 -0.28 -1.69998 -0.95998 -2.07999 -2.39998  " fill="none"/>
 </g>
 </g>
 </g>
  </g>
 </g>
 <g transform="translate(192.13443,84.52663)">
 <g fill="#000">
 <text style="stroke:none" transform="scale(1,-1) translate(2.85764,0)" text-anchor="middle"  font-size="10"> 
<g fill="#000">
 <g stroke="none"> x </g> </g>
 </text> 
</g>
 </g>
 <g transform="translate(101.029,160.80675)">
 <g fill="#000">
 <text style="stroke:none" transform="scale(1,-1) translate(2.6308,0)" text-anchor="middle"  font-size="10"> 
<g fill="#000">
 <g stroke="none"> y </g> </g>
 </text> 
</g>
 </g>
 </g>
 </g>
                                                </g> 
</svg> 
