<?xml version="1.0" encoding="UTF-8" standalone="no"?>
<!DOCTYPE svg PUBLIC "-//W3C//DTD SVG 1.1//EN" "http://www.w3.org/Graphics/SVG/1.1/DTD/svg11.dtd">
<svg xmlns="http://www.w3.org/2000/svg" xmlns:xlink="http://www.w3.org/1999/xlink" version="1.1" width="201.282pt" height="168.017pt" viewBox="0 0 201.282 168.017">
<g enable-background="new">
<path transform="matrix(1,0,0,-1,.856,167.818)" stroke-width=".19925" stroke-linecap="butt" stroke-miterlimit="10" stroke-linejoin="miter" fill="none" stroke="#808080" d="M 17.66013 79.27538 L 17.66013 82.11034 M 35.32027 79.27538 L 35.32027 82.11034 M 52.98041 79.27538 L 52.98041 82.11034 M 70.64055 79.27538 L 70.64055 82.11034 M 88.30069 79.27538 L 88.30069 82.11034 M 105.96082 79.27538 L 105.96082 82.11034 M 123.62096 79.27538 L 123.62096 82.11034 M 141.2811 79.27538 L 141.2811 82.11034 M 158.94124 79.27538 L 158.94124 82.11034 M 176.60138 79.27538 L 176.60138 82.11034 M 194.26152 79.27538 L 194.26152 82.11034 "/>
<path transform="matrix(1,0,0,-1,.856,167.818)" stroke-width=".19925" stroke-linecap="butt" stroke-miterlimit="10" stroke-linejoin="miter" fill="none" stroke="#808080" d="M 8.83006 78.56685 L 8.83006 82.81885 M 26.4902 78.56685 L 26.4902 82.81885 M 44.15034 78.56685 L 44.15034 82.81885 M 61.81047 78.56685 L 61.81047 82.81885 M 79.47061 78.56685 L 79.47061 82.81885 M 114.7909 78.56685 L 114.7909 82.81885 M 132.45104 78.56685 L 132.45104 82.81885 M 150.11116 78.56685 L 150.11116 82.81885 M 167.7713 78.56685 L 167.7713 82.81885 M 185.43144 78.56685 L 185.43144 82.81885 "/>
<path transform="matrix(1,0,0,-1,.856,167.818)" stroke-width=".19925" stroke-linecap="butt" stroke-miterlimit="10" stroke-linejoin="miter" fill="none" stroke="#808080" d="M 95.71329 14.67142 L 98.54822 14.67142 M 95.71329 29.34285 L 98.54822 29.34285 M 95.71329 44.01428 L 98.54822 44.01428 M 95.71329 58.68571 L 98.54822 58.68571 M 95.71329 73.35713 L 98.54822 73.35713 M 95.71329 88.02856 L 98.54822 88.02856 M 95.71329 102.7 L 98.54822 102.7 M 95.71329 117.37143 L 98.54822 117.37143 M 95.71329 132.04286 L 98.54822 132.04286 M 95.71329 146.71428 L 98.54822 146.71428 "/>
<path transform="matrix(1,0,0,-1,.856,167.818)" stroke-width=".19925" stroke-linecap="butt" stroke-miterlimit="10" stroke-linejoin="miter" fill="none" stroke="#808080" d="M 95.00478 7.33571 L 99.25671 7.33571 M 95.00478 22.00714 L 99.25671 22.00714 M 95.00478 36.67856 L 99.25671 36.67856 M 95.00478 51.34999 L 99.25671 51.34999 M 95.00478 66.02142 L 99.25671 66.02142 M 95.00478 95.36429 L 99.25671 95.36429 M 95.00478 110.0357 L 99.25671 110.0357 M 95.00478 124.70714 L 99.25671 124.70714 M 95.00478 139.37857 L 99.25671 139.37857 M 95.00478 154.05 L 99.25671 154.05 "/>
<path transform="matrix(1,0,0,-1,.856,167.818)" stroke-width=".3985" stroke-linecap="butt" stroke-miterlimit="10" stroke-linejoin="miter" fill="none" stroke="#000000" d="M 0 80.69286 L 192.269 80.69286 "/>
<path transform="matrix(1,0,0,-1,193.125,87.12513)" d="M 1.99252 0 L -1.19551 1.59401 L 0 0 L -1.19551 -1.59401 "/>
<path transform="matrix(1,0,0,-1,.856,167.818)" stroke-width=".3985" stroke-linecap="butt" stroke-miterlimit="10" stroke-linejoin="miter" fill="none" stroke="#000000" d="M 97.13075 0 L 97.13075 159.39319 "/>
<path transform="matrix(0,-1,-1,-0,97.986759,8.424805)" d="M 1.99252 0 L -1.19551 1.59401 L 0 0 L -1.19551 -1.59401 "/>
<symbol id="font_0_1">
<path d="M .57600006 0 C .59300008 0 .611 0 .611 .019999996 C .611 .040000008 .59300008 .040000008 .57600006 .040000008 L .035000005 .040000008 C .018 .040000008 0 .040000008 0 .019999996 C 0 0 .018 0 .035000005 0 L .57600006 0 Z "/>
</symbol>
<use xlink:href="#font_0_1" transform="matrix(9.9626,0,0,-9.9626,4.147896,96.900608)"/>
<symbol id="font_1_5">
<path d="M .39900003 .223 C .39900003 .34200005 .317 .44200004 .209 .44200004 C .16100002 .44200004 .118000019 .42600004 .082 .39100004 L .082 .586 C .10200001 .58000007 .135 .573 .16700001 .573 C .29 .573 .36 .66400006 .36 .67700007 C .36 .683 .357 .688 .35 .688 C .349 .688 .347 .688 .342 .68500009 C .322 .67600008 .273 .656 .20600002 .656 C .16600001 .656 .120000008 .66300007 .073 .6840001 C .065 .68700006 .06300001 .68700006 .061000009 .68700006 C .051000004 .68700006 .051000004 .679 .051000004 .66300007 L .051000004 .36700005 C .051000004 .34900005 .051000004 .34100003 .065 .34100003 C .07200001 .34100003 .074 .34400005 .07800001 .35000003 C .08900002 .36600004 .12600002 .42000006 .207 .42000006 C .259 .42000006 .284 .37400005 .292 .35600005 C .308 .31900005 .31 .28000004 .31 .23 C .31 .19500001 .31 .135 .286 .093 C .262 .054000006 .22500001 .028 .17900002 .028 C .106000009 .028 .049000008 .08100001 .032 .14000002 C .035 .13900002 .038000008 .13800001 .049000008 .13800001 C .082 .13800001 .09900001 .163 .09900001 .187 C .09900001 .21100001 .082 .23600002 .049000008 .23600002 C .035 .23600002 0 .22900002 0 .18300002 C 0 .097 .069000009 0 .18100001 0 C .297 0 .39900003 .096 .39900003 .223 Z "/>
</symbol>
<use xlink:href="#font_1_5" transform="matrix(9.9626,0,0,-9.9626,11.56713,99.41118)"/>
<use xlink:href="#font_0_1" transform="matrix(9.9626,0,0,-9.9626,21.806899,96.900608)"/>
<symbol id="font_1_4">
<path d="M .266 .165 L .266 .078 C .266 .042000005 .26400004 .031000002 .19000001 .031000002 L .16900002 .031000002 L .16900002 0 C .21000001 .003 .26200003 .003 .30400003 .003 C .34600003 .003 .39900003 .003 .44000004 0 L .44000004 .031000002 L .41900004 .031000002 C .34500004 .031000002 .34300003 .042000005 .34300003 .078 L .34300003 .165 L .44300003 .165 L .44300003 .19600001 L .34300003 .19600001 L .34300003 .651 C .34300003 .671 .34300003 .67700007 .32700003 .67700007 C .31800003 .67700007 .31500004 .67700007 .307 .665 L 0 .19600001 L 0 .165 L .266 .165 M .272 .19600001 L .028 .19600001 L .272 .569 L .272 .19600001 Z "/>
</symbol>
<use xlink:href="#font_1_4" transform="matrix(9.9626,0,0,-9.9626,29.007956,99.192)"/>
<use xlink:href="#font_0_1" transform="matrix(9.9626,0,0,-9.9626,39.466897,96.900608)"/>
<symbol id="font_1_3">
<path d="M .24800003 .37400005 C .33 .40100003 .388 .47100006 .388 .55 C .388 .632 .3 .688 .204 .688 C .10300001 .688 .027000003 .628 .027000003 .55200007 C .027000003 .519 .049000004 .5 .078 .5 C .109000008 .5 .12900001 .522 .12900001 .55100008 C .12900001 .6010001 .082 .6010001 .067 .6010001 C .098 .65000006 .164 .66300007 .20000002 .66300007 C .24100003 .66300007 .29600004 .64100006 .29600004 .55100008 C .29600004 .53900006 .29400004 .48100005 .268 .43700005 C .238 .38900004 .204 .38600005 .17900002 .38500003 C .171 .38400004 .14700002 .38200004 .14000002 .38200004 C .132 .38100005 .125 .38000003 .125 .37000004 C .125 .35900004 .132 .35900004 .14900002 .35900004 L .19300002 .35900004 C .275 .35900004 .312 .29100005 .312 .193 C .312 .057000005 .24300003 .028 .199 .028 C .15600002 .028 .081 .045 .046000005 .104 C .081 .09900001 .11200001 .12100001 .11200001 .15900001 C .11200001 .19500001 .085 .215 .056 .215 C .031999999 .215 0 .201 0 .157 C 0 .06600001 .093 0 .20200002 0 C .32400004 0 .41500003 .091000009 .41500003 .193 C .41500003 .27500005 .35200004 .35300005 .24800003 .37400005 Z "/>
</symbol>
<use xlink:href="#font_1_3" transform="matrix(9.9626,0,0,-9.9626,46.80743,99.41118)"/>
<use xlink:href="#font_0_1" transform="matrix(9.9626,0,0,-9.9626,57.126897,96.900608)"/>
<symbol id="font_1_2">
<path d="M .07700001 .07700001 L .18300002 .18 C .33900003 .31800003 .39900003 .372 .39900003 .47200004 C .39900003 .586 .30900003 .666 .18700002 .666 C .074 .666 0 .574 0 .485 C 0 .42900003 .05 .42900003 .053000008 .42900003 C .07000001 .42900003 .105000007 .441 .105000007 .48200003 C .105000007 .508 .08700001 .53400006 .052000006 .53400006 C .044000005 .53400006 .042000008 .53400006 .039 .53300008 C .062000004 .59800007 .11600001 .63500007 .17400001 .63500007 C .26500003 .63500007 .308 .554 .308 .47200004 C .308 .39200003 .25800003 .31300003 .20300003 .25100003 L .011000004 .037 C 0 .026 0 .024 0 0 L .37100003 0 L .39900003 .17400001 L .374 .17400001 C .36900003 .14400001 .36200003 .1 .352 .085 C .345 .07700001 .279 .07700001 .257 .07700001 L .07700001 .07700001 Z "/>
</symbol>
<use xlink:href="#font_1_2" transform="matrix(9.9626,0,0,-9.9626,64.54713,99.192)"/>
<use xlink:href="#font_0_1" transform="matrix(9.9626,0,0,-9.9626,74.786899,96.900608)"/>
<symbol id="font_1_1">
<path d="M .205 .64000007 C .205 .66400006 .205 .666 .18200003 .666 C .120000008 .60200008 .032000007 .60200008 0 .60200008 L 0 .57100006 C .020000004 .57100006 .07900001 .57100006 .13100001 .597 L .13100001 .079 C .13100001 .043 .128 .031000002 .038000004 .031000002 L .0060000049 .031000002 L .0060000049 0 C .04100001 .003 .128 .003 .168 .003 C .20800002 .003 .29500003 .003 .33000005 0 L .33000005 .031000002 L .29800005 .031000002 C .20800002 .031000002 .205 .042000005 .205 .079 L .205 .64000007 Z "/>
</symbol>
<use xlink:href="#font_1_1" transform="matrix(9.9626,0,0,-9.9626,82.59567,99.192)"/>
<use xlink:href="#font_1_1" transform="matrix(9.9626,0,0,-9.9626,114.04067,99.192)"/>
<use xlink:href="#font_1_2" transform="matrix(9.9626,0,0,-9.9626,131.31212,99.192)"/>
<use xlink:href="#font_1_3" transform="matrix(9.9626,0,0,-9.9626,148.89243,99.41118)"/>
<use xlink:href="#font_1_4" transform="matrix(9.9626,0,0,-9.9626,166.41295,99.192)"/>
<use xlink:href="#font_1_5" transform="matrix(9.9626,0,0,-9.9626,184.29213,99.41118)"/>
<use xlink:href="#font_0_1" transform="matrix(9.9626,0,0,-9.9626,80.4359,160.9856)"/>
<use xlink:href="#font_1_5" transform="matrix(9.9626,0,0,-9.9626,87.85613,163.49617)"/>
<use xlink:href="#font_0_1" transform="matrix(9.9626,0,0,-9.9626,80.4359,146.31459)"/>
<use xlink:href="#font_1_4" transform="matrix(9.9626,0,0,-9.9626,87.636959,148.60599)"/>
<use xlink:href="#font_0_1" transform="matrix(9.9626,0,0,-9.9626,80.4359,131.6436)"/>
<use xlink:href="#font_1_3" transform="matrix(9.9626,0,0,-9.9626,87.77643,134.15418)"/>
<use xlink:href="#font_0_1" transform="matrix(9.9626,0,0,-9.9626,80.4359,116.9726)"/>
<use xlink:href="#font_1_2" transform="matrix(9.9626,0,0,-9.9626,87.85613,119.264)"/>
<use xlink:href="#font_0_1" transform="matrix(9.9626,0,0,-9.9626,80.4359,102.3006)"/>
<use xlink:href="#font_1_1" transform="matrix(9.9626,0,0,-9.9626,88.244678,104.591999)"/>
<use xlink:href="#font_1_1" transform="matrix(9.9626,0,0,-9.9626,88.244678,75.665)"/>
<use xlink:href="#font_1_2" transform="matrix(9.9626,0,0,-9.9626,87.85613,60.993997)"/>
<use xlink:href="#font_1_3" transform="matrix(9.9626,0,0,-9.9626,87.77643,46.541177)"/>
<use xlink:href="#font_1_4" transform="matrix(9.9626,0,0,-9.9626,87.636959,31.650986)"/>
<use xlink:href="#font_1_5" transform="matrix(9.9626,0,0,-9.9626,87.85613,17.199173)"/>
<clipPath id="cp2">
<path transform="matrix(1,0,0,-1,.856,167.818)" d="M 0 0 L 194.26152 0 L 194.26152 161.38571 L 0 161.38571 Z "/>
</clipPath>
<g clip-path="url(#cp2)">
<path transform="matrix(1,0,0,-1,.856,167.818)" stroke-width=".3985" stroke-linecap="butt" stroke-miterlimit="10" stroke-linejoin="miter" fill="none" stroke="#000000" d="M 44.15034 80.69286 L 44.50471 85.7762 L 44.85909 87.86864 L 45.21347 89.46695 L 45.56784 90.80807 L 45.92224 91.98236 L 46.27661 93.03871 L 46.631 94.00584 L 46.98537 94.9011 L 47.33975 95.7334 L 47.69414 96.5195 L 48.04852 97.2632 L 48.4029 97.96964 L 48.75728 98.64334 L 49.11165 99.28845 L 49.46603 99.90698 L 49.82042 100.50221 L 50.17479 101.07425 L 50.52917 101.63014 L 50.88356 102.16566 L 51.23795 102.68414 L 51.59232 103.18665 L 51.9467 103.67416 L 52.30107 104.14864 L 52.65547 104.60962 L 53.00984 105.05827 L 53.36423 105.49562 L 53.7186 105.92125 L 54.07297 106.33733 L 54.42737 106.7424 L 54.78174 107.1384 L 55.13612 107.52527 L 55.4905 107.90424 L 55.84488 108.27411 L 56.19926 108.63678 L 56.55365 108.99008 L 56.90802 109.33661 L 57.2624 109.67801 L 57.61678 110.0093 L 57.97118 110.33794 L 58.32555 110.65674 L 58.67992 110.97101 L 59.0343 111.27837 L 59.38869 111.58002 L 59.74307 111.87595 L 60.09744 112.16689 L 60.45183 112.45122 L 60.8062 112.73172 L 61.1606 113.00667 L 61.51497 113.27647 L 61.86935 113.54071 L 62.22372 113.80186 L 62.57811 114.05568 L 62.9325 114.30803 L 63.28688 114.55466 L 63.64125 114.79688 L 63.99562 115.03426 L 64.35 115.26857 L 64.70439 115.49875 L 65.05878 115.72426 L 65.41315 115.94682 L 65.76753 116.16411 L 66.1219 116.3786 L 66.4763 116.58899 L 66.83067 116.79543 L 67.18506 116.99876 L 67.53943 117.19904 L 67.89381 117.39563 L 68.2482 117.589 L 68.60257 117.77928 L 68.95695 117.96532 L 69.31133 118.14842 L 69.66573 118.32887 L 70.0201 118.50597 L 70.37448 118.67952 L 70.72885 118.84854 L 71.08324 119.01712 L 71.43762 119.18289 L 71.792 119.34415 L 72.14638 119.50244 L 72.50076 119.65929 L 72.85513 119.81186 L 73.20952 119.96019 L 73.5639 120.10794 L 73.91827 120.25377 L 74.27266 120.39653 L 74.62703 120.53575 L 74.98143 120.67278 L 75.3358 120.80687 L 75.69019 120.93921 L 76.04456 121.06876 L 76.39894 121.19377 L 76.75333 121.31686 L 77.10771 121.4376 L 77.46208 121.556 L 77.81647 121.67162 L 78.17085 121.78606 L 78.52522 121.89902 L 78.87961 122.0095 L 79.23398 122.11469 L 79.58836 122.22238 L 79.94275 122.32478 L 80.29713 122.42397 L 80.6515 122.52197 L 81.00589 122.61615 L 81.36026 122.71034 L 81.71466 122.79955 L 82.06903 122.88861 L 82.42342 122.97546 L 82.77779 123.0585 L 83.13217 123.14067 L 83.48656 123.21945 L 83.84094 123.29794 L 84.19531 123.37335 L 84.54968 123.44568 L 84.90407 123.517 L 85.25847 123.58551 L 85.61284 123.65152 L 85.96722 123.71696 L 86.3216 123.77917 L 86.67598 123.83917 L 87.03036 123.89757 L 87.38474 123.95406 L 87.73912 124.00775 L 88.09349 124.05998 L 88.44789 124.10986 L 88.80226 124.15666 L 89.15665 124.20348 L 89.51102 124.24748 L 89.8654 124.28856 L 90.21979 124.32877 L 90.57417 124.36647 L 90.92854 124.40196 L 91.28293 124.43645 L 91.6373 124.46799 L 91.9917 124.49821 L 92.34607 124.52492 L 92.70045 124.55089 L 93.05482 124.57436 L 93.40921 124.59636 L 93.7636 124.61603 L 94.11798 124.63304 L 94.47235 124.64932 L 94.82672 124.66371 L 95.18112 124.67485 L 95.5355 124.68454 L 95.88988 124.69305 L 96.24425 124.69936 L 96.59863 124.70244 L 96.95302 124.70494 L 97.3074 124.70494 L 97.66177 124.70244 L 98.01616 124.69936 L 98.37053 124.69305 L 98.72493 124.68454 L 99.0793 124.67485 L 99.43369 124.66371 L 99.78806 124.64932 L 100.14244 124.63304 L 100.49683 124.61603 L 100.85121 124.59636 L 101.20558 124.57436 L 101.55997 124.55089 L 101.91434 124.52492 L 102.26874 124.49821 L 102.62311 124.46799 L 102.9775 124.43645 L 103.33186 124.40196 L 103.68626 124.36647 L 104.04063 124.32877 L 104.395 124.28856 L 104.74939 124.24748 L 105.10378 124.20348 L 105.45816 124.15666 L 105.81255 124.10986 L 106.16692 124.06013 L 106.52129 124.00775 L 106.87567 123.95406 L 107.23006 123.89757 L 107.58444 123.83917 L 107.93881 123.77917 L 108.2932 123.71696 L 108.64757 123.65152 L 109.00197 123.58551 L 109.35634 123.517 L 109.71072 123.44612 L 110.0651 123.37335 L 110.41948 123.29794 L 110.77386 123.21945 L 111.12825 123.14067 L 111.48262 123.0585 L 111.837 122.9759 L 112.19138 122.88861 L 112.54578 122.8003 L 112.90015 122.71065 L 113.25453 122.61748 L 113.6089 122.52197 L 113.9633 122.42426 L 114.31767 122.32478 L 114.67204 122.22238 L 115.02643 122.11705 L 115.3808 122.01068 L 115.7352 121.89784 L 116.08957 121.78796 L 116.44395 121.67278 L 116.79832 121.5566 L 117.15271 121.4376 L 117.5071 121.31686 L 117.86148 121.19289 L 118.21585 121.06746 L 118.57024 120.93921 L 118.9246 120.80687 L 119.27899 120.67278 L 119.63338 120.53442 L 119.98775 120.39653 L 120.34213 120.25465 L 120.6965 120.11043 L 121.0509 119.96268 L 121.40527 119.81186 L 121.75966 119.65987 L 122.11403 119.502 L 122.46843 119.34444 L 122.8228 119.18289 L 123.17719 119.0196 L 123.53156 118.85074 L 123.88593 118.67952 L 124.24033 118.50597 L 124.5947 118.32887 L 124.94908 118.14958 L 125.30345 117.96576 L 125.65784 117.7787 L 126.01222 117.58943 L 126.36661 117.39665 L 126.72098 117.20021 L 127.07536 116.99936 L 127.42973 116.79556 L 127.78413 116.59016 L 128.1385 116.3792 L 128.49289 116.16454 L 128.84726 115.94682 L 129.20163 115.72484 L 129.55603 115.49919 L 129.9104 115.2693 L 130.26479 115.03558 L 130.61916 114.79776 L 130.97356 114.5551 L 131.32793 114.30891 L 131.68231 114.05685 L 132.03668 113.802 L 132.39107 113.54189 L 132.74546 113.27707 L 133.09984 113.00755 L 133.45421 112.7326 L 133.80858 112.45195 L 134.16297 112.1676 L 134.51735 111.87683 L 134.87174 111.58134 L 135.2261 111.27911 L 135.58049 110.97188 L 135.93486 110.65807 L 136.28926 110.33807 L 136.64363 110.01077 L 136.99802 109.67801 L 137.35239 109.3388 L 137.70677 108.99008 L 138.06116 108.63722 L 138.41553 108.27515 L 138.76992 107.90468 L 139.12429 107.52777 L 139.47869 107.14046 L 139.83306 106.74284 L 140.18744 106.33806 L 140.54181 105.92331 L 140.8962 105.49637 L 141.25058 105.05959 L 141.60497 104.61108 L 141.95934 104.15027 L 142.31372 103.67578 L 142.66809 103.18825 L 143.02249 102.68562 L 143.37686 102.16713 L 143.73123 101.63177 L 144.08562 101.07631 L 144.43999 100.50383 L 144.79439 99.90875 L 145.14876 99.29063 L 145.50315 98.64554 L 145.85752 97.97183 L 146.2119 97.2654 L 146.56629 96.52141 L 146.92067 95.73561 L 147.27504 94.90402 L 147.62943 94.00879 L 147.98381 93.04164 L 148.33818 91.98515 L 148.69257 90.8113 L 149.04694 89.47134 L 149.40132 87.8748 L 149.7557 85.78339 L 150.11009 80.97359 "/>
<path transform="matrix(1,0,0,-1,.856,167.818)" stroke-width=".3985" stroke-linecap="butt" stroke-miterlimit="10" stroke-linejoin="miter" fill="none" stroke="#000000" d="M 44.15034 80.69286 L 44.50471 75.6095 L 44.85909 73.51704 L 45.21347 71.91875 L 45.56784 70.57762 L 45.92224 69.40334 L 46.27661 68.34698 L 46.631 67.37984 L 46.98537 66.4846 L 47.33975 65.65228 L 47.69414 64.8662 L 48.04852 64.1225 L 48.4029 63.41606 L 48.75728 62.74236 L 49.11165 62.09724 L 49.46603 61.47871 L 49.82042 60.88347 L 50.17479 60.31145 L 50.52917 59.75555 L 50.88356 59.22003 L 51.23795 58.70155 L 51.59232 58.19905 L 51.9467 57.71152 L 52.30107 57.23705 L 52.65547 56.77606 L 53.00984 56.32741 L 53.36423 55.89006 L 53.7186 55.46445 L 54.07297 55.04837 L 54.42737 54.6433 L 54.78174 54.2473 L 55.13612 53.86041 L 55.4905 53.48145 L 55.84488 53.11159 L 56.19926 52.74892 L 56.55365 52.39561 L 56.90802 52.04909 L 57.2624 51.70769 L 57.61678 51.3764 L 57.97118 51.04774 L 58.32555 50.72894 L 58.67992 50.41467 L 59.0343 50.10733 L 59.38869 49.80566 L 59.74307 49.50975 L 60.09744 49.21881 L 60.45183 48.93448 L 60.8062 48.65398 L 61.1606 48.37903 L 61.51497 48.10922 L 61.86935 47.84499 L 62.22372 47.58383 L 62.57811 47.33002 L 62.9325 47.07767 L 63.28688 46.83104 L 63.64125 46.5888 L 63.99562 46.35143 L 64.35 46.11713 L 64.70439 45.88693 L 65.05878 45.66142 L 65.41315 45.43887 L 65.76753 45.22159 L 66.1219 45.0071 L 66.4763 44.79669 L 66.83067 44.59027 L 67.18506 44.38693 L 67.53943 44.18666 L 67.89381 43.99007 L 68.2482 43.79669 L 68.60257 43.60641 L 68.95695 43.42036 L 69.31133 43.23727 L 69.66573 43.05681 L 70.0201 42.87973 L 70.37448 42.70616 L 70.72885 42.53716 L 71.08324 42.36858 L 71.43762 42.2028 L 71.792 42.04155 L 72.14638 41.88326 L 72.50076 41.72641 L 72.85513 41.57384 L 73.20952 41.4255 L 73.5639 41.27776 L 73.91827 41.13193 L 74.27266 40.98917 L 74.62703 40.84995 L 74.98143 40.7129 L 75.3358 40.57881 L 75.69019 40.44649 L 76.04456 40.31693 L 76.39894 40.19193 L 76.75333 40.06883 L 77.10771 39.94809 L 77.46208 39.8297 L 77.81647 39.71408 L 78.17085 39.59964 L 78.52522 39.48668 L 78.87961 39.37619 L 79.23398 39.27101 L 79.58836 39.16331 L 79.94275 39.06091 L 80.29713 38.96172 L 80.6515 38.86371 L 81.00589 38.76953 L 81.36026 38.67534 L 81.71466 38.58614 L 82.06903 38.49709 L 82.42342 38.41022 L 82.77779 38.3272 L 83.13217 38.24503 L 83.48656 38.16624 L 83.84094 38.08774 L 84.19531 38.01234 L 84.54968 37.94002 L 84.90407 37.8687 L 85.25847 37.80019 L 85.61284 37.73418 L 85.96722 37.66873 L 86.3216 37.60652 L 86.67598 37.54652 L 87.03036 37.48813 L 87.38474 37.43164 L 87.73912 37.37794 L 88.09349 37.32571 L 88.44789 37.27583 L 88.80226 37.22903 L 89.15665 37.18222 L 89.51102 37.13821 L 89.8654 37.09714 L 90.21979 37.05693 L 90.57417 37.01923 L 90.92854 36.98373 L 91.28293 36.94925 L 91.6373 36.91771 L 91.9917 36.88747 L 92.34607 36.86078 L 92.70045 36.83481 L 93.05482 36.81134 L 93.40921 36.78932 L 93.7636 36.76967 L 94.11798 36.75264 L 94.47235 36.73636 L 94.82672 36.72198 L 95.18112 36.71085 L 95.5355 36.70116 L 95.88988 36.69264 L 96.24425 36.68634 L 96.59863 36.68324 L 96.95302 36.68076 L 97.3074 36.68076 L 97.66177 36.68324 L 98.01616 36.68634 L 98.37053 36.69264 L 98.72493 36.70116 L 99.0793 36.71085 L 99.43369 36.72198 L 99.78806 36.73636 L 100.14244 36.75264 L 100.49683 36.76967 L 100.85121 36.78932 L 101.20558 36.81134 L 101.55997 36.83481 L 101.91434 36.86078 L 102.26874 36.88747 L 102.62311 36.91771 L 102.9775 36.94925 L 103.33186 36.98373 L 103.68626 37.01923 L 104.04063 37.05693 L 104.395 37.09714 L 104.74939 37.13821 L 105.10378 37.18222 L 105.45816 37.22903 L 105.81255 37.27583 L 106.16692 37.32556 L 106.52129 37.37794 L 106.87567 37.43164 L 107.23006 37.48813 L 107.58444 37.54652 L 107.93881 37.60652 L 108.2932 37.66873 L 108.64757 37.73418 L 109.00197 37.80019 L 109.35634 37.8687 L 109.71072 37.93958 L 110.0651 38.01234 L 110.41948 38.08774 L 110.77386 38.16624 L 111.12825 38.24503 L 111.48262 38.3272 L 111.837 38.40977 L 112.19138 38.49709 L 112.54578 38.58539 L 112.90015 38.67505 L 113.25453 38.76822 L 113.6089 38.86371 L 113.9633 38.96143 L 114.31767 39.06091 L 114.67204 39.16331 L 115.02643 39.26865 L 115.3808 39.37502 L 115.7352 39.48784 L 116.08957 39.59773 L 116.44395 39.7129 L 116.79832 39.8291 L 117.15271 39.94809 L 117.5071 40.06883 L 117.86148 40.19281 L 118.21585 40.31824 L 118.57024 40.44649 L 118.9246 40.57881 L 119.27899 40.7129 L 119.63338 40.85127 L 119.98775 40.98917 L 120.34213 41.13104 L 120.6965 41.27527 L 121.0509 41.42302 L 121.40527 41.57384 L 121.75966 41.72581 L 122.11403 41.8837 L 122.46843 42.04126 L 122.8228 42.2028 L 123.17719 42.36609 L 123.53156 42.53496 L 123.88593 42.70616 L 124.24033 42.87973 L 124.5947 43.05681 L 124.94908 43.2361 L 125.30345 43.41992 L 125.65784 43.607 L 126.01222 43.79625 L 126.36661 43.98904 L 126.72098 44.18549 L 127.07536 44.38634 L 127.42973 44.59013 L 127.78413 44.79553 L 128.1385 45.0065 L 128.49289 45.22115 L 128.84726 45.43887 L 129.20163 45.66086 L 129.55603 45.88649 L 129.9104 46.1164 L 130.26479 46.35011 L 130.61916 46.58794 L 130.97356 46.8306 L 131.32793 47.07678 L 131.68231 47.32884 L 132.03668 47.5837 L 132.39107 47.84381 L 132.74546 48.10863 L 133.09984 48.37814 L 133.45421 48.65309 L 133.80858 48.93375 L 134.16297 49.21808 L 134.51735 49.50887 L 134.87174 49.80435 L 135.2261 50.10658 L 135.58049 50.41382 L 135.93486 50.72763 L 136.28926 51.0476 L 136.64363 51.37492 L 136.99802 51.70769 L 137.35239 52.04689 L 137.70677 52.39561 L 138.06116 52.74847 L 138.41553 53.11057 L 138.76992 53.481 L 139.12429 53.85793 L 139.47869 54.24524 L 139.83306 54.64285 L 140.18744 55.04764 L 140.54181 55.46239 L 140.8962 55.88933 L 141.25058 56.32611 L 141.60497 56.77461 L 141.95934 57.23543 L 142.31372 57.70992 L 142.66809 58.19743 L 143.02249 58.70007 L 143.37686 59.21857 L 143.73123 59.75392 L 144.08562 60.30939 L 144.43999 60.88187 L 144.79439 61.47694 L 145.14876 62.09506 L 145.50315 62.74016 L 145.85752 63.41386 L 146.2119 64.1203 L 146.56629 64.86427 L 146.92067 65.65009 L 147.27504 66.48166 L 147.62943 67.3769 L 147.98381 68.34404 L 148.33818 69.40053 L 148.69257 70.5744 L 149.04694 71.91435 L 149.40132 73.5109 L 149.7557 75.60231 L 150.11009 80.41211 "/>
</g>
<symbol id="font_3_1">
<path d="M .305 .31300003 C .311 .33900003 .334 .43100003 .404 .43100003 C .409 .43100003 .433 .43100003 .454 .418 C .426 .41300003 .40600003 .388 .40600003 .36400003 C .40600003 .34800003 .417 .32900004 .444 .32900004 C .46600003 .32900004 .498 .34700004 .498 .38700003 C .498 .43900005 .439 .45300005 .405 .45300005 C .347 .45300005 .312 .40000005 .3 .37700004 C .275 .44300003 .221 .45300005 .19200002 .45300005 C .08800001 .45300005 .031000002 .32400004 .031000002 .29900003 C .031000002 .28900004 .041 .28900004 .043000007 .28900004 C .051000008 .28900004 .054000006 .291 .056 .3 C .09 .40600003 .156 .43100003 .19000001 .43100003 C .209 .43100003 .244 .42200003 .244 .36400003 C .244 .33300004 .22700002 .26600004 .19000001 .126 C .17400001 .064 .13900002 .022000002 .095000009 .022000002 C .08900001 .022000002 .06600001 .022000002 .045 .035 C .07000001 .040000004 .09200001 .061 .09200001 .089 C .09200001 .116000007 .07000001 .124000009 .055000009 .124000009 C .025 .124000009 0 .098000008 0 .06600001 C 0 .020000002 .050000006 0 .094000007 0 C .16000001 0 .19600001 .07000001 .19900002 .076000008 C .21100001 .039 .24700003 0 .307 0 C .41 0 .467 .12900001 .467 .15400002 C .467 .16400002 .458 .16400002 .455 .16400002 C .446 .16400002 .444 .16000001 .442 .15300001 C .409 .046 .341 .022000002 .30900003 .022000002 C .27 .022000002 .254 .054 .254 .08800001 C .254 .11000001 .26 .13200002 .271 .17600002 L .305 .31300003 Z "/>
</symbol>
<use xlink:href="#font_3_1" transform="matrix(9.9626,0,0,-9.9626,192.55692,83.71558)"/>
<symbol id="font_3_2">
<path d="M .45700003 .586 C .461 .6 .461 .602 .461 .609 C .461 .62700006 .447 .63600006 .432 .63600006 C .42200003 .63600006 .40600003 .63 .397 .615 C .395 .61 .387 .579 .38300003 .561 C .37600003 .535 .36900003 .508 .363 .48100005 L .318 .301 C .314 .286 .271 .21600002 .20500002 .21600002 C .15400002 .21600002 .143 .26000003 .143 .29700003 C .143 .34300003 .16000001 .40500004 .194 .49300004 C .21000001 .53400006 .21400002 .545 .21400002 .56500008 C .21400002 .61 .18200001 .6470001 .13200002 .6470001 C .037 .6470001 0 .50200006 0 .49300004 C 0 .48300005 .01 .48300005 .012 .48300005 C .022000002 .48300005 .023 .485 .028000003 .50100007 C .055000009 .595 .095000009 .625 .12900001 .625 C .13700001 .625 .15400002 .625 .15400002 .59300008 C .15400002 .568 .14400001 .54200008 .13700001 .523 C .097 .41700004 .079 .36 .079 .31300003 C .079 .224 .142 .194 .201 .194 C .24000003 .194 .274 .21100001 .30200003 .23900002 C .289 .187 .277 .13800001 .237 .08500001 C .21100001 .051 .17300001 .022 .127 .022 C .113000009 .022 .068 .025000006 .051000008 .06400001 C .067 .06400001 .080000009 .06400001 .094000007 .076000008 C .104 .08500001 .11400001 .098000008 .11400001 .117000009 C .11400001 .148 .087000008 .15200001 .07700001 .15200001 C .054000006 .15200001 .021 .136 .021 .087000008 C .021 .037 .065000008 0 .127 0 C .23 0 .333 .091000009 .361 .20400001 L .45700003 .586 Z "/>
</symbol>
<use xlink:href="#font_3_2" transform="matrix(9.9626,0,0,-9.9626,101.79392,9.652334)"/>
</g>
</svg>
