<?xml version="1.0" encoding="UTF-8" standalone="no"?>
<!DOCTYPE svg PUBLIC "-//W3C//DTD SVG 1.1//EN" "http://www.w3.org/Graphics/SVG/1.1/DTD/svg11.dtd">
<svg xmlns="http://www.w3.org/2000/svg" xmlns:xlink="http://www.w3.org/1999/xlink" version="1.1" width="201.282pt" height="168.017pt" viewBox="0 0 201.282 168.017">
<g enable-background="new">
<path transform="matrix(1,0,0,-1,.856,167.818)" stroke-width=".19925" stroke-linecap="butt" stroke-miterlimit="10" stroke-linejoin="miter" fill="none" stroke="#808080" d="M 17.66013 79.27538 L 17.66013 82.11034 M 35.32027 79.27538 L 35.32027 82.11034 M 52.98041 79.27538 L 52.98041 82.11034 M 70.64055 79.27538 L 70.64055 82.11034 M 88.30069 79.27538 L 88.30069 82.11034 M 105.96082 79.27538 L 105.96082 82.11034 M 123.62096 79.27538 L 123.62096 82.11034 M 141.2811 79.27538 L 141.2811 82.11034 M 158.94124 79.27538 L 158.94124 82.11034 M 176.60138 79.27538 L 176.60138 82.11034 M 194.26152 79.27538 L 194.26152 82.11034 "/>
<path transform="matrix(1,0,0,-1,.856,167.818)" stroke-width=".19925" stroke-linecap="butt" stroke-miterlimit="10" stroke-linejoin="miter" fill="none" stroke="#808080" d="M 8.83006 78.56685 L 8.83006 82.81885 M 26.4902 78.56685 L 26.4902 82.81885 M 44.15034 78.56685 L 44.15034 82.81885 M 61.81047 78.56685 L 61.81047 82.81885 M 79.47061 78.56685 L 79.47061 82.81885 M 114.7909 78.56685 L 114.7909 82.81885 M 132.45104 78.56685 L 132.45104 82.81885 M 150.11116 78.56685 L 150.11116 82.81885 M 167.7713 78.56685 L 167.7713 82.81885 M 185.43144 78.56685 L 185.43144 82.81885 "/>
<path transform="matrix(1,0,0,-1,.856,167.818)" stroke-width=".19925" stroke-linecap="butt" stroke-miterlimit="10" stroke-linejoin="miter" fill="none" stroke="#808080" d="M 95.71329 14.67142 L 98.54822 14.67142 M 95.71329 29.34285 L 98.54822 29.34285 M 95.71329 44.01428 L 98.54822 44.01428 M 95.71329 58.68571 L 98.54822 58.68571 M 95.71329 73.35713 L 98.54822 73.35713 M 95.71329 88.02856 L 98.54822 88.02856 M 95.71329 102.7 L 98.54822 102.7 M 95.71329 117.37143 L 98.54822 117.37143 M 95.71329 132.04286 L 98.54822 132.04286 M 95.71329 146.71428 L 98.54822 146.71428 "/>
<path transform="matrix(1,0,0,-1,.856,167.818)" stroke-width=".19925" stroke-linecap="butt" stroke-miterlimit="10" stroke-linejoin="miter" fill="none" stroke="#808080" d="M 95.00478 7.33571 L 99.25671 7.33571 M 95.00478 22.00714 L 99.25671 22.00714 M 95.00478 36.67856 L 99.25671 36.67856 M 95.00478 51.34999 L 99.25671 51.34999 M 95.00478 66.02142 L 99.25671 66.02142 M 95.00478 95.36429 L 99.25671 95.36429 M 95.00478 110.0357 L 99.25671 110.0357 M 95.00478 124.70714 L 99.25671 124.70714 M 95.00478 139.37857 L 99.25671 139.37857 M 95.00478 154.05 L 99.25671 154.05 "/>
<path transform="matrix(1,0,0,-1,.856,167.818)" stroke-width=".3985" stroke-linecap="butt" stroke-miterlimit="10" stroke-linejoin="miter" fill="none" stroke="#000000" d="M 0 80.69286 L 192.269 80.69286 "/>
<path transform="matrix(1,0,0,-1,193.125,87.12513)" d="M 1.99252 0 L -1.19551 1.59401 L 0 0 L -1.19551 -1.59401 "/>
<path transform="matrix(1,0,0,-1,.856,167.818)" stroke-width=".3985" stroke-linecap="butt" stroke-miterlimit="10" stroke-linejoin="miter" fill="none" stroke="#000000" d="M 97.13075 0 L 97.13075 159.39319 "/>
<path transform="matrix(0,-1,-1,-0,97.986759,8.424805)" d="M 1.99252 0 L -1.19551 1.59401 L 0 0 L -1.19551 -1.59401 "/>
<symbol id="font_0_1">
<path d="M .57600006 0 C .59300008 0 .611 0 .611 .019999996 C .611 .040000008 .59300008 .040000008 .57600006 .040000008 L .035000005 .040000008 C .018 .040000008 0 .040000008 0 .019999996 C 0 0 .018 0 .035000005 0 L .57600006 0 Z "/>
</symbol>
<use xlink:href="#font_0_1" transform="matrix(9.9626,0,0,-9.9626,4.147896,96.900608)"/>
<symbol id="font_1_5">
<path d="M .39900003 .223 C .39900003 .34200005 .317 .44200004 .209 .44200004 C .16100002 .44200004 .118000019 .42600004 .082 .39100004 L .082 .586 C .10200001 .58000007 .135 .573 .16700001 .573 C .29 .573 .36 .66400006 .36 .67700007 C .36 .683 .357 .688 .35 .688 C .349 .688 .347 .688 .342 .68500009 C .322 .67600008 .273 .656 .20600002 .656 C .16600001 .656 .120000008 .66300007 .073 .6840001 C .065 .68700006 .06300001 .68700006 .061000009 .68700006 C .051000004 .68700006 .051000004 .679 .051000004 .66300007 L .051000004 .36700005 C .051000004 .34900005 .051000004 .34100003 .065 .34100003 C .07200001 .34100003 .074 .34400005 .07800001 .35000003 C .08900002 .36600004 .12600002 .42000006 .207 .42000006 C .259 .42000006 .284 .37400005 .292 .35600005 C .308 .31900005 .31 .28000004 .31 .23 C .31 .19500001 .31 .135 .286 .093 C .262 .054000006 .22500001 .028 .17900002 .028 C .106000009 .028 .049000008 .08100001 .032 .14000002 C .035 .13900002 .038000008 .13800001 .049000008 .13800001 C .082 .13800001 .09900001 .163 .09900001 .187 C .09900001 .21100001 .082 .23600002 .049000008 .23600002 C .035 .23600002 0 .22900002 0 .18300002 C 0 .097 .069000009 0 .18100001 0 C .297 0 .39900003 .096 .39900003 .223 Z "/>
</symbol>
<use xlink:href="#font_1_5" transform="matrix(9.9626,0,0,-9.9626,11.56713,99.41118)"/>
<use xlink:href="#font_0_1" transform="matrix(9.9626,0,0,-9.9626,21.806899,96.900608)"/>
<symbol id="font_1_4">
<path d="M .266 .165 L .266 .078 C .266 .042000005 .26400004 .031000002 .19000001 .031000002 L .16900002 .031000002 L .16900002 0 C .21000001 .003 .26200003 .003 .30400003 .003 C .34600003 .003 .39900003 .003 .44000004 0 L .44000004 .031000002 L .41900004 .031000002 C .34500004 .031000002 .34300003 .042000005 .34300003 .078 L .34300003 .165 L .44300003 .165 L .44300003 .19600001 L .34300003 .19600001 L .34300003 .651 C .34300003 .671 .34300003 .67700007 .32700003 .67700007 C .31800003 .67700007 .31500004 .67700007 .307 .665 L 0 .19600001 L 0 .165 L .266 .165 M .272 .19600001 L .028 .19600001 L .272 .569 L .272 .19600001 Z "/>
</symbol>
<use xlink:href="#font_1_4" transform="matrix(9.9626,0,0,-9.9626,29.007956,99.192)"/>
<use xlink:href="#font_0_1" transform="matrix(9.9626,0,0,-9.9626,39.466897,96.900608)"/>
<symbol id="font_1_3">
<path d="M .24800003 .37400005 C .33 .40100003 .388 .47100006 .388 .55 C .388 .632 .3 .688 .204 .688 C .10300001 .688 .027000003 .628 .027000003 .55200007 C .027000003 .519 .049000004 .5 .078 .5 C .109000008 .5 .12900001 .522 .12900001 .55100008 C .12900001 .6010001 .082 .6010001 .067 .6010001 C .098 .65000006 .164 .66300007 .20000002 .66300007 C .24100003 .66300007 .29600004 .64100006 .29600004 .55100008 C .29600004 .53900006 .29400004 .48100005 .268 .43700005 C .238 .38900004 .204 .38600005 .17900002 .38500003 C .171 .38400004 .14700002 .38200004 .14000002 .38200004 C .132 .38100005 .125 .38000003 .125 .37000004 C .125 .35900004 .132 .35900004 .14900002 .35900004 L .19300002 .35900004 C .275 .35900004 .312 .29100005 .312 .193 C .312 .057000005 .24300003 .028 .199 .028 C .15600002 .028 .081 .045 .046000005 .104 C .081 .09900001 .11200001 .12100001 .11200001 .15900001 C .11200001 .19500001 .085 .215 .056 .215 C .031999999 .215 0 .201 0 .157 C 0 .06600001 .093 0 .20200002 0 C .32400004 0 .41500003 .091000009 .41500003 .193 C .41500003 .27500005 .35200004 .35300005 .24800003 .37400005 Z "/>
</symbol>
<use xlink:href="#font_1_3" transform="matrix(9.9626,0,0,-9.9626,46.80743,99.41118)"/>
<use xlink:href="#font_0_1" transform="matrix(9.9626,0,0,-9.9626,57.126897,96.900608)"/>
<symbol id="font_1_2">
<path d="M .07700001 .07700001 L .18300002 .18 C .33900003 .31800003 .39900003 .372 .39900003 .47200004 C .39900003 .586 .30900003 .666 .18700002 .666 C .074 .666 0 .574 0 .485 C 0 .42900003 .05 .42900003 .053000008 .42900003 C .07000001 .42900003 .105000007 .441 .105000007 .48200003 C .105000007 .508 .08700001 .53400006 .052000006 .53400006 C .044000005 .53400006 .042000008 .53400006 .039 .53300008 C .062000004 .59800007 .11600001 .63500007 .17400001 .63500007 C .26500003 .63500007 .308 .554 .308 .47200004 C .308 .39200003 .25800003 .31300003 .20300003 .25100003 L .011000004 .037 C 0 .026 0 .024 0 0 L .37100003 0 L .39900003 .17400001 L .374 .17400001 C .36900003 .14400001 .36200003 .1 .352 .085 C .345 .07700001 .279 .07700001 .257 .07700001 L .07700001 .07700001 Z "/>
</symbol>
<use xlink:href="#font_1_2" transform="matrix(9.9626,0,0,-9.9626,64.54713,99.192)"/>
<use xlink:href="#font_0_1" transform="matrix(9.9626,0,0,-9.9626,74.786899,96.900608)"/>
<symbol id="font_1_1">
<path d="M .205 .64000007 C .205 .66400006 .205 .666 .18200003 .666 C .120000008 .60200008 .032000007 .60200008 0 .60200008 L 0 .57100006 C .020000004 .57100006 .07900001 .57100006 .13100001 .597 L .13100001 .079 C .13100001 .043 .128 .031000002 .038000004 .031000002 L .0060000049 .031000002 L .0060000049 0 C .04100001 .003 .128 .003 .168 .003 C .20800002 .003 .29500003 .003 .33000005 0 L .33000005 .031000002 L .29800005 .031000002 C .20800002 .031000002 .205 .042000005 .205 .079 L .205 .64000007 Z "/>
</symbol>
<use xlink:href="#font_1_1" transform="matrix(9.9626,0,0,-9.9626,82.59567,99.192)"/>
<use xlink:href="#font_1_1" transform="matrix(9.9626,0,0,-9.9626,114.04067,99.192)"/>
<use xlink:href="#font_1_2" transform="matrix(9.9626,0,0,-9.9626,131.31212,99.192)"/>
<use xlink:href="#font_1_3" transform="matrix(9.9626,0,0,-9.9626,148.89243,99.41118)"/>
<use xlink:href="#font_1_4" transform="matrix(9.9626,0,0,-9.9626,166.41295,99.192)"/>
<use xlink:href="#font_1_5" transform="matrix(9.9626,0,0,-9.9626,184.29213,99.41118)"/>
<use xlink:href="#font_0_1" transform="matrix(9.9626,0,0,-9.9626,80.4359,160.9856)"/>
<use xlink:href="#font_1_5" transform="matrix(9.9626,0,0,-9.9626,87.85613,163.49617)"/>
<use xlink:href="#font_0_1" transform="matrix(9.9626,0,0,-9.9626,80.4359,146.31459)"/>
<use xlink:href="#font_1_4" transform="matrix(9.9626,0,0,-9.9626,87.636959,148.60599)"/>
<use xlink:href="#font_0_1" transform="matrix(9.9626,0,0,-9.9626,80.4359,131.6436)"/>
<use xlink:href="#font_1_3" transform="matrix(9.9626,0,0,-9.9626,87.77643,134.15418)"/>
<use xlink:href="#font_0_1" transform="matrix(9.9626,0,0,-9.9626,80.4359,116.9726)"/>
<use xlink:href="#font_1_2" transform="matrix(9.9626,0,0,-9.9626,87.85613,119.264)"/>
<use xlink:href="#font_0_1" transform="matrix(9.9626,0,0,-9.9626,80.4359,102.3006)"/>
<use xlink:href="#font_1_1" transform="matrix(9.9626,0,0,-9.9626,88.244678,104.591999)"/>
<use xlink:href="#font_1_1" transform="matrix(9.9626,0,0,-9.9626,88.244678,75.665)"/>
<use xlink:href="#font_1_2" transform="matrix(9.9626,0,0,-9.9626,87.85613,60.993997)"/>
<use xlink:href="#font_1_3" transform="matrix(9.9626,0,0,-9.9626,87.77643,46.541177)"/>
<use xlink:href="#font_1_4" transform="matrix(9.9626,0,0,-9.9626,87.636959,31.650986)"/>
<use xlink:href="#font_1_5" transform="matrix(9.9626,0,0,-9.9626,87.85613,17.199173)"/>
<clipPath id="cp2">
<path transform="matrix(1,0,0,-1,.856,167.818)" d="M 0 0 L 194.26152 0 L 194.26152 161.38571 L 0 161.38571 Z "/>
</clipPath>
<g clip-path="url(#cp2)">
<path transform="matrix(1,0,0,-1,.856,167.818)" stroke-width=".3985" stroke-linecap="butt" stroke-miterlimit="10" stroke-linejoin="miter" fill="none" stroke="#000000" d="M 26.4902 80.69286 L 27.02177 83.23732 L 27.55333 84.29248 L 28.08492 85.10265 L 28.61649 85.78339 L 29.14807 86.38522 L 29.67964 86.92805 L 30.21121 87.4285 L 30.74278 87.89372 L 31.27437 88.32962 L 31.80594 88.74335 L 32.33752 89.13669 L 32.86908 89.51096 L 33.40065 89.87189 L 33.93224 90.21828 L 34.4638 90.55293 L 34.99539 90.8757 L 35.52696 91.18982 L 36.05853 91.49367 L 36.5901 91.79002 L 37.12169 92.07904 L 37.65326 92.35928 L 38.18484 92.63377 L 38.7164 92.90242 L 39.24799 93.16502 L 39.77956 93.42177 L 40.31113 93.67429 L 40.84271 93.92236 L 41.37427 94.1643 L 41.90585 94.40211 L 42.43742 94.63687 L 42.96901 94.86736 L 43.50058 95.09477 L 44.03217 95.31792 L 44.56372 95.53491 L 45.0953 95.7516 L 45.62688 95.96463 L 46.15846 96.17531 L 46.69003 96.38335 L 47.22159 96.58846 L 47.75317 96.79092 L 48.28474 96.99089 L 48.81633 97.18837 L 49.3479 97.3838 L 49.87947 97.57658 L 50.41104 97.76746 L 50.94263 97.95598 L 51.4742 98.14246 L 52.00578 98.32718 L 52.53734 98.50967 L 53.06892 98.69102 L 53.6005 98.86957 L 54.13206 99.04666 L 54.66365 99.22243 L 55.19522 99.39658 L 55.72679 99.5691 L 56.25836 99.74004 L 56.78995 99.90875 L 57.32152 100.07631 L 57.8531 100.24297 L 58.38466 100.40787 L 58.91624 100.57234 L 59.44781 100.73256 L 59.9794 100.89452 L 60.51097 101.05371 L 61.04253 101.21289 L 61.57411 101.37076 L 62.10568 101.52715 L 62.63727 101.68164 L 63.16884 101.8357 L 63.70042 101.98813 L 64.23198 102.13954 L 64.76357 102.29007 L 65.29514 102.43987 L 65.82672 102.58878 L 66.35829 102.73534 L 66.88986 102.88249 L 67.42143 103.02776 L 67.953 103.17255 L 68.48459 103.31604 L 69.01616 103.45865 L 69.54773 103.60066 L 70.0793 103.74123 L 70.61089 103.88164 L 71.14246 104.02101 L 71.67404 104.15921 L 72.2056 104.29683 L 72.73718 104.43343 L 73.26875 104.56956 L 73.80034 104.70499 L 74.33191 104.83968 L 74.86348 104.97318 L 75.39505 105.1064 L 75.92662 105.23843 L 76.4582 105.36989 L 76.98978 105.5012 L 77.52136 105.63104 L 78.05292 105.76001 L 78.5845 105.88942 L 79.11607 106.01778 L 79.64766 106.14601 L 80.17923 106.27203 L 80.71078 106.39807 L 81.24237 106.5241 L 81.77396 106.64911 L 82.30553 106.77365 L 82.83711 106.89749 L 83.36868 107.02132 L 83.90025 107.14397 L 84.43182 107.26486 L 84.96341 107.3878 L 85.49498 107.50797 L 86.02657 107.62915 L 86.55812 107.74873 L 87.0897 107.8677 L 87.62128 107.98772 L 88.15286 108.10597 L 88.68443 108.22423 L 89.216 108.34042 L 89.74757 108.45631 L 90.27916 108.57341 L 90.81073 108.6896 L 91.34232 108.80624 L 91.87387 108.91951 L 92.40546 109.03351 L 92.93703 109.14868 L 93.46861 109.2618 L 94.00018 109.37549 L 94.53177 109.48729 L 95.06334 109.60025 L 95.59491 109.71147 L 96.12648 109.82254 L 96.65807 109.93446 L 97.18965 110.04642 L 97.7212 110.15616 L 98.25278 110.26634 L 98.78436 110.37578 L 99.31595 110.48436 L 99.84752 110.59322 L 100.37909 110.70119 L 100.91066 110.80844 L 101.44225 110.9157 L 101.97382 111.0228 L 102.5054 111.12947 L 103.03697 111.23611 L 103.56854 111.34132 L 104.10011 111.4477 L 104.6317 111.55273 L 105.16327 111.65762 L 105.69485 111.76181 L 106.22641 111.86581 L 106.758 111.9694 L 107.28957 112.07356 L 107.82115 112.17583 L 108.35272 112.27927 L 108.8843 112.38123 L 109.41586 112.48349 L 109.94745 112.58516 L 110.47902 112.68654 L 111.0106 112.78749 L 111.54218 112.88843 L 112.07375 112.98877 L 112.60533 113.08899 L 113.1369 113.18889 L 113.66847 113.28836 L 114.20006 113.3874 L 114.73163 113.48701 L 115.2632 113.58487 L 115.79477 113.68301 L 116.32635 113.78146 L 116.85793 113.87859 L 117.3895 113.97675 L 117.92107 114.07387 L 118.45265 114.17085 L 118.98422 114.26694 L 119.51581 114.36334 L 120.04736 114.46002 L 120.57895 114.5551 L 121.11052 114.65105 L 121.6421 114.74568 L 122.17368 114.84105 L 122.70525 114.93596 L 123.23682 115.03044 L 123.76839 115.12419 L 124.29997 115.21854 L 124.83154 115.31317 L 125.36313 115.40633 L 125.89468 115.49875 L 126.42627 115.59178 L 126.95784 115.6842 L 127.48943 115.77707 L 128.021 115.86922 L 128.55257 115.9612 L 129.08414 116.05186 L 129.6157 116.14343 L 130.1473 116.23526 L 130.67887 116.32623 L 131.21045 116.41661 L 131.742 116.50726 L 132.27359 116.5975 L 132.80516 116.68817 L 133.33675 116.77766 L 133.86832 116.867 L 134.39989 116.95636 L 134.93146 117.04572 L 135.46303 117.13507 L 135.99462 117.22412 L 136.52619 117.31213 L 137.05776 117.40077 L 137.58933 117.48776 L 138.12091 117.57683 L 138.65248 117.66486 L 139.18407 117.75171 L 139.71562 117.83885 L 140.24721 117.9257 L 140.77878 118.01344 L 141.31037 118.1003 L 141.84194 118.18568 L 142.3735 118.2718 L 142.90508 118.35983 L 143.43665 118.44551 L 143.96823 118.52988 L 144.4998 118.6157 L 145.03139 118.70035 L 145.56295 118.78603 L 146.09453 118.8704 L 146.6261 118.95549 L 147.15769 119.04059 L 147.68926 119.12407 L 148.22083 119.20872 L 148.7524 119.29396 L 149.28397 119.37509 L 149.81555 119.46004 L 150.34712 119.54294 L 150.87871 119.62715 L 151.41027 119.71004 L 151.94185 119.7925 L 152.47342 119.8751 L 153.005 119.95682 L 153.53658 120.04132 L 154.06815 120.12231 L 154.59972 120.20403 L 155.1313 120.28575 L 155.66287 120.36703 L 156.19445 120.44963 L 156.72602 120.53091 L 157.25759 120.6119 L 157.78917 120.69273 L 158.32074 120.7724 L 158.85233 120.85545 L 159.38388 120.9351 L 159.91547 121.01492 L 160.44704 121.09517 L 160.97863 121.17674 L 161.5102 121.25626 L 162.04178 121.33565 L 162.57334 121.41399 L 163.1049 121.49219 L 163.63649 121.57391 L 164.16806 121.65268 L 164.69965 121.73221 L 165.2312 121.80983 L 165.76279 121.88861 L 166.29436 121.97018 L 166.82595 122.04736 L 167.35752 122.12453 L 167.88909 122.20537 L 168.42066 122.28342 L 168.95224 122.36058 L 169.48381 122.4382 L 170.01538 122.5161 L 170.54697 122.59343 L 171.07852 122.67015 L 171.6101 122.74762 L 172.14168 122.8242 L 172.67327 122.90094 L 173.20484 122.97797 L 173.7364 123.05424 L 174.26798 123.13142 L 174.79956 123.20683 L 175.33113 123.28357 L 175.86272 123.35898 L 176.39427 123.43468 L 176.92584 123.5117 L 177.45743 123.58551 L 177.989 123.66194 L 178.52059 123.7375 L 179.05216 123.8116 L 179.58373 123.887 L 180.1153 123.96182 L 180.64688 124.03708 L 181.17845 124.11191 L 181.71004 124.18571 L 182.2416 124.26025 L 182.77317 124.33463 L 183.30475 124.40915 L 183.83632 124.48486 L 184.3679 124.55748 L 184.89946 124.631 L 184.97716 124.64182 "/>
<path transform="matrix(.99043,-.13776,-.13776,-.99043,185.83316,43.176195)" stroke-width=".31879" stroke-linecap="round" stroke-linejoin="round" fill="none" stroke="#000000" d="M -1.19551 1.59401 C -1.09587 .99626 0 .09961 .29886 0 C 0 -.09961 -1.09587 -.99626 -1.19551 -1.59401 "/>
<path transform="matrix(1,0,0,-1,.856,167.818)" stroke-width=".3985" stroke-linecap="butt" stroke-miterlimit="10" stroke-linejoin="miter" fill="none" stroke="#000000" d="M 26.4902 80.69286 L 27.02177 78.14838 L 27.55333 77.0932 L 28.08492 76.28305 L 28.61649 75.60231 L 29.14807 75.00047 L 29.67964 74.45764 L 30.21121 73.9572 L 30.74278 73.49196 L 31.27437 73.05608 L 31.80594 72.64235 L 32.33752 72.24901 L 32.86908 71.87474 L 33.40065 71.51381 L 33.93224 71.16742 L 34.4638 70.83276 L 34.99539 70.51 L 35.52696 70.19588 L 36.05853 69.89203 L 36.5901 69.59567 L 37.12169 69.30664 L 37.65326 69.02641 L 38.18484 68.7519 L 38.7164 68.48328 L 39.24799 68.22066 L 39.77956 67.96391 L 40.31113 67.71141 L 40.84271 67.46333 L 41.37427 67.22139 L 41.90585 66.98357 L 42.43742 66.74883 L 42.96901 66.51833 L 43.50058 66.29092 L 44.03217 66.06778 L 44.56372 65.85078 L 45.0953 65.6341 L 45.62688 65.42107 L 46.15846 65.21039 L 46.69003 65.00235 L 47.22159 64.79724 L 47.75317 64.59476 L 48.28474 64.39479 L 48.81633 64.19733 L 49.3479 64.00189 L 49.87947 63.80911 L 50.41104 63.61824 L 50.94263 63.42972 L 51.4742 63.24323 L 52.00578 63.05852 L 52.53734 62.876 L 53.06892 62.69467 L 53.6005 62.51613 L 54.13206 62.33904 L 54.66365 62.16327 L 55.19522 61.98912 L 55.72679 61.81659 L 56.25836 61.64566 L 56.78995 61.47694 L 57.32152 61.30939 L 57.8531 61.14273 L 58.38466 60.97781 L 58.91624 60.81335 L 59.44781 60.65314 L 59.9794 60.49117 L 60.51097 60.33197 L 61.04253 60.17279 L 61.57411 60.01494 L 62.10568 59.85854 L 62.63727 59.70404 L 63.16884 59.55 L 63.70042 59.39755 L 64.23198 59.24614 L 64.76357 59.09561 L 65.29514 58.94583 L 65.82672 58.7969 L 66.35829 58.65034 L 66.88986 58.50319 L 67.42143 58.35794 L 67.953 58.21313 L 68.48459 58.06966 L 69.01616 57.92703 L 69.54773 57.78502 L 70.0793 57.64447 L 70.61089 57.50406 L 71.14246 57.36469 L 71.67404 57.22649 L 72.2056 57.08887 L 72.73718 56.95227 L 73.26875 56.81613 L 73.80034 56.68071 L 74.33191 56.54602 L 74.86348 56.4125 L 75.39505 56.2793 L 75.92662 56.14725 L 76.4582 56.01581 L 76.98978 55.88449 L 77.52136 55.75465 L 78.05292 55.62569 L 78.5845 55.49628 L 79.11607 55.3679 L 79.64766 55.23969 L 80.17923 55.11366 L 80.71078 54.98761 L 81.24237 54.86159 L 81.77396 54.73659 L 82.30553 54.61203 L 82.83711 54.4882 L 83.36868 54.36438 L 83.90025 54.24173 L 84.43182 54.12083 L 84.96341 53.9979 L 85.49498 53.87773 L 86.02657 53.75655 L 86.55812 53.63696 L 87.0897 53.51797 L 87.62128 53.39798 L 88.15286 53.27972 L 88.68443 53.16147 L 89.216 53.04527 L 89.74757 52.92937 L 90.27916 52.81229 L 90.81073 52.69609 L 91.34232 52.57945 L 91.87387 52.46619 L 92.40546 52.35219 L 92.93703 52.23701 L 93.46861 52.1239 L 94.00018 52.01021 L 94.53177 51.8984 L 95.06334 51.78545 L 95.59491 51.67422 L 96.12648 51.56316 L 96.65807 51.45122 L 97.18965 51.33928 L 97.7212 51.22954 L 98.25278 51.11935 L 98.78436 51.00992 L 99.31595 50.90134 L 99.84752 50.79248 L 100.37909 50.6845 L 100.91066 50.57726 L 101.44225 50.47 L 101.97382 50.3629 L 102.5054 50.25623 L 103.03697 50.14957 L 103.56854 50.04437 L 104.10011 49.938 L 104.6317 49.83296 L 105.16327 49.72807 L 105.69485 49.62389 L 106.22641 49.51987 L 106.758 49.41629 L 107.28957 49.31212 L 107.82115 49.20985 L 108.35272 49.10643 L 108.8843 49.00447 L 109.41586 48.9022 L 109.94745 48.80054 L 110.47902 48.69914 L 111.0106 48.5982 L 111.54218 48.49727 L 112.07375 48.39693 L 112.60533 48.2967 L 113.1369 48.19681 L 113.66847 48.09734 L 114.20006 47.99829 L 114.73163 47.89868 L 115.2632 47.80083 L 115.79477 47.70268 L 116.32635 47.60423 L 116.85793 47.5071 L 117.3895 47.40894 L 117.92107 47.31181 L 118.45265 47.21484 L 118.98422 47.11876 L 119.51581 47.02235 L 120.04736 46.92567 L 120.57895 46.8306 L 121.11052 46.73465 L 121.6421 46.64001 L 122.17368 46.54465 L 122.70525 46.44972 L 123.23682 46.35526 L 123.76839 46.2615 L 124.29997 46.16716 L 124.83154 46.07253 L 125.36313 45.97937 L 125.89468 45.88693 L 126.42627 45.79391 L 126.95784 45.70149 L 127.48943 45.60861 L 128.021 45.51648 L 128.55257 45.4245 L 129.08414 45.33383 L 129.6157 45.24226 L 130.1473 45.15044 L 130.67887 45.05946 L 131.21045 44.96909 L 131.742 44.87842 L 132.27359 44.78818 L 132.80516 44.69753 L 133.33675 44.60802 L 133.86832 44.51868 L 134.39989 44.42932 L 134.93146 44.33998 L 135.46303 44.25063 L 135.99462 44.16158 L 136.52619 44.07355 L 137.05776 43.98492 L 137.58933 43.89792 L 138.12091 43.80887 L 138.65248 43.72086 L 139.18407 43.63399 L 139.71562 43.54683 L 140.24721 43.45999 L 140.77878 43.37225 L 141.31037 43.28539 L 141.84194 43.2 L 142.3735 43.11388 L 142.90508 43.02586 L 143.43665 42.94019 L 143.96823 42.85582 L 144.4998 42.76999 L 145.03139 42.68533 L 145.56295 42.59966 L 146.09453 42.51529 L 146.6261 42.4302 L 147.15769 42.34511 L 147.68926 42.26163 L 148.22083 42.17697 L 148.7524 42.09174 L 149.28397 42.0106 L 149.81555 41.92564 L 150.34712 41.84276 L 150.87871 41.75853 L 151.41027 41.67566 L 151.94185 41.5932 L 152.47342 41.51059 L 153.005 41.42888 L 153.53658 41.34438 L 154.06815 41.26338 L 154.59972 41.18167 L 155.1313 41.09995 L 155.66287 41.01866 L 156.19445 40.93607 L 156.72602 40.85478 L 157.25759 40.7738 L 157.78917 40.69295 L 158.32074 40.6133 L 158.85233 40.53024 L 159.38388 40.45059 L 159.91547 40.37077 L 160.44704 40.29053 L 160.97863 40.20895 L 161.5102 40.12943 L 162.04178 40.05005 L 162.57334 39.97171 L 163.1049 39.89351 L 163.63649 39.81178 L 164.16806 39.733 L 164.69965 39.65349 L 165.2312 39.57587 L 165.76279 39.49709 L 166.29436 39.41551 L 166.82595 39.33833 L 167.35752 39.26117 L 167.88909 39.18033 L 168.42066 39.10228 L 168.95224 39.02512 L 169.48381 38.9475 L 170.01538 38.8696 L 170.54697 38.79227 L 171.07852 38.71555 L 171.6101 38.63808 L 172.14168 38.56148 L 172.67327 38.48476 L 173.20484 38.40773 L 173.7364 38.33145 L 174.26798 38.25427 L 174.79956 38.17886 L 175.33113 38.10213 L 175.86272 38.0267 L 176.39427 37.95102 L 176.92584 37.874 L 177.45743 37.80019 L 177.989 37.72375 L 178.52059 37.6482 L 179.05216 37.5741 L 179.58373 37.4987 L 180.1153 37.42387 L 180.64688 37.3486 L 181.17845 37.27379 L 181.71004 37.19998 L 182.2416 37.12544 L 182.77317 37.05106 L 183.30475 36.97655 L 183.83632 36.90083 L 184.3679 36.82822 L 184.89946 36.7547 L 184.97716 36.74387 "/>
<path transform="matrix(.99043,.13776,.13776,-.99043,185.83316,131.07411)" stroke-width=".31879" stroke-linecap="round" stroke-linejoin="round" fill="none" stroke="#000000" d="M -1.19551 1.59401 C -1.09587 .99626 0 .09961 .29886 0 C 0 -.09961 -1.09587 -.99626 -1.19551 -1.59401 "/>
</g>
<symbol id="font_3_1">
<path d="M .305 .31300003 C .311 .33900003 .334 .43100003 .404 .43100003 C .409 .43100003 .433 .43100003 .454 .418 C .426 .41300003 .40600003 .388 .40600003 .36400003 C .40600003 .34800003 .417 .32900004 .444 .32900004 C .46600003 .32900004 .498 .34700004 .498 .38700003 C .498 .43900005 .439 .45300005 .405 .45300005 C .347 .45300005 .312 .40000005 .3 .37700004 C .275 .44300003 .221 .45300005 .19200002 .45300005 C .08800001 .45300005 .031000002 .32400004 .031000002 .29900003 C .031000002 .28900004 .041 .28900004 .043000007 .28900004 C .051000008 .28900004 .054000006 .291 .056 .3 C .09 .40600003 .156 .43100003 .19000001 .43100003 C .209 .43100003 .244 .42200003 .244 .36400003 C .244 .33300004 .22700002 .26600004 .19000001 .126 C .17400001 .064 .13900002 .022000002 .095000009 .022000002 C .08900001 .022000002 .06600001 .022000002 .045 .035 C .07000001 .040000004 .09200001 .061 .09200001 .089 C .09200001 .116000007 .07000001 .124000009 .055000009 .124000009 C .025 .124000009 0 .098000008 0 .06600001 C 0 .020000002 .050000006 0 .094000007 0 C .16000001 0 .19600001 .07000001 .19900002 .076000008 C .21100001 .039 .24700003 0 .307 0 C .41 0 .467 .12900001 .467 .15400002 C .467 .16400002 .458 .16400002 .455 .16400002 C .446 .16400002 .444 .16000001 .442 .15300001 C .409 .046 .341 .022000002 .30900003 .022000002 C .27 .022000002 .254 .054 .254 .08800001 C .254 .11000001 .26 .13200002 .271 .17600002 L .305 .31300003 Z "/>
</symbol>
<use xlink:href="#font_3_1" transform="matrix(9.9626,0,0,-9.9626,192.55692,83.71558)"/>
<symbol id="font_3_2">
<path d="M .45700003 .586 C .461 .6 .461 .602 .461 .609 C .461 .62700006 .447 .63600006 .432 .63600006 C .42200003 .63600006 .40600003 .63 .397 .615 C .395 .61 .387 .579 .38300003 .561 C .37600003 .535 .36900003 .508 .363 .48100005 L .318 .301 C .314 .286 .271 .21600002 .20500002 .21600002 C .15400002 .21600002 .143 .26000003 .143 .29700003 C .143 .34300003 .16000001 .40500004 .194 .49300004 C .21000001 .53400006 .21400002 .545 .21400002 .56500008 C .21400002 .61 .18200001 .6470001 .13200002 .6470001 C .037 .6470001 0 .50200006 0 .49300004 C 0 .48300005 .01 .48300005 .012 .48300005 C .022000002 .48300005 .023 .485 .028000003 .50100007 C .055000009 .595 .095000009 .625 .12900001 .625 C .13700001 .625 .15400002 .625 .15400002 .59300008 C .15400002 .568 .14400001 .54200008 .13700001 .523 C .097 .41700004 .079 .36 .079 .31300003 C .079 .224 .142 .194 .201 .194 C .24000003 .194 .274 .21100001 .30200003 .23900002 C .289 .187 .277 .13800001 .237 .08500001 C .21100001 .051 .17300001 .022 .127 .022 C .113000009 .022 .068 .025000006 .051000008 .06400001 C .067 .06400001 .080000009 .06400001 .094000007 .076000008 C .104 .08500001 .11400001 .098000008 .11400001 .117000009 C .11400001 .148 .087000008 .15200001 .07700001 .15200001 C .054000006 .15200001 .021 .136 .021 .087000008 C .021 .037 .065000008 0 .127 0 C .23 0 .333 .091000009 .361 .20400001 L .45700003 .586 Z "/>
</symbol>
<use xlink:href="#font_3_2" transform="matrix(9.9626,0,0,-9.9626,101.79392,9.652334)"/>
</g>
</svg>
