<?xml version="1.0" encoding="UTF-8" standalone="no"?>
<!DOCTYPE svg PUBLIC "-//W3C//DTD SVG 1.1//EN" "http://www.w3.org/Graphics/SVG/1.1/DTD/svg11.dtd">
<svg xmlns="http://www.w3.org/2000/svg" xmlns:xlink="http://www.w3.org/1999/xlink" version="1.1" width="201.282pt" height="168.017pt" viewBox="0 0 201.282 168.017">
<g enable-background="new">
<path transform="matrix(1,0,0,-1,.856,167.818)" stroke-width=".19925" stroke-linecap="butt" stroke-miterlimit="10" stroke-linejoin="miter" fill="none" stroke="#808080" d="M 17.66013 79.27538 L 17.66013 82.11034 M 35.32027 79.27538 L 35.32027 82.11034 M 52.98041 79.27538 L 52.98041 82.11034 M 70.64055 79.27538 L 70.64055 82.11034 M 88.30069 79.27538 L 88.30069 82.11034 M 105.96082 79.27538 L 105.96082 82.11034 M 123.62096 79.27538 L 123.62096 82.11034 M 141.2811 79.27538 L 141.2811 82.11034 M 158.94124 79.27538 L 158.94124 82.11034 M 176.60138 79.27538 L 176.60138 82.11034 M 194.26152 79.27538 L 194.26152 82.11034 "/>
<path transform="matrix(1,0,0,-1,.856,167.818)" stroke-width=".19925" stroke-linecap="butt" stroke-miterlimit="10" stroke-linejoin="miter" fill="none" stroke="#808080" d="M 8.83006 78.56685 L 8.83006 82.81885 M 26.4902 78.56685 L 26.4902 82.81885 M 44.15034 78.56685 L 44.15034 82.81885 M 61.81047 78.56685 L 61.81047 82.81885 M 79.47061 78.56685 L 79.47061 82.81885 M 114.7909 78.56685 L 114.7909 82.81885 M 132.45104 78.56685 L 132.45104 82.81885 M 150.11116 78.56685 L 150.11116 82.81885 M 167.7713 78.56685 L 167.7713 82.81885 M 185.43144 78.56685 L 185.43144 82.81885 "/>
<path transform="matrix(1,0,0,-1,.856,167.818)" stroke-width=".19925" stroke-linecap="butt" stroke-miterlimit="10" stroke-linejoin="miter" fill="none" stroke="#808080" d="M 95.71329 14.67142 L 98.54822 14.67142 M 95.71329 29.34285 L 98.54822 29.34285 M 95.71329 44.01428 L 98.54822 44.01428 M 95.71329 58.68571 L 98.54822 58.68571 M 95.71329 73.35713 L 98.54822 73.35713 M 95.71329 88.02856 L 98.54822 88.02856 M 95.71329 102.7 L 98.54822 102.7 M 95.71329 117.37143 L 98.54822 117.37143 M 95.71329 132.04286 L 98.54822 132.04286 M 95.71329 146.71428 L 98.54822 146.71428 "/>
<path transform="matrix(1,0,0,-1,.856,167.818)" stroke-width=".19925" stroke-linecap="butt" stroke-miterlimit="10" stroke-linejoin="miter" fill="none" stroke="#808080" d="M 95.00478 7.33571 L 99.25671 7.33571 M 95.00478 22.00714 L 99.25671 22.00714 M 95.00478 36.67856 L 99.25671 36.67856 M 95.00478 51.34999 L 99.25671 51.34999 M 95.00478 66.02142 L 99.25671 66.02142 M 95.00478 95.36429 L 99.25671 95.36429 M 95.00478 110.0357 L 99.25671 110.0357 M 95.00478 124.70714 L 99.25671 124.70714 M 95.00478 139.37857 L 99.25671 139.37857 M 95.00478 154.05 L 99.25671 154.05 "/>
<path transform="matrix(1,0,0,-1,.856,167.818)" stroke-width=".3985" stroke-linecap="butt" stroke-miterlimit="10" stroke-linejoin="miter" fill="none" stroke="#000000" d="M 0 80.69286 L 192.269 80.69286 "/>
<path transform="matrix(1,0,0,-1,193.125,87.12513)" d="M 1.99252 0 L -1.19551 1.59401 L 0 0 L -1.19551 -1.59401 "/>
<path transform="matrix(1,0,0,-1,.856,167.818)" stroke-width=".3985" stroke-linecap="butt" stroke-miterlimit="10" stroke-linejoin="miter" fill="none" stroke="#000000" d="M 97.13075 0 L 97.13075 159.39319 "/>
<path transform="matrix(0,-1,-1,-0,97.986759,8.424805)" d="M 1.99252 0 L -1.19551 1.59401 L 0 0 L -1.19551 -1.59401 "/>
<symbol id="font_0_1">
<path d="M .57600006 0 C .59300008 0 .611 0 .611 .019999996 C .611 .040000008 .59300008 .040000008 .57600006 .040000008 L .035000005 .040000008 C .018 .040000008 0 .040000008 0 .019999996 C 0 0 .018 0 .035000005 0 L .57600006 0 Z "/>
</symbol>
<use xlink:href="#font_0_1" transform="matrix(9.9626,0,0,-9.9626,4.147896,96.900608)"/>
<symbol id="font_1_5">
<path d="M .39900003 .223 C .39900003 .34200005 .317 .44200004 .209 .44200004 C .16100002 .44200004 .118000019 .42600004 .082 .39100004 L .082 .586 C .10200001 .58000007 .135 .573 .16700001 .573 C .29 .573 .36 .66400006 .36 .67700007 C .36 .683 .357 .688 .35 .688 C .349 .688 .347 .688 .342 .68500009 C .322 .67600008 .273 .656 .20600002 .656 C .16600001 .656 .120000008 .66300007 .073 .6840001 C .065 .68700006 .06300001 .68700006 .061000009 .68700006 C .051000004 .68700006 .051000004 .679 .051000004 .66300007 L .051000004 .36700005 C .051000004 .34900005 .051000004 .34100003 .065 .34100003 C .07200001 .34100003 .074 .34400005 .07800001 .35000003 C .08900002 .36600004 .12600002 .42000006 .207 .42000006 C .259 .42000006 .284 .37400005 .292 .35600005 C .308 .31900005 .31 .28000004 .31 .23 C .31 .19500001 .31 .135 .286 .093 C .262 .054000006 .22500001 .028 .17900002 .028 C .106000009 .028 .049000008 .08100001 .032 .14000002 C .035 .13900002 .038000008 .13800001 .049000008 .13800001 C .082 .13800001 .09900001 .163 .09900001 .187 C .09900001 .21100001 .082 .23600002 .049000008 .23600002 C .035 .23600002 0 .22900002 0 .18300002 C 0 .097 .069000009 0 .18100001 0 C .297 0 .39900003 .096 .39900003 .223 Z "/>
</symbol>
<use xlink:href="#font_1_5" transform="matrix(9.9626,0,0,-9.9626,11.56713,99.41118)"/>
<use xlink:href="#font_0_1" transform="matrix(9.9626,0,0,-9.9626,21.806899,96.900608)"/>
<symbol id="font_1_4">
<path d="M .266 .165 L .266 .078 C .266 .042000005 .26400004 .031000002 .19000001 .031000002 L .16900002 .031000002 L .16900002 0 C .21000001 .003 .26200003 .003 .30400003 .003 C .34600003 .003 .39900003 .003 .44000004 0 L .44000004 .031000002 L .41900004 .031000002 C .34500004 .031000002 .34300003 .042000005 .34300003 .078 L .34300003 .165 L .44300003 .165 L .44300003 .19600001 L .34300003 .19600001 L .34300003 .651 C .34300003 .671 .34300003 .67700007 .32700003 .67700007 C .31800003 .67700007 .31500004 .67700007 .307 .665 L 0 .19600001 L 0 .165 L .266 .165 M .272 .19600001 L .028 .19600001 L .272 .569 L .272 .19600001 Z "/>
</symbol>
<use xlink:href="#font_1_4" transform="matrix(9.9626,0,0,-9.9626,29.007956,99.192)"/>
<use xlink:href="#font_0_1" transform="matrix(9.9626,0,0,-9.9626,39.466897,96.900608)"/>
<symbol id="font_1_3">
<path d="M .24800003 .37400005 C .33 .40100003 .388 .47100006 .388 .55 C .388 .632 .3 .688 .204 .688 C .10300001 .688 .027000003 .628 .027000003 .55200007 C .027000003 .519 .049000004 .5 .078 .5 C .109000008 .5 .12900001 .522 .12900001 .55100008 C .12900001 .6010001 .082 .6010001 .067 .6010001 C .098 .65000006 .164 .66300007 .20000002 .66300007 C .24100003 .66300007 .29600004 .64100006 .29600004 .55100008 C .29600004 .53900006 .29400004 .48100005 .268 .43700005 C .238 .38900004 .204 .38600005 .17900002 .38500003 C .171 .38400004 .14700002 .38200004 .14000002 .38200004 C .132 .38100005 .125 .38000003 .125 .37000004 C .125 .35900004 .132 .35900004 .14900002 .35900004 L .19300002 .35900004 C .275 .35900004 .312 .29100005 .312 .193 C .312 .057000005 .24300003 .028 .199 .028 C .15600002 .028 .081 .045 .046000005 .104 C .081 .09900001 .11200001 .12100001 .11200001 .15900001 C .11200001 .19500001 .085 .215 .056 .215 C .031999999 .215 0 .201 0 .157 C 0 .06600001 .093 0 .20200002 0 C .32400004 0 .41500003 .091000009 .41500003 .193 C .41500003 .27500005 .35200004 .35300005 .24800003 .37400005 Z "/>
</symbol>
<use xlink:href="#font_1_3" transform="matrix(9.9626,0,0,-9.9626,46.80743,99.41118)"/>
<use xlink:href="#font_0_1" transform="matrix(9.9626,0,0,-9.9626,57.126897,96.900608)"/>
<symbol id="font_1_2">
<path d="M .07700001 .07700001 L .18300002 .18 C .33900003 .31800003 .39900003 .372 .39900003 .47200004 C .39900003 .586 .30900003 .666 .18700002 .666 C .074 .666 0 .574 0 .485 C 0 .42900003 .05 .42900003 .053000008 .42900003 C .07000001 .42900003 .105000007 .441 .105000007 .48200003 C .105000007 .508 .08700001 .53400006 .052000006 .53400006 C .044000005 .53400006 .042000008 .53400006 .039 .53300008 C .062000004 .59800007 .11600001 .63500007 .17400001 .63500007 C .26500003 .63500007 .308 .554 .308 .47200004 C .308 .39200003 .25800003 .31300003 .20300003 .25100003 L .011000004 .037 C 0 .026 0 .024 0 0 L .37100003 0 L .39900003 .17400001 L .374 .17400001 C .36900003 .14400001 .36200003 .1 .352 .085 C .345 .07700001 .279 .07700001 .257 .07700001 L .07700001 .07700001 Z "/>
</symbol>
<use xlink:href="#font_1_2" transform="matrix(9.9626,0,0,-9.9626,64.54713,99.192)"/>
<use xlink:href="#font_0_1" transform="matrix(9.9626,0,0,-9.9626,74.786899,96.900608)"/>
<symbol id="font_1_1">
<path d="M .205 .64000007 C .205 .66400006 .205 .666 .18200003 .666 C .120000008 .60200008 .032000007 .60200008 0 .60200008 L 0 .57100006 C .020000004 .57100006 .07900001 .57100006 .13100001 .597 L .13100001 .079 C .13100001 .043 .128 .031000002 .038000004 .031000002 L .0060000049 .031000002 L .0060000049 0 C .04100001 .003 .128 .003 .168 .003 C .20800002 .003 .29500003 .003 .33000005 0 L .33000005 .031000002 L .29800005 .031000002 C .20800002 .031000002 .205 .042000005 .205 .079 L .205 .64000007 Z "/>
</symbol>
<use xlink:href="#font_1_1" transform="matrix(9.9626,0,0,-9.9626,82.59567,99.192)"/>
<use xlink:href="#font_1_1" transform="matrix(9.9626,0,0,-9.9626,114.04067,99.192)"/>
<use xlink:href="#font_1_2" transform="matrix(9.9626,0,0,-9.9626,131.31212,99.192)"/>
<use xlink:href="#font_1_3" transform="matrix(9.9626,0,0,-9.9626,148.89243,99.41118)"/>
<use xlink:href="#font_1_4" transform="matrix(9.9626,0,0,-9.9626,166.41295,99.192)"/>
<use xlink:href="#font_1_5" transform="matrix(9.9626,0,0,-9.9626,184.29213,99.41118)"/>
<use xlink:href="#font_0_1" transform="matrix(9.9626,0,0,-9.9626,80.4359,160.9856)"/>
<use xlink:href="#font_1_5" transform="matrix(9.9626,0,0,-9.9626,87.85613,163.49617)"/>
<use xlink:href="#font_0_1" transform="matrix(9.9626,0,0,-9.9626,80.4359,146.31459)"/>
<use xlink:href="#font_1_4" transform="matrix(9.9626,0,0,-9.9626,87.636959,148.60599)"/>
<use xlink:href="#font_0_1" transform="matrix(9.9626,0,0,-9.9626,80.4359,131.6436)"/>
<use xlink:href="#font_1_3" transform="matrix(9.9626,0,0,-9.9626,87.77643,134.15418)"/>
<use xlink:href="#font_0_1" transform="matrix(9.9626,0,0,-9.9626,80.4359,116.9726)"/>
<use xlink:href="#font_1_2" transform="matrix(9.9626,0,0,-9.9626,87.85613,119.264)"/>
<use xlink:href="#font_0_1" transform="matrix(9.9626,0,0,-9.9626,80.4359,102.3006)"/>
<use xlink:href="#font_1_1" transform="matrix(9.9626,0,0,-9.9626,88.244678,104.591999)"/>
<use xlink:href="#font_1_1" transform="matrix(9.9626,0,0,-9.9626,88.244678,75.665)"/>
<use xlink:href="#font_1_2" transform="matrix(9.9626,0,0,-9.9626,87.85613,60.993997)"/>
<use xlink:href="#font_1_3" transform="matrix(9.9626,0,0,-9.9626,87.77643,46.541177)"/>
<use xlink:href="#font_1_4" transform="matrix(9.9626,0,0,-9.9626,87.636959,31.650986)"/>
<use xlink:href="#font_1_5" transform="matrix(9.9626,0,0,-9.9626,87.85613,17.199173)"/>
<clipPath id="cp2">
<path transform="matrix(1,0,0,-1,.856,167.818)" d="M 0 0 L 194.26152 0 L 194.26152 161.38571 L 0 161.38571 Z "/>
</clipPath>
<g clip-path="url(#cp2)">
<path transform="matrix(1,0,0,-1,.856,167.818)" stroke-width=".3985" stroke-linecap="butt" stroke-miterlimit="10" stroke-linejoin="miter" fill="none" stroke="#000000" d="M 9.00163 7.76064 L 9.42067 8.79793 L 10.0113 10.24052 L 10.60191 11.6637 L 11.19254 13.06763 L 11.78317 14.45229 L 12.37378 15.81796 L 12.9644 17.16478 L 13.55502 18.49284 L 14.14565 19.80222 L 14.73627 21.09312 L 15.32689 22.36565 L 15.91751 23.61986 L 16.50812 24.856 L 17.09875 26.07422 L 17.68938 27.27449 L 18.28 28.4571 L 18.87062 29.62216 L 19.46124 30.76973 L 20.05186 31.89995 L 20.64249 33.01305 L 21.2331 34.10904 L 21.82373 35.1881 L 22.41435 36.2504 L 23.00496 37.29605 L 23.5956 38.32509 L 24.1862 39.33781 L 24.77682 40.33426 L 25.36746 41.31454 L 25.95807 42.27881 L 26.54869 43.22723 L 27.13931 44.15991 L 27.72993 45.07697 L 28.32056 45.97855 L 28.91118 46.8648 L 29.5018 47.73584 L 30.09244 48.59177 L 30.68304 49.43279 L 31.27367 50.25896 L 31.86429 51.07043 L 32.45491 51.86739 L 33.04553 52.64992 L 33.63615 53.4181 L 34.22678 54.17216 L 34.81738 54.91223 L 35.40802 55.63835 L 35.99864 56.35072 L 36.58925 57.04947 L 37.17989 57.73473 L 37.7705 58.40657 L 38.36111 59.0652 L 38.95175 59.71077 L 39.54236 60.34329 L 40.13298 60.963 L 40.72362 61.57 L 41.31422 62.16444 L 41.90486 62.7464 L 42.49547 63.31607 L 43.08609 63.87354 L 43.67673 64.41895 L 44.26733 64.95245 L 44.85796 65.47417 L 45.44858 65.98419 L 46.0392 66.48274 L 46.62982 66.9699 L 47.22044 67.44574 L 47.81107 67.91048 L 48.40167 68.36423 L 48.99231 68.80711 L 49.58293 69.23924 L 50.17354 69.6608 L 50.76418 70.07185 L 51.3548 70.47256 L 51.9454 70.8631 L 52.53604 71.24353 L 53.12665 71.61401 L 53.71729 71.97472 L 54.3079 72.32571 L 54.89851 72.66716 L 55.48915 72.99919 L 56.07976 73.32195 L 56.67038 73.63553 L 57.26102 73.9401 L 57.85162 74.23578 L 58.44225 74.52269 L 59.03287 74.801 L 59.62349 75.07079 L 60.21411 75.33221 L 60.80473 75.58542 L 61.39536 75.8305 L 61.98598 76.06763 L 62.5766 76.2969 L 63.16722 76.5185 L 63.75783 76.73251 L 64.34846 76.93907 L 64.93909 77.13832 L 65.5297 77.3304 L 66.12033 77.51544 L 66.71094 77.69354 L 67.30157 77.86487 L 67.8922 78.02956 L 68.4828 78.18771 L 69.07344 78.33948 L 69.66405 78.485 L 70.25467 78.62437 L 70.8453 78.75778 L 71.43591 78.88531 L 72.02654 79.00711 L 72.61717 79.1233 L 73.20778 79.23404 L 73.7984 79.33945 L 74.38902 79.43965 L 74.97964 79.53476 L 75.57027 79.62495 L 76.16089 79.71033 L 76.75151 79.79105 L 77.34212 79.86719 L 77.93275 79.93895 L 78.52338 80.00641 L 79.114 80.0697 L 79.70462 80.12901 L 80.29524 80.18442 L 80.88586 80.23608 L 81.47649 80.2841 L 82.06711 80.32864 L 82.65775 80.36983 L 83.24835 80.40779 L 83.83897 80.44264 L 84.42961 80.47453 L 85.02023 80.50359 L 85.61086 80.52995 L 86.20148 80.55374 L 86.7921 80.5751 L 87.38272 80.59415 L 87.97336 80.61102 L 88.56396 80.62585 L 89.15459 80.63878 L 89.74522 80.64992 L 90.33585 80.65942 L 90.92648 80.6674 L 91.51709 80.674 L 92.10771 80.67934 L 92.69835 80.68356 L 93.28896 80.6868 L 93.87958 80.6892 L 94.47021 80.69084 L 95.06084 80.6919 L 95.65146 80.6925 L 96.24208 80.69278 L 96.8327 80.69284 L 97.42332 80.69286 L 98.01396 80.69292 L 98.60458 80.69319 L 99.19519 80.69379 L 99.78583 80.69484 L 100.37645 80.69649 L 100.96707 80.69885 L 101.5577 80.7021 L 102.14832 80.70631 L 102.73895 80.71164 L 103.32957 80.71823 L 103.9202 80.7262 L 104.51082 80.73567 L 105.10144 80.74681 L 105.69206 80.7597 L 106.2827 80.77452 L 106.8733 80.79138 L 107.46393 80.81041 L 108.05457 80.83174 L 108.64519 80.8555 L 109.2358 80.88185 L 109.82643 80.91087 L 110.41705 80.94275 L 111.00768 80.97757 L 111.59831 81.0155 L 112.18892 81.05666 L 112.77954 81.10117 L 113.37018 81.14915 L 113.9608 81.20078 L 114.55142 81.25615 L 115.14204 81.3154 L 115.73267 81.3787 L 116.32329 81.4461 L 116.91391 81.5178 L 117.50453 81.59393 L 118.09515 81.67458 L 118.68578 81.75993 L 119.27638 81.85005 L 119.86702 81.94514 L 120.45764 82.0453 L 121.04825 82.15065 L 121.63889 82.26134 L 122.22949 82.37749 L 122.82011 82.49922 L 123.41075 82.62671 L 124.00136 82.76006 L 124.59198 82.89937 L 125.18262 83.04483 L 125.77322 83.19655 L 126.36385 83.35464 L 126.95447 83.51926 L 127.54509 83.69054 L 128.13573 83.86858 L 128.72634 84.05354 L 129.31696 84.24556 L 129.90758 84.44475 L 130.4982 84.65125 L 131.08882 84.86517 L 131.67945 85.0867 L 132.27007 85.31592 L 132.86067 85.55296 L 133.45131 85.79799 L 134.04193 86.05112 L 134.63254 86.31247 L 135.22318 86.58217 L 135.8138 86.86038 L 136.4044 87.14723 L 136.99504 87.44283 L 137.58565 87.74731 L 138.17627 88.0608 L 138.7669 88.38347 L 139.35752 88.71542 L 139.94815 89.05678 L 140.53876 89.4077 L 141.12938 89.76828 L 141.72002 90.13869 L 142.31063 90.51904 L 142.90125 90.90947 L 143.49187 91.3101 L 144.08249 91.72107 L 144.67311 92.1425 L 145.26374 92.57455 L 145.85436 93.01732 L 146.44498 93.47095 L 147.0356 93.93561 L 147.62622 94.41138 L 148.21683 94.8984 L 148.80747 95.39682 L 149.39809 95.90677 L 149.9887 96.42838 L 150.57933 96.96175 L 151.16994 97.50708 L 151.76058 98.06444 L 152.3512 98.63399 L 152.9418 99.21582 L 153.53244 99.81015 L 154.12305 100.41702 L 154.71367 101.03659 L 155.3043 101.66905 L 155.89492 102.31445 L 156.48554 102.97295 L 157.07617 103.64473 L 157.66678 104.32982 L 158.2574 105.02843 L 158.84803 105.74069 L 159.43865 106.4667 L 160.02927 107.20663 L 160.61989 107.96054 L 161.21051 108.72862 L 161.80112 109.51103 L 162.39176 110.30783 L 162.98238 111.11917 L 163.573 111.94524 L 164.16362 112.78612 L 164.75423 113.64188 L 165.34487 114.51279 L 165.93549 115.3989 L 166.5261 116.30034 L 167.11673 117.21725 L 167.70735 118.14978 L 168.29796 119.09802 L 168.8886 120.0622 L 169.4792 121.04236 L 170.06983 122.03865 L 170.66046 123.05115 L 171.25107 124.08011 L 171.84169 125.12558 L 172.43231 126.1877 L 173.02294 127.2666 L 173.61356 128.36246 L 174.20418 129.47533 L 174.7948 130.60546 L 175.38544 131.75289 L 175.97605 132.91771 L 176.56667 134.10016 L 177.15729 135.30036 L 177.74791 136.51836 L 178.33853 137.75434 L 178.92916 139.00843 L 179.51978 140.28084 L 180.11038 141.57149 L 180.70102 142.88066 L 181.29164 144.20856 L 181.88225 145.55518 L 182.47289 146.92069 L 183.06349 148.30527 L 183.65412 149.70902 L 184.24475 151.13193 L 184.83536 152.57444 L 185.25435 153.61157 "/>
<path transform="matrix(-.3744,.92725,.92725,.3744,9.85765,160.05735)" stroke-width=".31879" stroke-linecap="round" stroke-linejoin="round" fill="none" stroke="#000000" d="M -1.19551 1.59401 C -1.09587 .99626 0 .09961 .29886 0 C 0 -.09961 -1.09587 -.99626 -1.19551 -1.59401 "/>
<path transform="matrix(.37457,-.92719,-.92719,-.37457,186.11034,14.206436)" stroke-width=".31879" stroke-linecap="round" stroke-linejoin="round" fill="none" stroke="#000000" d="M -1.19551 1.59401 C -1.09587 .99626 0 .09961 .29886 0 C 0 -.09961 -1.09587 -.99626 -1.19551 -1.59401 "/>
</g>
<symbol id="font_3_1">
<path d="M .305 .31300003 C .311 .33900003 .334 .43100003 .404 .43100003 C .409 .43100003 .433 .43100003 .454 .418 C .426 .41300003 .40600003 .388 .40600003 .36400003 C .40600003 .34800003 .417 .32900004 .444 .32900004 C .46600003 .32900004 .498 .34700004 .498 .38700003 C .498 .43900005 .439 .45300005 .405 .45300005 C .347 .45300005 .312 .40000005 .3 .37700004 C .275 .44300003 .221 .45300005 .19200002 .45300005 C .08800001 .45300005 .031000002 .32400004 .031000002 .29900003 C .031000002 .28900004 .041 .28900004 .043000007 .28900004 C .051000008 .28900004 .054000006 .291 .056 .3 C .09 .40600003 .156 .43100003 .19000001 .43100003 C .209 .43100003 .244 .42200003 .244 .36400003 C .244 .33300004 .22700002 .26600004 .19000001 .126 C .17400001 .064 .13900002 .022000002 .095000009 .022000002 C .08900001 .022000002 .06600001 .022000002 .045 .035 C .07000001 .040000004 .09200001 .061 .09200001 .089 C .09200001 .116000007 .07000001 .124000009 .055000009 .124000009 C .025 .124000009 0 .098000008 0 .06600001 C 0 .020000002 .050000006 0 .094000007 0 C .16000001 0 .19600001 .07000001 .19900002 .076000008 C .21100001 .039 .24700003 0 .307 0 C .41 0 .467 .12900001 .467 .15400002 C .467 .16400002 .458 .16400002 .455 .16400002 C .446 .16400002 .444 .16000001 .442 .15300001 C .409 .046 .341 .022000002 .30900003 .022000002 C .27 .022000002 .254 .054 .254 .08800001 C .254 .11000001 .26 .13200002 .271 .17600002 L .305 .31300003 Z "/>
</symbol>
<use xlink:href="#font_3_1" transform="matrix(9.9626,0,0,-9.9626,192.55692,83.71558)"/>
<symbol id="font_3_2">
<path d="M .45700003 .586 C .461 .6 .461 .602 .461 .609 C .461 .62700006 .447 .63600006 .432 .63600006 C .42200003 .63600006 .40600003 .63 .397 .615 C .395 .61 .387 .579 .38300003 .561 C .37600003 .535 .36900003 .508 .363 .48100005 L .318 .301 C .314 .286 .271 .21600002 .20500002 .21600002 C .15400002 .21600002 .143 .26000003 .143 .29700003 C .143 .34300003 .16000001 .40500004 .194 .49300004 C .21000001 .53400006 .21400002 .545 .21400002 .56500008 C .21400002 .61 .18200001 .6470001 .13200002 .6470001 C .037 .6470001 0 .50200006 0 .49300004 C 0 .48300005 .01 .48300005 .012 .48300005 C .022000002 .48300005 .023 .485 .028000003 .50100007 C .055000009 .595 .095000009 .625 .12900001 .625 C .13700001 .625 .15400002 .625 .15400002 .59300008 C .15400002 .568 .14400001 .54200008 .13700001 .523 C .097 .41700004 .079 .36 .079 .31300003 C .079 .224 .142 .194 .201 .194 C .24000003 .194 .274 .21100001 .30200003 .23900002 C .289 .187 .277 .13800001 .237 .08500001 C .21100001 .051 .17300001 .022 .127 .022 C .113000009 .022 .068 .025000006 .051000008 .06400001 C .067 .06400001 .080000009 .06400001 .094000007 .076000008 C .104 .08500001 .11400001 .098000008 .11400001 .117000009 C .11400001 .148 .087000008 .15200001 .07700001 .15200001 C .054000006 .15200001 .021 .136 .021 .087000008 C .021 .037 .065000008 0 .127 0 C .23 0 .333 .091000009 .361 .20400001 L .45700003 .586 Z "/>
</symbol>
<use xlink:href="#font_3_2" transform="matrix(9.9626,0,0,-9.9626,101.79392,9.652334)"/>
</g>
</svg>
