<?xml version="1.0" encoding="UTF-8" standalone="no"?>
<!DOCTYPE svg PUBLIC "-//W3C//DTD SVG 1.1//EN" "http://www.w3.org/Graphics/SVG/1.1/DTD/svg11.dtd">
<svg xmlns="http://www.w3.org/2000/svg" xmlns:xlink="http://www.w3.org/1999/xlink" version="1.1" width="201.282pt" height="168.017pt" viewBox="0 0 201.282 168.017">
<g enable-background="new">
<path transform="matrix(1,0,0,-1,.856,167.818)" stroke-width=".19925" stroke-linecap="butt" stroke-miterlimit="10" stroke-linejoin="miter" fill="none" stroke="#808080" d="M 17.66013 79.27538 L 17.66013 82.11034 M 35.32027 79.27538 L 35.32027 82.11034 M 52.98041 79.27538 L 52.98041 82.11034 M 70.64055 79.27538 L 70.64055 82.11034 M 88.30069 79.27538 L 88.30069 82.11034 M 105.96082 79.27538 L 105.96082 82.11034 M 123.62096 79.27538 L 123.62096 82.11034 M 141.2811 79.27538 L 141.2811 82.11034 M 158.94124 79.27538 L 158.94124 82.11034 M 176.60138 79.27538 L 176.60138 82.11034 M 194.26152 79.27538 L 194.26152 82.11034 "/>
<path transform="matrix(1,0,0,-1,.856,167.818)" stroke-width=".19925" stroke-linecap="butt" stroke-miterlimit="10" stroke-linejoin="miter" fill="none" stroke="#808080" d="M 8.83006 78.56685 L 8.83006 82.81885 M 26.4902 78.56685 L 26.4902 82.81885 M 44.15034 78.56685 L 44.15034 82.81885 M 61.81047 78.56685 L 61.81047 82.81885 M 79.47061 78.56685 L 79.47061 82.81885 M 114.7909 78.56685 L 114.7909 82.81885 M 132.45104 78.56685 L 132.45104 82.81885 M 150.11116 78.56685 L 150.11116 82.81885 M 167.7713 78.56685 L 167.7713 82.81885 M 185.43144 78.56685 L 185.43144 82.81885 "/>
<path transform="matrix(1,0,0,-1,.856,167.818)" stroke-width=".19925" stroke-linecap="butt" stroke-miterlimit="10" stroke-linejoin="miter" fill="none" stroke="#808080" d="M 95.71329 14.67142 L 98.54822 14.67142 M 95.71329 29.34285 L 98.54822 29.34285 M 95.71329 44.01428 L 98.54822 44.01428 M 95.71329 58.68571 L 98.54822 58.68571 M 95.71329 73.35713 L 98.54822 73.35713 M 95.71329 88.02856 L 98.54822 88.02856 M 95.71329 102.7 L 98.54822 102.7 M 95.71329 117.37143 L 98.54822 117.37143 M 95.71329 132.04286 L 98.54822 132.04286 M 95.71329 146.71428 L 98.54822 146.71428 "/>
<path transform="matrix(1,0,0,-1,.856,167.818)" stroke-width=".19925" stroke-linecap="butt" stroke-miterlimit="10" stroke-linejoin="miter" fill="none" stroke="#808080" d="M 95.00478 7.33571 L 99.25671 7.33571 M 95.00478 22.00714 L 99.25671 22.00714 M 95.00478 36.67856 L 99.25671 36.67856 M 95.00478 51.34999 L 99.25671 51.34999 M 95.00478 66.02142 L 99.25671 66.02142 M 95.00478 95.36429 L 99.25671 95.36429 M 95.00478 110.0357 L 99.25671 110.0357 M 95.00478 124.70714 L 99.25671 124.70714 M 95.00478 139.37857 L 99.25671 139.37857 M 95.00478 154.05 L 99.25671 154.05 "/>
<path transform="matrix(1,0,0,-1,.856,167.818)" stroke-width=".3985" stroke-linecap="butt" stroke-miterlimit="10" stroke-linejoin="miter" fill="none" stroke="#000000" d="M 0 80.69286 L 192.269 80.69286 "/>
<path transform="matrix(1,0,0,-1,193.125,87.12513)" d="M 1.99252 0 L -1.19551 1.59401 L 0 0 L -1.19551 -1.59401 "/>
<path transform="matrix(1,0,0,-1,.856,167.818)" stroke-width=".3985" stroke-linecap="butt" stroke-miterlimit="10" stroke-linejoin="miter" fill="none" stroke="#000000" d="M 97.13075 0 L 97.13075 159.39319 "/>
<path transform="matrix(0,-1,-1,-0,97.986759,8.424805)" d="M 1.99252 0 L -1.19551 1.59401 L 0 0 L -1.19551 -1.59401 "/>
<symbol id="font_0_1">
<path d="M .57600006 0 C .59300008 0 .611 0 .611 .019999996 C .611 .040000008 .59300008 .040000008 .57600006 .040000008 L .035000005 .040000008 C .018 .040000008 0 .040000008 0 .019999996 C 0 0 .018 0 .035000005 0 L .57600006 0 Z "/>
</symbol>
<use xlink:href="#font_0_1" transform="matrix(9.9626,0,0,-9.9626,4.147896,96.900608)"/>
<symbol id="font_1_5">
<path d="M .39900003 .223 C .39900003 .34200005 .317 .44200004 .209 .44200004 C .16100002 .44200004 .118000019 .42600004 .082 .39100004 L .082 .586 C .10200001 .58000007 .135 .573 .16700001 .573 C .29 .573 .36 .66400006 .36 .67700007 C .36 .683 .357 .688 .35 .688 C .349 .688 .347 .688 .342 .68500009 C .322 .67600008 .273 .656 .20600002 .656 C .16600001 .656 .120000008 .66300007 .073 .6840001 C .065 .68700006 .06300001 .68700006 .061000009 .68700006 C .051000004 .68700006 .051000004 .679 .051000004 .66300007 L .051000004 .36700005 C .051000004 .34900005 .051000004 .34100003 .065 .34100003 C .07200001 .34100003 .074 .34400005 .07800001 .35000003 C .08900002 .36600004 .12600002 .42000006 .207 .42000006 C .259 .42000006 .284 .37400005 .292 .35600005 C .308 .31900005 .31 .28000004 .31 .23 C .31 .19500001 .31 .135 .286 .093 C .262 .054000006 .22500001 .028 .17900002 .028 C .106000009 .028 .049000008 .08100001 .032 .14000002 C .035 .13900002 .038000008 .13800001 .049000008 .13800001 C .082 .13800001 .09900001 .163 .09900001 .187 C .09900001 .21100001 .082 .23600002 .049000008 .23600002 C .035 .23600002 0 .22900002 0 .18300002 C 0 .097 .069000009 0 .18100001 0 C .297 0 .39900003 .096 .39900003 .223 Z "/>
</symbol>
<use xlink:href="#font_1_5" transform="matrix(9.9626,0,0,-9.9626,11.56713,99.41118)"/>
<use xlink:href="#font_0_1" transform="matrix(9.9626,0,0,-9.9626,21.806899,96.900608)"/>
<symbol id="font_1_4">
<path d="M .266 .165 L .266 .078 C .266 .042000005 .26400004 .031000002 .19000001 .031000002 L .16900002 .031000002 L .16900002 0 C .21000001 .003 .26200003 .003 .30400003 .003 C .34600003 .003 .39900003 .003 .44000004 0 L .44000004 .031000002 L .41900004 .031000002 C .34500004 .031000002 .34300003 .042000005 .34300003 .078 L .34300003 .165 L .44300003 .165 L .44300003 .19600001 L .34300003 .19600001 L .34300003 .651 C .34300003 .671 .34300003 .67700007 .32700003 .67700007 C .31800003 .67700007 .31500004 .67700007 .307 .665 L 0 .19600001 L 0 .165 L .266 .165 M .272 .19600001 L .028 .19600001 L .272 .569 L .272 .19600001 Z "/>
</symbol>
<use xlink:href="#font_1_4" transform="matrix(9.9626,0,0,-9.9626,29.007956,99.192)"/>
<use xlink:href="#font_0_1" transform="matrix(9.9626,0,0,-9.9626,39.466897,96.900608)"/>
<symbol id="font_1_3">
<path d="M .24800003 .37400005 C .33 .40100003 .388 .47100006 .388 .55 C .388 .632 .3 .688 .204 .688 C .10300001 .688 .027000003 .628 .027000003 .55200007 C .027000003 .519 .049000004 .5 .078 .5 C .109000008 .5 .12900001 .522 .12900001 .55100008 C .12900001 .6010001 .082 .6010001 .067 .6010001 C .098 .65000006 .164 .66300007 .20000002 .66300007 C .24100003 .66300007 .29600004 .64100006 .29600004 .55100008 C .29600004 .53900006 .29400004 .48100005 .268 .43700005 C .238 .38900004 .204 .38600005 .17900002 .38500003 C .171 .38400004 .14700002 .38200004 .14000002 .38200004 C .132 .38100005 .125 .38000003 .125 .37000004 C .125 .35900004 .132 .35900004 .14900002 .35900004 L .19300002 .35900004 C .275 .35900004 .312 .29100005 .312 .193 C .312 .057000005 .24300003 .028 .199 .028 C .15600002 .028 .081 .045 .046000005 .104 C .081 .09900001 .11200001 .12100001 .11200001 .15900001 C .11200001 .19500001 .085 .215 .056 .215 C .031999999 .215 0 .201 0 .157 C 0 .06600001 .093 0 .20200002 0 C .32400004 0 .41500003 .091000009 .41500003 .193 C .41500003 .27500005 .35200004 .35300005 .24800003 .37400005 Z "/>
</symbol>
<use xlink:href="#font_1_3" transform="matrix(9.9626,0,0,-9.9626,46.80743,99.41118)"/>
<use xlink:href="#font_0_1" transform="matrix(9.9626,0,0,-9.9626,57.126897,96.900608)"/>
<symbol id="font_1_2">
<path d="M .07700001 .07700001 L .18300002 .18 C .33900003 .31800003 .39900003 .372 .39900003 .47200004 C .39900003 .586 .30900003 .666 .18700002 .666 C .074 .666 0 .574 0 .485 C 0 .42900003 .05 .42900003 .053000008 .42900003 C .07000001 .42900003 .105000007 .441 .105000007 .48200003 C .105000007 .508 .08700001 .53400006 .052000006 .53400006 C .044000005 .53400006 .042000008 .53400006 .039 .53300008 C .062000004 .59800007 .11600001 .63500007 .17400001 .63500007 C .26500003 .63500007 .308 .554 .308 .47200004 C .308 .39200003 .25800003 .31300003 .20300003 .25100003 L .011000004 .037 C 0 .026 0 .024 0 0 L .37100003 0 L .39900003 .17400001 L .374 .17400001 C .36900003 .14400001 .36200003 .1 .352 .085 C .345 .07700001 .279 .07700001 .257 .07700001 L .07700001 .07700001 Z "/>
</symbol>
<use xlink:href="#font_1_2" transform="matrix(9.9626,0,0,-9.9626,64.54713,99.192)"/>
<use xlink:href="#font_0_1" transform="matrix(9.9626,0,0,-9.9626,74.786899,96.900608)"/>
<symbol id="font_1_1">
<path d="M .205 .64000007 C .205 .66400006 .205 .666 .18200003 .666 C .120000008 .60200008 .032000007 .60200008 0 .60200008 L 0 .57100006 C .020000004 .57100006 .07900001 .57100006 .13100001 .597 L .13100001 .079 C .13100001 .043 .128 .031000002 .038000004 .031000002 L .0060000049 .031000002 L .0060000049 0 C .04100001 .003 .128 .003 .168 .003 C .20800002 .003 .29500003 .003 .33000005 0 L .33000005 .031000002 L .29800005 .031000002 C .20800002 .031000002 .205 .042000005 .205 .079 L .205 .64000007 Z "/>
</symbol>
<use xlink:href="#font_1_1" transform="matrix(9.9626,0,0,-9.9626,82.59567,99.192)"/>
<use xlink:href="#font_1_1" transform="matrix(9.9626,0,0,-9.9626,114.04067,99.192)"/>
<use xlink:href="#font_1_2" transform="matrix(9.9626,0,0,-9.9626,131.31212,99.192)"/>
<use xlink:href="#font_1_3" transform="matrix(9.9626,0,0,-9.9626,148.89243,99.41118)"/>
<use xlink:href="#font_1_4" transform="matrix(9.9626,0,0,-9.9626,166.41295,99.192)"/>
<use xlink:href="#font_1_5" transform="matrix(9.9626,0,0,-9.9626,184.29213,99.41118)"/>
<use xlink:href="#font_0_1" transform="matrix(9.9626,0,0,-9.9626,80.4359,160.9856)"/>
<use xlink:href="#font_1_5" transform="matrix(9.9626,0,0,-9.9626,87.85613,163.49617)"/>
<use xlink:href="#font_0_1" transform="matrix(9.9626,0,0,-9.9626,80.4359,146.31459)"/>
<use xlink:href="#font_1_4" transform="matrix(9.9626,0,0,-9.9626,87.636959,148.60599)"/>
<use xlink:href="#font_0_1" transform="matrix(9.9626,0,0,-9.9626,80.4359,131.6436)"/>
<use xlink:href="#font_1_3" transform="matrix(9.9626,0,0,-9.9626,87.77643,134.15418)"/>
<use xlink:href="#font_0_1" transform="matrix(9.9626,0,0,-9.9626,80.4359,116.9726)"/>
<use xlink:href="#font_1_2" transform="matrix(9.9626,0,0,-9.9626,87.85613,119.264)"/>
<use xlink:href="#font_0_1" transform="matrix(9.9626,0,0,-9.9626,80.4359,102.3006)"/>
<use xlink:href="#font_1_1" transform="matrix(9.9626,0,0,-9.9626,88.244678,104.591999)"/>
<use xlink:href="#font_1_1" transform="matrix(9.9626,0,0,-9.9626,88.244678,75.665)"/>
<use xlink:href="#font_1_2" transform="matrix(9.9626,0,0,-9.9626,87.85613,60.993997)"/>
<use xlink:href="#font_1_3" transform="matrix(9.9626,0,0,-9.9626,87.77643,46.541177)"/>
<use xlink:href="#font_1_4" transform="matrix(9.9626,0,0,-9.9626,87.636959,31.650986)"/>
<use xlink:href="#font_1_5" transform="matrix(9.9626,0,0,-9.9626,87.85613,17.199173)"/>
<clipPath id="cp2">
<path transform="matrix(1,0,0,-1,.856,167.818)" d="M 0 0 L 194.26152 0 L 194.26152 161.38571 L 0 161.38571 Z "/>
</clipPath>
<g clip-path="url(#cp2)">
<path transform="matrix(1,0,0,-1,.856,167.818)" stroke-width=".3985" stroke-linecap="butt" stroke-miterlimit="10" stroke-linejoin="miter" fill="none" stroke="#000000" d="M 97.13075 80.69286 L 97.42607 88.19728 L 97.72137 90.14624 L 98.01671 91.51685 L 98.31203 92.60574 L 98.60735 93.52448 L 98.90266 94.32846 L 99.19798 95.04767 L 99.4933 95.7023 L 99.78862 96.30412 L 100.08395 96.86165 L 100.37926 97.38394 L 100.67458 97.87427 L 100.96991 98.33759 L 101.26521 98.78096 L 101.56055 99.20085 L 101.85587 99.60286 L 102.15117 99.99019 L 102.4465 100.36282 L 102.74182 100.71817 L 103.03714 101.06442 L 103.33246 101.39893 L 103.62779 101.72171 L 103.9231 102.03596 L 104.21841 102.34142 L 104.51375 102.63777 L 104.80907 102.92535 L 105.10437 103.20674 L 105.3997 103.48315 L 105.69502 103.74988 L 105.99034 104.01396 L 106.28566 104.26926 L 106.581 104.51924 L 106.8763 104.76543 L 107.17162 105.00633 L 107.46695 105.24109 L 107.76225 105.47289 L 108.05759 105.70177 L 108.3529 105.92506 L 108.64821 106.14484 L 108.94354 106.35934 L 109.23886 106.5706 L 109.53418 106.77864 L 109.8295 106.98434 L 110.12483 107.1868 L 110.42014 107.38634 L 110.71545 107.58293 L 111.01079 107.7769 L 111.30609 107.96762 L 111.60141 108.15512 L 111.89674 108.33998 L 112.19205 108.52513 L 112.48738 108.70413 L 112.7827 108.88312 L 113.07802 109.05917 L 113.37334 109.23259 L 113.66866 109.40572 L 113.96397 109.5759 L 114.2593 109.74345 L 114.55463 109.91042 L 114.84993 110.06825 L 115.14525 110.23056 L 115.44058 110.39075 L 115.73589 110.54922 L 116.0312 110.7065 L 116.32652 110.86227 L 116.62183 111.01633 L 116.91716 111.16835 L 117.21248 111.31946 L 117.50778 111.46881 L 117.8031 111.6167 L 118.09843 111.76343 L 118.39374 111.9081 L 118.68906 112.05244 L 118.98438 112.19473 L 119.2797 112.33618 L 119.57501 112.47646 L 119.87033 112.61467 L 120.16565 112.75256 L 120.46097 112.88873 L 120.75629 113.0234 L 121.0516 113.1581 L 121.34691 113.2907 L 121.64224 113.42332 L 121.93756 113.55362 L 122.23286 113.68391 L 122.52818 113.8124 L 122.82352 113.94005 L 123.11882 114.06712 L 123.41414 114.1936 L 123.70946 114.31831 L 124.00478 114.44183 L 124.3001 114.56537 L 124.59541 114.68715 L 124.89072 114.80888 L 125.18605 114.92862 L 125.48137 115.04866 L 125.77667 115.16776 L 126.07199 115.28632 L 126.36732 115.40398 L 126.66263 115.5199 L 126.95795 115.6352 L 127.25327 115.75021 L 127.54858 115.86348 L 127.8439 115.97762 L 128.13922 116.09 L 128.43453 116.2027 L 128.72986 116.31392 L 129.02518 116.42365 L 129.32048 116.53429 L 129.6158 116.6428 L 129.91114 116.75171 L 130.20644 116.85907 L 130.50176 116.96707 L 130.79708 117.0745 L 131.09239 117.1801 L 131.38771 117.28546 L 131.68303 117.39018 L 131.97834 117.49406 L 132.27367 117.59735 L 132.56899 117.7027 L 132.86429 117.80542 L 133.1596 117.90692 L 133.45494 118.00757 L 133.75025 118.1088 L 134.04557 118.20918 L 134.34088 118.30951 L 134.6362 118.40779 L 134.93152 118.50697 L 135.22684 118.6044 L 135.52216 118.70358 L 135.81748 118.79984 L 136.1128 118.89694 L 136.40811 118.99263 L 136.70342 119.08884 L 136.99875 119.18394 L 137.29407 119.27869 L 137.58937 119.37262 L 137.88469 119.46767 L 138.18003 119.55983 L 138.47533 119.6534 L 138.77065 119.74612 L 139.06597 119.838 L 139.36128 119.92982 L 139.6566 120.02077 L 139.95192 120.11234 L 140.24723 120.20242 L 140.54256 120.29192 L 140.83788 120.382 L 141.13318 120.47119 L 141.4285 120.5598 L 141.72383 120.64844 L 142.01914 120.73674 L 142.31446 120.8236 L 142.60977 120.91136 L 142.90509 120.99849 L 143.20041 121.08504 L 143.49573 121.17104 L 143.79103 121.25554 L 144.08637 121.34181 L 144.38169 121.42662 L 144.67699 121.51111 L 144.9723 121.5959 L 145.26764 121.68013 L 145.56295 121.76376 L 145.85826 121.84709 L 146.15358 121.92982 L 146.4489 122.0117 L 146.74422 122.09445 L 147.03954 122.17603 L 147.33484 122.25787 L 147.63018 122.33914 L 147.92549 122.42014 L 148.2208 122.50114 L 148.51612 122.58124 L 148.81145 122.66133 L 149.10675 122.74144 L 149.40207 122.82068 L 149.69739 122.89963 L 149.99272 122.97856 L 150.28803 123.05807 L 150.58335 123.13612 L 150.87866 123.21388 L 151.17398 123.29135 L 151.4693 123.36848 L 151.76462 123.4454 L 152.05992 123.52287 L 152.35526 123.60033 L 152.65058 123.67604 L 152.94588 123.75171 L 153.2412 123.82742 L 153.53653 123.90404 L 153.83184 123.97827 L 154.12715 124.05339 L 154.42247 124.1273 L 154.71779 124.20245 L 155.0131 124.27696 L 155.30843 124.35118 L 155.60373 124.42546 L 155.89907 124.49765 L 156.19438 124.57155 L 156.48969 124.64346 L 156.785 124.71654 L 157.08034 124.78987 L 157.37564 124.86263 L 157.67096 124.93423 L 157.96628 125.00523 L 158.2616 125.07831 L 158.55692 125.14874 L 158.85224 125.21948 L 159.14754 125.28929 L 159.44287 125.36029 L 159.73819 125.43188 L 160.0335 125.50084 L 160.32881 125.57274 L 160.62415 125.64111 L 160.91945 125.71095 L 161.21477 125.77902 L 161.51009 125.84944 L 161.8054 125.91724 L 162.10073 125.98708 L 162.39604 126.05693 L 162.69135 126.12323 L 162.98668 126.1913 L 163.282 126.25938 L 163.5773 126.32687 L 163.87262 126.39523 L 164.16796 126.46185 L 164.46326 126.53023 L 164.75858 126.59474 L 165.0539 126.66284 L 165.34923 126.72768 L 165.64453 126.79579 L 165.93985 126.86208 L 166.23517 126.92749 L 166.53049 126.99295 L 166.8258 127.05869 L 167.12113 127.12442 L 167.41643 127.18837 L 167.71176 127.25525 L 168.00708 127.32161 L 168.30239 127.38612 L 168.5977 127.45009 L 168.89304 127.51408 L 169.18834 127.57892 L 169.48366 127.64348 L 169.77898 127.70657 L 170.0743 127.77055 L 170.36962 127.83275 L 170.66493 127.89641 L 170.96024 127.96008 L 171.25557 128.02257 L 171.55089 128.0854 L 171.84619 128.1479 L 172.14151 128.21009 L 172.43685 128.27286 L 172.73215 128.3342 L 173.02747 128.39704 L 173.32279 128.45774 L 173.6181 128.52056 L 173.91342 128.58126 L 174.20874 128.6426 L 174.50405 128.70421 L 174.79938 128.76497 L 175.0947 128.82599 L 175.39 128.88672 L 175.68532 128.94779 L 175.98065 129.00765 L 176.27596 129.06809 L 176.57128 129.1291 L 176.8666 129.18868 L 177.16191 129.24852 L 177.45723 129.3075 L 177.75255 129.36794 L 178.04785 129.42664 L 178.34319 129.48619 L 178.6385 129.54488 L 178.9338 129.60506 L 179.22913 129.66255 L 179.52446 129.72093 L 179.81978 129.77996 L 180.11508 129.8386 L 180.4104 129.89582 L 180.70574 129.95452 L 181.00104 130.01232 L 181.29636 130.06954 L 181.59168 130.12793 L 181.887 130.18515 L 182.18231 130.2421 L 182.47763 130.29991 L 182.77294 130.35681 L 183.06826 130.41492 L 183.36359 130.47126 L 183.65889 130.52817 L 183.95421 130.58422 L 184.24953 130.64144 L 184.54485 130.69776 L 184.84017 130.75382 L 185.13549 130.80898 L 184.98107 130.77875 "/>
<path transform="matrix(.98134,-.19211,-.19211,-.98134,185.83705,37.039247)" stroke-width=".31879" stroke-linecap="round" stroke-linejoin="round" fill="none" stroke="#000000" d="M -1.19551 1.59401 C -1.09587 .99626 0 .09961 .29886 0 C 0 -.09961 -1.09587 -.99626 -1.19551 -1.59401 "/>
<path transform="matrix(1,0,0,-1,.856,167.818)" stroke-width=".3985" stroke-linecap="butt" stroke-miterlimit="10" stroke-linejoin="miter" fill="none" stroke="#000000" d="M 9.28004 30.60562 L 9.12538 30.57582 L 9.42068 30.63187 L 9.716 30.68794 L 10.01132 30.74426 L 10.30664 30.80058 L 10.60196 30.85753 L 10.89728 30.91354 L 11.19258 30.97076 L 11.48792 31.02771 L 11.78323 31.08578 L 12.07854 31.14275 L 12.37386 31.20055 L 12.66919 31.25777 L 12.9645 31.31409 L 13.25981 31.37248 L 13.55513 31.43118 L 13.85045 31.48987 L 14.14577 31.54709 L 14.44109 31.60516 L 14.73639 31.66475 L 15.03172 31.72314 L 15.32704 31.78064 L 15.62234 31.8408 L 15.91766 31.8995 L 16.213 31.95905 L 16.5083 32.01776 L 16.80362 32.0782 L 17.09894 32.13718 L 17.39426 32.19702 L 17.68958 32.25658 L 17.9849 32.31761 L 18.2802 32.37805 L 18.57553 32.43791 L 18.87085 32.49898 L 19.16615 32.5597 L 19.46147 32.62071 L 19.7568 32.68147 L 20.05211 32.74309 L 20.34743 32.80383 L 20.64275 32.86488 L 20.93808 32.92706 L 21.23338 32.98866 L 21.5287 33.0506 L 21.82402 33.11284 L 22.11934 33.1756 L 22.41466 33.23721 L 22.70998 33.3003 L 23.00528 33.36311 L 23.30061 33.42561 L 23.59593 33.48929 L 23.89124 33.55147 L 24.18655 33.61514 L 24.48189 33.67885 L 24.77719 33.74222 L 25.07251 33.80678 L 25.36783 33.87134 L 25.66315 33.9356 L 25.95847 33.99957 L 26.25378 34.06383 L 26.54909 34.13188 L 26.84442 34.19617 L 27.13974 34.25952 L 27.43504 34.3279 L 27.73036 34.39099 L 28.0257 34.45787 L 28.321 34.52539 L 28.61632 34.59023 L 28.91164 34.65686 L 29.20695 34.72227 L 29.50227 34.79005 L 29.79759 34.85547 L 30.0929 34.92383 L 30.38823 34.99136 L 30.68355 35.05882 L 30.97885 35.1275 L 31.27417 35.19292 L 31.5695 35.26245 L 31.8648 35.32967 L 32.16013 35.39893 L 32.45544 35.46698 L 32.75076 35.53624 L 33.04608 35.60637 L 33.3414 35.67505 L 33.6367 35.74458 L 33.93204 35.81294 L 34.22736 35.88423 L 34.52266 35.95233 L 34.81798 36.0242 L 35.11331 36.09378 L 35.40863 36.16536 L 35.70393 36.23665 L 35.99925 36.30797 L 36.29459 36.37924 L 36.58989 36.45146 L 36.88521 36.52307 L 37.18053 36.59583 L 37.47585 36.66916 L 37.77116 36.74164 L 38.06648 36.81381 L 38.36179 36.88805 L 38.65712 36.96024 L 38.95244 37.0345 L 39.24774 37.10785 L 39.54306 37.18239 L 39.8384 37.2578 L 40.1337 37.33229 L 40.42902 37.40742 L 40.72433 37.48166 L 41.01965 37.55795 L 41.31497 37.63397 L 41.61029 37.70966 L 41.9056 37.78479 L 42.20093 37.86281 L 42.49625 37.94028 L 42.79155 38.01599 L 43.08687 38.09435 L 43.3822 38.17181 L 43.6775 38.24957 L 43.97282 38.32794 L 44.26814 38.40714 L 44.56346 38.48521 L 44.85878 38.565 L 45.1541 38.64426 L 45.4494 38.72435 L 45.74474 38.80473 L 46.04005 38.88455 L 46.33536 38.9664 L 46.63068 39.04655 L 46.92601 39.12723 L 47.22131 39.20882 L 47.51663 39.29065 L 47.81195 39.37338 L 48.10727 39.45586 L 48.40259 39.5386 L 48.6979 39.62167 L 48.99321 39.70615 L 49.28854 39.78949 L 49.58386 39.87459 L 49.87917 39.9588 L 50.17448 40.04387 L 50.46982 40.12958 L 50.76514 40.21465 L 51.06044 40.30064 L 51.35576 40.3872 L 51.6511 40.47433 L 51.9464 40.56209 L 52.24171 40.64896 L 52.53703 40.73724 L 52.83235 40.8259 L 53.12767 40.91418 L 53.42299 41.0037 L 53.71829 41.09288 L 54.01363 41.1827 L 54.30894 41.27278 L 54.60425 41.36461 L 54.89957 41.45586 L 55.1949 41.5477 L 55.4902 41.63899 L 55.78552 41.7323 L 56.08084 41.8247 L 56.37616 41.91801 L 56.67148 42.01248 L 56.9668 42.10701 L 57.2621 42.20175 L 57.55743 42.29684 L 57.85275 42.39307 L 58.14806 42.48843 L 58.44337 42.58586 L 58.73871 42.68211 L 59.03401 42.78072 L 59.32933 42.8784 L 59.62465 42.9779 L 59.91997 43.07619 L 60.21529 43.17651 L 60.5106 43.27632 L 60.80591 43.37755 L 61.10124 43.47878 L 61.39656 43.58028 L 61.69186 43.683 L 61.98718 43.78893 L 62.28252 43.89163 L 62.57782 43.99577 L 62.87314 44.10023 L 63.16846 44.2056 L 63.46378 44.3112 L 63.7591 44.41687 L 64.05441 44.526 L 64.34972 44.6343 L 64.64505 44.74199 L 64.94037 44.85141 L 65.23569 44.96115 L 65.53099 45.07152 L 65.82632 45.18332 L 66.12164 45.2942 L 66.41695 45.40808 L 66.71227 45.52222 L 67.0076 45.63606 L 67.3029 45.7505 L 67.59822 45.86578 L 67.89354 45.98172 L 68.18886 46.09938 L 68.48418 46.21762 L 68.7795 46.33678 L 69.0748 46.45677 L 69.37013 46.57617 L 69.66545 46.69853 L 69.96075 46.81975 L 70.25607 46.94385 L 70.5514 47.06738 L 70.84671 47.1921 L 71.14203 47.31857 L 71.43735 47.44533 L 71.73267 47.57297 L 72.02798 47.70178 L 72.3233 47.83177 L 72.6186 47.96237 L 72.91394 48.0944 L 73.20926 48.22702 L 73.50456 48.36143 L 73.79988 48.49696 L 74.09521 48.63313 L 74.39052 48.77103 L 74.68584 48.90924 L 74.98116 49.04951 L 75.27646 49.19037 L 75.5718 49.33325 L 75.86711 49.47702 L 76.16241 49.62225 L 76.45773 49.7684 L 76.75307 49.91687 L 77.04837 50.06593 L 77.34369 50.21677 L 77.639 50.36935 L 77.93433 50.52312 L 78.22964 50.67892 L 78.52496 50.83589 L 78.82027 50.99493 L 79.1156 51.15514 L 79.41092 51.3168 L 79.70622 51.47528 L 80.00154 51.64224 L 80.29688 51.8098 L 80.5922 51.97998 L 80.8875 52.15016 L 81.18283 52.32652 L 81.47815 52.50258 L 81.77345 52.68156 L 82.06879 52.86055 L 82.3641 53.04572 L 82.65941 53.23058 L 82.95473 53.41808 L 83.25006 53.6088 L 83.54536 53.80276 L 83.84068 53.99934 L 84.136 54.1989 L 84.43132 54.40135 L 84.72664 54.6038 L 85.02196 54.8151 L 85.31728 55.02635 L 85.6126 55.24084 L 85.90791 55.46063 L 86.20322 55.68393 L 86.49855 55.91281 L 86.79387 56.1446 L 87.08917 56.37936 L 87.3845 56.62027 L 87.67982 56.86644 L 87.97513 57.11644 L 88.27046 57.37172 L 88.56578 57.63582 L 88.86108 57.90253 L 89.1564 58.17572 L 89.45174 58.45743 L 89.74704 58.74791 L 90.04236 59.04428 L 90.33768 59.34973 L 90.633 59.66399 L 90.92831 59.98677 L 91.22363 60.32127 L 91.51895 60.66458 L 91.81427 61.02286 L 92.10959 61.39551 L 92.4049 61.7799 L 92.70023 62.18219 L 92.99554 62.60474 L 93.29085 63.04488 L 93.58618 63.50877 L 93.8815 64.00175 L 94.1768 64.52405 L 94.47212 65.08156 L 94.76746 65.68076 L 95.06277 66.33539 L 95.35808 67.05429 L 95.65341 67.85828 L 95.94873 68.7767 L 96.24403 69.86563 L 96.53937 71.2336 L 96.83469 73.18254 L 97.12999 79.66855 "/>
<path transform="matrix(-.9819,.18922,.18922,.9819,10.13604,137.21237)" stroke-width=".31879" stroke-linecap="round" stroke-linejoin="round" fill="none" stroke="#000000" d="M -1.19551 1.59401 C -1.09587 .99626 0 .09961 .29886 0 C 0 -.09961 -1.09587 -.99626 -1.19551 -1.59401 "/>
</g>
<symbol id="font_3_1">
<path d="M .305 .31300003 C .311 .33900003 .334 .43100003 .404 .43100003 C .409 .43100003 .433 .43100003 .454 .418 C .426 .41300003 .40600003 .388 .40600003 .36400003 C .40600003 .34800003 .417 .32900004 .444 .32900004 C .46600003 .32900004 .498 .34700004 .498 .38700003 C .498 .43900005 .439 .45300005 .405 .45300005 C .347 .45300005 .312 .40000005 .3 .37700004 C .275 .44300003 .221 .45300005 .19200002 .45300005 C .08800001 .45300005 .031000002 .32400004 .031000002 .29900003 C .031000002 .28900004 .041 .28900004 .043000007 .28900004 C .051000008 .28900004 .054000006 .291 .056 .3 C .09 .40600003 .156 .43100003 .19000001 .43100003 C .209 .43100003 .244 .42200003 .244 .36400003 C .244 .33300004 .22700002 .26600004 .19000001 .126 C .17400001 .064 .13900002 .022000002 .095000009 .022000002 C .08900001 .022000002 .06600001 .022000002 .045 .035 C .07000001 .040000004 .09200001 .061 .09200001 .089 C .09200001 .116000007 .07000001 .124000009 .055000009 .124000009 C .025 .124000009 0 .098000008 0 .06600001 C 0 .020000002 .050000006 0 .094000007 0 C .16000001 0 .19600001 .07000001 .19900002 .076000008 C .21100001 .039 .24700003 0 .307 0 C .41 0 .467 .12900001 .467 .15400002 C .467 .16400002 .458 .16400002 .455 .16400002 C .446 .16400002 .444 .16000001 .442 .15300001 C .409 .046 .341 .022000002 .30900003 .022000002 C .27 .022000002 .254 .054 .254 .08800001 C .254 .11000001 .26 .13200002 .271 .17600002 L .305 .31300003 Z "/>
</symbol>
<use xlink:href="#font_3_1" transform="matrix(9.9626,0,0,-9.9626,192.55692,83.71558)"/>
<symbol id="font_3_2">
<path d="M .45700003 .586 C .461 .6 .461 .602 .461 .609 C .461 .62700006 .447 .63600006 .432 .63600006 C .42200003 .63600006 .40600003 .63 .397 .615 C .395 .61 .387 .579 .38300003 .561 C .37600003 .535 .36900003 .508 .363 .48100005 L .318 .301 C .314 .286 .271 .21600002 .20500002 .21600002 C .15400002 .21600002 .143 .26000003 .143 .29700003 C .143 .34300003 .16000001 .40500004 .194 .49300004 C .21000001 .53400006 .21400002 .545 .21400002 .56500008 C .21400002 .61 .18200001 .6470001 .13200002 .6470001 C .037 .6470001 0 .50200006 0 .49300004 C 0 .48300005 .01 .48300005 .012 .48300005 C .022000002 .48300005 .023 .485 .028000003 .50100007 C .055000009 .595 .095000009 .625 .12900001 .625 C .13700001 .625 .15400002 .625 .15400002 .59300008 C .15400002 .568 .14400001 .54200008 .13700001 .523 C .097 .41700004 .079 .36 .079 .31300003 C .079 .224 .142 .194 .201 .194 C .24000003 .194 .274 .21100001 .30200003 .23900002 C .289 .187 .277 .13800001 .237 .08500001 C .21100001 .051 .17300001 .022 .127 .022 C .113000009 .022 .068 .025000006 .051000008 .06400001 C .067 .06400001 .080000009 .06400001 .094000007 .076000008 C .104 .08500001 .11400001 .098000008 .11400001 .117000009 C .11400001 .148 .087000008 .15200001 .07700001 .15200001 C .054000006 .15200001 .021 .136 .021 .087000008 C .021 .037 .065000008 0 .127 0 C .23 0 .333 .091000009 .361 .20400001 L .45700003 .586 Z "/>
</symbol>
<use xlink:href="#font_3_2" transform="matrix(9.9626,0,0,-9.9626,101.79392,9.652334)"/>
</g>
</svg>
