<?xml version="1.0" encoding="UTF-8" standalone="no"?>
<!DOCTYPE svg PUBLIC "-//W3C//DTD SVG 1.1//EN" "http://www.w3.org/Graphics/SVG/1.1/DTD/svg11.dtd">
<svg xmlns="http://www.w3.org/2000/svg" xmlns:xlink="http://www.w3.org/1999/xlink" version="1.1" width="202.645pt" height="168.017pt" viewBox="0 0 202.645 168.017">
<g enable-background="new">
<path transform="matrix(1,0,0,-1,2.214,167.818)" stroke-width=".19925" stroke-linecap="butt" stroke-miterlimit="10" stroke-linejoin="miter" fill="none" stroke="#808080" d="M 14.94354 79.27538 L 14.94354 82.11034 M 29.88708 79.27538 L 29.88708 82.11034 M 44.83063 79.27538 L 44.83063 82.11034 M 59.77417 79.27538 L 59.77417 82.11034 M 74.71771 79.27538 L 74.71771 82.11034 M 89.66125 79.27538 L 89.66125 82.11034 M 104.60481 79.27538 L 104.60481 82.11034 M 119.54836 79.27538 L 119.54836 82.11034 M 134.4919 79.27538 L 134.4919 82.11034 M 149.43544 79.27538 L 149.43544 82.11034 M 164.37899 79.27538 L 164.37899 82.11034 M 179.32253 79.27538 L 179.32253 82.11034 "/>
<path transform="matrix(1,0,0,-1,2.214,167.818)" stroke-width=".19925" stroke-linecap="butt" stroke-miterlimit="10" stroke-linejoin="miter" fill="none" stroke="#808080" d="M 7.47177 78.56685 L 7.47177 82.81885 M 22.41531 78.56685 L 22.41531 82.81885 M 37.35886 78.56685 L 37.35886 82.81885 M 52.3024 78.56685 L 52.3024 82.81885 M 67.24594 78.56685 L 67.24594 82.81885 M 97.13303 78.56685 L 97.13303 82.81885 M 112.07658 78.56685 L 112.07658 82.81885 M 127.02013 78.56685 L 127.02013 82.81885 M 141.96367 78.56685 L 141.96367 82.81885 M 156.90721 78.56685 L 156.90721 82.81885 M 171.85076 78.56685 L 171.85076 82.81885 M 186.7943 78.56685 L 186.7943 82.81885 "/>
<path transform="matrix(1,0,0,-1,2.214,167.818)" stroke-width=".19925" stroke-linecap="butt" stroke-miterlimit="10" stroke-linejoin="miter" fill="none" stroke="#808080" d="M 80.7721 14.67142 L 83.60687 14.67142 M 80.7721 29.34285 L 83.60687 29.34285 M 80.7721 44.01428 L 83.60687 44.01428 M 80.7721 58.68571 L 83.60687 58.68571 M 80.7721 73.35713 L 83.60687 73.35713 M 80.7721 88.02856 L 83.60687 88.02856 M 80.7721 102.7 L 83.60687 102.7 M 80.7721 117.37143 L 83.60687 117.37143 M 80.7721 132.04286 L 83.60687 132.04286 M 80.7721 146.71428 L 83.60687 146.71428 "/>
<path transform="matrix(1,0,0,-1,2.214,167.818)" stroke-width=".19925" stroke-linecap="butt" stroke-miterlimit="10" stroke-linejoin="miter" fill="none" stroke="#808080" d="M 80.06363 7.33571 L 84.31534 7.33571 M 80.06363 22.00714 L 84.31534 22.00714 M 80.06363 36.67856 L 84.31534 36.67856 M 80.06363 51.34999 L 84.31534 51.34999 M 80.06363 66.02142 L 84.31534 66.02142 M 80.06363 95.36429 L 84.31534 95.36429 M 80.06363 110.0357 L 84.31534 110.0357 M 80.06363 124.70714 L 84.31534 124.70714 M 80.06363 139.37857 L 84.31534 139.37857 M 80.06363 154.05 L 84.31534 154.05 "/>
<path transform="matrix(1,0,0,-1,2.214,167.818)" stroke-width=".3985" stroke-linecap="butt" stroke-miterlimit="10" stroke-linejoin="miter" fill="none" stroke="#000000" d="M 0 80.69286 L 192.27355 80.69286 "/>
<path transform="matrix(1,0,0,-1,194.48755,87.12513)" d="M 1.99252 0 L -1.19551 1.59401 L 0 0 L -1.19551 -1.59401 "/>
<path transform="matrix(1,0,0,-1,2.214,167.818)" stroke-width=".3985" stroke-linecap="butt" stroke-miterlimit="10" stroke-linejoin="miter" fill="none" stroke="#000000" d="M 82.18948 0 L 82.18948 159.39319 "/>
<path transform="matrix(0,-1,-1,-0,84.40348,8.424805)" d="M 1.99252 0 L -1.19551 1.59401 L 0 0 L -1.19551 -1.59401 "/>
<symbol id="font_0_1">
<path d="M .57600006 0 C .59300008 0 .611 0 .611 .019999996 C .611 .040000008 .59300008 .040000008 .57600006 .040000008 L .035000005 .040000008 C .018 .040000008 0 .040000008 0 .019999996 C 0 0 .018 0 .035000005 0 L .57600006 0 Z "/>
</symbol>
<use xlink:href="#font_0_1" transform="matrix(9.9626,0,0,-9.9626,4.147896,96.900608)"/>
<symbol id="font_1_5">
<path d="M .39900003 .223 C .39900003 .34200005 .317 .44200004 .209 .44200004 C .16100002 .44200004 .118000019 .42600004 .082 .39100004 L .082 .586 C .10200001 .58000007 .135 .573 .16700001 .573 C .29 .573 .36 .66400006 .36 .67700007 C .36 .683 .357 .688 .35 .688 C .349 .688 .347 .688 .342 .68500009 C .322 .67600008 .273 .656 .20600002 .656 C .16600001 .656 .120000008 .66300007 .073 .6840001 C .065 .68700006 .06300001 .68700006 .061000009 .68700006 C .051000004 .68700006 .051000004 .679 .051000004 .66300007 L .051000004 .36700005 C .051000004 .34900005 .051000004 .34100003 .065 .34100003 C .07200001 .34100003 .074 .34400005 .07800001 .35000003 C .08900002 .36600004 .12600002 .42000006 .207 .42000006 C .259 .42000006 .284 .37400005 .292 .35600005 C .308 .31900005 .31 .28000004 .31 .23 C .31 .19500001 .31 .135 .286 .093 C .262 .054000006 .22500001 .028 .17900002 .028 C .106000009 .028 .049000008 .08100001 .032 .14000002 C .035 .13900002 .038000008 .13800001 .049000008 .13800001 C .082 .13800001 .09900001 .163 .09900001 .187 C .09900001 .21100001 .082 .23600002 .049000008 .23600002 C .035 .23600002 0 .22900002 0 .18300002 C 0 .097 .069000009 0 .18100001 0 C .297 0 .39900003 .096 .39900003 .223 Z "/>
</symbol>
<use xlink:href="#font_1_5" transform="matrix(9.9626,0,0,-9.9626,11.56713,99.41118)"/>
<use xlink:href="#font_0_1" transform="matrix(9.9626,0,0,-9.9626,19.090897,96.900608)"/>
<symbol id="font_1_4">
<path d="M .266 .165 L .266 .078 C .266 .042000005 .26400004 .031000002 .19000001 .031000002 L .16900002 .031000002 L .16900002 0 C .21000001 .003 .26200003 .003 .30400003 .003 C .34600003 .003 .39900003 .003 .44000004 0 L .44000004 .031000002 L .41900004 .031000002 C .34500004 .031000002 .34300003 .042000005 .34300003 .078 L .34300003 .165 L .44300003 .165 L .44300003 .19600001 L .34300003 .19600001 L .34300003 .651 C .34300003 .671 .34300003 .67700007 .32700003 .67700007 C .31800003 .67700007 .31500004 .67700007 .307 .665 L 0 .19600001 L 0 .165 L .266 .165 M .272 .19600001 L .028 .19600001 L .272 .569 L .272 .19600001 Z "/>
</symbol>
<use xlink:href="#font_1_4" transform="matrix(9.9626,0,0,-9.9626,26.291954,99.192)"/>
<use xlink:href="#font_0_1" transform="matrix(9.9626,0,0,-9.9626,34.033899,96.900608)"/>
<symbol id="font_1_3">
<path d="M .24800003 .37400005 C .33 .40100003 .388 .47100006 .388 .55 C .388 .632 .3 .688 .204 .688 C .10300001 .688 .027000003 .628 .027000003 .55200007 C .027000003 .519 .049000004 .5 .078 .5 C .109000008 .5 .12900001 .522 .12900001 .55100008 C .12900001 .6010001 .082 .6010001 .067 .6010001 C .098 .65000006 .164 .66300007 .20000002 .66300007 C .24100003 .66300007 .29600004 .64100006 .29600004 .55100008 C .29600004 .53900006 .29400004 .48100005 .268 .43700005 C .238 .38900004 .204 .38600005 .17900002 .38500003 C .171 .38400004 .14700002 .38200004 .14000002 .38200004 C .132 .38100005 .125 .38000003 .125 .37000004 C .125 .35900004 .132 .35900004 .14900002 .35900004 L .19300002 .35900004 C .275 .35900004 .312 .29100005 .312 .193 C .312 .057000005 .24300003 .028 .199 .028 C .15600002 .028 .081 .045 .046000005 .104 C .081 .09900001 .11200001 .12100001 .11200001 .15900001 C .11200001 .19500001 .085 .215 .056 .215 C .031999999 .215 0 .201 0 .157 C 0 .06600001 .093 0 .20200002 0 C .32400004 0 .41500003 .091000009 .41500003 .193 C .41500003 .27500005 .35200004 .35300005 .24800003 .37400005 Z "/>
</symbol>
<use xlink:href="#font_1_3" transform="matrix(9.9626,0,0,-9.9626,41.37443,99.41118)"/>
<use xlink:href="#font_0_1" transform="matrix(9.9626,0,0,-9.9626,48.977899,96.900608)"/>
<symbol id="font_1_2">
<path d="M .07700001 .07700001 L .18300002 .18 C .33900003 .31800003 .39900003 .372 .39900003 .47200004 C .39900003 .586 .30900003 .666 .18700002 .666 C .074 .666 0 .574 0 .485 C 0 .42900003 .05 .42900003 .053000008 .42900003 C .07000001 .42900003 .105000007 .441 .105000007 .48200003 C .105000007 .508 .08700001 .53400006 .052000006 .53400006 C .044000005 .53400006 .042000008 .53400006 .039 .53300008 C .062000004 .59800007 .11600001 .63500007 .17400001 .63500007 C .26500003 .63500007 .308 .554 .308 .47200004 C .308 .39200003 .25800003 .31300003 .20300003 .25100003 L .011000004 .037 C 0 .026 0 .024 0 0 L .37100003 0 L .39900003 .17400001 L .374 .17400001 C .36900003 .14400001 .36200003 .1 .352 .085 C .345 .07700001 .279 .07700001 .257 .07700001 L .07700001 .07700001 Z "/>
</symbol>
<use xlink:href="#font_1_2" transform="matrix(9.9626,0,0,-9.9626,56.397134,99.192)"/>
<use xlink:href="#font_0_1" transform="matrix(9.9626,0,0,-9.9626,63.9209,96.900608)"/>
<symbol id="font_1_1">
<path d="M .205 .64000007 C .205 .66400006 .205 .666 .18200003 .666 C .120000008 .60200008 .032000007 .60200008 0 .60200008 L 0 .57100006 C .020000004 .57100006 .07900001 .57100006 .13100001 .597 L .13100001 .079 C .13100001 .043 .128 .031000002 .038000004 .031000002 L .0060000049 .031000002 L .0060000049 0 C .04100001 .003 .128 .003 .168 .003 C .20800002 .003 .29500003 .003 .33000005 0 L .33000005 .031000002 L .29800005 .031000002 C .20800002 .031000002 .205 .042000005 .205 .079 L .205 .64000007 Z "/>
</symbol>
<use xlink:href="#font_1_1" transform="matrix(9.9626,0,0,-9.9626,71.729679,99.192)"/>
<use xlink:href="#font_1_1" transform="matrix(9.9626,0,0,-9.9626,97.74167,99.192)"/>
<use xlink:href="#font_1_2" transform="matrix(9.9626,0,0,-9.9626,112.29613,99.192)"/>
<use xlink:href="#font_1_3" transform="matrix(9.9626,0,0,-9.9626,127.16042,99.41118)"/>
<use xlink:href="#font_1_4" transform="matrix(9.9626,0,0,-9.9626,141.96395,99.192)"/>
<use xlink:href="#font_1_5" transform="matrix(9.9626,0,0,-9.9626,157.12613,99.41118)"/>
<symbol id="font_1_6">
<path d="M .089999999 .35000003 L .089999999 .37400005 C .089999999 .62700006 .21400002 .66300007 .26500003 .66300007 C .28900004 .66300007 .33100004 .65700009 .35300002 .623 C .33800004 .623 .298 .623 .298 .57800009 C .298 .54700008 .32200004 .53200009 .344 .53200009 C .36 .53200009 .39000003 .54100009 .39000003 .58000007 C .39000003 .64000007 .34600003 .688 .263 .688 C .13499999 .688 0 .559 0 .33800004 C 0 .071 .116000007 0 .20900002 0 C .32000003 0 .41500003 .094000007 .41500003 .22600001 C .41500003 .35300005 .32600004 .44900004 .215 .44900004 C .14700002 .44900004 .11000001 .39800004 .089999999 .35000003 M .20900002 .028 C .146 .028 .116000007 .088 .11000001 .103 C .092 .15 .092 .23 .092 .24800001 C .092 .32600004 .124000009 .42600004 .21400002 .42600004 C .23000002 .42600004 .27600003 .42600004 .307 .36400003 C .32500003 .32700003 .32500003 .27600003 .32500003 .22700002 C .32500003 .179 .32500003 .12900001 .30800004 .093 C .27800004 .033000005 .23200003 .028 .20900002 .028 Z "/>
</symbol>
<use xlink:href="#font_1_6" transform="matrix(9.9626,0,0,-9.9626,171.99044,99.41118)"/>
<symbol id="font_1_7">
<path d="M .42000003 .63100007 C .42900003 .64300009 .42900003 .64500007 .42900003 .66600009 L .18600002 .66600009 C .064 .66600009 .062000008 .679 .058000007 .6980001 L .033 .6980001 L 0 .49200005 L .024999999 .49200005 C .028000005 .508 .037 .57100006 .050000006 .58300009 C .057000005 .58900007 .13500002 .58900007 .148 .58900007 L .35500003 .58900007 C .344 .573 .26500003 .46400006 .24300003 .43100003 C .153 .29600004 .12000001 .157 .12000001 .055 C .12000001 .045 .12000001 0 .16600001 0 C .21200001 0 .21200001 .045 .21200001 .055 L .21200001 .106000009 C .21200001 .16100002 .21500004 .216 .22300002 .27 C .22700003 .29300005 .24100003 .37900005 .28500004 .44100005 L .42000003 .63100007 Z "/>
</symbol>
<use xlink:href="#font_1_7" transform="matrix(9.9626,0,0,-9.9626,187.0729,99.41118)"/>
<use xlink:href="#font_0_1" transform="matrix(9.9626,0,0,-9.9626,66.8539,160.9856)"/>
<use xlink:href="#font_1_5" transform="matrix(9.9626,0,0,-9.9626,74.27313,163.49617)"/>
<use xlink:href="#font_0_1" transform="matrix(9.9626,0,0,-9.9626,66.8539,146.31459)"/>
<use xlink:href="#font_1_4" transform="matrix(9.9626,0,0,-9.9626,74.053958,148.60599)"/>
<use xlink:href="#font_0_1" transform="matrix(9.9626,0,0,-9.9626,66.8539,131.6436)"/>
<use xlink:href="#font_1_3" transform="matrix(9.9626,0,0,-9.9626,74.19343,134.15418)"/>
<use xlink:href="#font_0_1" transform="matrix(9.9626,0,0,-9.9626,66.8539,116.9726)"/>
<use xlink:href="#font_1_2" transform="matrix(9.9626,0,0,-9.9626,74.27313,119.264)"/>
<use xlink:href="#font_0_1" transform="matrix(9.9626,0,0,-9.9626,66.8539,102.3006)"/>
<use xlink:href="#font_1_1" transform="matrix(9.9626,0,0,-9.9626,74.661678,104.591999)"/>
<use xlink:href="#font_1_1" transform="matrix(9.9626,0,0,-9.9626,74.66167,75.665)"/>
<use xlink:href="#font_1_2" transform="matrix(9.9626,0,0,-9.9626,74.273128,60.993997)"/>
<use xlink:href="#font_1_3" transform="matrix(9.9626,0,0,-9.9626,74.19342,46.541177)"/>
<use xlink:href="#font_1_4" transform="matrix(9.9626,0,0,-9.9626,74.05395,31.650986)"/>
<use xlink:href="#font_1_5" transform="matrix(9.9626,0,0,-9.9626,74.273128,17.199173)"/>
<clipPath id="cp2">
<path transform="matrix(1,0,0,-1,2.214,167.818)" d="M 0 0 L 194.26607 0 L 194.26607 161.38571 L 0 161.38571 Z "/>
</clipPath>
<g clip-path="url(#cp2)">
<path transform="matrix(1,0,0,-1,2.214,167.818)" stroke-width=".3985" stroke-linecap="butt" stroke-miterlimit="10" stroke-linejoin="miter" fill="none" stroke="#000000" d="M 4.06285 77.34605 L 3.8733 77.15993 L 4.01074 77.29486 L 4.1482 77.4298 L 4.28561 77.56473 L 4.42305 77.69966 L 4.5605 77.8346 L 4.69794 77.96953 L 4.83536 78.10446 L 4.97281 78.2394 L 5.11024 78.37434 L 5.24768 78.50928 L 5.38512 78.64421 L 5.52255 78.77914 L 5.65999 78.91408 L 5.79742 79.049 L 5.93486 79.18393 L 6.0723 79.31886 L 6.20975 79.4538 L 6.34717 79.58873 L 6.4846 79.72368 L 6.62206 79.85861 L 6.75949 79.99355 L 6.89691 80.12848 L 7.03436 80.26341 L 7.1718 80.39835 L 7.30923 80.53328 L 7.44667 80.66821 L 7.5841 80.80315 L 7.72154 80.9381 L 7.85898 81.07303 L 7.99641 81.20796 L 8.13385 81.3429 L 8.2713 81.47783 L 8.40872 81.61276 L 8.54616 81.7477 L 8.68361 81.88261 L 8.82104 82.01755 L 8.95847 82.15248 L 9.09592 82.28743 L 9.23335 82.42236 L 9.37079 82.5573 L 9.50822 82.69223 L 9.64566 82.82716 L 9.78311 82.9621 L 9.92053 83.09703 L 10.05797 83.23196 L 10.19542 83.3669 L 10.33286 83.50185 L 10.47028 83.63678 L 10.60773 83.77171 L 10.74516 83.90665 L 10.8826 84.04158 L 11.02003 84.17651 L 11.15747 84.31145 L 11.2949 84.44638 L 11.43234 84.58131 L 11.56978 84.71623 L 11.70721 84.85118 L 11.84467 84.98611 L 11.98209 85.12105 L 12.11952 85.25598 L 12.25697 85.39091 L 12.39441 85.52585 L 12.53183 85.66078 L 12.66928 85.79572 L 12.80672 85.93065 L 12.94415 86.06558 L 13.08159 86.20053 L 13.21902 86.33546 L 13.35646 86.4704 L 13.4939 86.60533 L 13.63133 86.74026 L 13.76877 86.8752 L 13.90622 87.01013 L 14.04364 87.14507 L 14.18108 87.28 L 14.31853 87.41495 L 14.45596 87.54987 L 14.59338 87.6848 L 14.73083 87.81973 L 14.86827 87.95467 L 15.0057 88.0896 L 15.14314 88.22453 L 15.28058 88.35947 L 15.41801 88.4944 L 15.55545 88.62933 L 15.69289 88.76428 L 15.83032 88.89922 L 15.96777 89.03415 L 16.1052 89.16908 L 16.24263 89.30402 L 16.38008 89.43895 L 16.51752 89.57388 L 16.65495 89.70882 L 16.79239 89.84375 L 16.92982 89.9787 L 17.06728 90.11363 L 17.2047 90.24857 L 17.34213 90.3835 L 17.47958 90.51842 L 17.617 90.65335 L 17.75444 90.78828 L 17.89189 90.92322 L 18.02933 91.05815 L 18.16675 91.19308 L 18.3042 91.32803 L 18.44164 91.46297 L 18.57907 91.5979 L 18.7165 91.73283 L 18.85394 91.86777 L 18.99138 92.0027 L 19.12881 92.13763 L 19.26625 92.27257 L 19.40369 92.4075 L 19.54114 92.54243 L 19.67856 92.67738 L 19.816 92.81232 L 19.95345 92.94725 L 20.09088 93.08218 L 20.2283 93.21712 L 20.36575 93.35204 L 20.50319 93.48697 L 20.64063 93.6219 L 20.77806 93.75684 L 20.9155 93.89178 L 21.05293 94.02672 L 21.19037 94.16165 L 21.3278 94.29659 L 21.46524 94.43152 L 21.60269 94.56645 L 21.74011 94.70139 L 21.87755 94.83632 L 22.015 94.97125 L 22.15244 95.10619 L 22.28986 95.24113 L 22.4273 95.37607 L 22.56474 95.511 L 22.70218 95.64594 L 22.83961 95.78087 L 22.97705 95.9158 L 23.11449 96.05074 L 23.25192 96.18565 L 23.38936 96.32059 L 23.52681 96.45554 L 23.66425 96.59047 L 23.80167 96.7254 L 23.93912 96.86034 L 24.07655 96.99527 L 24.21399 97.1302 L 24.35143 97.26514 L 24.48886 97.40007 L 24.6263 97.535 L 24.76375 97.66994 L 24.90117 97.80489 L 25.0386 97.93982 L 25.17606 98.07475 L 25.31348 98.20969 L 25.45091 98.34462 L 25.58836 98.47955 L 25.7258 98.61449 L 25.86322 98.74942 L 26.00067 98.88435 L 26.1381 99.0193 L 26.27554 99.15422 L 26.41298 99.28915 L 26.55042 99.42409 L 26.68785 99.55902 L 26.82529 99.69395 L 26.96272 99.82889 L 27.10016 99.96382 L 27.23761 100.09875 L 27.37503 100.23369 L 27.51247 100.36864 L 27.64992 100.50357 L 27.78735 100.6385 L 27.92477 100.77344 L 28.06223 100.90837 L 28.19966 101.0433 L 28.3371 101.17824 L 28.47453 101.31317 L 28.61197 101.4481 L 28.7494 101.58304 L 28.88684 101.71799 L 29.02428 101.85292 L 29.16171 101.98784 L 29.29916 102.12277 L 29.43658 102.2577 L 29.57402 102.39264 L 29.71147 102.52757 L 29.8489 102.6625 L 29.98633 102.79744 L 30.12378 102.93239 L 30.26122 103.06732 L 30.39867 103.20226 L 30.53609 103.33719 L 30.67352 103.47212 L 30.81097 103.60706 L 30.9484 103.74199 L 31.08583 103.87692 L 31.22328 104.01186 L 31.36072 104.14679 L 31.49814 104.28174 L 31.63559 104.41667 L 31.77303 104.5516 L 31.91046 104.68654 L 32.0479 104.82146 L 32.18533 104.95639 L 32.32277 105.09132 L 32.46022 105.22626 L 32.59764 105.36119 L 32.73508 105.49614 L 32.87253 105.63107 L 33.00995 105.766 L 33.14738 105.90094 L 33.28484 106.03587 L 33.42227 106.1708 L 33.5597 106.30574 L 33.69714 106.44067 L 33.83458 106.5756 L 33.97202 106.71054 L 34.10945 106.84549 L 34.24689 106.98042 L 34.38432 107.11536 L 34.52176 107.25029 L 34.6592 107.38522 L 34.79663 107.52016 L 34.93408 107.65508 L 35.0715 107.79001 L 35.20894 107.92494 L 35.34639 108.05988 L 35.48383 108.19482 L 35.62125 108.32976 L 35.7587 108.46469 L 35.89613 108.59962 L 36.03357 108.73456 L 36.171 108.86949 L 36.30844 109.00443 L 36.44588 109.13936 L 36.58331 109.27429 L 36.72075 109.40924 L 36.85818 109.54417 L 36.99564 109.67911 L 37.13306 109.81404 L 37.27051 109.94897 L 37.40794 110.08391 L 37.54538 110.21884 L 37.68282 110.35378 L 37.82025 110.48871 L 37.95769 110.62363 L 38.09514 110.75858 L 38.23256 110.89351 L 38.37 111.02844 L 38.50745 111.16338 L 38.64487 111.29831 L 38.7823 111.43324 L 38.91975 111.56818 L 39.05719 111.70311 L 39.19461 111.83804 L 39.33206 111.97299 L 39.4695 112.10793 L 39.60693 112.24286 L 39.74437 112.37779 L 39.8818 112.51273 L 40.01924 112.64766 L 40.1567 112.7826 L 40.29411 112.91753 L 40.43155 113.05246 L 40.569 113.1874 L 40.70642 113.32234 L 40.84386 113.45726 L 40.98131 113.5922 L 41.11874 113.72713 L 41.25616 113.86206 L 41.39362 113.997 L 41.53105 114.13193 L 41.66849 114.26686 L 41.80592 114.4018 L 41.94336 114.53674 L 42.0808 114.67168 L 42.21823 114.80661 L 42.35567 114.94154 L 42.4931 115.07648 L 42.63055 115.21141 L 42.76797 115.34634 L 42.90541 115.48128 L 43.04286 115.61621 L 43.1803 115.75114 L 43.31772 115.8861 L 43.45517 116.02103 L 43.5926 116.15596 L 43.73004 116.29088 L 43.86748 116.42581 L 44.00491 116.56075 L 44.14236 116.69568 L 44.27979 116.83061 L 44.41722 116.96555 L 44.55467 117.10048 L 44.69211 117.23543 L 44.82953 117.37036 "/>
<path transform="matrix(-.71352,.70056,.70056,.71352,6.2768499,90.47195)" stroke-width=".31879" stroke-linecap="round" stroke-linejoin="round" fill="none" stroke="#000000" d="M -1.19551 1.59401 C -1.09587 .99626 0 .09961 .29886 0 C 0 -.09961 -1.09587 -.99626 -1.19551 -1.59401 "/>
<path transform="matrix(1,0,0,-1,2.214,167.818)" stroke-width=".3985" stroke-linecap="butt" stroke-miterlimit="10" stroke-linejoin="miter" fill="none" stroke="#000000" d="M 44.83063 117.37143 L 45.03053 117.37175 L 45.23044 117.37274 L 45.43034 117.37437 L 45.63026 117.37668 L 45.83017 117.37962 L 46.03008 117.38324 L 46.22998 117.3875 L 46.4299 117.39243 L 46.6298 117.398 L 46.82971 117.40424 L 47.02962 117.41113 L 47.22954 117.41867 L 47.42944 117.42688 L 47.62936 117.43575 L 47.82927 117.44527 L 48.02919 117.45543 L 48.2291 117.46628 L 48.429 117.47775 L 48.62892 117.4899 L 48.82883 117.5027 L 49.02873 117.51614 L 49.22864 117.53027 L 49.42856 117.54503 L 49.62846 117.56047 L 49.82837 117.57655 L 50.02827 117.59329 L 50.2282 117.61067 L 50.4281 117.62874 L 50.628 117.64743 L 50.82791 117.66681 L 51.02783 117.68683 L 51.22774 117.7075 L 51.42764 117.72884 L 51.62756 117.75082 L 51.82747 117.77347 L 52.02737 117.79678 L 52.22728 117.82074 L 52.4272 117.84535 L 52.6271 117.87062 L 52.82703 117.89655 L 53.02693 117.92313 L 53.22685 117.95038 L 53.42676 117.97827 L 53.62666 118.00682 L 53.82657 118.03603 L 54.02649 118.0659 L 54.2264 118.09642 L 54.4263 118.12761 L 54.6262 118.15944 L 54.82613 118.19193 L 55.02603 118.22508 L 55.22594 118.25888 L 55.42586 118.29335 L 55.62576 118.32846 L 55.82567 118.36424 L 56.02557 118.40067 L 56.2255 118.43776 L 56.4254 118.4755 L 56.6253 118.5139 L 56.82521 118.55295 L 57.02513 118.59267 L 57.22504 118.63304 L 57.42494 118.67406 L 57.62485 118.71574 L 57.82478 118.75807 L 58.02469 118.80109 L 58.2246 118.84473 L 58.42451 118.88904 L 58.62442 118.93399 L 58.82433 118.97961 L 59.02423 119.02591 L 59.22415 119.07283 L 59.42406 119.1204 L 59.62396 119.16867 L 59.82387 119.21758 L 60.02379 119.26714 L 60.2237 119.31734 L 60.4236 119.36823 L 60.6235 119.41974 L 60.82343 119.47192 L 61.02333 119.52477 L 61.22324 119.57826 L 61.42314 119.63242 L 61.62306 119.68724 L 61.82297 119.74269 L 62.02287 119.79881 L 62.2228 119.85559 L 62.4227 119.91302 L 62.6226 119.97113 L 62.82253 120.02988 L 63.02245 120.08928 L 63.22235 120.14935 L 63.42226 120.21007 L 63.62216 120.27144 L 63.82208 120.33347 L 64.02199 120.39615 L 64.2219 120.4595 L 64.4218 120.5235 L 64.62172 120.58815 L 64.82162 120.65346 L 65.02153 120.71944 L 65.22145 120.78606 L 65.42136 120.85335 L 65.62126 120.92126 L 65.82117 120.98988 L 66.02109 121.05913 L 66.221 121.12903 L 66.4209 121.1996 L 66.6208 121.27081 L 66.82072 121.34268 L 67.02063 121.41522 L 67.22054 121.48842 L 67.42044 121.56226 L 67.62036 121.63676 L 67.82028 121.71193 L 68.02019 121.78773 L 68.2201 121.86423 L 68.42001 121.94135 L 68.61992 122.01913 L 68.81982 122.09755 L 69.01974 122.17665 L 69.21965 122.25641 L 69.41956 122.33684 L 69.61946 122.4179 L 69.81938 122.49962 L 70.01929 122.58199 L 70.2192 122.66502 L 70.4191 122.74872 L 70.61902 122.83307 L 70.81892 122.91806 L 71.01883 123.00372 L 71.21873 123.09004 L 71.41866 123.17703 L 71.61856 123.26466 L 71.81847 123.35295 L 72.01839 123.44188 L 72.21829 123.53148 L 72.4182 123.62175 L 72.6181 123.71266 L 72.81802 123.80421 L 73.01794 123.89645 L 73.21785 123.98933 L 73.41776 124.08287 L 73.61768 124.17706 L 73.81758 124.27191 L 74.01749 124.36742 L 74.21739 124.4636 L 74.41731 124.56041 L 74.61722 124.65788 L 74.81712 124.75601 L 75.01703 124.8548 L 75.21695 124.95427 L 75.41685 125.05435 L 75.61676 125.15512 L 75.81668 125.25653 L 76.01659 125.3586 L 76.21649 125.46135 L 76.4164 125.56471 L 76.61632 125.66876 L 76.81622 125.77345 L 77.01613 125.8788 L 77.21603 125.9848 L 77.41595 126.09148 L 77.61586 126.1988 L 77.81577 126.30678 L 78.01569 126.41542 L 78.2156 126.5247 L 78.41551 126.63466 L 78.61542 126.74527 L 78.81534 126.85654 L 79.01524 126.96843 L 79.21515 127.08101 L 79.41505 127.19426 L 79.61497 127.30814 L 79.81488 127.42267 L 80.01479 127.53787 L 80.21469 127.65375 L 80.41461 127.77025 L 80.61452 127.88742 L 80.81442 128.00524 L 81.01433 128.12372 L 81.21425 128.24285 L 81.41415 128.36266 L 81.61406 128.48311 L 81.81398 128.60422 L 82.01389 128.72597 L 82.21379 128.84839 L 82.4137 128.97148 L 82.61362 129.09522 L 82.81352 129.21959 L 83.01344 129.34464 L 83.21336 129.47035 L 83.41327 129.59671 L 83.61317 129.72373 L 83.81308 129.85138 L 84.013 129.97972 L 84.2129 130.10869 L 84.41281 130.23836 L 84.61272 130.36865 L 84.81264 130.4996 L 85.01254 130.6312 L 85.21245 130.76348 L 85.41237 130.8964 L 85.61227 131.02999 L 85.81218 131.16422 L 86.01208 131.2991 L 86.212 131.43465 L 86.41191 131.57086 L 86.61182 131.70772 L 86.81172 131.84523 L 87.01164 131.9834 L 87.21155 132.12224 L 87.41145 132.26174 L 87.61136 132.40187 L 87.81128 132.54267 L 88.0112 132.68413 L 88.2111 132.82624 L 88.41103 132.96901 L 88.61093 133.11244 L 88.81084 133.2565 L 89.01074 133.40125 L 89.21065 133.54663 L 89.41057 133.6927 L 89.61047 133.83942 L 89.81038 133.98677 L 90.0103 134.13478 L 90.2102 134.28348 L 90.41011 134.4328 L 90.61002 134.5828 L 90.80994 134.73343 L 91.00984 134.88474 L 91.20975 135.0367 L 91.40965 135.18932 L 91.60957 135.34258 L 91.80948 135.4965 L 92.00938 135.6511 L 92.20929 135.80632 L 92.40921 135.96225 L 92.60912 136.11879 L 92.80902 136.276 L 93.00896 136.43386 L 93.20886 136.59238 L 93.40877 136.75157 L 93.60867 136.91139 L 93.8086 137.07189 L 94.0085 137.23305 L 94.2084 137.39484 L 94.40831 137.55731 L 94.60823 137.72043 L 94.80814 137.88419 L 95.00804 138.04862 L 95.20796 138.21369 L 95.40787 138.37947 L 95.60777 138.54586 L 95.80768 138.71292 L 96.0076 138.88063 L 96.2075 139.04898 L 96.40741 139.21802 L 96.60732 139.38771 L 96.80724 139.55805 L 97.00714 139.72902 L 97.20705 139.90068 L 97.40695 140.073 L 97.60687 140.24597 L 97.80678 140.41957 L 98.00668 140.59383 L 98.2066 140.7688 L 98.40652 140.94438 L 98.60643 141.12062 L 98.80634 141.29753 L 99.00624 141.47507 L 99.20616 141.65329 L 99.40607 141.83219 L 99.60597 142.0117 L 99.80588 142.19188 L 100.0058 142.37273 L 100.2057 142.55422 L 100.40561 142.73638 L 100.60553 142.91918 L 100.80544 143.10265 L 101.00534 143.28678 L 101.20525 143.47156 L 101.40517 143.65699 L 101.60507 143.8431 L 101.80498 144.02982 L 102.00488 144.21723 L 102.2048 144.40528 L 102.40471 144.59403 L 102.60461 144.78339 L 102.80452 144.97342 L 103.00444 145.16411 L 103.20436 145.35543 L 103.40427 145.54744 L 103.60419 145.74008 L 103.8041 145.9334 L 104.004 146.12738 L 104.2039 146.322 L 104.40382 146.5173 L 104.60373 146.71323 "/>
<path transform="matrix(1,0,0,-1,2.214,167.818)" stroke-width=".3985" stroke-linecap="butt" stroke-miterlimit="10" stroke-linejoin="miter" fill="none" stroke="#000000" d="M 104.60481 76.5012 L 104.76973 76.48773 L 104.93466 76.47423 L 105.09958 76.46101 L 105.26451 76.44739 L 105.42944 76.43373 L 105.59436 76.42007 L 105.7593 76.40645 L 105.92421 76.39265 L 106.08914 76.37871 L 106.25407 76.36433 L 106.41899 76.35025 L 106.58392 76.33617 L 106.74884 76.32178 L 106.91377 76.30727 L 107.0787 76.29288 L 107.24362 76.27837 L 107.40855 76.26355 L 107.57349 76.24887 L 107.73842 76.2339 L 107.90335 76.2188 L 108.06827 76.20367 L 108.2332 76.18872 L 108.39813 76.17317 L 108.56305 76.15776 L 108.72798 76.1422 L 108.8929 76.12665 L 109.05783 76.11096 L 109.22276 76.09497 L 109.38768 76.07912 L 109.55261 76.06299 L 109.71753 76.04684 L 109.88246 76.03056 L 110.0474 76.01413 L 110.21231 75.9977 L 110.37726 75.98082 L 110.54218 75.96425 L 110.7071 75.94722 L 110.87204 75.9302 L 111.03696 75.91318 L 111.20189 75.89574 L 111.3668 75.87857 L 111.53174 75.8611 L 111.69667 75.84335 L 111.86159 75.82574 L 112.02652 75.80785 L 112.19144 75.78995 L 112.35637 75.77176 L 112.5213 75.75342 L 112.68622 75.73479 L 112.85115 75.71631 L 113.01608 75.69766 L 113.18102 75.6789 L 113.34595 75.65982 L 113.51086 75.64073 L 113.6758 75.62152 L 113.84073 75.60216 L 114.00565 75.58264 L 114.17058 75.56268 L 114.3355 75.54272 L 114.50043 75.52278 L 114.66536 75.50269 L 114.83028 75.48228 L 114.99521 75.46175 L 115.16013 75.44106 L 115.32506 75.42023 L 115.48999 75.39925 L 115.6549 75.37827 L 115.81984 75.3567 L 115.98477 75.33543 L 116.1497 75.31357 L 116.31464 75.29185 L 116.47955 75.26985 L 116.64449 75.24754 L 116.8094 75.2251 L 116.97433 75.20251 L 117.13927 75.1799 L 117.30418 75.15688 L 117.46912 75.13383 L 117.63405 75.11021 L 117.79897 75.08675 L 117.9639 75.06299 L 118.12881 75.03908 L 118.29375 75.01485 L 118.45868 74.99065 L 118.6236 74.96599 L 118.78854 74.94121 L 118.95346 74.91612 L 119.1184 74.89104 L 119.28333 74.8655 L 119.44824 74.83997 L 119.61317 74.81401 L 119.77809 74.78789 L 119.94302 74.76163 L 120.10796 74.73508 L 120.27287 74.70824 L 120.4378 74.68108 L 120.60272 74.6538 L 120.76765 74.62622 L 120.93259 74.59848 L 121.0975 74.57045 L 121.26244 74.54199 L 121.42735 74.51338 L 121.5923 74.48477 L 121.75723 74.45543 L 121.92215 74.4261 L 122.08708 74.3963 L 122.25201 74.36652 L 122.41693 74.3363 L 122.58186 74.30563 L 122.74678 74.27484 L 122.91171 74.24358 L 123.07664 74.21233 L 123.24156 74.1805 L 123.4065 74.14851 L 123.57141 74.11609 L 123.73634 74.08337 L 123.90128 74.0505 L 124.0662 74.01706 L 124.23112 73.9833 L 124.39606 73.94926 L 124.56099 73.91495 L 124.72592 73.88002 L 124.89084 73.84496 L 125.05577 73.8096 L 125.22069 73.77379 L 125.38562 73.73741 L 125.55055 73.70102 L 125.71547 73.66405 L 125.8804 73.62663 L 126.04533 73.58894 L 126.21025 73.5508 L 126.37518 73.51207 L 126.5401 73.47304 L 126.70503 73.43343 L 126.86996 73.3938 L 127.03488 73.3536 L 127.19983 73.31282 L 127.36475 73.27188 L 127.52968 73.22993 L 127.69461 73.18782 L 127.85953 73.14542 L 128.02446 73.10214 L 128.18938 73.05843 L 128.35431 73.0144 L 128.51924 72.9698 L 128.68416 72.9246 L 128.84909 72.87885 L 129.014 72.83278 L 129.17894 72.78596 L 129.34387 72.73888 L 129.50879 72.6909 L 129.67372 72.64235 L 129.83864 72.59334 L 130.00359 72.54375 L 130.16852 72.49342 L 130.33344 72.44238 L 130.49837 72.39087 L 130.6633 72.33879 L 130.82822 72.28598 L 130.99315 72.23271 L 131.15807 72.17842 L 131.323 72.12341 L 131.48793 72.06781 L 131.65285 72.01176 L 131.81778 71.95439 L 131.9827 71.89659 L 132.14763 71.8379 L 132.31256 71.77893 L 132.47748 71.71834 L 132.64241 71.6576 L 132.80735 71.59569 L 132.97228 71.53288 L 133.1372 71.46921 L 133.30213 71.40495 L 133.46706 71.33937 L 133.63198 71.27321 L 133.7969 71.2063 L 133.96184 71.13792 L 134.12676 71.06868 L 134.29169 70.9984 L 134.4566 70.92755 L 134.62154 70.85492 L 134.78647 70.78171 L 134.95139 70.70746 L 135.11632 70.63191 L 135.28125 70.55489 L 135.44617 70.47713 L 135.61112 70.3979 L 135.77603 70.3175 L 135.94097 70.23593 L 136.1059 70.15318 L 136.27082 70.06868 L 136.43575 69.98315 L 136.60066 69.89629 L 136.7656 69.80797 L 136.93053 69.7179 L 137.09545 69.62663 L 137.26038 69.53375 L 137.4253 69.43927 L 137.59023 69.34346 L 137.75516 69.24532 L 137.92008 69.146 L 138.085 69.04506 L 138.24993 68.94206 L 138.41486 68.83687 L 138.5798 68.7305 L 138.74472 68.62193 L 138.90966 68.51115 L 139.07457 68.3982 L 139.2395 68.28375 L 139.40444 68.16667 L 139.56935 68.04755 L 139.73429 67.92577 L 139.89922 67.80223 L 140.06414 67.67606 L 140.22907 67.54724 L 140.39398 67.41594 L 140.55892 67.28227 L 140.72385 67.1454 L 140.88877 67.00601 L 141.0537 66.86356 L 141.21862 66.71815 L 141.38356 66.56969 L 141.5485 66.41814 L 141.71341 66.2632 L 141.87834 66.10475 L 142.04326 65.94218 L 142.20819 65.7764 L 142.37313 65.60915 L 142.53804 65.43457 L 142.70298 65.25703 L 142.86789 65.07512 L 143.03282 64.89024 L 143.19776 64.69952 L 143.36267 64.5044 L 143.5276 64.30486 L 143.69252 64.10239 L 143.85746 63.89113 L 144.02239 63.67693 L 144.18732 63.45685 L 144.35225 63.23091 L 144.51718 62.9991 L 144.6821 62.75848 L 144.84703 62.51495 L 145.01195 62.26112 L 145.17688 62.00145 L 145.34181 61.7359 L 145.50673 61.463 L 145.67166 61.17986 L 145.83658 60.88936 L 146.00151 60.59004 L 146.16645 60.28049 L 146.33136 59.96211 L 146.49629 59.63348 L 146.66121 59.29604 L 146.82614 58.94391 L 146.99109 58.58301 L 147.156 58.21034 L 147.32094 57.82303 L 147.48586 57.42102 L 147.65079 57.0073 L 147.81572 56.57742 L 147.98064 56.13287 L 148.14557 55.66925 L 148.3105 55.1895 L 148.47542 54.69067 L 148.64035 54.1713 L 148.80527 53.63141 L 148.9702 53.06947 L 149.13513 52.48262 L 149.30005 51.87228 L 149.46498 51.23409 L 149.6299 50.56508 L 149.79485 49.86671 L 149.95978 49.13606 L 150.1247 48.36874 L 150.28963 47.5633 L 150.45455 46.71675 L 150.61948 45.82472 L 150.78441 44.88574 L 150.94933 43.89397 L 151.11426 42.84496 L 151.27918 41.73727 L 151.4441 40.56207 L 151.60904 39.31061 L 151.77396 37.98137 L 151.93889 36.56413 L 152.1038 35.04857 L 152.26874 33.4259 L 152.43367 31.68294 L 152.5986 29.80792 L 152.76354 27.7818 L 152.92847 25.58989 L 153.09339 23.20578 L 153.25832 20.60893 L 153.42324 17.76416 L 153.58817 14.63768 L 153.7531 11.184 L 153.89826 7.80527 "/>
<path transform="matrix(.04314,.99901,.99901,-.04314,156.11225,160.01273)" stroke-width=".31879" stroke-linecap="round" stroke-linejoin="round" fill="none" stroke="#000000" d="M -1.19551 1.59401 C -1.09587 .99626 0 .09961 .29886 0 C 0 -.09961 -1.09587 -.99626 -1.19551 -1.59401 "/>
<path transform="matrix(1,0,0,-1,2.214,167.818)" stroke-width=".3985" stroke-linecap="butt" stroke-miterlimit="10" stroke-linejoin="miter" fill="none" stroke="#000000" d="M 159.91516 153.59217 L 159.99837 151.616 L 160.10083 149.34194 L 160.20328 147.2087 L 160.30574 145.20459 L 160.40819 143.31784 L 160.51065 141.53527 L 160.61309 139.85393 L 160.71555 138.2606 L 160.818 136.75385 L 160.92046 135.32338 L 161.0229 133.96189 L 161.12537 132.66786 L 161.22782 131.43544 L 161.33028 130.26174 L 161.43273 129.13791 L 161.53519 128.06543 L 161.63764 127.03989 L 161.74008 126.05692 L 161.84253 125.11499 L 161.94499 124.2127 L 162.04746 123.34709 L 162.1499 122.51082 L 162.25237 121.70976 L 162.35482 120.93658 L 162.45728 120.19714 L 162.55973 119.4797 L 162.66219 118.78868 L 162.76464 118.12407 L 162.86708 117.47853 L 162.96953 116.85646 L 163.07199 116.2564 L 163.17444 115.67393 L 163.2769 115.11201 L 163.37935 114.56917 L 163.48181 114.04102 L 163.58426 113.5275 L 163.68672 113.03307 L 163.78917 112.55185 L 163.89162 112.08385 L 163.99408 111.62901 L 164.09653 111.18887 L 164.19899 110.76047 L 164.30144 110.34381 L 164.4039 109.93887 L 164.50635 109.54274 L 164.60881 109.15982 L 164.71126 108.7857 L 164.81372 108.42186 L 164.91617 108.0668 L 165.01862 107.72202 L 165.12107 107.38458 L 165.22353 107.05594 L 165.32598 106.73463 L 165.42844 106.42212 L 165.53089 106.11551 L 165.63335 105.81766 L 165.7358 105.52718 L 165.83826 105.23961 L 165.94072 104.96233 L 166.04317 104.6909 L 166.14562 104.42534 L 166.24806 104.16273 L 166.35053 103.91039 L 166.45298 103.6595 L 166.55544 103.41742 L 166.65789 103.17828 L 166.76035 102.94353 L 166.8628 102.71466 L 166.96526 102.49019 L 167.0677 102.27159 L 167.17017 102.05444 L 167.2726 101.84465 L 167.37506 101.63777 L 167.47751 101.43384 L 167.57997 101.23431 L 167.68242 101.04065 L 167.78488 100.84698 L 167.88735 100.66068 L 167.98979 100.4758 L 168.09226 100.29387 L 168.1947 100.11635 L 168.29717 99.94177 L 168.3996 99.77156 L 168.50206 99.60138 L 168.6045 99.43561 L 168.70697 99.27422 L 168.80942 99.11284 L 168.91188 98.95584 L 169.01433 98.80179 L 169.11679 98.6492 L 169.21924 98.49956 L 169.3217 98.35431 L 169.42415 98.2076 L 169.5266 98.06676 L 169.62905 97.9259 L 169.7315 97.78947 L 169.83396 97.65302 L 169.93642 97.52097 L 170.03888 97.38893 L 170.14133 97.25981 L 170.24379 97.13219 L 170.34624 97.00601 L 170.4487 96.88277 L 170.55115 96.76247 L 170.6536 96.64069 L 170.75605 96.52478 L 170.8585 96.40889 L 170.96096 96.29445 L 171.06342 96.18001 L 171.16587 96.0685 L 171.26833 95.95847 L 171.37078 95.85136 L 171.47324 95.7428 L 171.57569 95.64009 L 171.67813 95.53593 L 171.78058 95.4347 L 171.88304 95.33229 L 171.9855 95.23282 L 172.08795 95.13481 L 172.19042 95.03784 L 172.29286 94.94247 L 172.39533 94.84843 L 172.49777 94.75542 L 172.60024 94.66356 L 172.70269 94.57289 L 172.80513 94.4834 L 172.90758 94.39508 L 173.01004 94.30807 L 173.11249 94.2218 L 173.21495 94.13686 L 173.3174 94.0528 L 173.41986 93.9702 L 173.52231 93.88803 L 173.62477 93.80734 L 173.72722 93.72754 L 173.82968 93.6486 L 173.93213 93.5707 L 174.03458 93.49367 L 174.13704 93.41737 L 174.23949 93.34212 L 174.34195 93.26802 L 174.4444 93.19437 L 174.54686 93.12175 L 174.6493 93.04985 L 174.75177 92.979 L 174.85422 92.90886 L 174.95668 92.83977 L 175.05912 92.77095 L 175.16158 92.70317 L 175.26403 92.63628 L 175.36649 92.56966 L 175.46894 92.50438 L 175.5714 92.43938 L 175.67385 92.37572 L 175.7763 92.31189 L 175.87877 92.2491 L 175.98122 92.18718 L 176.08368 92.12585 L 176.18611 92.06497 L 176.28858 92.00496 L 176.39102 91.9451 L 176.49349 91.88641 L 176.59593 91.82832 L 176.6984 91.77051 L 176.80084 91.7136 L 176.9033 91.65695 L 177.00576 91.60135 L 177.10822 91.54575 L 177.21067 91.49117 L 177.31311 91.43701 L 177.41556 91.3832 L 177.51802 91.33023 L 177.62047 91.2774 L 177.72293 91.22546 L 177.8254 91.17397 L 177.92784 91.1226 L 178.0303 91.072 L 178.13275 91.02197 L 178.23522 90.97238 L 178.33765 90.92337 L 178.44011 90.87482 L 178.54256 90.8264 L 178.64502 90.77858 L 178.74747 90.73132 L 178.84993 90.68439 L 178.95238 90.63802 L 179.05484 90.5918 L 179.15729 90.54648 L 179.25975 90.50114 L 179.3622 90.45639 L 179.46465 90.4121 L 179.5671 90.36792 L 179.66956 90.32465 L 179.772 90.2815 L 179.87447 90.23853 L 179.97693 90.19626 L 180.07938 90.15446 L 180.18184 90.11249 L 180.28429 90.07141 L 180.38675 90.03033 L 180.4892 89.98984 L 180.59165 89.94965 L 180.69409 89.90988 L 180.79656 89.87025 L 180.899 89.8311 L 181.00147 89.7922 L 181.10391 89.75363 L 181.20638 89.71533 L 181.30883 89.67763 L 181.41129 89.63992 L 181.51374 89.60251 L 181.6162 89.56584 L 181.71863 89.52916 L 181.82109 89.49277 L 181.92356 89.45682 L 182.026 89.42102 L 182.12847 89.38538 L 182.23091 89.35046 L 182.33338 89.31554 L 182.43582 89.28091 L 182.53829 89.24658 L 182.64073 89.21254 L 182.7432 89.1788 L 182.84563 89.1452 L 182.94809 89.11205 L 183.05054 89.07918 L 183.153 89.04631 L 183.25545 89.01375 L 183.35791 88.98161 L 183.46036 88.9495 L 183.56282 88.91779 L 183.66527 88.8864 L 183.76773 88.85515 L 183.8702 88.8239 L 183.97263 88.79324 L 184.07509 88.76257 L 184.17754 88.73235 L 184.28 88.70242 L 184.38245 88.67235 L 184.48491 88.64285 L 184.58736 88.61351 L 184.68982 88.58417 L 184.79227 88.55527 L 184.89473 88.5265 L 184.99718 88.49774 L 185.09963 88.46928 L 185.20207 88.4414 L 185.30454 88.41339 L 185.40699 88.38538 L 185.50945 88.3581 L 185.6119 88.33049 L 185.71436 88.3035 L 185.81682 88.27652 L 185.91927 88.2498 L 186.02173 88.22311 L 186.12416 88.1967 L 186.22663 88.17044 L 186.32907 88.14447 L 186.43154 88.1185 L 186.53398 88.09311 L 186.63645 88.0676 L 186.73889 88.04205 L 186.84136 88.01682 L 186.9438 87.99188 L 187.04627 87.96693 L 187.14871 87.94258 L 187.25116 87.91794 L 187.3536 87.89372 L 187.45607 87.86967 L 187.55852 87.84561 L 187.66098 87.8217 L 187.76345 87.79793 L 187.86589 87.77444 L 187.96836 87.75127 L 188.0708 87.7278 L 188.17327 87.70491 L 188.27571 87.68202 L 188.37816 87.65913 L 188.4806 87.63683 L 188.58307 87.61424 L 188.68552 87.59209 L 188.78798 87.5698 L 188.89043 87.54764 L 188.99289 87.52591 L 189.09534 87.50406 L 189.1978 87.48248 L 189.30025 87.46106 L 189.40271 87.43979 L 189.50514 87.41823 L 189.6076 87.39755 L 189.71006 87.37642 L 189.81252 87.35558 L 189.91498 87.33475 L 190.01743 87.31435 L 190.11989 87.29381 L 190.22234 87.27371 L 190.3248 87.25346 L 190.42725 87.23337 L 190.07965 87.30005 "/>
<path transform="matrix(-.042,-.99907,-.99907,.042,162.12917,14.22583)" stroke-width=".31879" stroke-linecap="round" stroke-linejoin="round" fill="none" stroke="#000000" d="M -1.19551 1.59401 C -1.09587 .99626 0 .09961 .29886 0 C 0 -.09961 -1.09587 -.99626 -1.19551 -1.59401 "/>
<path transform="matrix(.98206,.18839,.18839,-.98206,192.29366,80.517948)" stroke-width=".31879" stroke-linecap="round" stroke-linejoin="round" fill="none" stroke="#000000" d="M -1.19551 1.59401 C -1.09587 .99626 0 .09961 .29886 0 C 0 -.09961 -1.09587 -.99626 -1.19551 -1.59401 "/>
<path transform="matrix(1,0,0,-1,2.214,167.818)" d="M 46.94406 117.37143 C 46.94406 118.53865 45.99785 119.48486 44.83063 119.48486 C 43.6634 119.48486 42.7172 118.53865 42.7172 117.37143 C 42.7172 116.20421 43.6634 115.25798 44.83063 115.25798 C 45.99785 115.25798 46.94406 116.20421 46.94406 117.37143 Z M 44.83063 117.37143 "/>
<path transform="matrix(1,0,0,-1,2.214,167.818)" d="M 46.80324 117.37143 C 46.80324 118.46088 45.92007 119.34404 44.83063 119.34404 C 43.74118 119.34404 42.85802 118.46088 42.85802 117.37143 C 42.85802 116.28198 43.74118 115.39882 44.83063 115.39882 C 45.92007 115.39882 46.80324 116.28198 46.80324 117.37143 Z M 44.83063 117.37143 " fill="#ffffff"/>
<path transform="matrix(1,0,0,-1,2.214,167.818)" d="M 106.71825 146.71428 C 106.71825 147.88152 105.77203 148.82773 104.60481 148.82773 C 103.43758 148.82773 102.49136 147.88152 102.49136 146.71428 C 102.49136 145.54706 103.43758 144.60085 104.60481 144.60085 C 105.77203 144.60085 106.71825 145.54706 106.71825 146.71428 Z M 104.60481 146.71428 "/>
<path transform="matrix(1,0,0,-1,2.214,167.818)" d="M 106.57741 146.71428 C 106.57741 147.80374 105.69426 148.68689 104.60481 148.68689 C 103.51535 148.68689 102.6322 147.80374 102.6322 146.71428 C 102.6322 145.62483 103.51535 144.74169 104.60481 144.74169 C 105.69426 144.74169 106.57741 145.62483 106.57741 146.71428 Z M 104.60481 146.71428 " fill="#ffffff"/>
<path transform="matrix(1,0,0,-1,2.214,167.818)" d="M 106.71825 76.29143 C 106.71825 77.45865 105.77203 78.40486 104.60481 78.40486 C 103.43758 78.40486 102.49136 77.45865 102.49136 76.29143 C 102.49136 75.1242 103.43758 74.17798 104.60481 74.17798 C 105.77203 74.17798 106.71825 75.1242 106.71825 76.29143 Z M 104.60481 76.29143 "/>
</g>
<symbol id="font_3_1">
<path d="M .305 .31300003 C .311 .33900003 .334 .43100003 .404 .43100003 C .409 .43100003 .433 .43100003 .454 .418 C .426 .41300003 .40600003 .388 .40600003 .36400003 C .40600003 .34800003 .417 .32900004 .444 .32900004 C .46600003 .32900004 .498 .34700004 .498 .38700003 C .498 .43900005 .439 .45300005 .405 .45300005 C .347 .45300005 .312 .40000005 .3 .37700004 C .275 .44300003 .221 .45300005 .19200002 .45300005 C .08800001 .45300005 .031000002 .32400004 .031000002 .29900003 C .031000002 .28900004 .041 .28900004 .043000007 .28900004 C .051000008 .28900004 .054000006 .291 .056 .3 C .09 .40600003 .156 .43100003 .19000001 .43100003 C .209 .43100003 .244 .42200003 .244 .36400003 C .244 .33300004 .22700002 .26600004 .19000001 .126 C .17400001 .064 .13900002 .022000002 .095000009 .022000002 C .08900001 .022000002 .06600001 .022000002 .045 .035 C .07000001 .040000004 .09200001 .061 .09200001 .089 C .09200001 .116000007 .07000001 .124000009 .055000009 .124000009 C .025 .124000009 0 .098000008 0 .06600001 C 0 .020000002 .050000006 0 .094000007 0 C .16000001 0 .19600001 .07000001 .19900002 .076000008 C .21100001 .039 .24700003 0 .307 0 C .41 0 .467 .12900001 .467 .15400002 C .467 .16400002 .458 .16400002 .455 .16400002 C .446 .16400002 .444 .16000001 .442 .15300001 C .409 .046 .341 .022000002 .30900003 .022000002 C .27 .022000002 .254 .054 .254 .08800001 C .254 .11000001 .26 .13200002 .271 .17600002 L .305 .31300003 Z "/>
</symbol>
<use xlink:href="#font_3_1" transform="matrix(9.9626,0,0,-9.9626,193.91992,83.71558)"/>
<symbol id="font_3_2">
<path d="M .45700003 .586 C .461 .6 .461 .602 .461 .609 C .461 .62700006 .447 .63600006 .432 .63600006 C .42200003 .63600006 .40600003 .63 .397 .615 C .395 .61 .387 .579 .38300003 .561 C .37600003 .535 .36900003 .508 .363 .48100005 L .318 .301 C .314 .286 .271 .21600002 .20500002 .21600002 C .15400002 .21600002 .143 .26000003 .143 .29700003 C .143 .34300003 .16000001 .40500004 .194 .49300004 C .21000001 .53400006 .21400002 .545 .21400002 .56500008 C .21400002 .61 .18200001 .6470001 .13200002 .6470001 C .037 .6470001 0 .50200006 0 .49300004 C 0 .48300005 .01 .48300005 .012 .48300005 C .022000002 .48300005 .023 .485 .028000003 .50100007 C .055000009 .595 .095000009 .625 .12900001 .625 C .13700001 .625 .15400002 .625 .15400002 .59300008 C .15400002 .568 .14400001 .54200008 .13700001 .523 C .097 .41700004 .079 .36 .079 .31300003 C .079 .224 .142 .194 .201 .194 C .24000003 .194 .274 .21100001 .30200003 .23900002 C .289 .187 .277 .13800001 .237 .08500001 C .21100001 .051 .17300001 .022 .127 .022 C .113000009 .022 .068 .025000006 .051000008 .06400001 C .067 .06400001 .080000009 .06400001 .094000007 .076000008 C .104 .08500001 .11400001 .098000008 .11400001 .117000009 C .11400001 .148 .087000008 .15200001 .07700001 .15200001 C .054000006 .15200001 .021 .136 .021 .087000008 C .021 .037 .065000008 0 .127 0 C .23 0 .333 .091000009 .361 .20400001 L .45700003 .586 Z "/>
</symbol>
<use xlink:href="#font_3_2" transform="matrix(9.9626,0,0,-9.9626,103.154918,9.652334)"/>
</g>
</svg>
