<?xml version="1.0" encoding="UTF-8" standalone="no"?>
<!DOCTYPE svg PUBLIC "-//W3C//DTD SVG 1.1//EN" "http://www.w3.org/Graphics/SVG/1.1/DTD/svg11.dtd">
<svg xmlns="http://www.w3.org/2000/svg" xmlns:xlink="http://www.w3.org/1999/xlink" version="1.1" width="210.123pt" height="168.015pt" viewBox="0 0 210.123 168.015">
<g enable-background="new">
<path transform="matrix(1,0,0,-1,9.686,167.816)" stroke-width=".19925" stroke-linecap="butt" stroke-miterlimit="10" stroke-linejoin="miter" fill="none" stroke="#808080" d="M 5.39644 79.27469 L 5.39644 82.1095 M 10.79288 79.27469 L 10.79288 82.1095 M 16.18933 79.27469 L 16.18933 82.1095 M 21.58577 79.27469 L 21.58577 82.1095 M 26.98221 79.27469 L 26.98221 82.1095 M 37.77513 79.27469 L 37.77513 82.1095 M 43.17157 79.27469 L 43.17157 82.1095 M 48.56802 79.27469 L 48.56802 82.1095 M 53.96446 79.27469 L 53.96446 82.1095 M 59.3609 79.27469 L 59.3609 82.1095 M 70.15382 79.27469 L 70.15382 82.1095 M 75.55026 79.27469 L 75.55026 82.1095 M 80.94672 79.27469 L 80.94672 82.1095 M 86.34315 79.27469 L 86.34315 82.1095 M 91.7396 79.27469 L 91.7396 82.1095 M 102.53252 79.27469 L 102.53252 82.1095 M 107.92896 79.27469 L 107.92896 82.1095 M 113.32541 79.27469 L 113.32541 82.1095 M 118.72185 79.27469 L 118.72185 82.1095 M 124.11829 79.27469 L 124.11829 82.1095 M 134.91121 79.27469 L 134.91121 82.1095 M 140.30765 79.27469 L 140.30765 82.1095 M 145.7041 79.27469 L 145.7041 82.1095 M 151.10054 79.27469 L 151.10054 82.1095 M 156.497 79.27469 L 156.497 82.1095 M 167.2899 79.27469 L 167.2899 82.1095 M 172.68636 79.27469 L 172.68636 82.1095 M 178.0828 79.27469 L 178.0828 82.1095 M 183.47924 79.27469 L 183.47924 82.1095 M 188.87569 79.27469 L 188.87569 82.1095 "/>
<path transform="matrix(1,0,0,-1,9.686,167.816)" stroke-width=".19925" stroke-linecap="butt" stroke-miterlimit="10" stroke-linejoin="miter" fill="none" stroke="#808080" d="M 0 78.56621 L 0 82.81796 M 32.3787 78.56621 L 32.3787 82.81796 M 64.75739 78.56621 L 64.75739 82.81796 M 129.51477 78.56621 L 129.51477 82.81796 M 161.89347 78.56621 L 161.89347 82.81796 M 194.27216 78.56621 L 194.27216 82.81796 "/>
<path transform="matrix(1,0,0,-1,9.686,167.816)" stroke-width=".19925" stroke-linecap="butt" stroke-miterlimit="10" stroke-linejoin="miter" fill="none" stroke="#808080" d="M 95.71867 0 L 98.55348 0 M 95.71867 5.37946 L 98.55348 5.37946 M 95.71867 10.75894 L 98.55348 10.75894 M 95.71867 21.51788 L 98.55348 21.51788 M 95.71867 26.89735 L 98.55348 26.89735 M 95.71867 32.27682 L 98.55348 32.27682 M 95.71867 37.6563 L 98.55348 37.6563 M 95.71867 43.03578 L 98.55348 43.03578 M 95.71867 53.79472 L 98.55348 53.79472 M 95.71867 59.1742 L 98.55348 59.1742 M 95.71867 64.55367 L 98.55348 64.55367 M 95.71867 69.93314 L 98.55348 69.93314 M 95.71867 75.31262 L 98.55348 75.31262 M 95.71867 86.07156 L 98.55348 86.07156 M 95.71867 91.45103 L 98.55348 91.45103 M 95.71867 96.8305 L 98.55348 96.8305 M 95.71867 102.20998 L 98.55348 102.20998 M 95.71867 107.58946 L 98.55348 107.58946 M 95.71867 118.3484 L 98.55348 118.3484 M 95.71867 123.72787 L 98.55348 123.72787 M 95.71867 129.10735 L 98.55348 129.10735 M 95.71867 134.48682 L 98.55348 134.48682 M 95.71867 139.8663 L 98.55348 139.8663 M 95.71867 150.62525 L 98.55348 150.62525 M 95.71867 156.00472 L 98.55348 156.00472 M 95.71867 161.38419 L 98.55348 161.38419 "/>
<path transform="matrix(1,0,0,-1,9.686,167.816)" stroke-width=".19925" stroke-linecap="butt" stroke-miterlimit="10" stroke-linejoin="miter" fill="none" stroke="#808080" d="M 95.01018 16.13841 L 99.26195 16.13841 M 95.01018 48.41525 L 99.26195 48.41525 M 95.01018 112.96893 L 99.26195 112.96893 M 95.01018 145.24578 L 99.26195 145.24578 "/>
<path transform="matrix(1,0,0,-1,9.686,167.816)" stroke-width=".3985" stroke-linecap="butt" stroke-miterlimit="10" stroke-linejoin="miter" fill="none" stroke="#000000" d="M 0 80.6921 L 192.27964 80.6921 "/>
<path transform="matrix(1,0,0,-1,201.96564,87.12389)" d="M 1.99252 0 L -1.19551 1.59401 L 0 0 L -1.19551 -1.59401 "/>
<path transform="matrix(1,0,0,-1,9.686,167.816)" stroke-width=".3985" stroke-linecap="butt" stroke-miterlimit="10" stroke-linejoin="miter" fill="none" stroke="#000000" d="M 97.13608 0 L 97.13608 159.39168 "/>
<path transform="matrix(0,-1,-1,-0,106.822078,8.424316)" d="M 1.99252 0 L -1.19551 1.59401 L 0 0 L -1.19551 -1.59401 "/>
<symbol id="font_0_1">
<path d="M .57600006 0 C .59300008 0 .611 0 .611 .019999996 C .611 .040000008 .59300008 .040000008 .57600006 .040000008 L .035000005 .040000008 C .018 .040000008 0 .040000008 0 .019999996 C 0 0 .018 0 .035000005 0 L .57600006 0 Z "/>
</symbol>
<use xlink:href="#font_0_1" transform="matrix(9.9626,0,0,-9.9626,4.147896,96.89959)"/>
<symbol id="font_1_3">
<path d="M .24800003 .37400005 C .33 .40100003 .388 .47100006 .388 .55 C .388 .632 .3 .688 .204 .688 C .10300001 .688 .027000003 .628 .027000003 .55200007 C .027000003 .519 .049000004 .5 .078 .5 C .109000008 .5 .12900001 .522 .12900001 .55100008 C .12900001 .6010001 .082 .6010001 .067 .6010001 C .098 .65000006 .164 .66300007 .20000002 .66300007 C .24100003 .66300007 .29600004 .64100006 .29600004 .55100008 C .29600004 .53900006 .29400004 .48100005 .268 .43700005 C .238 .38900004 .204 .38600005 .17900002 .38500003 C .171 .38400004 .14700002 .38200004 .14000002 .38200004 C .132 .38100005 .125 .38000003 .125 .37000004 C .125 .35900004 .132 .35900004 .14900002 .35900004 L .19300002 .35900004 C .275 .35900004 .312 .29100005 .312 .193 C .312 .057000005 .24300003 .028 .199 .028 C .15600002 .028 .081 .045 .046000005 .104 C .081 .09900001 .11200001 .12100001 .11200001 .15900001 C .11200001 .19500001 .085 .215 .056 .215 C .031999999 .215 0 .201 0 .157 C 0 .06600001 .093 0 .20200002 0 C .32400004 0 .41500003 .091000009 .41500003 .193 C .41500003 .27500005 .35200004 .35300005 .24800003 .37400005 Z "/>
</symbol>
<use xlink:href="#font_1_3" transform="matrix(9.9626,0,0,-9.9626,11.48743,99.410167)"/>
<use xlink:href="#font_0_1" transform="matrix(9.9626,0,0,-9.9626,36.525899,96.89959)"/>
<symbol id="font_1_2">
<path d="M .07700001 .07700001 L .18300002 .18 C .33900003 .31800003 .39900003 .372 .39900003 .47200004 C .39900003 .586 .30900003 .666 .18700002 .666 C .074 .666 0 .574 0 .485 C 0 .42900003 .05 .42900003 .053000008 .42900003 C .07000001 .42900003 .105000007 .441 .105000007 .48200003 C .105000007 .508 .08700001 .53400006 .052000006 .53400006 C .044000005 .53400006 .042000008 .53400006 .039 .53300008 C .062000004 .59800007 .11600001 .63500007 .17400001 .63500007 C .26500003 .63500007 .308 .554 .308 .47200004 C .308 .39200003 .25800003 .31300003 .20300003 .25100003 L .011000004 .037 C 0 .026 0 .024 0 0 L .37100003 0 L .39900003 .17400001 L .374 .17400001 C .36900003 .14400001 .36200003 .1 .352 .085 C .345 .07700001 .279 .07700001 .257 .07700001 L .07700001 .07700001 Z "/>
</symbol>
<use xlink:href="#font_1_2" transform="matrix(9.9626,0,0,-9.9626,43.946134,99.19099)"/>
<use xlink:href="#font_0_1" transform="matrix(9.9626,0,0,-9.9626,68.90389,96.89959)"/>
<symbol id="font_1_1">
<path d="M .205 .64000007 C .205 .66400006 .205 .666 .18200003 .666 C .120000008 .60200008 .032000007 .60200008 0 .60200008 L 0 .57100006 C .020000004 .57100006 .07900001 .57100006 .13100001 .597 L .13100001 .079 C .13100001 .043 .128 .031000002 .038000004 .031000002 L .0060000049 .031000002 L .0060000049 0 C .04100001 .003 .128 .003 .168 .003 C .20800002 .003 .29500003 .003 .33000005 0 L .33000005 .031000002 L .29800005 .031000002 C .20800002 .031000002 .205 .042000005 .205 .079 L .205 .64000007 Z "/>
</symbol>
<use xlink:href="#font_1_1" transform="matrix(9.9626,0,0,-9.9626,76.71267,99.19099)"/>
<use xlink:href="#font_1_1" transform="matrix(9.9626,0,0,-9.9626,137.59468,99.19099)"/>
<use xlink:href="#font_1_2" transform="matrix(9.9626,0,0,-9.9626,169.58412,99.19099)"/>
<use xlink:href="#font_1_3" transform="matrix(9.9626,0,0,-9.9626,201.88344,99.410167)"/>
<use xlink:href="#font_0_1" transform="matrix(9.9626,0,0,-9.9626,89.2719,152.1816)"/>
<symbol id="font_1_4">
<path d="M .266 .165 L .266 .078 C .266 .042000005 .26400004 .031000002 .19000001 .031000002 L .16900002 .031000002 L .16900002 0 C .21000001 .003 .26200003 .003 .30400003 .003 C .34600003 .003 .39900003 .003 .44000004 0 L .44000004 .031000002 L .41900004 .031000002 C .34500004 .031000002 .34300003 .042000005 .34300003 .078 L .34300003 .165 L .44300003 .165 L .44300003 .19600001 L .34300003 .19600001 L .34300003 .651 C .34300003 .671 .34300003 .67700007 .32700003 .67700007 C .31800003 .67700007 .31500004 .67700007 .307 .665 L 0 .19600001 L 0 .165 L .266 .165 M .272 .19600001 L .028 .19600001 L .272 .569 L .272 .19600001 Z "/>
</symbol>
<use xlink:href="#font_1_4" transform="matrix(9.9626,0,0,-9.9626,96.471958,154.47299)"/>
<use xlink:href="#font_0_1" transform="matrix(9.9626,0,0,-9.9626,89.2719,119.9046)"/>
<use xlink:href="#font_1_2" transform="matrix(9.9626,0,0,-9.9626,96.69113,122.196)"/>
<use xlink:href="#font_1_2" transform="matrix(9.9626,0,0,-9.9626,96.69113,58.058984)"/>
<use xlink:href="#font_1_4" transform="matrix(9.9626,0,0,-9.9626,96.471958,25.781998)"/>
<clipPath id="cp2">
<path transform="matrix(1,0,0,-1,9.686,167.816)" d="M 0 0 L 194.27216 0 L 194.27216 161.3842 L 0 161.3842 Z "/>
</clipPath>
<g clip-path="url(#cp2)">
<path transform="matrix(1,0,0,-1,9.686,167.816)" stroke-width=".3985" stroke-linecap="butt" stroke-miterlimit="10" stroke-linejoin="miter" fill="none" stroke="#000000" d="M 24.36559 42.56212 L 24.7713 44.8038 L 25.25859 47.44739 L 25.7459 50.04231 L 26.2332 52.58885 L 26.72047 55.08742 L 27.20778 57.53825 L 27.69508 59.94171 L 28.18237 62.29814 L 28.66966 64.60785 L 29.15697 66.87122 L 29.64426 69.08852 L 30.13156 71.2601 L 30.61887 73.38629 L 31.10614 75.46744 L 31.59344 77.50385 L 32.08075 79.49586 L 32.56804 81.44382 L 33.05533 83.34805 L 33.54263 85.20886 L 34.02992 87.02661 L 34.51723 88.80159 L 35.00452 90.53418 L 35.4918 92.22467 L 35.97911 93.8734 L 36.4664 95.48071 L 36.9537 97.04692 L 37.441 98.57236 L 37.92828 100.05737 L 38.41559 101.50229 L 38.9029 102.90742 L 39.39017 104.27313 L 39.87747 105.5997 L 40.36478 106.88748 L 40.85207 108.13684 L 41.33937 109.34802 L 41.82666 110.52142 L 42.31395 111.65738 L 42.80125 112.75621 L 43.28856 113.81824 L 43.77583 114.84378 L 44.26314 115.83319 L 44.75044 116.78676 L 45.23773 117.70486 L 45.72504 118.58781 L 46.21233 119.43594 L 46.69962 120.24951 L 47.18692 121.02898 L 47.67422 121.77461 L 48.1615 122.48674 L 48.6488 123.16571 L 49.1361 123.81183 L 49.6234 124.42542 L 50.1107 125.00685 L 50.59798 125.55641 L 51.08528 126.07437 L 51.57259 126.56123 L 52.05988 127.01721 L 52.54716 127.44267 L 53.03447 127.8379 L 53.52176 128.20331 L 54.00906 128.53914 L 54.49635 128.84578 L 54.98364 129.12352 L 55.47095 129.37271 L 55.95825 129.59358 L 56.44554 129.78665 L 56.93283 129.95218 L 57.42014 130.09046 L 57.90742 130.20183 L 58.39473 130.28665 L 58.88202 130.3452 L 59.36931 130.37786 L 59.85661 130.38495 L 60.34392 130.36675 L 60.8312 130.32366 L 61.3185 130.25586 L 61.8058 130.16393 L 62.29309 130.04804 L 62.7804 129.90854 L 63.26767 129.74579 L 63.75497 129.5601 L 64.24228 129.35179 L 64.72957 129.12119 L 65.21687 128.8686 L 65.70418 128.59447 L 66.19145 128.29901 L 66.67876 127.98256 L 67.16606 127.64551 L 67.65335 127.28813 L 68.14066 126.9108 L 68.62796 126.51389 L 69.11525 126.0976 L 69.60255 125.6623 L 70.08986 125.20839 L 70.57715 124.73616 L 71.06445 124.24596 L 71.55176 123.73808 L 72.03905 123.21286 L 72.52635 122.67067 L 73.01366 122.11179 L 73.50095 121.53656 L 73.98825 120.94534 L 74.47556 120.3384 L 74.96284 119.71617 L 75.45015 119.0789 L 75.93745 118.42691 L 76.42474 117.76059 L 76.91205 117.08025 L 77.39934 116.38615 L 77.88664 115.67877 L 78.37395 114.9583 L 78.86124 114.22513 L 79.34854 113.47957 L 79.83585 112.72198 L 80.32314 111.95265 L 80.81042 111.17197 L 81.29774 110.3802 L 81.78502 109.57773 L 82.27232 108.7648 L 82.75964 107.94185 L 83.24692 107.10916 L 83.73422 106.26704 L 84.22153 105.41588 L 84.70882 104.55595 L 85.19612 103.68758 L 85.68343 102.81116 L 86.17072 101.92694 L 86.65802 101.03534 L 87.14532 100.13661 L 87.63261 99.23112 L 88.11992 98.3192 L 88.60722 97.40117 L 89.09451 96.47737 L 89.58182 95.54811 L 90.06912 94.61372 L 90.55641 93.67458 L 91.04372 92.73096 L 91.531 91.78322 L 92.01831 90.83168 L 92.50562 89.87668 L 92.9929 88.91852 L 93.48021 87.95758 L 93.96751 86.99416 L 94.4548 86.02856 L 94.94211 85.06119 L 95.42941 84.0923 L 95.9167 83.12228 L 96.404 82.15143 L 96.89131 81.18007 L 97.3786 80.20854 L 97.8659 79.23718 L 98.35321 78.26633 L 98.8405 77.2963 L 99.3278 76.32742 L 99.81511 75.36002 L 100.3024 74.39442 L 100.7897 73.431 L 101.27701 72.47003 L 101.7643 71.51187 L 102.2516 70.55685 L 102.73889 69.6053 L 103.22618 68.65753 L 103.7135 67.71391 L 104.20078 66.77473 L 104.68808 65.84032 L 105.17538 64.91106 L 105.66267 63.98721 L 106.14998 63.06915 L 106.63728 62.1572 L 107.12457 61.25168 L 107.61188 60.35294 L 108.09918 59.46129 L 108.58647 58.57704 L 109.07378 57.70058 L 109.56108 56.8322 L 110.04837 55.97221 L 110.53568 55.121 L 111.02298 54.27884 L 111.51027 53.4461 L 111.99757 52.6231 L 112.48488 51.81018 L 112.97217 51.00761 L 113.45947 50.2158 L 113.94678 49.43504 L 114.43407 48.6657 L 114.92137 47.90804 L 115.40868 47.16243 L 115.89597 46.42918 L 116.38327 45.70866 L 116.87057 45.00117 L 117.35785 44.30708 L 117.84517 43.62666 L 118.33246 42.96027 L 118.81975 42.30824 L 119.30707 41.67088 L 119.79434 41.04855 L 120.28165 40.44159 L 120.76897 39.8503 L 121.25624 39.275 L 121.74355 38.71602 L 122.23085 38.17374 L 122.71814 37.64845 L 123.20544 37.14047 L 123.69275 36.6502 L 124.18004 36.17789 L 124.66734 35.72389 L 125.15465 35.28854 L 125.64194 34.87216 L 126.12924 34.47511 L 126.61655 34.09773 L 127.10384 33.74026 L 127.59114 33.4031 L 128.07845 33.08658 L 128.56574 32.79102 L 129.05304 32.51674 L 129.54035 32.26407 L 130.02762 32.03337 L 130.51493 31.82497 L 131.00223 31.63918 L 131.48952 31.4763 L 131.97682 31.33672 L 132.4641 31.22072 L 132.9514 31.12866 L 133.4387 31.06085 L 133.926 31.01755 L 134.41329 30.99925 L 134.90059 31.00621 L 135.38788 31.03876 L 135.87519 31.09718 L 136.36249 31.18188 L 136.84976 31.29314 L 137.33707 31.4313 L 137.82437 31.59668 L 138.31166 31.78964 L 138.79895 32.01047 L 139.28626 32.25946 L 139.77355 32.53706 L 140.26085 32.84355 L 140.74814 33.17926 L 141.23543 33.5445 L 141.72274 33.9396 L 142.21004 34.36493 L 142.69733 34.82077 L 143.18462 35.30748 L 143.67192 35.8253 L 144.15921 36.37474 L 144.64652 36.95601 L 145.1338 37.56946 L 145.6211 38.21542 L 146.1084 38.89424 L 146.59569 39.60622 L 147.083 40.3517 L 147.57028 41.13101 L 148.05757 41.94449 L 148.54488 42.79245 L 149.03218 43.67519 L 149.51946 44.59312 L 150.00676 45.54655 L 150.49407 46.53578 L 150.98136 47.56116 L 151.46866 48.62302 L 151.95595 49.72166 L 152.44324 50.85745 L 152.93054 52.03072 L 153.41785 53.24174 L 153.90512 54.49088 L 154.39243 55.77849 L 154.87973 57.1049 L 155.36702 58.4704 L 155.85431 59.87537 L 156.34162 61.32008 L 156.8289 62.80493 L 157.31621 64.33018 L 157.80352 65.89622 L 158.29079 67.50333 L 158.77809 69.15187 L 159.2654 70.84216 L 159.75269 72.57457 L 160.23998 74.34937 L 160.72727 76.1669 L 161.21457 78.02751 L 161.70188 79.93153 L 162.18917 81.87929 L 162.67646 83.8711 L 163.16376 85.90732 L 163.65105 87.98827 L 164.13835 90.11424 L 164.62564 92.28563 L 165.11293 94.50273 L 165.60024 96.76585 L 166.08754 99.07538 L 166.57483 101.4316 L 167.06212 103.83482 L 167.54943 106.28545 L 168.03672 108.78378 L 168.52402 111.33011 L 169.0113 113.9248 L 169.4986 116.56819 L 169.90431 118.80965 "/>
<path transform="matrix(-.17802,.98398,.98398,.17802,34.0516,125.253879)" stroke-width=".31879" stroke-linecap="round" stroke-linejoin="round" fill="none" stroke="#000000" d="M -1.19551 1.59401 C -1.09587 .99626 0 .09961 .29886 0 C 0 -.09961 -1.09587 -.99626 -1.19551 -1.59401 "/>
<path transform="matrix(.17805,-.98398,-.98398,-.17805,179.5903,49.006349)" stroke-width=".31879" stroke-linecap="round" stroke-linejoin="round" fill="none" stroke="#000000" d="M -1.19551 1.59401 C -1.09587 .99626 0 .09961 .29886 0 C 0 -.09961 -1.09587 -.99626 -1.19551 -1.59401 "/>
<path transform="matrix(1,0,0,-1,9.686,167.816)" d="M 34.49213 80.6921 C 34.49213 81.85931 33.54591 82.80553 32.3787 82.80553 C 31.21146 82.80553 30.26524 81.85931 30.26524 80.6921 C 30.26524 79.52487 31.21146 78.57866 32.3787 78.57866 C 33.54591 78.57866 34.49213 79.52487 34.49213 80.6921 Z M 32.3787 80.6921 "/>
<symbol id="font_3_1">
<path d="M .482 .693 C .47900004 .712 .47800005 .716 .462 .716 C .44700004 .716 .44300003 .712 .435 .69600006 L .12900001 .09900001 C .10700001 .057000005 .072 .031000002 .004999999 .031000002 C .0029999987 .021000002 .0020000004 .010000001 0 0 C .021000002 .001 .062000004 .003 .102 .003 C .12200001 .003 .18800001 .001 .216 0 L .222 .030000002 C .213 .030000002 .155 .034 .155 .076000008 C .155 .08400001 .155 .086 .168 .112 C .18800001 .15100001 .21200001 .2 .22800002 .22800002 L .47500003 .22800002 L .50200006 .079 C .503 .076000008 .504 .067 .504 .064 C .504 .031000002 .44000004 .031000002 .41500003 .031000002 C .414 .023000002 .411 .009000001 .41000004 0 C .44500003 .003 .51600006 .003 .554 .003 C .597 .003 .643 .002 .685 0 C .68600007 .009000001 .689 .023000002 .69000008 .031000002 L .674 .031000002 C .602 .031000002 .6 .041 .59400007 .075 L .482 .693 M .411 .58400008 L .46900005 .259 L .24400002 .259 L .411 .58400008 Z "/>
</symbol>
<use xlink:href="#font_3_1" transform="matrix(9.9626,0,0,-9.9626,29.755805,81.969989)"/>
<path transform="matrix(1,0,0,-1,9.686,167.816)" d="M 62.01402 129.91428 C 62.01402 131.0815 61.0678 132.02771 59.90057 132.02771 C 58.73335 132.02771 57.78714 131.0815 57.78714 129.91428 C 57.78714 128.74706 58.73335 127.80084 59.90057 127.80084 C 61.0678 127.80084 62.01402 128.74706 62.01402 129.91428 Z M 59.90057 129.91428 "/>
<symbol id="font_3_2">
<path d="M .11400001 .683 L .10900001 .652 C .12300001 .652 .15200001 .652 .16800002 .651 C .19000001 .648 .20600002 .646 .20600002 .624 C .20600002 .61700007 .20400001 .60800006 .20300001 .6 L .11500001 .075 C .111 .051000004 .10800001 .039 .07800001 .034 C .059000005 .031000002 .025000003 .031000002 .004999999 .031000002 L 0 0 L .391 0 C .538 0 .647 .106000009 .647 .20500002 C .647 .294 .568 .34800003 .481 .35700003 C .582 .37600003 .675 .44500003 .675 .53400006 C .675 .61600008 .59900006 .683 .477 .683 L .11400001 .683 M .24700003 .36600004 L .289 .615 C .294 .64400008 .29500003 .652 .345 .652 L .46500004 .652 C .56200006 .652 .578 .57500007 .578 .53900006 C .578 .45700003 .507 .36600004 .39000003 .36600004 L .24700003 .36600004 M .24200003 .031000002 C .214 .031000002 .19500001 .031000002 .19500001 .052 C .19500001 .055000005 .19500001 .057000005 .19800002 .072000008 L .244 .344 L .42900003 .344 C .531 .344 .54800006 .25500003 .54800006 .215 C .54800006 .123 .47500003 .031000002 .363 .031000002 L .24200003 .031000002 Z "/>
</symbol>
<use xlink:href="#font_3_2" transform="matrix(9.9626,0,0,-9.9626,66.41565,32.071)"/>
<path transform="matrix(1,0,0,-1,9.686,167.816)" d="M 99.24951 80.6921 C 99.24951 81.85931 98.3033 82.80553 97.13608 82.80553 C 95.96886 82.80553 95.02263 81.85931 95.02263 80.6921 C 95.02263 79.52487 95.96886 78.57866 97.13608 78.57866 C 98.3033 78.57866 99.24951 79.52487 99.24951 80.6921 Z M 97.13608 80.6921 "/>
<symbol id="font_3_3">
<path d="M .67300006 .716 C .67300006 .72400006 .66700008 .72700008 .6610001 .72700008 C .65700009 .72700008 .65400007 .725 .65200009 .72200009 C .65000006 .7210001 .6470001 .716 .64500007 .71400007 L .5910001 .65200009 C .58300009 .64400008 .58300009 .64300009 .5820001 .64300009 C .58100005 .64300009 .58000007 .64400008 .5730001 .651 C .52800008 .7070001 .47100006 .72700008 .41100005 .72700008 C .20500002 .72700008 0 .53200009 0 .30300004 C 0 .120000008 .13300002 0 .294 0 C .37 0 .44000004 .031000004 .49500004 .080000009 C .58500006 .16100002 .59700009 .26000003 .59700009 .261 C .59700009 .27100004 .59000006 .272 .58500006 .272 C .5820001 .272 .57400009 .272 .572 .263 C .56500008 .23300001 .549 .15900001 .47800002 .09900001 C .418 .048 .361 .031000004 .30900003 .031000004 C .21900001 .031000004 .099000018 .087000008 .099000018 .268 C .099000018 .28200004 .099000018 .44900004 .19 .573 C .238 .6380001 .326 .69600006 .42100004 .69600006 C .54100009 .69600006 .59900006 .58800008 .59900006 .47700004 C .59900006 .46900005 .59800007 .46100004 .59800007 .45200003 C .59900006 .44200004 .60700008 .44200004 .61300006 .44200004 C .61500009 .44200004 .623 .44200004 .62700006 .44500003 L .67300006 .716 Z "/>
</symbol>
<use xlink:href="#font_3_3" transform="matrix(9.9626,0,0,-9.9626,113.051959,82.18916)"/>
<path transform="matrix(1,0,0,-1,9.686,167.816)" d="M 136.48502 31.46991 C 136.48502 32.63713 135.53879 33.58336 134.37157 33.58336 C 133.20435 33.58336 132.25814 32.63713 132.25814 31.46991 C 132.25814 30.30269 133.20435 29.35648 134.37157 29.35648 C 135.53879 29.35648 136.48502 30.30269 136.48502 31.46991 Z M 134.37157 31.46991 "/>
<symbol id="font_3_4">
<path d="M .11400001 .683 L .10900001 .652 C .12300001 .652 .15200001 .652 .16800002 .651 C .19000001 .648 .20600002 .646 .20600002 .624 C .20600002 .61700007 .20400001 .60800006 .20300001 .6 L .11500001 .075 C .11100002 .051000004 .10800001 .039 .07800001 .034 C .059000005 .031000002 .025000003 .031000002 .0050000029 .031000002 L 0 0 L .36400003 0 C .555 0 .733 .18300002 .733 .40100003 C .733 .56 .633 .683 .47700004 .683 L .11400001 .683 M .29200004 .615 C .29700003 .64400008 .298 .652 .34800003 .652 L .44500003 .652 C .542 .652 .638 .597 .638 .44200004 C .638 .425 .634 .245 .556 .13900002 C .515 .08400001 .44300003 .031000002 .342 .031000002 L .245 .031000002 C .21700001 .031000002 .19800002 .031000002 .19800002 .052 C .19800002 .055000005 .19800002 .057000005 .20100002 .072000008 L .29200004 .615 Z "/>
</symbol>
<use xlink:href="#font_3_4" transform="matrix(9.9626,0,0,-9.9626,140.5987,130.51398)"/>
<path transform="matrix(1,0,0,-1,9.686,167.816)" d="M 164.0069 80.6921 C 164.0069 81.85931 163.06069 82.80553 161.89347 82.80553 C 160.72624 82.80553 159.78002 81.85931 159.78002 80.6921 C 159.78002 79.52487 160.72624 78.57866 161.89347 78.57866 C 163.06069 78.57866 164.0069 79.52487 164.0069 80.6921 Z M 161.89347 80.6921 "/>
<symbol id="font_3_5">
<path d="M .66200008 .25800003 L .637 .25800003 C .58400008 .085 .535 .031000002 .37800003 .031000002 L .24800003 .031000002 C .22000003 .031000002 .201 .031000002 .201 .052 C .201 .055000005 .201 .057000005 .20400003 .072000008 L .24900002 .33800004 L .33600004 .33800004 C .40300004 .33800004 .43300004 .326 .43300004 .273 C .43300004 .25300003 .43000005 .238 .42700003 .22100002 L .45200003 .22100002 L .49600006 .48600004 L .47100003 .48600004 C .45700003 .39000003 .42900003 .36900003 .34200005 .36900003 L .254 .36900003 L .29400004 .611 C .29900003 .643 .30400003 .64900007 .351 .64900007 L .476 .64900007 C .614 .64900007 .64300009 .60700008 .64300009 .49800004 C .64300009 .485 .64300009 .467 .642 .455 L .66700008 .455 L .67600008 .68 L .11300001 .68 L .108 .64900007 L .13 .64900007 C .194 .64900007 .206 .642 .206 .62100008 C .206 .61800006 .206 .61600008 .20400003 .60700008 L .115 .075 C .11000001 .043 .108 .031000002 .027000003 .031000002 L .0050000029 .031000002 C .0030000024 .021000002 .0020000004 .010000001 0 0 L .577 0 L .66200008 .25800003 Z "/>
</symbol>
<use xlink:href="#font_3_5" transform="matrix(9.9626,0,0,-9.9626,159.97077,81.969989)"/>
</g>
<symbol id="font_4_1">
<path d="M .305 .31300003 C .311 .33900003 .334 .43100003 .404 .43100003 C .409 .43100003 .433 .43100003 .454 .418 C .426 .41300003 .40600003 .388 .40600003 .36400003 C .40600003 .34800003 .417 .32900004 .444 .32900004 C .46600003 .32900004 .498 .34700004 .498 .38700003 C .498 .43900005 .439 .45300005 .405 .45300005 C .347 .45300005 .312 .40000005 .3 .37700004 C .275 .44300003 .221 .45300005 .19200002 .45300005 C .08800001 .45300005 .031000002 .32400004 .031000002 .29900003 C .031000002 .28900004 .041 .28900004 .043000007 .28900004 C .051000008 .28900004 .054000006 .291 .056 .3 C .09 .40600003 .156 .43100003 .19000001 .43100003 C .209 .43100003 .244 .42200003 .244 .36400003 C .244 .33300004 .22700002 .26600004 .19000001 .126 C .17400001 .064 .13900002 .022000002 .095000009 .022000002 C .08900001 .022000002 .06600001 .022000002 .045 .035 C .07000001 .040000004 .09200001 .061 .09200001 .089 C .09200001 .116000007 .07000001 .124000009 .055000009 .124000009 C .025 .124000009 0 .098000008 0 .06600001 C 0 .020000002 .050000006 0 .094000007 0 C .16000001 0 .19600001 .07000001 .19900002 .076000008 C .21100001 .039 .24700003 0 .307 0 C .41 0 .467 .12900001 .467 .15400002 C .467 .16400002 .458 .16400002 .455 .16400002 C .446 .16400002 .444 .16000001 .442 .15300001 C .409 .046 .341 .022000002 .30900003 .022000002 C .27 .022000002 .254 .054 .254 .08800001 C .254 .11000001 .26 .13200002 .271 .17600002 L .305 .31300003 Z "/>
</symbol>
<use xlink:href="#font_4_1" transform="matrix(9.9626,0,0,-9.9626,201.39691,83.714588)"/>
<symbol id="font_4_2">
<path d="M .45700003 .586 C .461 .6 .461 .602 .461 .609 C .461 .62700006 .447 .63600006 .432 .63600006 C .42200003 .63600006 .40600003 .63 .397 .615 C .395 .61 .387 .579 .38300003 .561 C .37600003 .535 .36900003 .508 .363 .48100005 L .318 .301 C .314 .286 .271 .21600002 .20500002 .21600002 C .15400002 .21600002 .143 .26000003 .143 .29700003 C .143 .34300003 .16000001 .40500004 .194 .49300004 C .21000001 .53400006 .21400002 .545 .21400002 .56500008 C .21400002 .61 .18200001 .6470001 .13200002 .6470001 C .037 .6470001 0 .50200006 0 .49300004 C 0 .48300005 .01 .48300005 .012 .48300005 C .022000002 .48300005 .023 .485 .028000003 .50100007 C .055000009 .595 .095000009 .625 .12900001 .625 C .13700001 .625 .15400002 .625 .15400002 .59300008 C .15400002 .568 .14400001 .54200008 .13700001 .523 C .097 .41700004 .079 .36 .079 .31300003 C .079 .224 .142 .194 .201 .194 C .24000003 .194 .274 .21100001 .30200003 .23900002 C .289 .187 .277 .13800001 .237 .08500001 C .21100001 .051 .17300001 .022 .127 .022 C .113000009 .022 .068 .025000006 .051000008 .06400001 C .067 .06400001 .080000009 .06400001 .094000007 .076000008 C .104 .08500001 .11400001 .098000008 .11400001 .117000009 C .11400001 .148 .087000008 .15200001 .07700001 .15200001 C .054000006 .15200001 .021 .136 .021 .087000008 C .021 .037 .065000008 0 .127 0 C .23 0 .333 .091000009 .361 .20400001 L .45700003 .586 Z "/>
</symbol>
<use xlink:href="#font_4_2" transform="matrix(9.9626,0,0,-9.9626,110.628917,9.652334)"/>
</g>
</svg>
