<?xml version="1.0" encoding="UTF-8" standalone="no"?>
<!DOCTYPE svg PUBLIC "-//W3C//DTD SVG 1.1//EN" "http://www.w3.org/Graphics/SVG/1.1/DTD/svg11.dtd">
<svg xmlns="http://www.w3.org/2000/svg" xmlns:xlink="http://www.w3.org/1999/xlink" version="1.1" width="200.63pt" height="168.015pt" viewBox="0 0 200.63 168.015">
<g enable-background="new">
<path transform="matrix(1,0,0,-1,.199,167.816)" stroke-width=".19925" stroke-linecap="butt" stroke-miterlimit="10" stroke-linejoin="miter" fill="none" stroke="#808080" d="M 0 79.27469 L 0 82.1095 M 6.47552 79.27469 L 6.47552 82.1095 M 12.95107 79.27469 L 12.95107 82.1095 M 25.90213 79.27469 L 25.90213 82.1095 M 32.37767 79.27469 L 32.37767 82.1095 M 38.8532 79.27469 L 38.8532 82.1095 M 45.32874 79.27469 L 45.32874 82.1095 M 51.80428 79.27469 L 51.80428 82.1095 M 64.75534 79.27469 L 64.75534 82.1095 M 71.23088 79.27469 L 71.23088 82.1095 M 77.7064 79.27469 L 77.7064 82.1095 M 84.18195 79.27469 L 84.18195 82.1095 M 90.65749 79.27469 L 90.65749 82.1095 M 103.60857 79.27469 L 103.60857 82.1095 M 110.0841 79.27469 L 110.0841 82.1095 M 116.55963 79.27469 L 116.55963 82.1095 M 123.03517 79.27469 L 123.03517 82.1095 M 129.51071 79.27469 L 129.51071 82.1095 M 142.46178 79.27469 L 142.46178 82.1095 M 148.93732 79.27469 L 148.93732 82.1095 M 155.41284 79.27469 L 155.41284 82.1095 M 161.88838 79.27469 L 161.88838 82.1095 M 168.36392 79.27469 L 168.36392 82.1095 M 181.31499 79.27469 L 181.31499 82.1095 M 187.79053 79.27469 L 187.79053 82.1095 M 194.26605 79.27469 L 194.26605 82.1095 "/>
<path transform="matrix(1,0,0,-1,.199,167.816)" stroke-width=".19925" stroke-linecap="butt" stroke-miterlimit="10" stroke-linejoin="miter" fill="none" stroke="#808080" d="M 19.4266 78.56621 L 19.4266 82.81796 M 58.27982 78.56621 L 58.27982 82.81796 M 135.98625 78.56621 L 135.98625 82.81796 M 174.83946 78.56621 L 174.83946 82.81796 "/>
<path transform="matrix(1,0,0,-1,.199,167.816)" stroke-width=".19925" stroke-linecap="butt" stroke-miterlimit="10" stroke-linejoin="miter" fill="none" stroke="#808080" d="M 95.71562 0 L 98.55045 0 M 95.71562 5.37946 L 98.55045 5.37946 M 95.71562 10.75894 L 98.55045 10.75894 M 95.71562 21.51788 L 98.55045 21.51788 M 95.71562 26.89735 L 98.55045 26.89735 M 95.71562 32.27682 L 98.55045 32.27682 M 95.71562 37.6563 L 98.55045 37.6563 M 95.71562 43.03578 L 98.55045 43.03578 M 95.71562 53.79472 L 98.55045 53.79472 M 95.71562 59.1742 L 98.55045 59.1742 M 95.71562 64.55367 L 98.55045 64.55367 M 95.71562 69.93314 L 98.55045 69.93314 M 95.71562 75.31262 L 98.55045 75.31262 M 95.71562 86.07156 L 98.55045 86.07156 M 95.71562 91.45103 L 98.55045 91.45103 M 95.71562 96.8305 L 98.55045 96.8305 M 95.71562 102.20998 L 98.55045 102.20998 M 95.71562 107.58946 L 98.55045 107.58946 M 95.71562 118.3484 L 98.55045 118.3484 M 95.71562 123.72787 L 98.55045 123.72787 M 95.71562 129.10735 L 98.55045 129.10735 M 95.71562 134.48682 L 98.55045 134.48682 M 95.71562 139.8663 L 98.55045 139.8663 M 95.71562 150.62525 L 98.55045 150.62525 M 95.71562 156.00472 L 98.55045 156.00472 M 95.71562 161.38419 L 98.55045 161.38419 "/>
<path transform="matrix(1,0,0,-1,.199,167.816)" stroke-width=".19925" stroke-linecap="butt" stroke-miterlimit="10" stroke-linejoin="miter" fill="none" stroke="#808080" d="M 95.00711 16.13841 L 99.25894 16.13841 M 95.00711 48.41525 L 99.25894 48.41525 M 95.00711 112.96893 L 99.25894 112.96893 M 95.00711 145.24578 L 99.25894 145.24578 "/>
<path transform="matrix(1,0,0,-1,.199,167.816)" stroke-width=".3985" stroke-linecap="butt" stroke-miterlimit="10" stroke-linejoin="miter" fill="none" stroke="#000000" d="M 0 80.6921 L 192.27355 80.6921 "/>
<path transform="matrix(1,0,0,-1,192.47255,87.12389)" d="M 1.99252 0 L -1.19551 1.59401 L 0 0 L -1.19551 -1.59401 "/>
<path transform="matrix(1,0,0,-1,.199,167.816)" stroke-width=".3985" stroke-linecap="butt" stroke-miterlimit="10" stroke-linejoin="miter" fill="none" stroke="#000000" d="M 97.13303 0 L 97.13303 159.39168 "/>
<path transform="matrix(0,-1,-1,-0,97.33203,8.424316)" d="M 1.99252 0 L -1.19551 1.59401 L 0 0 L -1.19551 -1.59401 "/>
<symbol id="font_0_1">
<path d="M .57600006 0 C .59300008 0 .611 0 .611 .019999996 C .611 .040000008 .59300008 .040000008 .57600006 .040000008 L .035000005 .040000008 C .018 .040000008 0 .040000008 0 .019999996 C 0 0 .018 0 .035000005 0 L .57600006 0 Z "/>
</symbol>
<use xlink:href="#font_0_1" transform="matrix(9.9626,0,0,-9.9626,14.087896,96.89959)"/>
<symbol id="font_1_2">
<path d="M .266 .165 L .266 .078 C .266 .042000005 .26400004 .031000002 .19000001 .031000002 L .16900002 .031000002 L .16900002 0 C .21000001 .003 .26200003 .003 .30400003 .003 C .34600003 .003 .39900003 .003 .44000004 0 L .44000004 .031000002 L .41900004 .031000002 C .34500004 .031000002 .34300003 .042000005 .34300003 .078 L .34300003 .165 L .44300003 .165 L .44300003 .19600001 L .34300003 .19600001 L .34300003 .651 C .34300003 .671 .34300003 .67700007 .32700003 .67700007 C .31800003 .67700007 .31500004 .67700007 .307 .665 L 0 .19600001 L 0 .165 L .266 .165 M .272 .19600001 L .028 .19600001 L .272 .569 L .272 .19600001 Z "/>
</symbol>
<use xlink:href="#font_1_2" transform="matrix(9.9626,0,0,-9.9626,21.287953,99.19099)"/>
<use xlink:href="#font_0_1" transform="matrix(9.9626,0,0,-9.9626,52.9399,96.89959)"/>
<symbol id="font_1_1">
<path d="M .07700001 .07700001 L .18300002 .18 C .33900003 .31800003 .39900003 .372 .39900003 .47200004 C .39900003 .586 .30900003 .666 .18700002 .666 C .074 .666 0 .574 0 .485 C 0 .42900003 .05 .42900003 .053000008 .42900003 C .07000001 .42900003 .105000007 .441 .105000007 .48200003 C .105000007 .508 .08700001 .53400006 .052000006 .53400006 C .044000005 .53400006 .042000008 .53400006 .039 .53300008 C .062000004 .59800007 .11600001 .63500007 .17400001 .63500007 C .26500003 .63500007 .308 .554 .308 .47200004 C .308 .39200003 .25800003 .31300003 .20300003 .25100003 L .011000004 .037 C 0 .026 0 .024 0 0 L .37100003 0 L .39900003 .17400001 L .374 .17400001 C .36900003 .14400001 .36200003 .1 .352 .085 C .345 .07700001 .279 .07700001 .257 .07700001 L .07700001 .07700001 Z "/>
</symbol>
<use xlink:href="#font_1_1" transform="matrix(9.9626,0,0,-9.9626,60.360136,99.19099)"/>
<use xlink:href="#font_1_1" transform="matrix(9.9626,0,0,-9.9626,134.19113,99.19099)"/>
<use xlink:href="#font_1_2" transform="matrix(9.9626,0,0,-9.9626,172.82495,99.19099)"/>
<use xlink:href="#font_0_1" transform="matrix(9.9626,0,0,-9.9626,79.78189,152.1816)"/>
<use xlink:href="#font_1_2" transform="matrix(9.9626,0,0,-9.9626,86.98295,154.47299)"/>
<use xlink:href="#font_0_1" transform="matrix(9.9626,0,0,-9.9626,79.78189,119.9046)"/>
<use xlink:href="#font_1_1" transform="matrix(9.9626,0,0,-9.9626,87.202129,122.196)"/>
<use xlink:href="#font_1_1" transform="matrix(9.9626,0,0,-9.9626,87.202129,58.058984)"/>
<use xlink:href="#font_1_2" transform="matrix(9.9626,0,0,-9.9626,86.98295,25.781998)"/>
<clipPath id="cp2">
<path transform="matrix(1,0,0,-1,.199,167.816)" d="M 0 0 L 194.26607 0 L 194.26607 161.3842 L 0 161.3842 Z "/>
</clipPath>
<g clip-path="url(#cp2)">
<path transform="matrix(1,0,0,-1,.199,167.816)" stroke-width=".3985" stroke-linecap="butt" stroke-miterlimit="10" stroke-linejoin="miter" fill="none" stroke="#000000" d="M 29.13991 97.67471 L 29.5947 96.60861 L 30.0495 95.53378 L 30.5043 94.45073 L 30.95909 93.36041 L 31.41391 92.26236 L 31.8687 91.15945 L 32.3235 90.05075 L 32.7783 88.93575 L 33.23311 87.81688 L 33.68791 86.69363 L 34.14272 85.5675 L 34.5975 84.43846 L 35.05232 83.30748 L 35.50711 82.17554 L 35.96191 81.04213 L 36.41672 79.90921 L 36.87152 78.77629 L 37.32632 77.64531 L 37.78111 76.51433 L 38.23592 75.38722 L 38.69073 74.26108 L 39.14552 73.1398 L 39.60033 72.02284 L 40.05513 70.91028 L 40.50993 69.80301 L 40.96474 68.70206 L 41.41953 67.60738 L 41.87433 66.519 L 42.32915 65.43983 L 42.78394 64.36792 L 43.23874 63.30519 L 43.69353 62.25266 L 44.14835 61.20978 L 44.60315 60.17757 L 45.05794 59.1565 L 45.51274 58.148 L 45.96754 57.15018 L 46.42235 56.16685 L 46.87715 55.19661 L 47.33194 54.23946 L 47.78674 53.29825 L 48.24156 52.37158 L 48.69635 51.45943 L 49.15115 50.56473 L 49.60594 49.68501 L 50.06076 48.82274 L 50.51556 47.97935 L 50.97035 47.1524 L 51.42516 46.34436 L 51.87996 45.55615 L 52.33476 44.78539 L 52.78957 44.03496 L 53.24435 43.30582 L 53.69917 42.59412 L 54.15398 41.90565 L 54.60876 41.2385 L 55.06357 40.59166 L 55.51837 39.96808 L 55.97318 39.36676 L 56.42798 38.78674 L 56.88277 38.2319 L 57.33759 37.69836 L 57.79237 37.18903 L 58.24718 36.7044 L 58.70198 36.243 L 59.15678 35.80437 L 59.61159 35.3938 L 60.06639 35.00598 L 60.52118 34.64142 L 60.97598 34.30687 L 61.43079 33.99509 L 61.88559 33.70653 L 62.3404 33.44849 L 62.79518 33.21269 L 63.25 33.00356 L 63.70479 32.82295 L 64.15959 32.66559 L 64.6144 32.53535 L 65.0692 32.4332 L 65.524 32.35574 L 65.9788 32.30492 L 66.4336 32.28117 L 66.88841 32.28262 L 67.3432 32.31216 L 67.798 32.36833 L 68.2528 32.45064 L 68.70761 32.55812 L 69.16241 32.69415 L 69.6172 32.85442 L 70.072 33.04227 L 70.52682 33.25578 L 70.98161 33.49495 L 71.43642 33.7593 L 71.8912 34.05222 L 72.34602 34.36836 L 72.80083 34.71019 L 73.25562 35.07765 L 73.71042 35.46884 L 74.16524 35.88715 L 74.62003 36.32918 L 75.07483 36.79347 L 75.52962 37.2849 L 75.98442 37.7981 L 76.43924 38.33453 L 76.89403 38.89615 L 77.34883 39.47955 L 77.80362 40.08475 L 78.25844 40.71367 L 78.71324 41.3634 L 79.16803 42.03444 L 79.62285 42.72871 L 80.07765 43.44235 L 80.53244 44.17535 L 80.98726 44.9311 L 81.44205 45.70432 L 81.89685 46.49591 L 82.35165 47.3083 L 82.80646 48.13863 L 83.26126 48.98541 L 83.71605 49.85156 L 84.17087 50.7332 L 84.62567 51.63081 L 85.08046 52.54684 L 85.53528 53.47641 L 85.99008 54.4205 L 86.44487 55.3801 L 86.89967 56.35277 L 87.35448 57.33899 L 87.80928 58.33876 L 88.26408 59.35016 L 88.71889 60.37221 L 89.17369 61.40732 L 89.62848 62.45212 L 90.0833 63.50612 L 90.5381 64.57077 L 90.99289 65.64366 L 91.4477 66.72525 L 91.9025 67.81459 L 92.3573 68.91023 L 92.8121 70.01312 L 93.2669 71.12135 L 93.72171 72.23491 L 94.17651 73.35329 L 94.63132 74.47557 L 95.08612 75.60123 L 95.54091 76.72931 L 95.99573 77.86029 L 96.45053 78.99222 L 96.90532 80.12466 L 97.36012 81.25806 L 97.81493 82.39049 L 98.26973 83.52245 L 98.72453 84.65343 L 99.17934 85.7815 L 99.63414 86.90715 L 100.08894 88.02942 L 100.54375 89.14781 L 100.99855 90.26135 L 101.45334 91.36958 L 101.90814 92.47249 L 102.36296 93.56813 L 102.81775 94.65747 L 103.27255 95.73906 L 103.72736 96.81195 L 104.18216 97.87564 L 104.63696 98.9306 L 105.09177 99.97588 L 105.54657 101.01004 L 106.00137 102.03258 L 106.45616 103.04396 L 106.91098 104.04373 L 107.36577 105.02995 L 107.82057 106.00261 L 108.27539 106.96317 L 108.73018 107.90727 L 109.18498 108.83635 L 109.63979 109.75189 L 110.09459 110.64952 L 110.5494 111.53163 L 111.00418 112.39828 L 111.459 113.24457 L 111.91379 114.0744 L 112.36859 114.88681 L 112.82341 115.6789 L 113.2782 116.45256 L 113.733 117.20833 L 114.18782 117.94037 L 114.64261 118.6545 L 115.09741 119.34924 L 115.5522 120.01932 L 116.00702 120.67001 L 116.46182 121.29942 L 116.91661 121.90364 L 117.37143 122.48753 L 117.82622 123.04865 L 118.28102 123.5851 L 118.73582 124.09879 L 119.19063 124.59021 L 119.64543 125.0545 L 120.10023 125.49702 L 120.55502 125.91437 L 121.00984 126.30605 L 121.46463 126.674 L 121.91943 127.01532 L 122.37424 127.33195 L 122.82904 127.62341 L 123.28384 127.88922 L 123.73863 128.1279 L 124.19344 128.3419 L 124.64825 128.52976 L 125.10304 128.69002 L 125.55785 128.82605 L 126.01265 128.93305 L 126.46744 129.01535 L 126.92226 129.072 L 127.37704 129.10155 L 127.83185 129.103 L 128.28665 129.07926 L 128.74146 129.02892 L 129.19626 128.95098 L 129.65105 128.84882 L 130.10585 128.71858 L 130.56067 128.56218 L 131.01546 128.38112 L 131.47026 128.17052 L 131.92505 127.9357 L 132.37987 127.67764 L 132.83467 127.39053 L 133.28946 127.07779 L 133.74427 126.74275 L 134.19908 126.37915 L 134.65387 125.99037 L 135.10868 125.57982 L 135.56346 125.14166 L 136.01828 124.68074 L 136.47309 124.19609 L 136.92787 123.6858 L 137.38268 123.15276 L 137.83748 122.59792 L 138.29228 122.01741 L 138.74709 121.41707 L 139.20188 120.79349 L 139.6567 120.14616 L 140.1115 119.47997 L 140.56629 118.79053 L 141.02109 118.0798 L 141.47588 117.35066 L 141.9307 116.59926 L 142.3855 115.82945 L 142.84029 115.04079 L 143.29509 114.23225 L 143.7499 113.40579 L 144.2047 112.56192 L 144.6595 111.70013 L 145.11429 110.81993 L 145.5691 109.9262 L 146.02391 109.01405 L 146.4787 108.0869 L 146.9335 107.1457 L 147.3883 106.1895 L 147.84311 105.21829 L 148.29792 104.23546 L 148.7527 103.2381 L 149.20752 102.22816 L 149.66231 101.20901 L 150.11711 100.17633 L 150.57192 99.132 L 151.02672 98.08041 L 151.48152 97.01772 L 151.93631 95.94676 L 152.39112 94.86758 L 152.84593 93.77873 L 153.30072 92.68358 L 153.75553 91.58212 L 154.21033 90.47536 L 154.66513 89.36325 L 155.11994 88.24583 L 155.57472 87.12454 L 156.02953 85.99936 L 156.48435 84.87129 L 156.93914 83.74078 L 157.39394 82.60837 L 157.84873 81.47641 L 158.30353 80.34349 L 158.75835 79.2101 L 159.21314 78.07814 L 159.66794 76.94716 L 160.12274 75.81862 L 160.57755 74.69199 L 161.03235 73.56876 L 161.48714 72.45036 L 161.94194 71.33585 L 162.39676 70.22664 L 162.85155 69.12325 L 163.30635 68.0247 L 163.76114 66.93489 L 164.21596 65.85185 L 164.67076 64.77702 L 165.12555 63.71188 "/>
<path transform="matrix(1,0,0,-1,.199,167.816)" d="M 31.25334 96.83052 C 31.25334 97.99774 30.30713 98.94395 29.13991 98.94395 C 27.97269 98.94395 27.02646 97.99774 27.02646 96.83052 C 27.02646 95.66328 27.97269 94.71707 29.13991 94.71707 C 30.30713 94.71707 31.25334 95.66328 31.25334 96.83052 Z M 29.13991 96.83052 "/>
<symbol id="font_3_1">
<path d="M .482 .693 C .47900004 .712 .47800005 .716 .462 .716 C .44700004 .716 .44300003 .712 .435 .69600006 L .12900001 .09900001 C .10700001 .057000005 .072 .031000002 .004999999 .031000002 C .0029999987 .021000002 .0020000004 .010000001 0 0 C .021000002 .001 .062000004 .003 .102 .003 C .12200001 .003 .18800001 .001 .216 0 L .222 .030000002 C .213 .030000002 .155 .034 .155 .076000008 C .155 .08400001 .155 .086 .168 .112 C .18800001 .15100001 .21200001 .2 .22800002 .22800002 L .47500003 .22800002 L .50200006 .079 C .503 .076000008 .504 .067 .504 .064 C .504 .031000002 .44000004 .031000002 .41500003 .031000002 C .414 .023000002 .411 .009000001 .41000004 0 C .44500003 .003 .51600006 .003 .554 .003 C .597 .003 .643 .002 .685 0 C .68600007 .009000001 .689 .023000002 .69000008 .031000002 L .674 .031000002 C .602 .031000002 .6 .041 .59400007 .075 L .482 .693 M .411 .58400008 L .46900005 .259 L .24400002 .259 L .411 .58400008 Z "/>
</symbol>
<use xlink:href="#font_3_1" transform="matrix(9.9626,0,0,-9.9626,16.352805,74.389987)"/>
<path transform="matrix(1,0,0,-1,.199,167.816)" d="M 68.94096 32.27684 C 68.94096 33.44406 67.99475 34.39027 66.82753 34.39027 C 65.66031 34.39027 64.71408 33.44406 64.71408 32.27684 C 64.71408 31.1096 65.66031 30.16339 66.82753 30.16339 C 67.99475 30.16339 68.94096 31.1096 68.94096 32.27684 Z M 66.82753 32.27684 "/>
<symbol id="font_3_2">
<path d="M .11400001 .683 L .10900001 .652 C .12300001 .652 .15200001 .652 .16800002 .651 C .19000001 .648 .20600002 .646 .20600002 .624 C .20600002 .61700007 .20400001 .60800006 .20300001 .6 L .11500001 .075 C .111 .051000004 .10800001 .039 .07800001 .034 C .059000005 .031000002 .025000003 .031000002 .004999999 .031000002 L 0 0 L .391 0 C .538 0 .647 .106000009 .647 .20500002 C .647 .294 .568 .34800003 .481 .35700003 C .582 .37600003 .675 .44500003 .675 .53400006 C .675 .61600008 .59900006 .683 .477 .683 L .11400001 .683 M .24700003 .36600004 L .289 .615 C .294 .64400008 .29500003 .652 .345 .652 L .46500004 .652 C .56200006 .652 .578 .57500007 .578 .53900006 C .578 .45700003 .507 .36600004 .39000003 .36600004 L .24700003 .36600004 M .24200003 .031000002 C .214 .031000002 .19500001 .031000002 .19500001 .052 C .19500001 .055000005 .19500001 .057000005 .19800002 .072000008 L .244 .344 L .42900003 .344 C .531 .344 .54800006 .25500003 .54800006 .215 C .54800006 .123 .47500003 .031000002 .363 .031000002 L .24200003 .031000002 Z "/>
</symbol>
<use xlink:href="#font_3_2" transform="matrix(9.9626,0,0,-9.9626,63.855657,148.18)"/>
<path transform="matrix(1,0,0,-1,.199,167.816)" d="M 99.24648 80.6921 C 99.24648 81.85931 98.30026 82.80553 97.13303 82.80553 C 95.9658 82.80553 95.01959 81.85931 95.01959 80.6921 C 95.01959 79.52487 95.9658 78.57866 97.13303 78.57866 C 98.30026 78.57866 99.24648 79.52487 99.24648 80.6921 Z M 97.13303 80.6921 "/>
<symbol id="font_3_3">
<path d="M .67300006 .716 C .67300006 .72400006 .66700008 .72700008 .6610001 .72700008 C .65700009 .72700008 .65400007 .725 .65200009 .72200009 C .65000006 .7210001 .6470001 .716 .64500007 .71400007 L .5910001 .65200009 C .58300009 .64400008 .58300009 .64300009 .5820001 .64300009 C .58100005 .64300009 .58000007 .64400008 .5730001 .651 C .52800008 .7070001 .47100006 .72700008 .41100005 .72700008 C .20500002 .72700008 0 .53200009 0 .30300004 C 0 .120000008 .13300002 0 .294 0 C .37 0 .44000004 .031000004 .49500004 .080000009 C .58500006 .16100002 .59700009 .26000003 .59700009 .261 C .59700009 .27100004 .59000006 .272 .58500006 .272 C .5820001 .272 .57400009 .272 .572 .263 C .56500008 .23300001 .549 .15900001 .47800002 .09900001 C .418 .048 .361 .031000004 .30900003 .031000004 C .21900001 .031000004 .099000018 .087000008 .099000018 .268 C .099000018 .28200004 .099000018 .44900004 .19 .573 C .238 .6380001 .326 .69600006 .42100004 .69600006 C .54100009 .69600006 .59900006 .58800008 .59900006 .47700004 C .59900006 .46900005 .59800007 .46100004 .59800007 .45200003 C .59900006 .44200004 .60700008 .44200004 .61300006 .44200004 C .61500009 .44200004 .623 .44200004 .62700006 .44500003 L .67300006 .716 Z "/>
</symbol>
<use xlink:href="#font_3_3" transform="matrix(9.9626,0,0,-9.9626,86.05695,82.18916)"/>
<path transform="matrix(1,0,0,-1,.199,167.816)" d="M 129.55199 129.10736 C 129.55199 130.27458 128.60576 131.2208 127.43854 131.2208 C 126.27132 131.2208 125.3251 130.27458 125.3251 129.10736 C 125.3251 127.94012 126.27132 126.99391 127.43854 126.99391 C 128.60576 126.99391 129.55199 127.94012 129.55199 129.10736 Z M 127.43854 129.10736 "/>
<symbol id="font_3_4">
<path d="M .11400001 .683 L .10900001 .652 C .12300001 .652 .15200001 .652 .16800002 .651 C .19000001 .648 .20600002 .646 .20600002 .624 C .20600002 .61700007 .20400001 .60800006 .20300001 .6 L .11500001 .075 C .11100002 .051000004 .10800001 .039 .07800001 .034 C .059000005 .031000002 .025000003 .031000002 .0050000029 .031000002 L 0 0 L .36400003 0 C .555 0 .733 .18300002 .733 .40100003 C .733 .56 .633 .683 .47700004 .683 L .11400001 .683 M .29200004 .615 C .29700003 .64400008 .298 .652 .34800003 .652 L .44500003 .652 C .542 .652 .638 .597 .638 .44200004 C .638 .425 .634 .245 .556 .13900002 C .515 .08400001 .44300003 .031000002 .342 .031000002 L .245 .031000002 C .21700001 .031000002 .19800002 .031000002 .19800002 .052 C .19800002 .055000005 .19800002 .057000005 .20100002 .072000008 L .29200004 .615 Z "/>
</symbol>
<use xlink:href="#font_3_4" transform="matrix(9.9626,0,0,-9.9626,124.179698,32.87799)"/>
<path transform="matrix(1,0,0,-1,.199,167.816)" d="M 167.23961 64.55368 C 167.23961 65.7209 166.29338 66.66711 165.12616 66.66711 C 163.95894 66.66711 163.01273 65.7209 163.01273 64.55368 C 163.01273 63.38644 163.95894 62.44023 165.12616 62.44023 C 166.29338 62.44023 167.23961 63.38644 167.23961 64.55368 Z M 165.12616 64.55368 "/>
<symbol id="font_3_5">
<path d="M .66200008 .25800003 L .637 .25800003 C .58400008 .085 .535 .031000002 .37800003 .031000002 L .24800003 .031000002 C .22000003 .031000002 .201 .031000002 .201 .052 C .201 .055000005 .201 .057000005 .20400003 .072000008 L .24900002 .33800004 L .33600004 .33800004 C .40300004 .33800004 .43300004 .326 .43300004 .273 C .43300004 .25300003 .43000005 .238 .42700003 .22100002 L .45200003 .22100002 L .49600006 .48600004 L .47100003 .48600004 C .45700003 .39000003 .42900003 .36900003 .34200005 .36900003 L .254 .36900003 L .29400004 .611 C .29900003 .643 .30400003 .64900007 .351 .64900007 L .476 .64900007 C .614 .64900007 .64300009 .60700008 .64300009 .49800004 C .64300009 .485 .64300009 .467 .642 .455 L .66700008 .455 L .67600008 .68 L .11300001 .68 L .108 .64900007 L .13 .64900007 C .194 .64900007 .206 .642 .206 .62100008 C .206 .61800006 .206 .61600008 .20400003 .60700008 L .115 .075 C .11000001 .043 .108 .031000002 .027000003 .031000002 L .0050000029 .031000002 C .0030000024 .021000002 .0020000004 .010000001 0 0 L .577 0 L .66200008 .25800003 Z "/>
</symbol>
<use xlink:href="#font_3_5" transform="matrix(9.9626,0,0,-9.9626,162.26177,115.903)"/>
</g>
<symbol id="font_4_1">
<path d="M .305 .31300003 C .311 .33900003 .334 .43100003 .404 .43100003 C .409 .43100003 .433 .43100003 .454 .418 C .426 .41300003 .40600003 .388 .40600003 .36400003 C .40600003 .34800003 .417 .32900004 .444 .32900004 C .46600003 .32900004 .498 .34700004 .498 .38700003 C .498 .43900005 .439 .45300005 .405 .45300005 C .347 .45300005 .312 .40000005 .3 .37700004 C .275 .44300003 .221 .45300005 .19200002 .45300005 C .08800001 .45300005 .031000002 .32400004 .031000002 .29900003 C .031000002 .28900004 .041 .28900004 .043000007 .28900004 C .051000008 .28900004 .054000006 .291 .056 .3 C .09 .40600003 .156 .43100003 .19000001 .43100003 C .209 .43100003 .244 .42200003 .244 .36400003 C .244 .33300004 .22700002 .26600004 .19000001 .126 C .17400001 .064 .13900002 .022000002 .095000009 .022000002 C .08900001 .022000002 .06600001 .022000002 .045 .035 C .07000001 .040000004 .09200001 .061 .09200001 .089 C .09200001 .116000007 .07000001 .124000009 .055000009 .124000009 C .025 .124000009 0 .098000008 0 .06600001 C 0 .020000002 .050000006 0 .094000007 0 C .16000001 0 .19600001 .07000001 .19900002 .076000008 C .21100001 .039 .24700003 0 .307 0 C .41 0 .467 .12900001 .467 .15400002 C .467 .16400002 .458 .16400002 .455 .16400002 C .446 .16400002 .444 .16000001 .442 .15300001 C .409 .046 .341 .022000002 .30900003 .022000002 C .27 .022000002 .254 .054 .254 .08800001 C .254 .11000001 .26 .13200002 .271 .17600002 L .305 .31300003 Z "/>
</symbol>
<use xlink:href="#font_4_1" transform="matrix(9.9626,0,0,-9.9626,191.90493,83.714588)"/>
<symbol id="font_4_2">
<path d="M .45700003 .586 C .461 .6 .461 .602 .461 .609 C .461 .62700006 .447 .63600006 .432 .63600006 C .42200003 .63600006 .40600003 .63 .397 .615 C .395 .61 .387 .579 .38300003 .561 C .37600003 .535 .36900003 .508 .363 .48100005 L .318 .301 C .314 .286 .271 .21600002 .20500002 .21600002 C .15400002 .21600002 .143 .26000003 .143 .29700003 C .143 .34300003 .16000001 .40500004 .194 .49300004 C .21000001 .53400006 .21400002 .545 .21400002 .56500008 C .21400002 .61 .18200001 .6470001 .13200002 .6470001 C .037 .6470001 0 .50200006 0 .49300004 C 0 .48300005 .01 .48300005 .012 .48300005 C .022000002 .48300005 .023 .485 .028000003 .50100007 C .055000009 .595 .095000009 .625 .12900001 .625 C .13700001 .625 .15400002 .625 .15400002 .59300008 C .15400002 .568 .14400001 .54200008 .13700001 .523 C .097 .41700004 .079 .36 .079 .31300003 C .079 .224 .142 .194 .201 .194 C .24000003 .194 .274 .21100001 .30200003 .23900002 C .289 .187 .277 .13800001 .237 .08500001 C .21100001 .051 .17300001 .022 .127 .022 C .113000009 .022 .068 .025000006 .051000008 .06400001 C .067 .06400001 .080000009 .06400001 .094000007 .076000008 C .104 .08500001 .11400001 .098000008 .11400001 .117000009 C .11400001 .148 .087000008 .15200001 .07700001 .15200001 C .054000006 .15200001 .021 .136 .021 .087000008 C .021 .037 .065000008 0 .127 0 C .23 0 .333 .091000009 .361 .20400001 L .45700003 .586 Z "/>
</symbol>
<use xlink:href="#font_4_2" transform="matrix(9.9626,0,0,-9.9626,101.139919,9.652334)"/>
</g>
</svg>
